<svg id="Diseño" xmlns="http://www.w3.org/2000/svg" viewBox="0 0 169.83 122.3"><defs><style>.cls-1{fill:#dc0d15;}.cls-2{fill:#fff;}</style></defs><path class="cls-1" d="M0,0V48.54c0,98.35,169.83,98.35,169.83,0V0Z"/><path class="cls-2" d="M49.29,47a3.7,3.7,0,0,1-2.94-1,3.92,3.92,0,0,1-.49-3.39c.57-2.75,3-6.85,7.24-6.85a2.85,2.85,0,0,1,2.3.87,3.38,3.38,0,0,1,.49,2.92C54.44,46.59,50.13,47,49.29,47m3.92-14c-5.75,0-12.07,3.44-13.24,9.24-1.24,6.2,4.28,7.53,7.82,7.57,8,.1,12.81-4.67,13.92-9.52,1.07-4.67-3.05-7.29-8.5-7.29"/><path class="cls-2" d="M105.68,41.61c-3,.31-4.12,1.09-4.38,2.53-.2,1.16.55,2.24,3.34,2.12a12.14,12.14,0,0,0,4.66-1.1l1.39-3.63a28.8,28.8,0,0,0-5,.08m-4.46-8.16a41.18,41.18,0,0,1,7.86-.7c6.12,0,9.87,2,8.12,6.6-.76,2-1.54,4-2.21,5.78-.93,2.43-.73,3.36-.53,4.22a13.09,13.09,0,0,0-4.44-.44c-2.69.08-3.85.76-8.24.76-4.76,0-6.5-2.35-6.32-4.85a5.9,5.9,0,0,1,4.11-5.17,17.86,17.86,0,0,1,5.45-1.1,45.79,45.79,0,0,1,6.82,0c.25-.82.61-2.49-3.42-2.51a28.61,28.61,0,0,0-8.63,1.14Z"/><path class="cls-2" d="M81.39,46.54c-3.32,0-3-3.23-1.85-5.75A8.05,8.05,0,0,1,86,36a4.61,4.61,0,0,1,3.58,1.07c-2.25,8.76-6.81,9.45-8.16,9.45M93.93,33.72c-2.93,0-3.06-.8-7.81-.8-6.82,0-12.43,5-13.23,10.57a5.25,5.25,0,0,0,1.24,4.41,6.22,6.22,0,0,0,4.49,1.67,12.57,12.57,0,0,0,7.72-2c-1.42,4.21-6.26,5.09-9.51,5.07a11.28,11.28,0,0,1-4.7-.74L70.7,55.46a22.9,22.9,0,0,0,5.26.63c8,0,13.11-2.85,15.24-8.47l5.45-14.34a13.19,13.19,0,0,1-2.72.44"/><path class="cls-2" d="M38,44.72A15.61,15.61,0,0,1,32.49,46c-5.36,0-7-3.25-6.44-6.42.94-5.22,6-9.19,12-9.19a12.91,12.91,0,0,1,5,1l1.74-3.4a14.11,14.11,0,0,0-5.5-1.09c-9.55,0-18.48,5.45-19.74,12.7-1.12,6.4,4.41,10,11.2,10a25,25,0,0,0,5.52-.69Z"/><path class="cls-2" d="M129.28,32.79l1.2-3.21-6,1-.83,2.17h-2.66l-1,2.65h2.64l-3.18,7.87c-.81,2-.86,3.46-.13,4.46s2.13,1.47,4.33,1.47a18.5,18.5,0,0,0,4.2-.6l1.28-3.1h0a9.46,9.46,0,0,1-2.86.64,1.46,1.46,0,0,1-1.33-.46c-.36-.47-.26-1.42.25-2.71,0,0,2.63-6.45,3.08-7.57h4l1-2.65Z"/><path class="cls-2" d="M143.44,35.54a2.58,2.58,0,0,1,2.16.78,3.17,3.17,0,0,1,.07,2.89h-7.42a5.27,5.27,0,0,1,5.19-3.67m4.34,10.14h0a16.38,16.38,0,0,1-6.17,1.2,4.58,4.58,0,0,1-3.69-1.51,3.64,3.64,0,0,1-.53-3.34h13.05l.06-.17c1-2.84.89-5.31-.37-7-1.14-1.49-3.15-2.25-5.92-2.25-6.17,0-11.43,3.44-12.8,8.36a6.72,6.72,0,0,0,1,6.31c1.5,1.81,4.13,2.81,7.4,2.81a22.66,22.66,0,0,0,6.23-1Z"/><path class="cls-2" d="M143.44,35.54a2.58,2.58,0,0,1,2.16.78,3.17,3.17,0,0,1,.07,2.89h-7.42a5.27,5.27,0,0,1,5.19-3.67m4.34,10.14h0a16.38,16.38,0,0,1-6.17,1.2,4.58,4.58,0,0,1-3.69-1.51,3.64,3.64,0,0,1-.53-3.34h13.05l.06-.17c1-2.84.89-5.31-.37-7-1.14-1.49-3.15-2.25-5.92-2.25-6.17,0-11.43,3.44-12.8,8.36a6.72,6.72,0,0,0,1,6.31c1.5,1.81,4.13,2.81,7.4,2.81a22.66,22.66,0,0,0,6.23-1Z"/><path class="cls-2" d="M153.27,31.81h.2c.23,0,.4-.11.4-.26s-.16-.27-.37-.27h-.23Zm0,1.24h-.67V30.88a5.21,5.21,0,0,1,.95-.08,1.53,1.53,0,0,1,.88.17.59.59,0,0,1,.23.48c0,.22-.21.41-.51.49v0a.63.63,0,0,1,.45.56,2.52,2.52,0,0,0,.15.52H154a1.23,1.23,0,0,1-.15-.46c0-.22-.14-.33-.36-.33h-.22Zm.27-2.88a1.77,1.77,0,1,0,1.73,1.76,1.7,1.7,0,0,0-1.73-1.76Zm.06-.59a2.36,2.36,0,1,1-2.46,2.35,2.37,2.37,0,0,1,2.46-2.35Z"/><polygon class="cls-2" points="69.86 27.28 61.31 49.35 66.98 49.35 75.54 27.28 69.86 27.28"/><path class="cls-2" d="M121.11,56.9h0a51.71,51.71,0,0,1-16,12.36,43.62,43.62,0,0,1-38.37,0,51.52,51.52,0,0,1-16-12.36l-1.63,4.2A44.38,44.38,0,0,0,122.69,61Z"/></svg>