<svg id="Diseño" xmlns="http://www.w3.org/2000/svg" xmlns:xlink="http://www.w3.org/1999/xlink" viewBox="0 0 307.82 231.71"><defs><style>.cls-1,.cls-10,.cls-33,.cls-34,.cls-5,.cls-9{fill:none;}.cls-2{fill:#676767;}.cls-3{fill:#b31a1e;}.cls-4{fill:#474544;}.cls-5{stroke:#8f201c;}.cls-10,.cls-34,.cls-5,.cls-9{stroke-miterlimit:10;}.cls-6{fill:#82beb6;}.cls-7{fill:#87868b;}.cls-8{fill:#fff;}.cls-9{stroke:#b31a1e;stroke-width:4px;stroke-dasharray:0 6;}.cls-33,.cls-9{stroke-linecap:round;}.cls-10{stroke:#579fa7;}.cls-11{fill:#579fa7;}.cls-12{clip-path:url(#clip-path);}.cls-13{fill:#4f4e4e;}.cls-14{fill:#cecccb;}.cls-15{fill:url(#Degradado_sin_nombre_13);}.cls-16{fill:#483e3e;}.cls-17{fill:#a9a4a3;}.cls-18{fill:#97cad2;}.cls-19{fill:#010101;}.cls-20{fill:#f29aa2;}.cls-21{fill:#ef808a;}.cls-22{fill:#faf8f9;}.cls-23{fill:#f299a2;}.cls-24{fill:#efedef;}.cls-25{fill:#efedee;}.cls-26{fill:#e4e0e4;}.cls-27{fill:#e5ae97;}.cls-28{fill:#2d2d2e;}.cls-29{fill:#2e4448;}.cls-30{fill:#e1e1de;}.cls-31{fill:#4e2e16;}.cls-32{fill:#a7c2d6;}.cls-33{stroke:#a7c2d6;stroke-linejoin:round;}.cls-33,.cls-34{stroke-width:0.5px;}.cls-34{stroke:#88bcb4;}.cls-35{fill:#6ba199;}.cls-36{fill:#68889a;}.cls-37{fill:#5d8881;}.cls-38{fill:#1a293b;}.cls-39{fill:#214566;}.cls-40{fill:#404041;}.cls-41{fill:#549aa3;}.cls-42{fill:#18283a;}.cls-43{fill:#18293b;}.cls-44{fill:#f2d6c4;}.cls-45{fill:#d05771;}.cls-46{fill:#f5dac8;}.cls-47{fill:#d4728b;}.cls-48{fill:#4c949d;}.cls-49{fill:#8c2826;}.cls-50{fill:#c31921;}.cls-51{fill:#97191e;}.cls-52{fill:#5a6598;}.cls-53{fill:#7183b1;}.cls-54{fill:#e6ebf7;}.cls-55{fill:#c3cdea;}.cls-56{fill:#c2cce9;}.cls-57{fill:#98a8d0;}.cls-58{fill:#7477b6;}.cls-59{fill:#5969ae;}.cls-60{fill:#48519d;}.cls-61{fill:#ecedf3;}.cls-62{fill:#ececf2;}.cls-63{fill:#919bcb;}.cls-64{fill:#8f99c9;}.cls-65{fill:#feffff;}</style><clipPath id="clip-path"><path class="cls-1" d="M299.09,104.44c0,.5,6.21.89,6.25,1.44.72,11.45,2.27,34.18-2.89,42.28C300,152,289,150.9,283.24,151c-.92,0-2.34-5.83-2.88-5.35a54.77,54.77,0,1,1,18.73-41.25Z"/></clipPath><linearGradient id="Degradado_sin_nombre_13" x1="197.15" y1="121.26" x2="253.93" y2="121.26" gradientUnits="userSpaceOnUse"><stop offset="0" stop-color="#e8e8e6"/><stop offset="1" stop-color="#7f7a7a"/></linearGradient></defs><path class="cls-2" d="M23.12,32.14h4.8l-.32.71H23.93v2.82h3.19l0,.71H23.93v2.55h4l-.32.71H23.12Z"/><path class="cls-2" d="M29.07,33.85h.72l.07.53a4,4,0,0,1,1-.46,3.59,3.59,0,0,1,1.1-.17,1.93,1.93,0,0,1,1.5.53,1.51,1.51,0,0,1,.35.6,2.79,2.79,0,0,1,.12.88v3.88h-.8V35.83a1.6,1.6,0,0,0-.28-1,.88.88,0,0,0-.41-.3,1.67,1.67,0,0,0-.65-.1,3.23,3.23,0,0,0-1,.17,4,4,0,0,0-.93.46v4.61h-.8Z"/><path class="cls-2" d="M33.76,42.11l.05-.62a2.37,2.37,0,0,0,.85.15.9.9,0,0,0,.83-.39A2.53,2.53,0,0,0,35.73,40V33.85h.8v6.08a3,3,0,0,1-.43,1.78,1.53,1.53,0,0,1-1.34.58A2.55,2.55,0,0,1,33.76,42.11Zm1.91-9.43a.56.56,0,0,1-.19-.44.58.58,0,0,1,.19-.45.64.64,0,0,1,.45-.17.68.68,0,0,1,.45.17.58.58,0,0,1,.19.45.56.56,0,0,1-.19.44.64.64,0,0,1-.45.18A.61.61,0,0,1,35.67,32.68Z"/><path class="cls-2" d="M38.91,39.2a2.12,2.12,0,0,1-.66-1.72V33.85h.8V37.5a1.53,1.53,0,0,0,.45,1.18,1.76,1.76,0,0,0,1.24.42,1.49,1.49,0,0,0,1.17-.43,1.61,1.61,0,0,0,.4-1.17V33.85h.8v3.63a2.24,2.24,0,0,1-.62,1.66,2.43,2.43,0,0,1-1.77.61A2.72,2.72,0,0,1,38.91,39.2Z"/><path class="cls-2" d="M45,39.24a1.73,1.73,0,0,1-.58-1.38,1.29,1.29,0,0,1,.49-1.07,2.32,2.32,0,0,1,1.43-.38h.92c.28,0,.61,0,1,.05v-.54a1.56,1.56,0,0,0-.38-1.16,1.64,1.64,0,0,0-1.17-.36,6.26,6.26,0,0,0-1.73.26L44.89,34a6.3,6.3,0,0,1,.92-.21,7.17,7.17,0,0,1,1-.08,2.36,2.36,0,0,1,1.63.51,1.92,1.92,0,0,1,.57,1.51v2.4q0,.54,0,1.47h-.67c0-.16-.06-.4-.1-.72h0a1.62,1.62,0,0,1-.68.61,2.51,2.51,0,0,1-1.12.22A2.17,2.17,0,0,1,45,39.24Zm2.81-.53a1.32,1.32,0,0,0,.45-1.07v-.59h-2a1.23,1.23,0,0,0-.72.19.75.75,0,0,0-.25.64,1.08,1.08,0,0,0,.39.89,1.43,1.43,0,0,0,1,.33A1.72,1.72,0,0,0,47.81,38.71Z"/><path class="cls-2" d="M52.34,42.21a3.89,3.89,0,0,1-.78-.22l.06-.63a3.75,3.75,0,0,0,.8.2,5,5,0,0,0,.84.08,1.88,1.88,0,0,0,1.48-.57,2.57,2.57,0,0,0,.49-1.71v-.5a2,2,0,0,1-.79.6,2.62,2.62,0,0,1-1.12.24,2.87,2.87,0,0,1-1.5-.39,2.62,2.62,0,0,1-1-1.06,3.15,3.15,0,0,1-.36-1.51,3,3,0,0,1,.41-1.58,2.82,2.82,0,0,1,1.09-1,3.13,3.13,0,0,1,1.49-.36,2.5,2.5,0,0,1,1,.22,2,2,0,0,1,.73.55l.1-.67H56v5.31a3.58,3.58,0,0,1-.66,2.32,2.43,2.43,0,0,1-2,.81A6.27,6.27,0,0,1,52.34,42.21Zm2.09-3.41a2,2,0,0,0,.75-.61V35.86a1.31,1.31,0,0,0-.22-.74,1.59,1.59,0,0,0-.62-.52,2,2,0,0,0-.9-.2,2.15,2.15,0,0,0-1.1.29,2.08,2.08,0,0,0-.76.82,2.87,2.87,0,0,0,0,2.45A2,2,0,0,0,53.41,39,2.25,2.25,0,0,0,54.43,38.8Z"/><path class="cls-2" d="M58.36,39.2a2.12,2.12,0,0,1-.66-1.72V33.85h.8V37.5A1.53,1.53,0,0,0,59,38.68a1.78,1.78,0,0,0,1.25.42,1.52,1.52,0,0,0,1.17-.43,1.65,1.65,0,0,0,.39-1.17V33.85h.8v3.63a2.24,2.24,0,0,1-.62,1.66,2.43,2.43,0,0,1-1.77.61A2.72,2.72,0,0,1,58.36,39.2Z"/><path class="cls-2" d="M64.69,39a3,3,0,0,1-.78-2.25,3.35,3.35,0,0,1,.34-1.54,2.44,2.44,0,0,1,1-1.07,2.79,2.79,0,0,1,1.5-.39,2.2,2.2,0,0,1,1.75.66,2.64,2.64,0,0,1,.6,1.76A6.44,6.44,0,0,1,69,37H64.73a2.33,2.33,0,0,0,.57,1.56,2.16,2.16,0,0,0,1.63.56,4.54,4.54,0,0,0,.84-.1,4.49,4.49,0,0,0,.83-.27l.12.61a4.75,4.75,0,0,1-1.9.41A2.94,2.94,0,0,1,64.69,39Zm3.55-2.67a2.28,2.28,0,0,0,0-.3,1.83,1.83,0,0,0-.38-1.18,1.47,1.47,0,0,0-1.22-.46,1.76,1.76,0,0,0-1.36.54,2.24,2.24,0,0,0-.56,1.4Z"/><path class="cls-2" d="M72.84,33.85h.74l0,.89a2.26,2.26,0,0,1,.89-.73,2.63,2.63,0,0,1,1.19-.26A2.67,2.67,0,0,1,77,34.1a2.63,2.63,0,0,1,1,1,3.18,3.18,0,0,1,.37,1.58A3.4,3.4,0,0,1,78,38.3a2.63,2.63,0,0,1-1,1.07,2.83,2.83,0,0,1-1.45.38,3.07,3.07,0,0,1-1.1-.2,2.32,2.32,0,0,1-.83-.53v3l-.8.24Zm4.22,4.57a2.71,2.71,0,0,0,.51-1.7,2.86,2.86,0,0,0-.26-1.26,1.83,1.83,0,0,0-.71-.79,2,2,0,0,0-1-.27,2,2,0,0,0-1,.24,1.91,1.91,0,0,0-.71.64,1.6,1.6,0,0,0-.26.86V38.2a2.63,2.63,0,0,0,.84.65,2.53,2.53,0,0,0,1.09.25A1.77,1.77,0,0,0,77.06,38.42Z"/><path class="cls-2" d="M79.81,33.85h.74l.06.83a3.33,3.33,0,0,1,.91-.63,3.26,3.26,0,0,1,1.16-.3l-.05.77a3,3,0,0,0-1.06.24,4,4,0,0,0-1,.55v4.33h-.8Z"/><path class="cls-2" d="M83.9,39a3,3,0,0,1-.78-2.25,3.48,3.48,0,0,1,.33-1.54,2.46,2.46,0,0,1,1-1.07,2.79,2.79,0,0,1,1.5-.39,2.2,2.2,0,0,1,1.75.66,2.75,2.75,0,0,1,.6,1.76,6.27,6.27,0,0,1,0,.81H83.94a2.28,2.28,0,0,0,.57,1.56,2.16,2.16,0,0,0,1.63.56A4.54,4.54,0,0,0,87,39a4.38,4.38,0,0,0,.82-.27l.12.61a4.7,4.7,0,0,1-1.89.41A2.91,2.91,0,0,1,83.9,39Zm3.55-2.67c0-.06,0-.16,0-.3a1.89,1.89,0,0,0-.38-1.18,1.48,1.48,0,0,0-1.22-.46,1.75,1.75,0,0,0-1.36.54,2.19,2.19,0,0,0-.56,1.4Z"/><path class="cls-2" d="M89.51,36.36H92l-.35.76H89.51Z"/><path class="cls-2" d="M93.39,33.85h.74l.05.89a2.26,2.26,0,0,1,.89-.73,2.63,2.63,0,0,1,1.19-.26,2.73,2.73,0,0,1,1.34.35,2.67,2.67,0,0,1,1,1A3.18,3.18,0,0,1,99,36.7a3.4,3.4,0,0,1-.36,1.6,2.63,2.63,0,0,1-1,1.07,2.83,2.83,0,0,1-1.45.38,3.07,3.07,0,0,1-1.1-.2,2.32,2.32,0,0,1-.83-.53v3l-.8.24Zm4.22,4.57a3.13,3.13,0,0,0,.25-3,1.83,1.83,0,0,0-.71-.79,2,2,0,0,0-1-.27,2,2,0,0,0-1,.24,1.91,1.91,0,0,0-.71.64,1.6,1.6,0,0,0-.26.86V38.2a2.63,2.63,0,0,0,.84.65,2.53,2.53,0,0,0,1.09.25A1.77,1.77,0,0,0,97.61,38.42Z"/><path class="cls-2" d="M100.36,33.85h.74l.06.83a3.33,3.33,0,0,1,.91-.63,3.26,3.26,0,0,1,1.16-.3l0,.77a3,3,0,0,0-1.06.24,4,4,0,0,0-1,.55v4.33h-.8Z"/><path class="cls-2" d="M105,39.36a2.56,2.56,0,0,1-1-1.08,3.44,3.44,0,0,1-.33-1.53,3.31,3.31,0,0,1,.34-1.53,2.48,2.48,0,0,1,1-1.08,3.14,3.14,0,0,1,1.6-.39,2.86,2.86,0,0,1,1.52.39,2.52,2.52,0,0,1,1,1.08,3.5,3.5,0,0,1,.33,1.53,3.44,3.44,0,0,1-.33,1.51,2.69,2.69,0,0,1-1,1.09,3,3,0,0,1-1.59.4A2.89,2.89,0,0,1,105,39.36Zm3-.88a2.56,2.56,0,0,0,.56-1.74A2.52,2.52,0,0,0,108,35a2,2,0,0,0-3,0,2.52,2.52,0,0,0-.56,1.72,2.92,2.92,0,0,0,.26,1.26,2,2,0,0,0,.72.83,2,2,0,0,0,1.06.29A1.85,1.85,0,0,0,108,38.48Z"/><path class="cls-2" d="M111.88,39.39a2.57,2.57,0,0,1-1-1,3.47,3.47,0,0,1-.37-1.63,3,3,0,0,1,.4-1.57,2.66,2.66,0,0,1,1.09-1,3.22,3.22,0,0,1,1.52-.36,4,4,0,0,1,1.7.32l-.14.64a3.51,3.51,0,0,0-.71-.22,3.88,3.88,0,0,0-.82-.09,2.2,2.2,0,0,0-1.16.3,2,2,0,0,0-.77.82,2.46,2.46,0,0,0-.28,1.19,2.57,2.57,0,0,0,.56,1.71,2.1,2.1,0,0,0,1.72.68,3.8,3.8,0,0,0,.79-.1,3.87,3.87,0,0,0,.77-.26l.13.61a4.28,4.28,0,0,1-1.8.4A3.32,3.32,0,0,1,111.88,39.39Z"/><path class="cls-2" d="M116.78,39a3,3,0,0,1-.78-2.25,3.48,3.48,0,0,1,.33-1.54,2.4,2.4,0,0,1,1-1.07,2.78,2.78,0,0,1,1.49-.39,2.22,2.22,0,0,1,1.76.66,2.75,2.75,0,0,1,.6,1.76,6.27,6.27,0,0,1-.05.81h-4.28a2.28,2.28,0,0,0,.57,1.56,2.14,2.14,0,0,0,1.63.56,4.35,4.35,0,0,0,.83-.1,4.26,4.26,0,0,0,.83-.27l.12.61a4.7,4.7,0,0,1-1.89.41A2.91,2.91,0,0,1,116.78,39Zm3.55-2.67c0-.06,0-.16,0-.3a1.84,1.84,0,0,0-.39-1.18,1.45,1.45,0,0,0-1.21-.46,1.79,1.79,0,0,0-1.37.54,2.24,2.24,0,0,0-.55,1.4Z"/><path class="cls-2" d="M123.46,39.38a2.57,2.57,0,0,1-1-1.05,3.33,3.33,0,0,1-.35-1.54,3.18,3.18,0,0,1,.4-1.59,2.82,2.82,0,0,1,1.06-1.08,2.92,2.92,0,0,1,1.45-.37,2.68,2.68,0,0,1,1.09.21,1.74,1.74,0,0,1,.73.52h0V31.74l.8-.23v6.66c0,.36,0,.85,0,1.47H127c0-.14-.06-.41-.1-.8h0a2.46,2.46,0,0,1-.85.66,2.54,2.54,0,0,1-1.14.25A2.81,2.81,0,0,1,123.46,39.38Zm2.65-.58a2.24,2.24,0,0,0,.76-.77v-1.9a1.67,1.67,0,0,0-.49-1.23,1.83,1.83,0,0,0-1.35-.5,1.94,1.94,0,0,0-1.81,1.14,2.71,2.71,0,0,0-.26,1.23,2.67,2.67,0,0,0,.26,1.24,1.92,1.92,0,0,0,.73.81,2.16,2.16,0,0,0,2.16,0Z"/><path class="cls-2" d="M129.43,32.68a.59.59,0,0,1-.18-.44.61.61,0,0,1,.18-.45.64.64,0,0,1,.45-.17.69.69,0,0,1,.46.17.61.61,0,0,1,.18.45.59.59,0,0,1-.18.44.65.65,0,0,1-.46.18A.61.61,0,0,1,129.43,32.68Zm0,1.17h.8v5.79h-.8Z"/><path class="cls-2" d="M132.09,33.85h.72l.07.52a3.74,3.74,0,0,1,.92-.45,3,3,0,0,1,1-.17,2,2,0,0,1,.89.19,1.68,1.68,0,0,1,.66.51,3.89,3.89,0,0,1,1-.51,3.41,3.41,0,0,1,1.11-.19,1.84,1.84,0,0,1,1.43.53,2.11,2.11,0,0,1,.5,1.53v3.83h-.8V36.12a2.51,2.51,0,0,0-.23-1.2,1.18,1.18,0,0,0-1.1-.52,2.66,2.66,0,0,0-.9.18,2.8,2.8,0,0,0-.83.44,3.91,3.91,0,0,1,.09.92v3.7h-.8V36.12a4.61,4.61,0,0,0,0-.71,1.76,1.76,0,0,0-.16-.49,1.12,1.12,0,0,0-1.05-.52,2.43,2.43,0,0,0-.94.19,2.94,2.94,0,0,0-.77.44v4.61h-.8Z"/><path class="cls-2" d="M142.13,32.68a.56.56,0,0,1-.19-.44.58.58,0,0,1,.19-.45.64.64,0,0,1,.44-.17.69.69,0,0,1,.46.17.58.58,0,0,1,.19.45.56.56,0,0,1-.19.44.65.65,0,0,1-.46.18A.6.6,0,0,1,142.13,32.68Zm.05,1.17H143v5.79h-.79Z"/><path class="cls-2" d="M145.19,39a3,3,0,0,1-.77-2.25,3.48,3.48,0,0,1,.33-1.54,2.44,2.44,0,0,1,1-1.07,2.84,2.84,0,0,1,1.5-.39,2.22,2.22,0,0,1,1.76.66,2.75,2.75,0,0,1,.6,1.76,6.27,6.27,0,0,1,0,.81h-4.28a2.33,2.33,0,0,0,.56,1.56,2.17,2.17,0,0,0,1.63.56,4.35,4.35,0,0,0,.84-.1,4.49,4.49,0,0,0,.83-.27l.12.61a4.71,4.71,0,0,1-1.9.41A2.94,2.94,0,0,1,145.19,39Zm3.55-2.67a1.9,1.9,0,0,0,0-.3,1.84,1.84,0,0,0-.39-1.18,1.46,1.46,0,0,0-1.21-.46,1.79,1.79,0,0,0-1.37.54,2.18,2.18,0,0,0-.55,1.4Z"/><path class="cls-2" d="M150.91,33.85h.72l.07.53a4,4,0,0,1,1-.46,3.53,3.53,0,0,1,1.09-.17,1.94,1.94,0,0,1,1.51.53,1.51,1.51,0,0,1,.35.6,2.79,2.79,0,0,1,.12.88v3.88H155V35.83a1.6,1.6,0,0,0-.28-1,.88.88,0,0,0-.41-.3,1.67,1.67,0,0,0-.65-.1,3.23,3.23,0,0,0-1,.17,4,4,0,0,0-.93.46v4.61h-.8Z"/><path class="cls-2" d="M157.89,39.3a1.59,1.59,0,0,1-.42-1.21V32.57l.8-.23V34h2.08l-.28.66h-1.8V38a1.29,1.29,0,0,0,.21.84,1,1,0,0,0,.76.25,4.3,4.3,0,0,0,1-.12l.06.6a3.94,3.94,0,0,1-1.14.15A2,2,0,0,1,157.89,39.3Z"/><path class="cls-2" d="M162.17,39.36a2.62,2.62,0,0,1-1-1.08,3.44,3.44,0,0,1-.33-1.53,3.31,3.31,0,0,1,.34-1.53,2.54,2.54,0,0,1,1-1.08,3.14,3.14,0,0,1,1.6-.39,2.86,2.86,0,0,1,1.52.39,2.52,2.52,0,0,1,1,1.08,3.5,3.5,0,0,1,.33,1.53,3.44,3.44,0,0,1-.33,1.51,2.62,2.62,0,0,1-1,1.09,3,3,0,0,1-1.59.4A2.89,2.89,0,0,1,162.17,39.36Zm3.05-.88a2.56,2.56,0,0,0,.56-1.74,2.52,2.52,0,0,0-.56-1.72,2,2,0,0,0-3,0,2.52,2.52,0,0,0-.56,1.72A2.92,2.92,0,0,0,162,38a2,2,0,0,0,.73.83,2,2,0,0,0,1.06.29A1.85,1.85,0,0,0,165.22,38.48Z"/><path class="cls-3" d="M39,222.47h4.56l-.31.91h-3.2v2.15h2.8l0,.9H40.07v2h3.52l-.31.91H39Z"/><path class="cls-3" d="M44.82,224h.92l.08.48a3.51,3.51,0,0,1,.87-.42,3.22,3.22,0,0,1,1-.15,1.73,1.73,0,0,1,1.32.49,2,2,0,0,1,.46,1.44v3.44h-1V226a1.35,1.35,0,0,0-.26-.89,1.11,1.11,0,0,0-.8-.28,2.66,2.66,0,0,0-.78.13,2.86,2.86,0,0,0-.7.35v4h-1Z"/><path class="cls-3" d="M49.29,231.56l.07-.83a2,2,0,0,0,.68.11.77.77,0,0,0,.7-.29,1.89,1.89,0,0,0,.19-1V224h1v5.49c0,1.47-.58,2.2-1.75,2.2A2.83,2.83,0,0,1,49.29,231.56ZM50.93,223a.74.74,0,0,1,0-1,.76.76,0,0,1,1,0,.7.7,0,0,1,0,1,.73.73,0,0,1-.52.21A.7.7,0,0,1,50.93,223Z"/><path class="cls-3" d="M54,228.9a2,2,0,0,1-.57-1.6V224h1v3.28a1.11,1.11,0,0,0,1.25,1.25,1.3,1.3,0,0,0,.94-.32,1.29,1.29,0,0,0,.31-.93V224h1v3.28a2,2,0,0,1-.59,1.55,2.36,2.36,0,0,1-1.71.55A2.54,2.54,0,0,1,54,228.9Z"/><path class="cls-3" d="M59.69,228.92a1.61,1.61,0,0,1-.54-1.27,1.23,1.23,0,0,1,.49-1.06,2.61,2.61,0,0,1,1.54-.36h.32a5.44,5.44,0,0,1,1.06.09v-.43a1,1,0,0,0-.32-.84,1.66,1.66,0,0,0-1-.26,6.27,6.27,0,0,0-1.53.22l-.09-.84a6.76,6.76,0,0,1,1.75-.24,2.66,2.66,0,0,1,1.69.46,1.73,1.73,0,0,1,.56,1.4v2.54c0,.44,0,.77,0,1h-.89c0-.24-.06-.44-.08-.59h0a1.55,1.55,0,0,1-.64.51,2.19,2.19,0,0,1-.9.18A2,2,0,0,1,59.69,228.92Zm2.5-.63a.93.93,0,0,0,.37-.77V227H61c-.53,0-.79.23-.79.68a.83.83,0,0,0,.28.67,1.19,1.19,0,0,0,.78.24A1.45,1.45,0,0,0,62.19,228.29Z"/><path class="cls-3" d="M66.53,231.64a4.57,4.57,0,0,1-.81-.2l.09-.84a3.53,3.53,0,0,0,.73.19,4.29,4.29,0,0,0,.76.07,1.53,1.53,0,0,0,1.18-.42,2,2,0,0,0,.37-1.33v-.35a1.69,1.69,0,0,1-.67.43,2.43,2.43,0,0,1-.92.16,2.59,2.59,0,0,1-1.32-.33,2.24,2.24,0,0,1-.9-.93,2.82,2.82,0,0,1-.33-1.38,2.9,2.9,0,0,1,.36-1.46,2.51,2.51,0,0,1,1-1,2.68,2.68,0,0,1,1.34-.35,2,2,0,0,1,1,.22,2.06,2.06,0,0,1,.66.53l.1-.66h.78v5a2.77,2.77,0,0,1-.63,2,2.43,2.43,0,0,1-1.87.65A5.1,5.1,0,0,1,66.53,231.64Zm2.32-3.83v-1.72a1.21,1.21,0,0,0-.38-.94,1.42,1.42,0,0,0-1-.36,1.6,1.6,0,0,0-1.21.5,1.9,1.9,0,0,0-.48,1.36,1.87,1.87,0,0,0,.47,1.34,1.58,1.58,0,0,0,1.19.49A1.78,1.78,0,0,0,68.85,227.81Z"/><path class="cls-3" d="M71.94,228.9a2,2,0,0,1-.57-1.6V224h1v3.28a1.11,1.11,0,0,0,1.25,1.25,1.12,1.12,0,0,0,1.26-1.25V224h1v3.28a2,2,0,0,1-.58,1.55,2.4,2.4,0,0,1-1.72.55A2.54,2.54,0,0,1,71.94,228.9Z"/><path class="cls-3" d="M77.82,228.71a2.65,2.65,0,0,1-.71-2,3.23,3.23,0,0,1,.31-1.46,2.23,2.23,0,0,1,.89-1,2.59,2.59,0,0,1,1.39-.36,2.08,2.08,0,0,1,1.69.67,2.63,2.63,0,0,1,.56,1.75,4.4,4.4,0,0,1,0,.65H78.19a1.58,1.58,0,0,0,.47,1.14,1.88,1.88,0,0,0,1.31.4,3.68,3.68,0,0,0,1.52-.28l.12.82a4.55,4.55,0,0,1-1.75.32A2.83,2.83,0,0,1,77.82,228.71Zm3.09-2.47v-.11a1.75,1.75,0,0,0-.28-1,1.07,1.07,0,0,0-1-.43,1.36,1.36,0,0,0-1,.42,1.67,1.67,0,0,0-.41,1.09Z"/><path class="cls-3" d="M85.38,224h.84l.11.7a2.14,2.14,0,0,1,1.75-.79,2.67,2.67,0,0,1,1.31.32,2.21,2.21,0,0,1,.91.93,3,3,0,0,1,.33,1.44,3,3,0,0,1-.34,1.48,2.48,2.48,0,0,1-.93,1,2.87,2.87,0,0,1-2.25.18,1.78,1.78,0,0,1-.69-.39v2.54l-1,.28Zm3.77,4a2.07,2.07,0,0,0,.42-1.36,1.86,1.86,0,0,0-.46-1.37,1.74,1.74,0,0,0-2.27-.11,1.17,1.17,0,0,0-.42.94v1.75a1.59,1.59,0,0,0,.66.49,2.2,2.2,0,0,0,.88.18A1.44,1.44,0,0,0,89.15,228Z"/><path class="cls-3" d="M92,228.92a1.61,1.61,0,0,1-.54-1.27,1.26,1.26,0,0,1,.49-1.06,2.63,2.63,0,0,1,1.54-.36h.33a5.44,5.44,0,0,1,1.06.09v-.43a1,1,0,0,0-.33-.84,1.62,1.62,0,0,0-1-.26A6.13,6.13,0,0,0,92,225l-.09-.84a6.74,6.74,0,0,1,1.74-.24,2.69,2.69,0,0,1,1.7.46,1.73,1.73,0,0,1,.56,1.4v2.54c0,.44,0,.77,0,1h-.89c0-.24-.07-.44-.08-.59h0a1.61,1.61,0,0,1-.64.51,2.21,2.21,0,0,1-.91.18A2,2,0,0,1,92,228.92Zm2.51-.63a1,1,0,0,0,.37-.77V227H93.33c-.52,0-.79.23-.79.68a.84.84,0,0,0,.29.67,1.16,1.16,0,0,0,.77.24A1.49,1.49,0,0,0,94.53,228.29Z"/><path class="cls-3" d="M97.37,224h.92l.07.74a3.39,3.39,0,0,1,.85-.56,3,3,0,0,1,1-.27l-.08,1a3.53,3.53,0,0,0-1.75.61v3.74h-1Z"/><path class="cls-3" d="M101.29,228.92a1.61,1.61,0,0,1-.54-1.27,1.23,1.23,0,0,1,.49-1.06,2.61,2.61,0,0,1,1.54-.36h.32a5.44,5.44,0,0,1,1.06.09v-.43a1,1,0,0,0-.32-.84,1.66,1.66,0,0,0-1-.26,6.27,6.27,0,0,0-1.53.22l-.09-.84a6.76,6.76,0,0,1,1.75-.24,2.66,2.66,0,0,1,1.69.46,1.73,1.73,0,0,1,.56,1.4v2.54c0,.44,0,.77,0,1h-.89c0-.24-.07-.44-.08-.59h0a1.55,1.55,0,0,1-.64.51,2.19,2.19,0,0,1-.9.18A2,2,0,0,1,101.29,228.92Zm2.5-.63a.93.93,0,0,0,.37-.77V227h-1.57c-.52,0-.78.23-.78.68a.83.83,0,0,0,.28.67,1.19,1.19,0,0,0,.78.24A1.45,1.45,0,0,0,103.79,228.29Z"/><path class="cls-3" d="M108.88,224h.84l.11.7a2.12,2.12,0,0,1,1.74-.79,2.71,2.71,0,0,1,1.32.32,2.27,2.27,0,0,1,.91.93,3,3,0,0,1,.33,1.44,3,3,0,0,1-.34,1.48,2.44,2.44,0,0,1-.94,1,2.84,2.84,0,0,1-2.24.18,1.78,1.78,0,0,1-.69-.39v2.54l-1,.28Zm3.77,4a2.07,2.07,0,0,0,.42-1.36,1.86,1.86,0,0,0-.46-1.37,1.6,1.6,0,0,0-1.2-.48,1.53,1.53,0,0,0-1.07.37,1.17,1.17,0,0,0-.42.94v1.75a1.59,1.59,0,0,0,.66.49,2.19,2.19,0,0,0,.87.18A1.46,1.46,0,0,0,112.65,228Z"/><path class="cls-3" d="M115.52,228.92a1.61,1.61,0,0,1-.54-1.27,1.23,1.23,0,0,1,.49-1.06,2.63,2.63,0,0,1,1.54-.36h.32a5.37,5.37,0,0,1,1.06.09v-.43a1,1,0,0,0-.32-.84,1.66,1.66,0,0,0-1-.26,6.27,6.27,0,0,0-1.53.22l-.09-.84a6.82,6.82,0,0,1,1.75-.24,2.66,2.66,0,0,1,1.69.46,1.7,1.7,0,0,1,.56,1.4v2.54c0,.44,0,.77,0,1h-.89c0-.24-.06-.44-.08-.59h0a1.55,1.55,0,0,1-.64.51,2.16,2.16,0,0,1-.9.18A2,2,0,0,1,115.52,228.92Zm2.5-.63a.93.93,0,0,0,.37-.77V227h-1.56c-.53,0-.79.23-.79.68a.84.84,0,0,0,.29.67,1.16,1.16,0,0,0,.77.24A1.45,1.45,0,0,0,118,228.29Z"/><path class="cls-3" d="M121.89,229.07a2.31,2.31,0,0,1-1-.94,2.85,2.85,0,0,1-.36-1.46,2.92,2.92,0,0,1,.37-1.47,2.32,2.32,0,0,1,1-.94,3.31,3.31,0,0,1,1.5-.33,4.06,4.06,0,0,1,1.46.27l-.14.84a3.46,3.46,0,0,0-1.23-.25,1.92,1.92,0,0,0-1.4.5,1.83,1.83,0,0,0-.51,1.36,1.88,1.88,0,0,0,.49,1.36,1.79,1.79,0,0,0,1.39.53,3.25,3.25,0,0,0,1.34-.28l.12.82a4,4,0,0,1-1.58.32A3.17,3.17,0,0,1,121.89,229.07Z"/><path class="cls-3" d="M126.22,223a.74.74,0,0,1,0-1,.72.72,0,0,1,.52-.2.73.73,0,0,1,.52.21.72.72,0,0,1,0,1,.73.73,0,0,1-.52.21A.69.69,0,0,1,126.22,223Zm0,1h1v5.28h-1Z"/><path class="cls-3" d="M129.23,228.71a2.61,2.61,0,0,1-.71-2,3.37,3.37,0,0,1,.3-1.46,2.31,2.31,0,0,1,.9-1,2.59,2.59,0,0,1,1.39-.36,2,2,0,0,1,1.68.67,2.57,2.57,0,0,1,.56,1.75,3.36,3.36,0,0,1,0,.65h-3.7a1.54,1.54,0,0,0,.47,1.14,1.87,1.87,0,0,0,1.3.4,3.73,3.73,0,0,0,1.53-.28l.12.82a4.6,4.6,0,0,1-1.76.32A2.82,2.82,0,0,1,129.23,228.71Zm3.08-2.47v-.11a1.75,1.75,0,0,0-.27-1,1.07,1.07,0,0,0-1-.43,1.34,1.34,0,0,0-1,.42,1.62,1.62,0,0,0-.41,1.09Z"/><path class="cls-3" d="M134.55,224h.91l.09.48a3.28,3.28,0,0,1,.86-.42,3.22,3.22,0,0,1,1-.15,1.77,1.77,0,0,1,1.33.49,2,2,0,0,1,.45,1.44v3.44h-1V226a1.35,1.35,0,0,0-.26-.89,1.09,1.09,0,0,0-.8-.28,2.71,2.71,0,0,0-.78.13,2.79,2.79,0,0,0-.69.35v4h-1Z"/><path class="cls-3" d="M141,228.9a2,2,0,0,1-.41-1.44v-4.6l1-.21v1.47h1.87l-.31.86h-1.56v2.56a1,1,0,0,0,.2.73,1,1,0,0,0,.73.21,3.1,3.1,0,0,0,.83-.1l.07.81a4.09,4.09,0,0,1-1.12.15A1.78,1.78,0,0,1,141,228.9Z"/><path class="cls-3" d="M144.81,228.71a2.61,2.61,0,0,1-.72-2,3.23,3.23,0,0,1,.31-1.46,2.29,2.29,0,0,1,.89-1,2.63,2.63,0,0,1,1.4-.36,2,2,0,0,1,1.68.67,2.63,2.63,0,0,1,.56,1.75,4.4,4.4,0,0,1-.05.65h-3.71a1.54,1.54,0,0,0,.48,1.14,1.86,1.86,0,0,0,1.3.4,3.77,3.77,0,0,0,1.53-.28l.12.82a4.6,4.6,0,0,1-1.76.32A2.81,2.81,0,0,1,144.81,228.71Zm3.08-2.47v-.11a1.68,1.68,0,0,0-.28-1,1.05,1.05,0,0,0-1-.43,1.33,1.33,0,0,0-1,.42,1.63,1.63,0,0,0-.42,1.09Z"/><path class="cls-4" d="M30.21,7.64h3a3.66,3.66,0,0,1,2.37.67,2.48,2.48,0,0,1,.83,2.06,2.78,2.78,0,0,1-.77,2.11,3.17,3.17,0,0,1-2.29.75H31.93v2.54H30.21Zm3,4.1a1.46,1.46,0,0,0,1.08-.35,1.33,1.33,0,0,0,.35-1c0-.86-.49-1.29-1.46-1.29h-1.3v2.62Z"/><path class="cls-4" d="M44.53,14.29l-.41,1.48h-.76a1.5,1.5,0,0,1-.77-.16A2.31,2.31,0,0,1,42,15l-1.22-1.74a.6.6,0,0,0-.24-.22.8.8,0,0,0-.34-.06h-.8v2.79H37.67V7.64H41a3.53,3.53,0,0,1,2.27.62,2.37,2.37,0,0,1,.78,2,2.86,2.86,0,0,1-.41,1.47,2.27,2.27,0,0,1-1.22,1L43.33,14a.57.57,0,0,0,.25.22,1.45,1.45,0,0,0,.48,0ZM40.85,11.5c.95,0,1.42-.4,1.42-1.21a1.05,1.05,0,0,0-.36-.9,1.79,1.79,0,0,0-1.08-.27H39.39V11.5Z"/><path class="cls-4" d="M45.55,7.64H51.3l-.42,1.48H47.27v1.94h3.2l-.07,1.48H47.27v1.75h4l-.41,1.48H45.55Z"/><path class="cls-4" d="M51.91,7.64h2l2.25,5.58h.11l2.1-5.58h2l-3.45,8.13H55.44Z"/><path class="cls-4" d="M61.23,7.64H63v8.13H61.23Z"/><path class="cls-4" d="M66.35,15.38a3.9,3.9,0,0,1-1.53-1.46,4.29,4.29,0,0,1-.56-2.21,4.31,4.31,0,0,1,.56-2.22A3.9,3.9,0,0,1,66.35,8a4.62,4.62,0,0,1,4.22,0,3.79,3.79,0,0,1,1.51,1.46,4.31,4.31,0,0,1,.56,2.22,4.29,4.29,0,0,1-.56,2.21,3.79,3.79,0,0,1-1.51,1.46,4.62,4.62,0,0,1-4.22,0Zm3.35-1.31a2.45,2.45,0,0,0,.86-1,3,3,0,0,0,.31-1.39,3,3,0,0,0-.31-1.4,2.36,2.36,0,0,0-.86-1,2.39,2.39,0,0,0-2.49,0,2.36,2.36,0,0,0-.86,1,3,3,0,0,0-.31,1.4,3,3,0,0,0,.31,1.39,2.45,2.45,0,0,0,.86,1,2.45,2.45,0,0,0,2.49,0Z"/><path class="cls-4" d="M79.32,7.62h1.57l3.28,8.15H82.33l-.61-1.6H78.46l-.62,1.6h-1.9Zm1.84,5.07-1-2.73H80l-1,2.73Z"/><path class="cls-4" d="M88.27,15.35a1.84,1.84,0,0,1-.4-1.3V7.64h1.72v5.87a.87.87,0,0,0,.17.62.92.92,0,0,0,.63.16h2.88l-.42,1.48H89.52A1.66,1.66,0,0,1,88.27,15.35Z"/><path class="cls-4" d="M97.29,7.62h1.57l3.28,8.15H100.3l-.61-1.6H96.43l-.62,1.6h-1.9Zm1.85,5.07-1-2.73H98l-1,2.73Z"/><path class="cls-4" d="M108.51,7.62h1.56l3.29,8.15h-1.84l-.61-1.6h-3.26l-.62,1.6h-1.9Zm1.84,5.07-1-2.73h-.11l-1,2.73Z"/><path class="cls-4" d="M114.35,7.64h3.06a3.66,3.66,0,0,1,2.37.67,2.48,2.48,0,0,1,.83,2.06,2.82,2.82,0,0,1-.77,2.11,3.2,3.2,0,0,1-2.3.75h-1.46v2.54h-1.73Zm3.06,4.1a1.42,1.42,0,0,0,1.07-.35,1.3,1.3,0,0,0,.36-1q0-1.29-1.47-1.29h-1.29v2.62Z"/><path class="cls-4" d="M122.19,15.35a1.84,1.84,0,0,1-.4-1.3V7.64h1.72v5.87a.87.87,0,0,0,.17.62.9.9,0,0,0,.63.16h2.87l-.41,1.48h-3.33A1.66,1.66,0,0,1,122.19,15.35Z"/><path class="cls-4" d="M128.28,7.64H130v8.13h-1.72Z"/><path class="cls-4" d="M133.28,15.35a3.6,3.6,0,0,1-1.48-1.49,4.48,4.48,0,0,1-.49-2.12,4.43,4.43,0,0,1,.54-2.2,3.81,3.81,0,0,1,1.54-1.49,4.81,4.81,0,0,1,2.32-.53,6.58,6.58,0,0,1,2.24.33l-.14,1.5a4.19,4.19,0,0,0-.92-.24A5.82,5.82,0,0,0,135.8,9a3,3,0,0,0-1.4.31,2.33,2.33,0,0,0-1,.92,2.9,2.9,0,0,0-.35,1.44,2.52,2.52,0,0,0,2.74,2.72,7.94,7.94,0,0,0,1.07-.08,6.38,6.38,0,0,0,1-.22l.14,1.45a6.2,6.2,0,0,1-1,.25,8.52,8.52,0,0,1-1.24.09A5.1,5.1,0,0,1,133.28,15.35Z"/><path class="cls-4" d="M142.09,7.62h1.56l3.29,8.15H145.1l-.61-1.6h-3.26l-.62,1.6h-1.9Zm1.84,5.07-1-2.73h-.11l-1,2.73Z"/><path class="cls-4" d="M149.16,15.35a3.62,3.62,0,0,1-1.49-1.49,4.6,4.6,0,0,1-.49-2.12,4.33,4.33,0,0,1,.55-2.2,3.69,3.69,0,0,1,1.54-1.49,4.75,4.75,0,0,1,2.31-.53,6.68,6.68,0,0,1,2.25.33l-.15,1.5a4.24,4.24,0,0,0-.91-.24,5.92,5.92,0,0,0-1.1-.1,3.06,3.06,0,0,0-1.4.31,2.39,2.39,0,0,0-1,.92,2.9,2.9,0,0,0-.35,1.44,2.68,2.68,0,0,0,.73,2,2.71,2.71,0,0,0,2,.73,7.82,7.82,0,0,0,1.07-.08,6.85,6.85,0,0,0,1-.22l.13,1.45a6,6,0,0,1-1,.25,8.28,8.28,0,0,1-1.23.09A5.07,5.07,0,0,1,149.16,15.35Z"/><path class="cls-4" d="M155.15,7.64h1.72v8.13h-1.72Z"/><path class="cls-4" d="M160.27,15.38a3.9,3.9,0,0,1-1.53-1.46,4.29,4.29,0,0,1-.56-2.21,4.31,4.31,0,0,1,.56-2.22A3.9,3.9,0,0,1,160.27,8a4.62,4.62,0,0,1,4.22,0A3.79,3.79,0,0,1,166,9.49a4.31,4.31,0,0,1,.56,2.22,4.29,4.29,0,0,1-.56,2.21,3.79,3.79,0,0,1-1.51,1.46,4.62,4.62,0,0,1-4.22,0Zm3.35-1.31a2.45,2.45,0,0,0,.86-1,3,3,0,0,0,.31-1.39,3,3,0,0,0-.31-1.4,2.36,2.36,0,0,0-.86-1,2.39,2.39,0,0,0-2.49,0,2.36,2.36,0,0,0-.86,1,3.29,3.29,0,0,0,0,2.79,2.45,2.45,0,0,0,.86,1,2.45,2.45,0,0,0,2.49,0ZM161,6l2.49-1.5.73,1.27L161.55,7Z"/><path class="cls-4" d="M167.87,7.64h1.23l4.23,5.09V7.64h1.61v8.13h-1.16l-4.3-5.23v5.23h-1.61Z"/><path class="cls-4" d="M179.32,7.64h2.91a7.48,7.48,0,0,1,2.16.27,3.36,3.36,0,0,1,1.46.85,3.84,3.84,0,0,1,1,2.86,4,4,0,0,1-1.18,3.08,3.64,3.64,0,0,1-1.4.8,6,6,0,0,1-1.86.27h-3.08Zm3.1,6.65a3.22,3.22,0,0,0,1.17-.17,2.13,2.13,0,0,0,.81-.52,2.31,2.31,0,0,0,.5-.85,3.56,3.56,0,0,0,.17-1.12,3.87,3.87,0,0,0-.14-1.12,1.69,1.69,0,0,0-.42-.73,1.91,1.91,0,0,0-.84-.51,4.15,4.15,0,0,0-1.19-.15H181v5.17Z"/><path class="cls-4" d="M188.15,7.64h5.74l-.41,1.48h-3.61v1.94h3.2L193,12.54h-3.13v1.75h4l-.42,1.48h-5.34Z"/><path class="cls-4" d="M197.76,7.64h3.13a3.74,3.74,0,0,1,2.14.49,1.79,1.79,0,0,1,.71,1.6,1.86,1.86,0,0,1-.3,1,1.64,1.64,0,0,1-.84.64v0a2.13,2.13,0,0,1,1.2.7,1.91,1.91,0,0,1,.43,1.25c0,1.6-1,2.39-3.08,2.39h-3.39Zm3.1,3.25c.77,0,1.16-.3,1.16-.91a.75.75,0,0,0-.28-.67,1.42,1.42,0,0,0-.82-.19h-1.43v1.77Zm.25,3.4a1.76,1.76,0,0,0,1-.24.89.89,0,0,0,.32-.76.83.83,0,0,0-.34-.74,2.28,2.28,0,0,0-1.13-.21h-1.5v1.95Z"/><path class="cls-4" d="M208,7.62h1.57l3.28,8.15H211l-.61-1.6h-3.26l-.62,1.6h-1.9Zm1.85,5.07-1-2.73h-.11l-1,2.73Z"/><path class="cls-4" d="M220.73,14.29l-.41,1.48h-.75a1.56,1.56,0,0,1-.78-.16,2.3,2.3,0,0,1-.59-.61L217,13.26a.6.6,0,0,0-.24-.22.77.77,0,0,0-.34-.06h-.8v2.79h-1.72V7.64h3.3a3.5,3.5,0,0,1,2.26.62,2.37,2.37,0,0,1,.78,2,2.86,2.86,0,0,1-.41,1.47,2.27,2.27,0,0,1-1.22,1l.95,1.35a.54.54,0,0,0,.26.22,1.35,1.35,0,0,0,.47,0Zm-3.67-2.79c.94,0,1.42-.4,1.42-1.21a1.06,1.06,0,0,0-.37-.9A1.79,1.79,0,0,0,217,9.12h-1.44V11.5Z"/><path class="cls-4" d="M221.75,7.64H223l4.24,5.09V7.64h1.61v8.13h-1.16l-4.3-5.23v5.23h-1.61Z"/><path class="cls-4" d="M230.47,7.64h1.72v8.13h-1.72Z"/><path class="cls-4" d="M233.43,14.86l4.29-5.74H233.8l-.41-1.48h6.83V8.5l-4.34,5.79h4.67l-.42,1.48h-6.7Z"/><path class="cls-4" d="M244.38,7.64h2.91a7.48,7.48,0,0,1,2.16.27,3.36,3.36,0,0,1,1.46.85,3.84,3.84,0,0,1,1,2.86,4,4,0,0,1-1.18,3.08,3.64,3.64,0,0,1-1.4.8,6,6,0,0,1-1.86.27h-3.08Zm3.1,6.65a3.22,3.22,0,0,0,1.17-.17,2.13,2.13,0,0,0,.81-.52,2.31,2.31,0,0,0,.5-.85,3.56,3.56,0,0,0,.17-1.12,3.87,3.87,0,0,0-.14-1.12,1.69,1.69,0,0,0-.42-.73,1.91,1.91,0,0,0-.84-.51,4.15,4.15,0,0,0-1.19-.15H246.1v5.17Z"/><path class="cls-4" d="M253.21,7.64H259l-.42,1.48h-3.61v1.94h3.2l-.07,1.48h-3.13v1.75h4l-.41,1.48h-5.35Z"/><path class="cls-4" d="M262.82,7.64h5.69l-.41,1.48h-3.55v2.13h3.15l-.07,1.48h-3.08v3h-1.73Z"/><path class="cls-4" d="M269.82,15.35a1.84,1.84,0,0,1-.4-1.3V7.64h1.72v5.87a.87.87,0,0,0,.17.62.94.94,0,0,0,.63.16h2.88l-.42,1.48h-3.33A1.66,1.66,0,0,1,269.82,15.35Z"/><path class="cls-4" d="M276.31,15.08a3.1,3.1,0,0,1-.9-2.42v-5h1.72v4.92a2,2,0,0,0,.46,1.36,1.94,1.94,0,0,0,2.62,0,2,2,0,0,0,.45-1.36V7.64h1.72v5a3.09,3.09,0,0,1-.89,2.42,4.55,4.55,0,0,1-5.18,0ZM277.56,6l2.5-1.5.72,1.27L278.1,7Z"/><path class="cls-4" d="M285.72,15.38a3.81,3.81,0,0,1-1.52-1.46,4.2,4.2,0,0,1-.57-2.21,4.22,4.22,0,0,1,.57-2.22A3.81,3.81,0,0,1,285.72,8,4.64,4.64,0,0,1,290,8a3.92,3.92,0,0,1,1.51,1.46,4.3,4.3,0,0,1,.55,2.22,4.29,4.29,0,0,1-.55,2.21A3.92,3.92,0,0,1,290,15.38a4.64,4.64,0,0,1-4.23,0Zm3.35-1.31a2.38,2.38,0,0,0,.86-1,3,3,0,0,0,.31-1.39,3,3,0,0,0-.31-1.4,2.29,2.29,0,0,0-.86-1,2.39,2.39,0,0,0-2.49,0,2.43,2.43,0,0,0-.86,1,3.39,3.39,0,0,0,0,2.79,2.53,2.53,0,0,0,.86,1,2.45,2.45,0,0,0,2.49,0Z"/><path class="cls-4" d="M300.19,14.29l-.42,1.48H299a1.5,1.5,0,0,1-.77-.16,2.31,2.31,0,0,1-.6-.61l-1.22-1.74a.56.56,0,0,0-.25-.22.75.75,0,0,0-.33-.06H295v2.79h-1.72V7.64h3.3a3.53,3.53,0,0,1,2.27.62,2.36,2.36,0,0,1,.77,2,2.77,2.77,0,0,1-.41,1.47,2.24,2.24,0,0,1-1.21,1L299,14a.52.52,0,0,0,.25.22,1.38,1.38,0,0,0,.47,0Zm-3.68-2.79c.95,0,1.42-.4,1.42-1.21a1.05,1.05,0,0,0-.36-.9,1.83,1.83,0,0,0-1.08-.27H295V11.5Z"/><rect class="cls-5" x="21.63" y="0.5" width="285" height="21.5"/><circle class="cls-6" cx="2.07" cy="187.38" r="2.07"/><circle class="cls-6" cx="191.07" cy="192.38" r="2.07"/><circle class="cls-6" cx="188.07" cy="213.38" r="2.07"/><circle class="cls-6" cx="35.07" cy="226.38" r="2.07"/><rect class="cls-7" x="289.21" y="50.08" width="2.62" height="8.5" rx="0.98"/><rect class="cls-7" x="289.21" y="50.08" width="2.62" height="8.5" rx="0.98" transform="translate(344.85 -236.19) rotate(90)"/><circle class="cls-3" cx="84.33" cy="104.44" r="54.77"/><rect class="cls-8" x="119.84" y="77" width="4.16" height="13.51" rx="1.55"/><rect class="cls-8" x="119.84" y="77" width="4.16" height="13.51" rx="1.55" transform="translate(205.67 -38.16) rotate(90)"/><rect class="cls-7" x="137.31" y="70.66" width="2.17" height="7.06" rx="0.81"/><rect class="cls-7" x="137.31" y="70.66" width="2.17" height="7.06" rx="0.81" transform="matrix(0, 1, -1, 0, 212.59, -64.2)"/><path class="cls-9" d="M210.13,56.78a60.53,60.53,0,1,1,35.16,109.81c-33.43,0-53-22.56-62-54.77-2.4-8.64-1.64-29.2-18.7-29.2-14.79,0-19.86,12.68-20.71,22.78-2.88,34.11-26.89,60-60.05,60A60.06,60.06,0,0,1,35.92,69.21"/><circle class="cls-10" cx="40.13" cy="61.45" r="16.57"/><circle class="cls-11" cx="40.13" cy="61.45" r="13.9"/><path class="cls-8" d="M44.51,53.72l-2.75,15.5H38.57L40.75,57,37,58.62,36.53,56l5.39-2.27Z"/><circle class="cls-3" cx="246.14" cy="104.44" r="54.77"/><circle class="cls-10" cx="200.61" cy="61.21" r="16.81"/><circle class="cls-11" cx="200.61" cy="61.21" r="14.1"/><path class="cls-8" d="M193.93,67.88a11,11,0,0,1,1-3.28,5.92,5.92,0,0,1,1.88-2.08,17.5,17.5,0,0,1,3.37-1.74,22.11,22.11,0,0,0,2-.88,4,4,0,0,0,1.17-.88,1.85,1.85,0,0,0,.46-1.24,1.54,1.54,0,0,0-.67-1.34,3.15,3.15,0,0,0-1.8-.45,10.67,10.67,0,0,0-2.21.27,14.23,14.23,0,0,0-2.37.71l-.05-2.72a13.87,13.87,0,0,1,2.74-.83,15,15,0,0,1,2.84-.29A5.55,5.55,0,0,1,206,54.22a3.74,3.74,0,0,1,1.35,3.07,5.25,5.25,0,0,1-.58,2.57A5.37,5.37,0,0,1,205,61.67a21,21,0,0,1-3.23,1.65l-.58.25c-.89.39-1.53.69-1.93.89a4.14,4.14,0,0,0-1,.67,1.73,1.73,0,0,0-.52.89l0,.21h8.49l-1.3,2.86H193.72Z"/><circle class="cls-3" cx="28.6" cy="131.82" r="22.1"/><circle class="cls-3" cx="139.09" cy="148.16" r="21.62"/><g class="cls-12"><path class="cls-13" d="M202,83.3h47.15A4.86,4.86,0,0,1,254,88.17v30.21a0,0,0,0,1,0,0H197.15a0,0,0,0,1,0,0V88.17A4.86,4.86,0,0,1,202,83.3Z"/><polyline class="cls-14" points="221.93 122.22 221.37 132.31 230.92 132.31 230.39 122.78"/><path class="cls-15" d="M197.15,118.37h56.78a0,0,0,0,1,0,0v5.76a0,0,0,0,1,0,0H200.27a3.11,3.11,0,0,1-3.11-3.11v-2.65A0,0,0,0,1,197.15,118.37Z"/><circle class="cls-16" cx="225.54" cy="121.26" r="1.44"/><rect class="cls-17" x="220.78" y="131.82" width="10.57" height="0.96" rx="0.36"/><rect class="cls-18" x="199.65" y="86.67" width="52.84" height="30.75"/><path class="cls-19" d="M217.1,112a.52.52,0,0,1-.69.19,27.72,27.72,0,0,1-3.82-1.59,1.46,1.46,0,0,1-.84-1.39c0-1,0-1.89,0-2.83a1.3,1.3,0,0,1,1-1.39c.81-.31.91-.83.87-1.66-.05-1-.27-1.77-1.38-2.08-.33-.1-.47-.54-.47-.93,0-1,0-2.08,0-3.12a1.36,1.36,0,0,1,.79-1.24,26.36,26.36,0,0,1,8.67-2.74,47.21,47.21,0,0,1,9.8-.11c1,.08,2,.31,2.95.48a.5.5,0,0,1,.47.55c-.09.54-.49.52-.88.45-.81-.14-1.62-.3-2.44-.39a41,41,0,0,0-7.59-.13,2.34,2.34,0,0,1-.46,0,23.62,23.62,0,0,0-4.94.83,30.22,30.22,0,0,0-4.6,1.7,1,1,0,0,0-.69,1.07c0,.73,0,1.46,0,2.19a.9.9,0,0,0,.09.51.22.22,0,0,0,.23.14.17.17,0,0,0,.14-.16,1.45,1.45,0,0,1,.87-1.32,3.42,3.42,0,0,1,2.31-.23,1.37,1.37,0,0,0,1-.12,3.79,3.79,0,0,1,3.28-.28.94.94,0,0,0,.83-.06,4.56,4.56,0,0,1,4.27-.29,1.46,1.46,0,0,0,1.26,0,4.6,4.6,0,0,1,4.28.27.86.86,0,0,0,.76.09,3.91,3.91,0,0,1,3.4.28,1.29,1.29,0,0,0,1,.1,3.45,3.45,0,0,1,2.26.2,1.39,1.39,0,0,1,.9,1.18c0,.14,0,.35.22.32s.23-.19.25-.35a7.3,7.3,0,0,0,0-.81c0-.57,0-1.15,0-1.72a.93.93,0,0,0-.62-1,33.58,33.58,0,0,0-3.36-1.34,3.19,3.19,0,0,1-.69-.27c-.23-.15-.47-.32-.25-.65a.63.63,0,0,1,.81-.22,28.44,28.44,0,0,1,4.36,1.77,1.46,1.46,0,0,1,.84,1.4c0,.86,0,1.73,0,2.6,0,1-.22,1.38-1.2,1.69-.45.14-.61.34-.57.8a2.14,2.14,0,0,1-.17,1.24c-.15.3.32,1.09.64,1.21,1.13.43,1.3.67,1.3,1.87,0,.81,0,1.61,0,2.42a1.47,1.47,0,0,1-.85,1.45,26.76,26.76,0,0,1-9.72,2.83,50.55,50.55,0,0,1-8.7,0,24.68,24.68,0,0,1-3.52-.61c-.33-.08-.56-.23-.55-.61s.52-.43.87-.38c.8.12,1.57.36,2.37.43a43.17,43.17,0,0,0,8.35.23,26.48,26.48,0,0,0,8.56-2c.49-.19,1-.43,1.43-.62a.94.94,0,0,0,.66-1c0-.34,0-.69,0-1,0-.5,0-1,0-1.5,0-.16-.09-.32-.27-.32s-.17.18-.18.31c-.2,1.56-.81,2.08-2.41,2.07a2.25,2.25,0,0,1-.63-.06c-.25-.06-.41,0-.46.27a1.28,1.28,0,0,1-.74.85,3.72,3.72,0,0,1-2.73.4c-.41-.1-.69-.1-.84.38a1.18,1.18,0,0,1-.69.66,4.3,4.3,0,0,1-3.84.28,2,2,0,0,0-1.75,0,4.23,4.23,0,0,1-3.64-.14,1.68,1.68,0,0,1-1-1c-.11-.33-.34-.3-.61-.23a3.83,3.83,0,0,1-2.74-.31,1.4,1.4,0,0,1-.87-1c-.06-.3-.25-.28-.48-.24a3.5,3.5,0,0,1-2.09-.24,1.36,1.36,0,0,1-.92-1.33,2,2,0,0,0,0-.35c0-.15.05-.39-.21-.38s-.25.21-.25.39c0,.92,0,1.85,0,2.77,0,.42.35.57.67.72,1,.43,2,.87,3,1.23C216.89,111.23,217.33,111.38,217.1,112Z"/><path class="cls-20" d="M223,93.87a38.52,38.52,0,0,1,10.77.53c.31.07.57,0,.7-.31l.91.24c0,.47.31.56.65.66a30.77,30.77,0,0,1,3.83,1.51,1,1,0,0,1,.65,1.07c0,.57,0,1.15,0,1.72-.16,0-.26-.06-.34-.15a3.59,3.59,0,0,0-3.28-1,2.46,2.46,0,0,1-1.29-.17,4.32,4.32,0,0,0-3.14-.24,1.18,1.18,0,0,1-.9-.09,5.33,5.33,0,0,0-4.47-.19,1.18,1.18,0,0,1-.94,0,5.53,5.53,0,0,0-3.68-.13c-.63.19-.79,0-.7-.59a6.58,6.58,0,0,1,.81-2.39A1,1,0,0,1,223,93.87Z"/><path class="cls-21" d="M221.24,112.34a11.92,11.92,0,0,1-2.3-.41c-.35-.08-.68-.14-.92.22l-.92-.2c.07-.39-.13-.55-.47-.66a27.33,27.33,0,0,1-3.46-1.42.81.81,0,0,1-.53-.85c0-.86,0-1.73,0-2.59,0-.23,0-.49.25-.6a.94.94,0,0,1,.53-.15c.18.06.08.31.08.47,0,1.48.58,2,2.09,2a3.41,3.41,0,0,0,1.3-.24,2.36,2.36,0,0,0,2.8,1.79,4.75,4.75,0,0,0,1.34-.31,3.08,3.08,0,0,0,3.45,1.83c.73-.09,1.39-.59,2.06-.61s1.33.54,2.07.61a4.61,4.61,0,0,0,2.91-.73c.39-.24.44-.68.51-1.12a4,4,0,0,0,3,.06c.69-.27,1.28-.59,1.11-1.53a3.52,3.52,0,0,0,2.69,0,1.14,1.14,0,0,0,.78-1.21c0-.34,0-.68,0-1,.61.06.93.29.87.92a11,11,0,0,0,0,1.15,2.61,2.61,0,0,1-2.4,1.51,2.82,2.82,0,0,0-1.52.64,4.5,4.5,0,0,1-3.23,1,1,1,0,0,0-.8.24,5.11,5.11,0,0,1-5.23,1,1.93,1.93,0,0,0-1.38,0,5.17,5.17,0,0,1-4.2-.24,3.31,3.31,0,0,0-.47-.22h-.08C221.07,111.86,221.37,112.08,221.24,112.34Z"/><path class="cls-21" d="M223,93.87a7,7,0,0,0-1.15,3c-.06.35.06.45.4.33a5.39,5.39,0,0,1,4.1.14.54.54,0,0,0,.48,0,5.47,5.47,0,0,1,4.89.2.56.56,0,0,0,.49.07,4.63,4.63,0,0,1,3.68.28,1.17,1.17,0,0,0,.72.11,3.69,3.69,0,0,1,3.86,1.31c0,.17,0,.35,0,.52,0,.77,0,.8-.82,1a.94.94,0,0,1,0-.16c.18-1.14-.41-1.5-1.71-1.77a1.57,1.57,0,0,0-.86,0,2.23,2.23,0,0,1-2-.27,3.46,3.46,0,0,0-2.85,0c-.18.08-.34.18-.58,0a4.34,4.34,0,0,0-4.63-.3.82.82,0,0,1-.84,0,4.35,4.35,0,0,0-4.58.29.45.45,0,0,1-.52,0,3.73,3.73,0,0,0-3.72.36.55.55,0,0,1-.58,0,3.31,3.31,0,0,0-2.47.15,1.14,1.14,0,0,0-.76,1.16c0,.16.17.5-.17.47s-.65-.1-.67-.52,0-.69,0-1a8.12,8.12,0,0,0,0-1.21,1.44,1.44,0,0,1,1.05-1.7,28.78,28.78,0,0,1,9-2.44A2.81,2.81,0,0,1,223,93.87Z"/><path class="cls-22" d="M226.11,101.66c0,.59,0,1.19,0,1.79,0,.43-.11.66-.59.72a10.65,10.65,0,0,1-2.93,0c-.4-.06-.57-.21-.56-.62,0-1.31,0-2.62,0-3.93a.52.52,0,0,1,.34-.53,3.75,3.75,0,0,1,3.39,0,.54.54,0,0,1,.36.57C226.09,100.31,226.11,101,226.11,101.66Z"/><path class="cls-22" d="M231.08,101.61c0,.66,0,1.31,0,2a.48.48,0,0,1-.48.57,10.14,10.14,0,0,1-3.11,0,.49.49,0,0,1-.49-.57c0-1.33,0-2.66,0-4a.52.52,0,0,1,.35-.53,3.75,3.75,0,0,1,3.39,0,.54.54,0,0,1,.35.58C231.07,100.3,231.08,101,231.08,101.61Z"/><path class="cls-22" d="M222,107.67c0-.6,0-1.19,0-1.79a.51.51,0,0,1,.49-.58,9.83,9.83,0,0,1,3.11,0c.34,0,.48.23.48.59,0,1.19,0,2.38,0,3.58a.47.47,0,0,1-.31.48,3.67,3.67,0,0,1-3.48,0,.48.48,0,0,1-.29-.5C222,108.86,222,108.27,222,107.67Z"/><path class="cls-22" d="M231.08,107.72c0,.56,0,1.12,0,1.68a.58.58,0,0,1-.4.61,3.72,3.72,0,0,1-3.33,0,.54.54,0,0,1-.36-.57c0-1.17,0-2.35,0-3.52a.53.53,0,0,1,.54-.6,9.69,9.69,0,0,1,3,0c.34.06.51.21.5.58C231.07,106.49,231.08,107.11,231.08,107.72Z"/><path class="cls-23" d="M221.24,112.34a2.92,2.92,0,0,1-.42-1.13c.45.23.86.46,1.28.64a5.09,5.09,0,0,0,4,0,.94.94,0,0,1,.82,0,4.89,4.89,0,0,0,4.88-.38,3.11,3.11,0,0,1,2.07-.72,3.06,3.06,0,0,0,2.25-.74,3.58,3.58,0,0,1,2.26-.94,2.87,2.87,0,0,0,2-1.28.45.45,0,0,1,0,.11c0,2.15.34,1.64-1.54,2.5a25.92,25.92,0,0,1-10.32,2.34,46.89,46.89,0,0,1-6.81-.21A5.05,5.05,0,0,1,221.24,112.34Z"/><path class="cls-24" d="M221.13,101.59c0,.54,0,1.07,0,1.61,0,.32-.12.44-.43.49a8.52,8.52,0,0,1-2.47,0c-.3,0-.44-.19-.44-.49,0-1.08,0-2.15,0-3.23a.46.46,0,0,1,.32-.48,3,3,0,0,1,1.79-.3c1.06.15,1.22.35,1.22,1.42Z"/><path class="cls-24" d="M235.31,101.59c0,.52,0,1,0,1.55,0,.32-.1.5-.44.55a8.52,8.52,0,0,1-2.47,0c-.31,0-.43-.18-.42-.49,0-1.08,0-2.15,0-3.23a.49.49,0,0,1,.36-.51,3.26,3.26,0,0,1,1.57-.29c1.13.08,1.41.38,1.41,1.49Z"/><path class="cls-25" d="M217.8,106.63c0-.44,0-.89,0-1.33a.45.45,0,0,1,.44-.55,9.72,9.72,0,0,1,2.47,0,.43.43,0,0,1,.43.5q0,1.41,0,2.82a.48.48,0,0,1-.36.5,3,3,0,0,1-2.61,0,.51.51,0,0,1-.37-.56C217.82,107.55,217.8,107.09,217.8,106.63Z"/><path class="cls-25" d="M232,106.68c0-.46,0-.92,0-1.38s.11-.51.43-.55a9.28,9.28,0,0,1,2.47,0,.44.44,0,0,1,.44.5q0,1.41,0,2.82a.44.44,0,0,1-.27.46,3.05,3.05,0,0,1-2.82,0,.42.42,0,0,1-.24-.46C232,107.61,232,107.15,232,106.68Z"/><path class="cls-26" d="M217,101.56c0,.4,0,.81,0,1.21s-.12.42-.39.44h-.18c-2,.16-2,.16-2-1.79v-.58c0-.93.09-1,1-1.16a1.41,1.41,0,0,1,.29,0c1,0,1.21.26,1.21,1.25Z"/><path class="cls-26" d="M238.71,101.59c0,.35,0,.69,0,1s-.1.6-.53.59h-1.56c-.32,0-.47-.13-.46-.49,0-.78,0-1.57,0-2.36a.42.42,0,0,1,.31-.47,2.54,2.54,0,0,1,1-.21c1,0,1.23.25,1.23,1.22Z"/><path class="cls-26" d="M214.41,105.62v-.52c0-.91,0-.91.89-.95,1.65-.09,1.65-.09,1.65,1.54v.52c0,.87-.06.94-.94,1.08-.12,0-.23,0-.35,0-1,0-1.25-.24-1.25-1.25Z"/><path class="cls-26" d="M238.71,105.65v.46c0,1-.15,1.14-1.12,1.21a3.22,3.22,0,0,1-.69-.06c-.5-.09-.83-.29-.75-.92a10.34,10.34,0,0,0,0-1.67c0-.28.06-.44.37-.45s.38-.06.57-.07C238.7,104.07,238.71,104.07,238.71,105.65Z"/><path class="cls-27" d="M249.77,101.8s-1.72-.72-1.9,2.64a4.25,4.25,0,0,0,2.7,4.33,4.76,4.76,0,0,0,3.88,5.57c0,.19.92.19.92.19v5.76h8.08c-.39,0,0-4.93,0-4.93a9.59,9.59,0,0,0,5.37-6.59,7.39,7.39,0,0,0,1.92-4.81c0-2.88-2.33-2.16-2.33-2.16s1.37-5.53-1.52-6.49-15.37,0-15.37,0-1.61,4.33-.8,6.49"/><path class="cls-28" d="M249.13,96.76s-1,4.8,1.92,5.76c0,0-1-6.73,1-8.65s-.34,0-.17,0h4s1,2.89,4.81,2.89a2.82,2.82,0,0,0,2.88-2.89,6.55,6.55,0,0,1,3.84,3.85,6.65,6.65,0,0,1,0,4.8s2.89-1,2.89-2.88-1-3.85-1.93-5.77S255.85,92,255.85,92l-6.24,1.44"/><path class="cls-6" d="M249.06,97.24s.95-2.78,10.84-2.35,9.89,2.35,9.89,2.35l.78-8.65a4.24,4.24,0,0,0-2-4,13.86,13.86,0,0,0-7.46-1.78c-5.84,0-8.9.56-11.3,2.08A4.2,4.2,0,0,0,248,89Z"/><path class="cls-29" d="M252.45,100.44a7.81,7.81,0,0,1,2.53-.86,2.65,2.65,0,0,1,1.42.06,1.55,1.55,0,0,1,1,1l-.06,0a3.39,3.39,0,0,0-1.14-.38,8,8,0,0,0-1.17-.18,10.12,10.12,0,0,0-2.54.33Z"/><path class="cls-29" d="M266.89,100.15a10.41,10.41,0,0,0-2.56,0,10.05,10.05,0,0,0-1.13.35,3.52,3.52,0,0,0-1.07.55l-.06,0a1.54,1.54,0,0,1,.82-1.19,2.53,2.53,0,0,1,1.39-.26,7.7,7.7,0,0,1,2.63.47Z"/><path class="cls-30" d="M253.27,101.49a6.16,6.16,0,0,1,5.14.39s-.32,1-2.25,1.11S253.18,102.77,253.27,101.49Z"/><circle class="cls-31" cx="255.65" cy="102.01" r="0.9"/><path class="cls-30" d="M267.06,101.49a6.16,6.16,0,0,0-5.14.39s.32,1,2.25,1.11S267.15,102.77,267.06,101.49Z"/><circle class="cls-31" cx="264.68" cy="102.01" r="0.9"/><path class="cls-32" d="M267.38,111.17c0,1.26.28,2.22-.48,3.36-1.92,2.88-5,2.4-7.68,2.4-2.46,0-5.23-.23-6.73-1.44-1.25-1-1.44-2.87-1.44-4.32,0-3.19,3.66-5.77,8.17-5.77S267.38,108,267.38,111.17Z"/><path class="cls-32" d="M253,108.28l5.17-4.84a2.2,2.2,0,0,1,3,0l5.3,4.86"/><line class="cls-33" x1="264.5" y1="107.32" x2="268.42" y2="101.8"/><line class="cls-33" x1="250.09" y1="101.56" x2="254.62" y2="107.32"/><path class="cls-34" d="M265,105.4h-.39c-.88,0-1.72-1.26-2.4-1.8l-1.15-.92a2.23,2.23,0,0,0-2.78,0l-1.21,1c-.68.53-1.51,1.78-2.37,1.78h-1.31a3.32,3.32,0,0,1-3.32-3.32v-1.72a1.68,1.68,0,0,1,1.68-1.68h14.89a1.68,1.68,0,0,1,1.68,1.68v1.72A3.32,3.32,0,0,1,265,105.4Z"/><path class="cls-35" d="M239.58,128.78s-6.79,4.49-6.79,17v14l10.57,1.38,3.19-30.69"/><path class="cls-6" d="M294.77,120.29v-4c0-.85-1.92-1.81-1.92-5.65a1.88,1.88,0,0,1,1.92-1.92v-7.2a1.14,1.14,0,0,1,1.14-1.15h0a1.14,1.14,0,0,1,1.15,1.15v6.08s2.43-1.85,3.95-.33c.48.48,1.44-.48,1.44,1.45a2,2,0,0,1,1.92,2.88l-1,1.92a7.5,7.5,0,0,1-1.92,4.8l-1,2.89"/><path class="cls-35" d="M278,126.54s9.61,5.77,12.49,9.61c0,0,1-14.41,3.85-17.3l7.68,1s1.92,15.38-1,22.1-4.8,7.69-11.53,6.73S277,141,277,141"/><path class="cls-6" d="M238.37,129.82a17,17,0,0,1,5,12.09v18.82l25.95-4.4,9.6-7.69,1-20.18s-2.88-3.84-5.76-4.8-6.73-2.46-6.73-2.46,1-4.27-3.83-4.27l-.27,1.92a18.32,18.32,0,0,1-7.91,0v-2.13s-3.36.21-3.36,2.13v2.89S245.29,120.78,238.37,129.82Z"/><path class="cls-36" d="M253,108.57a5.65,5.65,0,0,0,0,6.52S251.53,111.26,253,108.57Z"/><path class="cls-36" d="M266.32,108.57a5.65,5.65,0,0,1,0,6.52S267.76,111.26,266.32,108.57Z"/><path class="cls-37" d="M295.82,103.55l.15,0h.11l.29,0h.39l.16,0a.21.21,0,0,0,.27-.15.22.22,0,0,0-.15-.28,3.18,3.18,0,0,0-1.34,0,.22.22,0,1,0,.12.43Z"/><path class="cls-37" d="M294.86,108.52a2.17,2.17,0,0,1,2.07,0,4.38,4.38,0,0,1,1.17,1.53c.19.34.38.68.54,1s.37.72.21,1-.26.13-.39.15a3.88,3.88,0,0,1-.48,0,2.77,2.77,0,0,1-1-.1,1.59,1.59,0,0,1-.86-.55c-.25-.3-.42-.66-.68-1s-.5.1-.31.32.44.69.72,1a2.09,2.09,0,0,0,.92.59,3.08,3.08,0,0,0,1.13.14,2.13,2.13,0,0,0,1.09-.21.8.8,0,0,0,.24-1,5.77,5.77,0,0,0-.51-1.2,6.89,6.89,0,0,0-1.37-2,2.53,2.53,0,0,0-2.66-.26c-.27.11-.15.54.12.44Z"/><path class="cls-37" d="M295.28,110.93a11.41,11.41,0,0,0,1.16,2.08c.48.57,1.21.62,1.83,1a.92.92,0,0,1,.57,1,2.6,2.6,0,0,1-.45,1.07c-.43.6-1.13,1-1.14,1.81a.23.23,0,0,0,.45,0,1.76,1.76,0,0,1,.69-1.12,3.4,3.4,0,0,0,.64-.91,1.59,1.59,0,0,0-.09-1.87c-.52-.52-1.26-.54-1.85-.92a2.57,2.57,0,0,1-.75-1l-.67-1.29c-.13-.26-.52,0-.39.23Z"/><path class="cls-37" d="M299,116.77a2.4,2.4,0,0,0,2.52,1.83c.29,0,.29-.46,0-.45a2.13,2.13,0,0,1-1.4-.4,1.76,1.76,0,0,1-.68-1.1.23.23,0,0,0-.44.12Z"/><path class="cls-37" d="M300.16,108.64a3.28,3.28,0,0,1-.23,2.2,6,6,0,0,1-.64.94,1.26,1.26,0,0,0-.35.9,1.17,1.17,0,0,0,1.56.89A2.74,2.74,0,0,0,302,112a7.24,7.24,0,0,0,.58-2.51c0-.29-.43-.29-.45,0a7.48,7.48,0,0,1-.39,2,2.87,2.87,0,0,1-1.18,1.57.88.88,0,0,1-1,0,.58.58,0,0,1-.09-.83c.17-.26.4-.48.57-.74a3.46,3.46,0,0,0,.4-.82,3.73,3.73,0,0,0,.09-2.12.22.22,0,0,0-.43.12Z"/><path class="cls-37" d="M301.21,112.63a1,1,0,0,0,.06,1.12,1.21,1.21,0,0,0,1.16.46c1-.12,1.57-1.09,2-1.88a.23.23,0,0,0-.39-.23c-.35.61-.76,1.41-1.49,1.63a.9.9,0,0,1-.88-.16.57.57,0,0,1-.1-.71c.16-.25-.23-.47-.39-.23Z"/><path class="cls-37" d="M297.8,107.67l0,0s0,0,0,0l.05.06s.05.1.08.14,0,0,0,0v0l0,.08s0,.11,0,.16v0s0,0,0,0a.25.25,0,0,1,0,.08v.2s0,0,0,0,0,0,0,0v0c0,.06,0,.11,0,.17a.21.21,0,0,0,.15.27.23.23,0,0,0,.28-.15,1.63,1.63,0,0,0-.29-1.53.23.23,0,0,0-.32.32Z"/><path class="cls-37" d="M295.8,106.15h.53l.28,0s0,0,0,0h.06l.16,0a.21.21,0,0,0,.27-.16.22.22,0,0,0-.15-.27,3.55,3.55,0,0,0-1.3,0,.23.23,0,0,0-.16.28.24.24,0,0,0,.28.15Z"/><path class="cls-37" d="M297.44,107.82s0,0,0,0,0,0,0,0l.06,0,.07,0h0l.14,0s0,0,0,0h.12a.23.23,0,0,0,.23-.22.24.24,0,0,0-.23-.23,1.7,1.7,0,0,0-1.09.5.23.23,0,0,0,.32.32l.1-.08,0,0s0,0,0,0h0l0,0,.21-.14.11,0s0,0,0,0h0l.06,0h.09s0,0,0,0h.13v-.45a1.17,1.17,0,0,0-.77.29.22.22,0,0,0,0,.31.23.23,0,0,0,.32,0Z"/><path class="cls-37" d="M299.13,107.17l.08,0h.19l.16,0h.05l.09,0,.07,0,0,0h0l.13.11a3.58,3.58,0,0,1,.26.29.23.23,0,1,0,.32-.32,2.31,2.31,0,0,0-.64-.57,1.13,1.13,0,0,0-.88-.1.23.23,0,0,0-.15.28.23.23,0,0,0,.27.16Z"/><path class="cls-37" d="M301.43,107.81h.34l.09,0h0s0,0,0,0l0,0v0s0,0,0,0a0,0,0,0,0,0,0l0,0s0,0,0,0v0a.08.08,0,0,1,0,0s0,0,0,0,0,0,0,.06a.29.29,0,0,1,0,.09s0,0,0,0v.08a1.72,1.72,0,0,0,.11.5.24.24,0,0,0,.31.08.23.23,0,0,0,.08-.31s0,0,0,0v0s0,0,0,0a.13.13,0,0,1,0-.06s0-.08,0,0,0-.08,0-.11,0-.08,0-.11a.93.93,0,0,0-.21-.51,1.1,1.1,0,0,0-.87-.26.23.23,0,0,0-.22.23c0,.11.1.24.22.22Z"/><path class="cls-37" d="M304,109.81l.07.06s0,0,0,0l0,0a1.09,1.09,0,0,1,.08.15v0l0,.09a.64.64,0,0,1,0,.07s0,.09,0,0a2.05,2.05,0,0,1-.07.78.23.23,0,0,0,.15.28.24.24,0,0,0,.28-.16,1.72,1.72,0,0,0-.29-1.72.23.23,0,0,0-.32.32Z"/></g><path class="cls-38" d="M88,141.08H66.58a1.92,1.92,0,0,1-1.92-1.92h0a1.91,1.91,0,0,1,1.79-1.91l21.38-1.38a1.92,1.92,0,0,1,2,1.92v1.37A1.92,1.92,0,0,1,88,141.08Z"/><polyline class="cls-38" points="74.42 128.19 84.3 133.3 90.69 128.19 82.56 123.67"/><path class="cls-8" d="M80.81,141.43h32.41s-2.31-7.9-6.85-9.87-10.22-4.77-14.87-4.42-9.3,3.72-10.23,7.67A18,18,0,0,0,80.81,141.43Z"/><polyline class="cls-38" points="63.39 112.3 65.18 120.57 67.1 119 65.24 110.33"/><path class="cls-39" d="M66.28,118.08l2-4.19s.58-2.67,5-2.79S97,110.34,97,110.34l17.33,4.25a3.14,3.14,0,0,1,1.16,2c0,1-.25,1.51-1.58,1.51s-14.28-3-16-3.08a21.52,21.52,0,0,0-5.11.81l-25.91,4.42"/><path class="cls-40" d="M108.83,112.33s.67,1.07,1.14,1.2,2,1.38,3.36,0,1.32-2.22,2.76-3.19a12.45,12.45,0,0,0,2.83-3.54.93.93,0,0,0-1.54,0,12.45,12.45,0,0,1-8,3.26"/><path class="cls-41" d="M68.26,106.8a3.38,3.38,0,0,0,2.36,3.54c2.64.76,9.72.3,13.21-.51s7.79-1.63,7.79-1.63l16.76,4.94,1.94-3.55-16.26-7a10.86,10.86,0,0,0-6.22.27c-3.37,1.16-.35,0-.35,0s-10.46.35-11.39.23a36.11,36.11,0,0,1-4.53-1.62"/><path class="cls-42" d="M75.81,107.5s-1-.26-1.39,1.09-2.09,9.14-2.09,9.14l1.74-.35,2.79-10.23a11.35,11.35,0,0,1,4.3-1.39c2.09-.12,9.18-.58,9.18-.58s-.12-1.28-3.6-1.16c-3.16.1-8.11.21-10.67.83a1.1,1.1,0,0,0-.81,1.39,1,1,0,0,0,1,.68Z"/><path class="cls-8" d="M68.38,118.08a3.1,3.1,0,0,0-3,2.09,47.13,47.13,0,0,0-1.86,5.11,3.63,3.63,0,0,0,.73,3.2,17.68,17.68,0,0,0,3.57,2.84s1.17.93,3.84-.58c2-1.11,14.26-7.13,20.61-10.24A3.88,3.88,0,0,0,93.87,115h0a3.88,3.88,0,0,0-4.19-1.79Z"/><path class="cls-39" d="M40.37,89.84S39,87.75,42.23,88a46.37,46.37,0,0,1,7.67,5.11c3,2.67,3.14,4.19,3.14,4.19s3.25-.7,5.23.81,9.18,7.2,9.18,7.2a6.42,6.42,0,0,1-2,6.1H63.39l-3.73-1.91"/><path class="cls-8" d="M49,98.9a2,2,0,0,0,.81,1.86c1,.93,5.81,6,8.95,8.6s4.18,3.84,5.11,3.25,1.75-1.16,1-3-5.61-7.78-15-10.69a1.09,1.09,0,0,0,0-1.62c-.81-.93-8.72-7.21-9.18-7.67s-1.16-.47-.93.46,3.25,4.53,4.3,5.58S46.88,99.25,49,98.9Z"/><path class="cls-43" d="M76,102.64H73.78v-42a4.16,4.16,0,0,1,4.64-3.79h16.5l.17.06A2.57,2.57,0,0,1,97,58.61a3.27,3.27,0,0,1-.62,2.73l-.1.14L85.75,68.89l-1.28-1.8,10.18-7.2a1.2,1.2,0,0,0,.2-.61.69.69,0,0,0-.28-.18H78.27a3.15,3.15,0,0,0-1.2.19A1.69,1.69,0,0,0,76,60.84Z"/><path class="cls-8" d="M90,78.46l-5,2.29-4.59-10,5-2.3a5.52,5.52,0,0,1,7.31,2.71h0A5.52,5.52,0,0,1,90,78.46Z"/><path class="cls-44" d="M50.63,93.77h1.82l.7,1.07S58.5,92.39,60,90.07a31.26,31.26,0,0,1-2.79-2.67A2.38,2.38,0,0,0,58.73,86a13.67,13.67,0,0,1-2.79-.81,7.72,7.72,0,0,1-2.11-2.25,3.87,3.87,0,0,0-2.42-.65,48.28,48.28,0,0,0-4.18,3.13v3.42"/><path class="cls-40" d="M44.91,89.3s-1-3.3.69-5.62A7.78,7.78,0,0,1,51.76,81c.7.23,1.28.93.35,1.62s-2.44,1.51-2,2.68,1.41,2.28,1.11,2.65-.64.14-1.22.25a1.09,1.09,0,0,0-.59,1.86c.82.93,1.75,1.28,2.44.23,0,0,.56-.11.28.64s-1,2.62-2,2.73"/><path class="cls-45" d="M53.15,94.84l1.69,3.07,12.26,9.2a3.94,3.94,0,0,0,4-5.83c-.58-1.39-3.6-6.31-6.68-7.61a14.65,14.65,0,0,0-6.91-1.3"/><path class="cls-46" d="M79.66,103.09l3.94-.93,4.53,1.39s.4.45-.5.46H80"/><path class="cls-47" d="M58.27,95.76s.69-1.51,2.44-.46,8.57,6.22,8.57,6.22l10.48,1.33s1.14,1.22.8,1.43c-.22,0-13.11,1-13.11,1L57.83,97.8A2.58,2.58,0,0,1,58.27,95.76Z"/><path class="cls-48" d="M29.56,119.33l-4,.38a2.77,2.77,0,0,0-2,1.84L18.3,137.89l-2.64,3.75a2.59,2.59,0,0,0,1.14,3.88L26,149.28a2.58,2.58,0,0,0,3.54-2.07l.63-5.1,7.62-14.92a2.8,2.8,0,0,0-.14-2.77l-2.33-2.2"/><path class="cls-49" d="M24.94,123,19.3,139.52a.59.59,0,0,0,.33.74l7.72,3.19a.59.59,0,0,0,.76-.28l7.67-15.37a.6.6,0,0,0-.29-.81l-9.74-4.39A.6.6,0,0,0,24.94,123Z"/><path class="cls-50" d="M24.54,124.14c-.16.28,6,5,11,2.85l-9.74-4.39a.55.55,0,0,0-.81.35C24.74,123.61,24.54,124.14,24.54,124.14Z"/><path class="cls-49" d="M30.66,113.81h6.41a.2.2,0,0,1,.2.2v7a.52.52,0,0,1-.52.52H31a.52.52,0,0,1-.52-.52v-7A.2.2,0,0,1,30.66,113.81Z" transform="translate(51.34 -3.52) rotate(24.26)"/><path class="cls-51" d="M125.87,132.15a2.28,2.28,0,0,1,2,.36,2.38,2.38,0,0,1,.67,1.34,1.66,1.66,0,0,0,.88,1.23,25.2,25.2,0,0,1,5.84,4.91c4.29,4.31,8.61,8.6,12.88,12.92a25.48,25.48,0,0,1,2.14,3.07.3.3,0,0,1,.05.22c-.36,1,.5,1.62.68,2.45.05.21.26.18.43.17a6.77,6.77,0,0,1,.9,0,.91.91,0,0,1,.89.92.89.89,0,0,1-.89.86c-.43,0-.87.07-1.3.08a1.6,1.6,0,0,1-1.75-1.24,3.06,3.06,0,0,0-1.73-2.2,17.23,17.23,0,0,1-3.8-3.12c-4.75-4.78-9.55-9.53-14.29-14.33a21.38,21.38,0,0,1-2.1-3,.29.29,0,0,1-.06-.21c.34-1-.49-1.63-.67-2.45,0-.22-.24-.2-.42-.2a8.7,8.7,0,0,1-1,0,.89.89,0,1,1,0-1.77C125.44,132.13,125.73,132.15,125.87,132.15Z"/><path class="cls-52" d="M146.2,151.9c.38.36.75.74,1.14,1.1.22.2.16.32,0,.49-.47.45-.93.9-1.37,1.37-.22.24-.35.23-.58,0-.89-.92-1.81-1.83-2.72-2.74q-6.12-6.12-12.25-12.23c-.33-.33-.36-.51,0-.82a13.7,13.7,0,0,0,1.21-1.2c.24-.28.4-.24.62,0s.68.71,1,1.06c-.16.34-.52.49-.74.77a.74.74,0,0,0,0,1.11c.12.15.26.27.39.41l11,11a5,5,0,0,0,.4.4.75.75,0,0,0,1.11,0C145.71,152.41,145.86,152.06,146.2,151.9Z"/><path class="cls-53" d="M146.2,151.9a1.86,1.86,0,0,1-.19.34c-.7.76-1.07,1.27-2.14.19-3.65-3.71-7.34-7.37-11-11.05-1.09-1.09-1-1.67.4-2.44.35.34.7.69,1.06,1a1,1,0,0,1,.24.9,3.32,3.32,0,0,0,1.32,3c2.13,2,4.17,4.12,6.23,6.21a1.21,1.21,0,0,0,1.1.45c.09,0,.19,0,.28,0A2.67,2.67,0,0,1,146.2,151.9Z"/><path class="cls-54" d="M138.23,143.93l5.92,6a2.18,2.18,0,0,1-1.91-.55c-1.29-1.41-2.67-2.73-4-4.09A1.27,1.27,0,0,1,138.23,143.93Z"/><path class="cls-55" d="M138.23,143.93v1.4c-.95-.94-1.92-1.86-2.84-2.82-.43-.44-.11-1-.28-1.66Z"/><path class="cls-56" d="M149.91,157.72c.06.16.14.31.2.47.54,1.27.54,1.27,1.93,1.22h.34c.22,0,.45,0,.45.27s-.22.31-.45.31l-1.47,0a1,1,0,0,1-1.1-.79c-.14-.4-.25-.82-.36-1.24S149.63,157.6,149.91,157.72Z"/><path class="cls-56" d="M127.68,135a1.86,1.86,0,0,1-.1-.2c-.26-1.19-.9-1.8-2.18-1.48-.19,0-.42,0-.43-.24s.2-.33.43-.33h.06c2-.16,2.23,0,2.67,2C128.16,135.15,128,135.11,127.68,135Z"/><path class="cls-57" d="M147.77,155.91l.78-.81a.66.66,0,0,1,.21-.14,4.55,4.55,0,0,1,.76,1c.18.27-.15.34-.25.49a1.31,1.31,0,0,1-.25.22A1.36,1.36,0,0,1,147.77,155.91Z"/><path class="cls-57" d="M129.8,136.8c-.16.18-.33.36-.5.53-.49.5-.5.5-.91-.1s-.46-.68.17-1.23A1.34,1.34,0,0,1,129.8,136.8Z"/><path class="cls-58" d="M147.77,155.91a5.32,5.32,0,0,0,1.25.8c-.26.47-.58.51-1,.14a1.34,1.34,0,0,0-.28-.18C147.25,156.41,147.34,156.16,147.77,155.91Z"/><path class="cls-58" d="M129.8,136.8a5.26,5.26,0,0,0-1.24-.8c.26-.47.58-.5,1-.14a1.07,1.07,0,0,0,.28.19C130.33,136.3,130.24,136.55,129.8,136.8Z"/><path class="cls-59" d="M146.85,154.87l.56-.55c.31.11.54-.16.82-.17.22.15.16.29,0,.44l-.68.63C147,155.41,146.9,155.36,146.85,154.87Z"/><path class="cls-59" d="M129.35,138.56c-.19-.13-.19-.26,0-.41l.69-.66c.57-.19.65-.15.7.34l-.56.56C129.86,138.28,129.63,138.55,129.35,138.56Z"/><path class="cls-60" d="M146.85,154.87c.06.46.42.33.7.35a3.55,3.55,0,0,0-.41.46c-.27.39-.54.24-.78,0s.12-.37.21-.54S146.75,155,146.85,154.87Z"/><path class="cls-60" d="M130.72,137.83c-.06-.46-.42-.32-.7-.34a4.58,4.58,0,0,0,.42-.46c.26-.4.53-.23.78,0s-.12.38-.21.55A1,1,0,0,1,130.72,137.83Z"/><path class="cls-61" d="M148.23,154.15c-.26.13-.43.68-.82.17a2.18,2.18,0,0,0,.25-.28C147.94,153.68,148.11,153.76,148.23,154.15Z"/><path class="cls-62" d="M129.35,138.56c.25-.13.42-.68.81-.17-.08.09-.17.18-.25.28C129.64,139,129.46,139,129.35,138.56Z"/><path class="cls-63" d="M149.91,157.72c-.21,0-.42,0-.46.26-.15-.32-.32-.65.19-.89Z"/><path class="cls-64" d="M127.68,135c.2,0,.41,0,.45-.25a2.6,2.6,0,0,0,.1.25c.11.23.09.46-.16.55s-.21-.23-.31-.35A.44.44,0,0,1,127.68,135Z"/><path class="cls-65" d="M139.53,145.45l3.17,3.17c.07.08.19.17.1.28s-.17.06-.26.07c-.26,0-.42-.13-.58-.29-.7-.71-1.4-1.43-2.13-2.12A1,1,0,0,1,139.53,145.45Z"/><rect class="cls-8" x="260.08" y="58.88" width="5" height="16.26" rx="1.87"/><rect class="cls-8" x="260.08" y="58.88" width="5" height="16.26" rx="1.87" transform="translate(329.59 -195.57) rotate(90)"/><path class="cls-3" d="M16.81,184.65H14.3v-1h6.35l-.35,1H18v6.45H16.81Z"/><path class="cls-3" d="M21.39,190.84a2.47,2.47,0,0,1-1-1.05,3.33,3.33,0,0,1-.35-1.54,3.38,3.38,0,0,1,.35-1.56,2.55,2.55,0,0,1,1-1.05,3.41,3.41,0,0,1,3.13,0,2.55,2.55,0,0,1,1,1.05,3.38,3.38,0,0,1,.35,1.56,3.32,3.32,0,0,1-.34,1.54,2.55,2.55,0,0,1-1,1.05,3.54,3.54,0,0,1-3.15,0Zm2.86-1.09a2.26,2.26,0,0,0,.49-1.52,2.23,2.23,0,0,0-.49-1.51,1.78,1.78,0,0,0-2.57,0,2.22,2.22,0,0,0-.48,1.51,2.25,2.25,0,0,0,.48,1.52,1.78,1.78,0,0,0,2.57,0Z"/><path class="cls-3" d="M26.88,185.36h1l.09.51a3.55,3.55,0,0,1,.87-.44,2.88,2.88,0,0,1,1-.17,1.79,1.79,0,0,1,1.5.68,3.73,3.73,0,0,1,2.08-.68,1.81,1.81,0,0,1,1.45.56,2.33,2.33,0,0,1,.46,1.58v3.7H34.22v-3.44a3.69,3.69,0,0,0,0-.64,1.11,1.11,0,0,0-.15-.42,1,1,0,0,0-.87-.4,3,3,0,0,0-1.53.51,4.51,4.51,0,0,1,.06.76v3.63H30.55v-3.44a1.87,1.87,0,0,0-.25-1.1.91.91,0,0,0-.82-.36,2.08,2.08,0,0,0-.78.15,2.83,2.83,0,0,0-.69.37v4.38H26.88Z"/><path class="cls-3" d="M37,190.46a2.86,2.86,0,0,1-.78-2.15,3.58,3.58,0,0,1,.34-1.59,2.54,2.54,0,0,1,1-1.08,3,3,0,0,1,1.52-.38,2.26,2.26,0,0,1,1.83.72,2.84,2.84,0,0,1,.61,1.91,5.27,5.27,0,0,1-.05.71h-4a1.63,1.63,0,0,0,.52,1.23,2,2,0,0,0,1.42.44A4.17,4.17,0,0,0,41,190l.13.89a5,5,0,0,1-1.91.35A3.07,3.07,0,0,1,37,190.46Zm3.36-2.69v-.13a1.89,1.89,0,0,0-.3-1,1.18,1.18,0,0,0-1.06-.46,1.48,1.48,0,0,0-1.14.45,1.77,1.77,0,0,0-.45,1.19Z"/><path class="cls-3" d="M44.6,185.36h1l.09.51a3.55,3.55,0,0,1,.87-.44,2.88,2.88,0,0,1,1-.17,1.79,1.79,0,0,1,1.5.68,3.73,3.73,0,0,1,2.08-.68,1.81,1.81,0,0,1,1.45.56,2.33,2.33,0,0,1,.46,1.58v3.7H51.94v-3.44a5.31,5.31,0,0,0,0-.64,1.31,1.31,0,0,0-.16-.42,1,1,0,0,0-.87-.4,2.44,2.44,0,0,0-.8.15,2.37,2.37,0,0,0-.73.36,4.51,4.51,0,0,1,.06.76v3.63H48.27v-3.44a1.87,1.87,0,0,0-.25-1.1.91.91,0,0,0-.82-.36,2.08,2.08,0,0,0-.78.15,2.59,2.59,0,0,0-.68.37v4.38H44.6Z"/><path class="cls-3" d="M54.76,190.46a2.83,2.83,0,0,1-.79-2.15,3.58,3.58,0,0,1,.34-1.59,2.54,2.54,0,0,1,1-1.08,3,3,0,0,1,1.52-.38,2.25,2.25,0,0,1,1.83.72,2.84,2.84,0,0,1,.61,1.91,5.27,5.27,0,0,1-.05.71h-4a1.63,1.63,0,0,0,.52,1.23,2,2,0,0,0,1.42.44,4.17,4.17,0,0,0,1.66-.3l.13.89a5,5,0,0,1-1.91.35A3,3,0,0,1,54.76,190.46Zm3.35-2.69v-.13a1.89,1.89,0,0,0-.3-1,1.17,1.17,0,0,0-1.06-.46,1.48,1.48,0,0,0-1.14.45,1.77,1.77,0,0,0-.45,1.19Z"/><path class="cls-3" d="M61.2,190.88a2.29,2.29,0,0,1-1-1,3.33,3.33,0,0,1-.36-1.61,3.41,3.41,0,0,1,.38-1.65,2.51,2.51,0,0,1,1-1,2.86,2.86,0,0,1,1.39-.34,2.49,2.49,0,0,1,1,.2,1.81,1.81,0,0,1,.69.55h0v-2.66l1.13-.3v6.53q0,.51,0,1.53h-1c0-.22-.08-.45-.1-.69h0a2.31,2.31,0,0,1-1.87.8A2.92,2.92,0,0,1,61.2,190.88Zm2.51-.85a1.91,1.91,0,0,0,.68-.61v-1.79a1.33,1.33,0,0,0-.44-1,1.64,1.64,0,0,0-1.16-.42,1.6,1.6,0,0,0-1.29.57,2.21,2.21,0,0,0-.49,1.52,2,2,0,0,0,.48,1.47,1.65,1.65,0,0,0,1.27.5A1.83,1.83,0,0,0,63.71,190Z"/><path class="cls-3" d="M66.9,184.25a.74.74,0,0,1-.22-.55.73.73,0,0,1,.22-.56.77.77,0,0,1,.57-.22.8.8,0,0,1,.57.22.77.77,0,0,1,.23.56.75.75,0,0,1-.23.55.81.81,0,0,1-.57.23A.78.78,0,0,1,66.9,184.25Zm0,1.11H68v5.74H66.91Z"/><path class="cls-3" d="M70.41,190.88a2.4,2.4,0,0,1-1-1,3.45,3.45,0,0,1-.35-1.61,3.3,3.3,0,0,1,.38-1.65,2.51,2.51,0,0,1,1-1,2.83,2.83,0,0,1,1.39-.34,2.49,2.49,0,0,1,1,.2,1.81,1.81,0,0,1,.69.55h0v-2.66l1.13-.3v6.53c0,.34,0,.85,0,1.53h-1a5,5,0,0,1-.1-.69h0a2.31,2.31,0,0,1-1.87.8A3,3,0,0,1,70.41,190.88Zm2.52-.85a2,2,0,0,0,.68-.61v-1.79a1.31,1.31,0,0,0-.45-1,1.76,1.76,0,0,0-2.44.15,2.21,2.21,0,0,0-.49,1.52,2,2,0,0,0,.48,1.47,1.65,1.65,0,0,0,1.27.5A1.83,1.83,0,0,0,72.93,190Z"/><path class="cls-3" d="M76.28,190.69a1.74,1.74,0,0,1-.59-1.38,1.37,1.37,0,0,1,.53-1.16,2.89,2.89,0,0,1,1.68-.39h.35a6.51,6.51,0,0,1,1.16.09v-.46a1.11,1.11,0,0,0-.36-.92,1.81,1.81,0,0,0-1.11-.28,6.09,6.09,0,0,0-1.66.25l-.1-.93a7.6,7.6,0,0,1,1.91-.25,2.89,2.89,0,0,1,1.84.5,1.84,1.84,0,0,1,.61,1.52V190c0,.49,0,.84,0,1.06h-1c0-.26-.07-.48-.08-.64h0a1.69,1.69,0,0,1-.7.56,2.52,2.52,0,0,1-1,.19A2.24,2.24,0,0,1,76.28,190.69ZM79,190a1,1,0,0,0,.41-.84v-.57H77.7c-.57,0-.86.25-.86.74a.88.88,0,0,0,.32.72,1.25,1.25,0,0,0,.84.27A1.56,1.56,0,0,0,79,190Z"/><path class="cls-3" d="M82.35,191.11a5.44,5.44,0,0,1-.91-.26l.1-1a4.34,4.34,0,0,0,.86.29,3.63,3.63,0,0,0,.9.11,1.54,1.54,0,0,0,.89-.2.62.62,0,0,0,.3-.54.61.61,0,0,0-.27-.52,4.39,4.39,0,0,0-1-.41A3.74,3.74,0,0,1,82,188a1.49,1.49,0,0,1,.12-2.31,2.81,2.81,0,0,1,1.58-.4,5.38,5.38,0,0,1,1.56.24l-.1.92a4.16,4.16,0,0,0-1.39-.25c-.75,0-1.13.22-1.13.65a.55.55,0,0,0,.28.49,4.35,4.35,0,0,0,1,.4,3.66,3.66,0,0,1,1.28.66,1.31,1.31,0,0,1,.4,1,1.56,1.56,0,0,1-.64,1.35,2.7,2.7,0,0,1-1.64.46A4.77,4.77,0,0,1,82.35,191.11Z"/><path class="cls-3" d="M89.51,190.88a2.34,2.34,0,0,1-1-1,3.33,3.33,0,0,1-.36-1.61,3.41,3.41,0,0,1,.38-1.65,2.57,2.57,0,0,1,1-1,2.9,2.9,0,0,1,1.4-.34,2.47,2.47,0,0,1,1,.2,1.81,1.81,0,0,1,.69.55h0v-2.66l1.13-.3v6.53c0,.34,0,.85,0,1.53h-1c0-.22-.07-.45-.1-.69h0a2.29,2.29,0,0,1-1.87.8A2.92,2.92,0,0,1,89.51,190.88ZM92,190a2.09,2.09,0,0,0,.68-.61v-1.79a1.31,1.31,0,0,0-.45-1,1.62,1.62,0,0,0-1.16-.42,1.6,1.6,0,0,0-1.29.57,2.25,2.25,0,0,0-.48,1.52,2,2,0,0,0,.48,1.47,1.65,1.65,0,0,0,1.27.5A1.86,1.86,0,0,0,92,190Z"/><path class="cls-3" d="M95.44,190.46a2.86,2.86,0,0,1-.78-2.15,3.45,3.45,0,0,1,.34-1.59,2.54,2.54,0,0,1,1-1.08,3,3,0,0,1,1.52-.38,2.27,2.27,0,0,1,1.83.72,2.84,2.84,0,0,1,.61,1.91,5.27,5.27,0,0,1-.05.71h-4a1.63,1.63,0,0,0,.52,1.23,2,2,0,0,0,1.42.44,4.21,4.21,0,0,0,1.66-.3l.13.89a5,5,0,0,1-1.92.35A3.07,3.07,0,0,1,95.44,190.46Zm3.36-2.69v-.13a1.89,1.89,0,0,0-.3-1,1.19,1.19,0,0,0-1.07-.46,1.48,1.48,0,0,0-1.13.45,1.77,1.77,0,0,0-.45,1.19Z"/><path class="cls-3" d="M104.12,191.06a4.64,4.64,0,0,1-1.11-.37v-7.35l1.13-.3v3h0a2.45,2.45,0,0,1,.81-.54,2.76,2.76,0,0,1,1.07-.2,2.63,2.63,0,0,1,1.31.33,2.33,2.33,0,0,1,.92,1,3.28,3.28,0,0,1,.34,1.57,3,3,0,0,1-.83,2.26,3.19,3.19,0,0,1-2.33.82A6.27,6.27,0,0,1,104.12,191.06Zm2.85-1.34a2.59,2.59,0,0,0,.06-3,1.57,1.57,0,0,0-1.25-.53,1.69,1.69,0,0,0-1.18.43,1.57,1.57,0,0,0-.46,1.18V190a3.38,3.38,0,0,0,1.35.26A2,2,0,0,0,107,189.72Z"/><path class="cls-3" d="M109.66,184.25a.74.74,0,0,1-.22-.55.73.73,0,0,1,.22-.56.84.84,0,0,1,1.13,0,.74.74,0,0,1,.24.56.72.72,0,0,1-.24.55.81.81,0,0,1-1.13,0Zm0,1.11h1.13v5.74h-1.13Z"/><path class="cls-3" d="M113.19,190.84a2.49,2.49,0,0,1-1-1.05,3.33,3.33,0,0,1-.35-1.54,3.27,3.27,0,0,1,.36-1.56,2.49,2.49,0,0,1,1-1.05,3.39,3.39,0,0,1,3.12,0,2.49,2.49,0,0,1,1,1.05,3.27,3.27,0,0,1,.36,1.56,3.33,3.33,0,0,1-.35,1.54,2.49,2.49,0,0,1-1,1.05,3.52,3.52,0,0,1-3.14,0Zm2.85-1.09a2.21,2.21,0,0,0,.49-1.52,2.18,2.18,0,0,0-.49-1.51,1.76,1.76,0,0,0-2.56,0,2.18,2.18,0,0,0-.49,1.51,2.21,2.21,0,0,0,.49,1.52,1.76,1.76,0,0,0,2.56,0Z"/><path class="cls-3" d="M119.26,191.11a5.56,5.56,0,0,1-.92-.26l.1-1a4.68,4.68,0,0,0,.87.29,3.55,3.55,0,0,0,.89.11,1.52,1.52,0,0,0,.89-.2.64.64,0,0,0,0-1.06,4.79,4.79,0,0,0-1-.41,3.74,3.74,0,0,1-1.23-.63,1.36,1.36,0,0,1-.48-1.12,1.32,1.32,0,0,1,.61-1.19,2.77,2.77,0,0,1,1.57-.4,5.5,5.5,0,0,1,1.57.24l-.1.92a4.22,4.22,0,0,0-1.4-.25c-.75,0-1.12.22-1.12.65a.55.55,0,0,0,.27.49,4.84,4.84,0,0,0,1,.4,3.82,3.82,0,0,1,1.29.66,1.34,1.34,0,0,1,.39,1,1.57,1.57,0,0,1-.63,1.35,2.74,2.74,0,0,1-1.64.46A4.77,4.77,0,0,1,119.26,191.11Z"/><path class="cls-3" d="M123.83,190.46a2.86,2.86,0,0,1-.78-2.15,3.58,3.58,0,0,1,.34-1.59,2.54,2.54,0,0,1,1-1.08,3,3,0,0,1,1.52-.38,2.27,2.27,0,0,1,1.83.72,2.84,2.84,0,0,1,.61,1.91,5.27,5.27,0,0,1,0,.71h-4a1.63,1.63,0,0,0,.52,1.23,2,2,0,0,0,1.42.44,4.17,4.17,0,0,0,1.66-.3l.13.89a5,5,0,0,1-1.91.35A3.07,3.07,0,0,1,123.83,190.46Zm3.36-2.69v-.13a1.89,1.89,0,0,0-.3-1,1.18,1.18,0,0,0-1.06-.46,1.48,1.48,0,0,0-1.14.45,1.77,1.77,0,0,0-.45,1.19Z"/><path class="cls-3" d="M130.91,193.65a4.25,4.25,0,0,1-.87-.22l.1-.91a3.76,3.76,0,0,0,.79.21,5,5,0,0,0,.82.07,1.65,1.65,0,0,0,1.29-.46,2.16,2.16,0,0,0,.41-1.45v-.37a2.07,2.07,0,0,1-.73.46,2.71,2.71,0,0,1-1,.17,3,3,0,0,1-1.44-.35,2.47,2.47,0,0,1-1-1,3,3,0,0,1-.35-1.5,3.18,3.18,0,0,1,.39-1.59,2.81,2.81,0,0,1,1-1.06,2.94,2.94,0,0,1,1.46-.37,2.26,2.26,0,0,1,1.07.23,2.15,2.15,0,0,1,.71.58l.11-.71h.85v5.48a3,3,0,0,1-.68,2.18,2.7,2.7,0,0,1-2,.71A6.19,6.19,0,0,1,130.91,193.65Zm2.54-4.17V187.6a1.33,1.33,0,0,0-.42-1,1.56,1.56,0,0,0-1.1-.39,1.71,1.71,0,0,0-1.32.55,2,2,0,0,0-.52,1.48,2,2,0,0,0,.51,1.45,1.74,1.74,0,0,0,1.3.54A2,2,0,0,0,133.45,189.48Z"/><path class="cls-3" d="M136.47,190.66a2.2,2.2,0,0,1-.61-1.74v-3.56H137v3.56a1.2,1.2,0,0,0,1.36,1.36,1.35,1.35,0,0,0,1-.35,1.38,1.38,0,0,0,.35-1v-3.56h1.13v3.56a2.2,2.2,0,0,1-.63,1.69,2.61,2.61,0,0,1-1.87.6A2.74,2.74,0,0,1,136.47,190.66Z"/><path class="cls-3" d="M142.13,185.36h1l.08.8a3.51,3.51,0,0,1,.92-.61,3.09,3.09,0,0,1,1.12-.29l-.09,1.11a3.8,3.8,0,0,0-1.9.66v4.07h-1.13Z"/><path class="cls-3" d="M146.1,184.25a.74.74,0,0,1-.22-.55.73.73,0,0,1,.22-.56.77.77,0,0,1,.57-.22.8.8,0,0,1,.57.22.77.77,0,0,1,.23.56.75.75,0,0,1-.23.55.81.81,0,0,1-.57.23A.78.78,0,0,1,146.1,184.25Zm0,1.11h1.13v5.74h-1.13Z"/><path class="cls-3" d="M149.61,190.88a2.4,2.4,0,0,1-1-1,3.45,3.45,0,0,1-.35-1.61,3.3,3.3,0,0,1,.38-1.65,2.51,2.51,0,0,1,1-1,2.83,2.83,0,0,1,1.39-.34,2.49,2.49,0,0,1,1,.2,1.81,1.81,0,0,1,.69.55h0v-2.66l1.13-.3v6.53c0,.34,0,.85,0,1.53h-1a5,5,0,0,1-.1-.69h0a2.27,2.27,0,0,1-1.86.8A3,3,0,0,1,149.61,190.88Zm2.52-.85a2,2,0,0,0,.68-.61v-1.79a1.31,1.31,0,0,0-.45-1,1.76,1.76,0,0,0-2.44.15,2.21,2.21,0,0,0-.49,1.52,2,2,0,0,0,.48,1.47,1.65,1.65,0,0,0,1.27.5A1.83,1.83,0,0,0,152.13,190Z"/><path class="cls-3" d="M155.48,190.69a1.74,1.74,0,0,1-.59-1.38,1.35,1.35,0,0,1,.53-1.16,2.89,2.89,0,0,1,1.68-.39h.35a6.51,6.51,0,0,1,1.16.09v-.46a1.11,1.11,0,0,0-.36-.92,1.81,1.81,0,0,0-1.11-.28,6.09,6.09,0,0,0-1.66.25l-.1-.93a7.54,7.54,0,0,1,1.91-.25,2.89,2.89,0,0,1,1.84.5,1.87,1.87,0,0,1,.61,1.52V190c0,.49,0,.84,0,1.06h-1c0-.26-.07-.48-.09-.64h0a1.69,1.69,0,0,1-.7.56,2.52,2.52,0,0,1-1,.19A2.24,2.24,0,0,1,155.48,190.69Zm2.72-.69a1,1,0,0,0,.41-.84v-.57H156.9c-.57,0-.86.25-.86.74a.88.88,0,0,0,.32.72,1.21,1.21,0,0,0,.84.27A1.56,1.56,0,0,0,158.2,190Z"/><path class="cls-3" d="M162,190.88a2.32,2.32,0,0,1-1-1,3.78,3.78,0,0,1,0-3.26,2.51,2.51,0,0,1,1-1,2.86,2.86,0,0,1,1.39-.34,2.49,2.49,0,0,1,1,.2,1.81,1.81,0,0,1,.69.55h0v-2.66l1.13-.3v6.53c0,.34,0,.85,0,1.53h-1a5,5,0,0,1-.1-.69h0a2.31,2.31,0,0,1-1.87.8A3,3,0,0,1,162,190.88Zm2.52-.85a2,2,0,0,0,.68-.61v-1.79a1.31,1.31,0,0,0-.45-1,1.76,1.76,0,0,0-2.44.15,2.21,2.21,0,0,0-.49,1.52,2,2,0,0,0,.48,1.47,1.65,1.65,0,0,0,1.27.5A1.83,1.83,0,0,0,164.47,190Z"/><path class="cls-3" d="M36.68,200.69a1.77,1.77,0,0,1-.59-1.38,1.35,1.35,0,0,1,.54-1.16,2.85,2.85,0,0,1,1.68-.39h.35a6.39,6.39,0,0,1,1.15.09v-.46a1.1,1.1,0,0,0-.35-.92,1.81,1.81,0,0,0-1.11-.28,6,6,0,0,0-1.66.25l-.1-.93a7.52,7.52,0,0,1,1.9-.25,2.92,2.92,0,0,1,1.85.5,1.87,1.87,0,0,1,.61,1.52V200c0,.49,0,.84,0,1.06H40c0-.26-.07-.48-.09-.64h0a1.76,1.76,0,0,1-.7.56,2.55,2.55,0,0,1-1,.19A2.27,2.27,0,0,1,36.68,200.69Zm2.73-.69a1,1,0,0,0,.4-.84v-.57h-1.7c-.57,0-.86.25-.86.74a.87.87,0,0,0,.31.72,1.25,1.25,0,0,0,.84.27A1.58,1.58,0,0,0,39.41,200Z"/><path class="cls-3" d="M44.72,200.46a2.86,2.86,0,0,1-.78-2.15,3.58,3.58,0,0,1,.33-1.59,2.56,2.56,0,0,1,1-1.08,2.92,2.92,0,0,1,1.51-.38,2.28,2.28,0,0,1,1.84.72,2.9,2.9,0,0,1,.61,1.91,4,4,0,0,1-.06.71h-4a1.71,1.71,0,0,0,.52,1.23,2,2,0,0,0,1.42.44,4.14,4.14,0,0,0,1.66-.3l.13.89a4.93,4.93,0,0,1-1.91.35A3.07,3.07,0,0,1,44.72,200.46Zm3.35-2.69v-.13a1.89,1.89,0,0,0-.3-1,1.16,1.16,0,0,0-1.06-.46,1.45,1.45,0,0,0-1.13.45,1.77,1.77,0,0,0-.45,1.19Z"/><path class="cls-3" d="M54.37,200.51a2.42,2.42,0,0,1-.76.51,2.78,2.78,0,0,1-1,.19,2.81,2.81,0,0,1-1.39-.35,2.65,2.65,0,0,1-1-1,3.25,3.25,0,0,1-.37-1.57,3.16,3.16,0,0,1,.39-1.6,2.65,2.65,0,0,1,1-1,3,3,0,0,1,1.47-.36,2.44,2.44,0,0,1,1.09.22,1.85,1.85,0,0,1,.72.59l.11-.71h.85v8l-1.13.3Zm-.65-.47a1.94,1.94,0,0,0,.65-.59V197.6a1.35,1.35,0,0,0-.43-1,1.61,1.61,0,0,0-1.14-.41,1.7,1.7,0,0,0-1.31.55,2.47,2.47,0,0,0,0,3,1.7,1.7,0,0,0,1.31.54A2,2,0,0,0,53.72,200Z"/><path class="cls-3" d="M57.39,200.66a2.21,2.21,0,0,1-.62-1.74v-3.56h1.14v3.56a1.2,1.2,0,0,0,1.36,1.36,1.35,1.35,0,0,0,1-.35,1.38,1.38,0,0,0,.35-1v-3.56h1.13v3.56a2.2,2.2,0,0,1-.63,1.69,2.63,2.63,0,0,1-1.87.6A2.74,2.74,0,0,1,57.39,200.66Z"/><path class="cls-3" d="M63.08,194.25a.74.74,0,0,1-.22-.55.73.73,0,0,1,.22-.56.77.77,0,0,1,.57-.22.8.8,0,0,1,.57.22.77.77,0,0,1,.23.56.75.75,0,0,1-.23.55.81.81,0,0,1-.57.23A.78.78,0,0,1,63.08,194.25Zm0,1.11h1.13v5.74H63.09Z"/><path class="cls-3" d="M65.61,195.36h.91l.12.76a2.3,2.3,0,0,1,1.91-.86,2.87,2.87,0,0,1,1.42.34,2.62,2.62,0,0,1,1,1,3.25,3.25,0,0,1,.36,1.57A3.34,3.34,0,0,1,71,199.8a2.69,2.69,0,0,1-1,1,2.91,2.91,0,0,1-1.45.36,3,3,0,0,1-1-.16,2.45,2.45,0,0,1-.75-.42v2.76l-1.13.3Zm4.1,4.34a2.24,2.24,0,0,0,.46-1.48,2,2,0,0,0-.5-1.5,1.75,1.75,0,0,0-1.3-.52,1.73,1.73,0,0,0-1.17.4,1.28,1.28,0,0,0-.46,1v1.92a1.86,1.86,0,0,0,.72.52,2.25,2.25,0,0,0,1,.2A1.57,1.57,0,0,0,69.71,199.7Z"/><path class="cls-3" d="M73.32,200.84a2.49,2.49,0,0,1-1-1.05,3.32,3.32,0,0,1-.34-1.54,3.26,3.26,0,0,1,.35-1.56,2.49,2.49,0,0,1,1-1.05,3.39,3.39,0,0,1,3.12,0,2.58,2.58,0,0,1,1,1.05,3.38,3.38,0,0,1,.35,1.56,3.33,3.33,0,0,1-.35,1.54,2.53,2.53,0,0,1-1,1.05,3.29,3.29,0,0,1-1.58.37A3.22,3.22,0,0,1,73.32,200.84Zm2.85-1.09a2.21,2.21,0,0,0,.49-1.52,2.18,2.18,0,0,0-.49-1.51,1.76,1.76,0,0,0-2.56,0,2.18,2.18,0,0,0-.49,1.51,2.21,2.21,0,0,0,.49,1.52,1.76,1.76,0,0,0,2.56,0Z"/><path class="cls-3" d="M79.39,201.11a5.18,5.18,0,0,1-.91-.26l.1-1a4.34,4.34,0,0,0,.86.29,3.57,3.57,0,0,0,.9.11,1.57,1.57,0,0,0,.89-.2.61.61,0,0,0,.29-.54.6.6,0,0,0-.26-.52,4.53,4.53,0,0,0-1-.41,3.74,3.74,0,0,1-1.23-.63,1.36,1.36,0,0,1-.48-1.12,1.32,1.32,0,0,1,.61-1.19,2.78,2.78,0,0,1,1.58-.4,5.48,5.48,0,0,1,1.56.24l-.1.92a4.22,4.22,0,0,0-1.4-.25c-.75,0-1.12.22-1.12.65a.53.53,0,0,0,.28.49,4.44,4.44,0,0,0,1,.4,3.63,3.63,0,0,1,1.29.66,1.35,1.35,0,0,1,.4,1,1.58,1.58,0,0,1-.64,1.35,2.72,2.72,0,0,1-1.64.46A4.77,4.77,0,0,1,79.39,201.11Z"/><path class="cls-3" d="M84.54,200a1.1,1.1,0,0,1,.24.78,2.27,2.27,0,0,1-.34,1.19,2.92,2.92,0,0,1-.86.92l-.43-.42a2.29,2.29,0,0,0,.59-.57,1.39,1.39,0,0,0,.29-.66h-.12a.77.77,0,0,1-.55-.22.74.74,0,0,1-.23-.54.72.72,0,0,1,.23-.53.82.82,0,0,1,.55-.22A.83.83,0,0,1,84.54,200Z"/><path class="cls-3" d="M87.9,195.36h1l.08.51a3.55,3.55,0,0,1,.87-.44,3,3,0,0,1,1-.17,1.79,1.79,0,0,1,1.49.68,3.75,3.75,0,0,1,2.08-.68,1.81,1.81,0,0,1,1.45.56,2.33,2.33,0,0,1,.47,1.58v3.7H95.24v-3.44a3.82,3.82,0,0,0,0-.64,1.11,1.11,0,0,0-.16-.42,1,1,0,0,0-.87-.4,2.44,2.44,0,0,0-.8.15,2.31,2.31,0,0,0-.72.36,5.94,5.94,0,0,1,0,.76v3.63H91.57v-3.44a1.88,1.88,0,0,0-.24-1.1.94.94,0,0,0-.83-.36,2.16,2.16,0,0,0-.78.15,2.76,2.76,0,0,0-.68.37v4.38H87.9Z"/><path class="cls-3" d="M97.82,200.69a1.77,1.77,0,0,1-.59-1.38,1.35,1.35,0,0,1,.54-1.16,2.84,2.84,0,0,1,1.67-.39h.36a6.39,6.39,0,0,1,1.15.09v-.46a1.13,1.13,0,0,0-.35-.92,1.85,1.85,0,0,0-1.11-.28,6,6,0,0,0-1.66.25l-.1-.93a7.46,7.46,0,0,1,1.9-.25,2.87,2.87,0,0,1,1.84.5,1.84,1.84,0,0,1,.61,1.52V200c0,.49,0,.84,0,1.06h-1a5.35,5.35,0,0,1-.09-.64h0a1.76,1.76,0,0,1-.7.56,2.57,2.57,0,0,1-1,.19A2.24,2.24,0,0,1,97.82,200.69Zm2.73-.69a1,1,0,0,0,.4-.84v-.57h-1.7c-.58,0-.86.25-.86.74a.87.87,0,0,0,.31.72,1.25,1.25,0,0,0,.84.27A1.58,1.58,0,0,0,100.55,200Z"/><path class="cls-3" d="M103.72,200.67a2.25,2.25,0,0,1-.45-1.57v-5l1.13-.23v1.6h2l-.33.94H104.4v2.79a1.18,1.18,0,0,0,.22.79,1.12,1.12,0,0,0,.8.23,3.72,3.72,0,0,0,.91-.11l.07.88a4.42,4.42,0,0,1-1.21.16A1.94,1.94,0,0,1,103.72,200.67Z"/><path class="cls-3" d="M107.55,200.46a2.86,2.86,0,0,1-.78-2.15,3.58,3.58,0,0,1,.33-1.59,2.56,2.56,0,0,1,1-1.08,2.93,2.93,0,0,1,1.52-.38,2.27,2.27,0,0,1,1.83.72,2.84,2.84,0,0,1,.61,1.91,4,4,0,0,1-.06.71h-4a1.67,1.67,0,0,0,.51,1.23,2,2,0,0,0,1.42.44,4.14,4.14,0,0,0,1.66-.3l.14.89a5,5,0,0,1-1.92.35A3.07,3.07,0,0,1,107.55,200.46Zm3.36-2.69v-.13a1.9,1.9,0,0,0-.31-1,1.16,1.16,0,0,0-1.06-.46,1.46,1.46,0,0,0-1.13.45,1.77,1.77,0,0,0-.45,1.19Z"/><path class="cls-3" d="M113,195.36h1l.07.8a3.74,3.74,0,0,1,.93-.61,3,3,0,0,1,1.12-.29l-.09,1.11a3.8,3.8,0,0,0-1.9.66v4.07H113Z"/><path class="cls-3" d="M117,194.25a.74.74,0,0,1-.22-.55.73.73,0,0,1,.22-.56.77.77,0,0,1,.57-.22.8.8,0,0,1,.57.22.77.77,0,0,1,.23.56.75.75,0,0,1-.23.55.81.81,0,0,1-.57.23A.78.78,0,0,1,117,194.25Zm0,1.11h1.13v5.74H117Z"/><path class="cls-3" d="M119.7,200.69a1.77,1.77,0,0,1-.59-1.38,1.35,1.35,0,0,1,.54-1.16,2.84,2.84,0,0,1,1.67-.39h.35a6.43,6.43,0,0,1,1.16.09v-.46a1.13,1.13,0,0,0-.35-.92,1.85,1.85,0,0,0-1.11-.28,6,6,0,0,0-1.66.25l-.1-.93a7.46,7.46,0,0,1,1.9-.25,2.87,2.87,0,0,1,1.84.5,1.84,1.84,0,0,1,.61,1.52V200c0,.49,0,.84,0,1.06h-1a5.35,5.35,0,0,1-.09-.64h0a1.76,1.76,0,0,1-.7.56,2.57,2.57,0,0,1-1,.19A2.24,2.24,0,0,1,119.7,200.69Zm2.73-.69a1,1,0,0,0,.4-.84v-.57h-1.7c-.58,0-.86.25-.86.74a.87.87,0,0,0,.31.72,1.25,1.25,0,0,0,.84.27A1.58,1.58,0,0,0,122.43,200Z"/><path class="cls-3" d="M125.24,193.34l1.13-.3v8.06h-1.13Z"/><path class="cls-3" d="M128,200.46a2.86,2.86,0,0,1-.78-2.15,3.45,3.45,0,0,1,.34-1.59,2.48,2.48,0,0,1,1-1.08,2.93,2.93,0,0,1,1.52-.38,2.27,2.27,0,0,1,1.83.72,2.84,2.84,0,0,1,.61,1.91,5.27,5.27,0,0,1,0,.71h-4a1.67,1.67,0,0,0,.51,1.23,2,2,0,0,0,1.42.44A4.14,4.14,0,0,0,132,200l.14.89a5,5,0,0,1-1.92.35A3.07,3.07,0,0,1,128,200.46Zm3.36-2.69v-.13a1.82,1.82,0,0,0-.31-1,1.16,1.16,0,0,0-1.06-.46,1.48,1.48,0,0,0-1.13.45,1.77,1.77,0,0,0-.45,1.19Z"/><path class="cls-3" d="M134.06,201.11a5.18,5.18,0,0,1-.91-.26l.1-1a4.34,4.34,0,0,0,.86.29,3.57,3.57,0,0,0,.9.11,1.57,1.57,0,0,0,.89-.2.61.61,0,0,0,.29-.54.6.6,0,0,0-.26-.52,4.53,4.53,0,0,0-1-.41,3.74,3.74,0,0,1-1.23-.63,1.36,1.36,0,0,1-.48-1.12,1.32,1.32,0,0,1,.61-1.19,2.78,2.78,0,0,1,1.58-.4,5.48,5.48,0,0,1,1.56.24l-.1.92a4.22,4.22,0,0,0-1.4-.25c-.75,0-1.12.22-1.12.65a.53.53,0,0,0,.28.49,4.44,4.44,0,0,0,1,.4,3.63,3.63,0,0,1,1.29.66,1.35,1.35,0,0,1,.4,1,1.58,1.58,0,0,1-.64,1.35,2.72,2.72,0,0,1-1.64.46A4.77,4.77,0,0,1,134.06,201.11Z"/><path class="cls-3" d="M140.66,200.46a2.86,2.86,0,0,1-.78-2.15,3.45,3.45,0,0,1,.34-1.59,2.48,2.48,0,0,1,1-1.08,2.93,2.93,0,0,1,1.52-.38,2.27,2.27,0,0,1,1.83.72,2.84,2.84,0,0,1,.61,1.91,4,4,0,0,1-.06.71h-4a1.67,1.67,0,0,0,.51,1.23,2,2,0,0,0,1.42.44,4.14,4.14,0,0,0,1.66-.3l.14.89a5,5,0,0,1-1.92.35A3.07,3.07,0,0,1,140.66,200.46Zm3.36-2.69v-.13a1.82,1.82,0,0,0-.31-1,1.16,1.16,0,0,0-1.06-.46,1.46,1.46,0,0,0-1.13.45,1.77,1.77,0,0,0-.45,1.19Z"/><path class="cls-3" d="M59.33,204.25a.78.78,0,0,1,0-1.11.75.75,0,0,1,.56-.22.8.8,0,0,1,.57.22.74.74,0,0,1,.24.56.72.72,0,0,1-.24.55.81.81,0,0,1-.57.23A.75.75,0,0,1,59.33,204.25Zm0,1.11h1.13v5.74H59.33Z"/><path class="cls-3" d="M61.85,205.36h1l.09.51a3.55,3.55,0,0,1,.94-.45,3.49,3.49,0,0,1,1.06-.16,1.85,1.85,0,0,1,1.44.53,2.21,2.21,0,0,1,.5,1.57v3.74H65.74v-3.62a1.44,1.44,0,0,0-.28-1,1.18,1.18,0,0,0-.87-.31,2.58,2.58,0,0,0-.85.15,3,3,0,0,0-.76.37v4.38H61.85Z"/><path class="cls-3" d="M68.71,211.11a5.44,5.44,0,0,1-.91-.26l.1-1a4.34,4.34,0,0,0,.86.29,3.63,3.63,0,0,0,.9.11,1.54,1.54,0,0,0,.89-.2.62.62,0,0,0,.3-.54.61.61,0,0,0-.27-.52,4.39,4.39,0,0,0-1-.41,3.9,3.9,0,0,1-1.24-.63,1.36,1.36,0,0,1-.48-1.12,1.32,1.32,0,0,1,.61-1.19,2.81,2.81,0,0,1,1.58-.4,5.38,5.38,0,0,1,1.56.24l-.1.92a4.16,4.16,0,0,0-1.39-.25c-.75,0-1.13.22-1.13.65a.55.55,0,0,0,.28.49,4.35,4.35,0,0,0,1,.4,3.66,3.66,0,0,1,1.28.66,1.31,1.31,0,0,1,.4,1,1.56,1.56,0,0,1-.64,1.35,2.7,2.7,0,0,1-1.64.46A4.77,4.77,0,0,1,68.71,211.11Z"/><path class="cls-3" d="M73.13,210.67a2.2,2.2,0,0,1-.46-1.57v-5l1.14-.23v1.6h2l-.33.94h-1.7v2.79A1.13,1.13,0,0,0,74,210a1.08,1.08,0,0,0,.79.23,3.72,3.72,0,0,0,.91-.11l.07.88a4.37,4.37,0,0,1-1.21.16A1.9,1.9,0,0,1,73.13,210.67Z"/><path class="cls-3" d="M76.74,205.36h1l.07.8a3.57,3.57,0,0,1,.93-.61,3,3,0,0,1,1.12-.29l-.09,1.11a3.76,3.76,0,0,0-1.9.66v4.07H76.74Z"/><path class="cls-3" d="M81.23,210.66a2.2,2.2,0,0,1-.61-1.74v-3.56h1.13v3.56a1.2,1.2,0,0,0,1.36,1.36,1.35,1.35,0,0,0,1-.35,1.38,1.38,0,0,0,.35-1v-3.56h1.13v3.56a2.2,2.2,0,0,1-.63,1.69,2.63,2.63,0,0,1-1.87.6A2.74,2.74,0,0,1,81.23,210.66Z"/><path class="cls-3" d="M86.89,205.36h1l.08.51a3.55,3.55,0,0,1,.87-.44,3,3,0,0,1,1-.17,1.79,1.79,0,0,1,1.49.68,3.78,3.78,0,0,1,2.08-.68,1.81,1.81,0,0,1,1.45.56,2.33,2.33,0,0,1,.47,1.58v3.7H94.22v-3.44a3.82,3.82,0,0,0,0-.64,1.3,1.3,0,0,0-.15-.42,1,1,0,0,0-.87-.4,2.49,2.49,0,0,0-.81.15,2.43,2.43,0,0,0-.72.36,5.94,5.94,0,0,1,.05.76v3.63H90.55v-3.44a1.88,1.88,0,0,0-.24-1.1.93.93,0,0,0-.83-.36,2.16,2.16,0,0,0-.78.15,2.76,2.76,0,0,0-.68.37v4.38H86.89Z"/><path class="cls-3" d="M97,210.46a2.86,2.86,0,0,1-.78-2.15,3.58,3.58,0,0,1,.33-1.59,2.56,2.56,0,0,1,1-1.08,2.93,2.93,0,0,1,1.52-.38,2.27,2.27,0,0,1,1.83.72,2.9,2.9,0,0,1,.61,1.91,4,4,0,0,1-.06.71h-4a1.71,1.71,0,0,0,.52,1.23,2,2,0,0,0,1.42.44A4.14,4.14,0,0,0,101,210l.13.89a4.93,4.93,0,0,1-1.91.35A3.07,3.07,0,0,1,97,210.46Zm3.35-2.69v-.13a1.89,1.89,0,0,0-.3-1,1.16,1.16,0,0,0-1.06-.46,1.45,1.45,0,0,0-1.13.45,1.77,1.77,0,0,0-.45,1.19Z"/><path class="cls-3" d="M102.49,205.36h1l.08.51a3.71,3.71,0,0,1,.94-.45,3.56,3.56,0,0,1,1.07-.16,1.85,1.85,0,0,1,1.44.53,2.21,2.21,0,0,1,.49,1.57v3.74h-1.13v-3.62a1.44,1.44,0,0,0-.29-1,1.18,1.18,0,0,0-.87-.31,2.53,2.53,0,0,0-.84.15,2.83,2.83,0,0,0-.76.37v4.38h-1.14Z"/><path class="cls-3" d="M109.18,210.67a2.25,2.25,0,0,1-.45-1.57v-5l1.13-.23v1.6h2l-.33.94h-1.71v2.79a1.18,1.18,0,0,0,.22.79,1.12,1.12,0,0,0,.8.23,3.72,3.72,0,0,0,.91-.11l.07.88a4.42,4.42,0,0,1-1.21.16A1.94,1.94,0,0,1,109.18,210.67Z"/><path class="cls-3" d="M112.94,210.69a1.77,1.77,0,0,1-.59-1.38,1.37,1.37,0,0,1,.53-1.16,2.89,2.89,0,0,1,1.68-.39h.35a6.43,6.43,0,0,1,1.16.09v-.46a1.13,1.13,0,0,0-.35-.92,1.85,1.85,0,0,0-1.11-.28,6,6,0,0,0-1.66.25l-.1-.93a7.46,7.46,0,0,1,1.9-.25,2.89,2.89,0,0,1,1.84.5,1.84,1.84,0,0,1,.61,1.52V210c0,.49,0,.84,0,1.06h-1a5.35,5.35,0,0,1-.09-.64h0a1.76,1.76,0,0,1-.7.56,2.57,2.57,0,0,1-1,.19A2.24,2.24,0,0,1,112.94,210.69Zm2.73-.69a1,1,0,0,0,.4-.84v-.57h-1.71c-.57,0-.85.25-.85.74a.87.87,0,0,0,.31.72,1.25,1.25,0,0,0,.84.27A1.6,1.6,0,0,0,115.67,210Z"/><path class="cls-3" d="M118.48,203.34l1.13-.3v8.06h-1.13Z"/><path class="cls-3" d="M120.91,211a.74.74,0,0,1-.22-.55.73.73,0,0,1,.22-.56.77.77,0,0,1,.57-.22.8.8,0,0,1,.57.22.73.73,0,0,1,.23.56.71.71,0,0,1-.23.55.81.81,0,0,1-.57.23A.78.78,0,0,1,120.91,211Z"/><path class="cls-3" d="M197.63,188.66h1.3l2.33,5.67h.08l2.24-5.67h1.29l-3.12,7.44h-.93Z"/><path class="cls-3" d="M205.6,195.69a1.77,1.77,0,0,1-.59-1.38,1.35,1.35,0,0,1,.54-1.16,2.84,2.84,0,0,1,1.67-.39h.36a6.39,6.39,0,0,1,1.15.09v-.46a1.13,1.13,0,0,0-.35-.92,1.85,1.85,0,0,0-1.11-.28,6,6,0,0,0-1.66.25l-.1-.93a7.46,7.46,0,0,1,1.9-.25,2.87,2.87,0,0,1,1.84.5,1.84,1.84,0,0,1,.61,1.52V195c0,.49,0,.84,0,1.06h-1a5.35,5.35,0,0,1-.09-.64h0a1.76,1.76,0,0,1-.7.56,2.57,2.57,0,0,1-1,.19A2.24,2.24,0,0,1,205.6,195.69Zm2.73-.69a1,1,0,0,0,.4-.84v-.57H207c-.58,0-.86.25-.86.74a.87.87,0,0,0,.31.72,1.25,1.25,0,0,0,.84.27A1.58,1.58,0,0,0,208.33,195Z"/><path class="cls-3" d="M211.47,188.34l1.13-.3v8.06h-1.13Z"/><path class="cls-3" d="M215.15,195.84a2.47,2.47,0,0,1-1-1.05,3.33,3.33,0,0,1-.35-1.54,3.38,3.38,0,0,1,.35-1.56,2.58,2.58,0,0,1,1-1.05,3.39,3.39,0,0,1,3.12,0,2.49,2.49,0,0,1,1,1.05,3.26,3.26,0,0,1,.35,1.56,3.32,3.32,0,0,1-.34,1.54,2.49,2.49,0,0,1-1,1.05,3.22,3.22,0,0,1-1.57.37A3.26,3.26,0,0,1,215.15,195.84Zm2.86-1.09a2.21,2.21,0,0,0,.49-1.52,2.18,2.18,0,0,0-.49-1.51,1.76,1.76,0,0,0-2.56,0,2.18,2.18,0,0,0-.49,1.51,2.21,2.21,0,0,0,.49,1.52,1.76,1.76,0,0,0,2.56,0Z"/><path class="cls-3" d="M221,190.36h1l.08.8a3.68,3.68,0,0,1,.92-.61,3.14,3.14,0,0,1,1.13-.29l-.09,1.11a3.76,3.76,0,0,0-1.9.66v4.07H221Z"/><path class="cls-3" d="M225.4,195.46a2.83,2.83,0,0,1-.79-2.15,3.58,3.58,0,0,1,.34-1.59,2.54,2.54,0,0,1,1-1.08,3,3,0,0,1,1.52-.38,2.25,2.25,0,0,1,1.83.72,2.84,2.84,0,0,1,.61,1.91,5.27,5.27,0,0,1,0,.71h-4a1.67,1.67,0,0,0,.52,1.23,2,2,0,0,0,1.42.44,4.17,4.17,0,0,0,1.66-.3l.13.89a5,5,0,0,1-1.91.35A3,3,0,0,1,225.4,195.46Zm3.35-2.69v-.13a1.89,1.89,0,0,0-.3-1,1.17,1.17,0,0,0-1.06-.46,1.48,1.48,0,0,0-1.14.45,1.77,1.77,0,0,0-.45,1.19Z"/><path class="cls-3" d="M234.73,195.85a2.53,2.53,0,0,1-1.07-1,3.4,3.4,0,0,1,0-3.18,2.57,2.57,0,0,1,1.11-1,3.73,3.73,0,0,1,1.64-.35,4.5,4.5,0,0,1,1.58.28l-.15.93a3.46,3.46,0,0,0-1.34-.28,2.07,2.07,0,0,0-1.53.55,2,2,0,0,0-.55,1.48,2.06,2.06,0,0,0,.54,1.48,2,2,0,0,0,1.51.57,3.59,3.59,0,0,0,1.45-.3l.14.89a4.41,4.41,0,0,1-1.72.35A3.51,3.51,0,0,1,234.73,195.85Z"/><path class="cls-3" d="M239.32,188.34l1.13-.3v8.06h-1.13Z"/><path class="cls-3" d="M241.6,189l2.29-1.36.52.89L242,189.66Zm.61,1.38h1.14v5.74h-1.14Z"/><path class="cls-3" d="M245.06,190.36h1l.09.51a3.55,3.55,0,0,1,.94-.45,3.49,3.49,0,0,1,1.06-.16,1.85,1.85,0,0,1,1.44.53,2.21,2.21,0,0,1,.5,1.57v3.74H249v-3.62a1.44,1.44,0,0,0-.29-1,1.18,1.18,0,0,0-.87-.31,2.48,2.48,0,0,0-.84.15,2.83,2.83,0,0,0-.76.37v4.38h-1.14Z"/><path class="cls-3" d="M251.71,189.25a.74.74,0,0,1-.22-.55.73.73,0,0,1,.22-.56.84.84,0,0,1,1.13,0,.74.74,0,0,1,.24.56.72.72,0,0,1-.24.55.81.81,0,0,1-1.13,0Zm0,1.11h1.13v5.74h-1.13Z"/><path class="cls-3" d="M255.68,195.85a2.61,2.61,0,0,1-1.08-1,3.06,3.06,0,0,1-.38-1.58,3.14,3.14,0,0,1,.39-1.6,2.69,2.69,0,0,1,1.11-1,3.76,3.76,0,0,1,1.64-.35,4.5,4.5,0,0,1,1.58.28l-.15.93a3.43,3.43,0,0,0-1.34-.28,2.08,2.08,0,0,0-1.53.55,2,2,0,0,0-.55,1.48,2.06,2.06,0,0,0,.54,1.48,2,2,0,0,0,1.52.57,3.62,3.62,0,0,0,1.45-.3l.13.89a4.32,4.32,0,0,1-1.71.35A3.46,3.46,0,0,1,255.68,195.85Z"/><path class="cls-3" d="M260.5,195.69a1.77,1.77,0,0,1-.59-1.38,1.35,1.35,0,0,1,.54-1.16,2.84,2.84,0,0,1,1.67-.39h.36a6.39,6.39,0,0,1,1.15.09v-.46a1.13,1.13,0,0,0-.35-.92,1.85,1.85,0,0,0-1.11-.28,6,6,0,0,0-1.66.25l-.1-.93a7.46,7.46,0,0,1,1.9-.25,2.87,2.87,0,0,1,1.84.5,1.84,1.84,0,0,1,.61,1.52V195c0,.49,0,.84,0,1.06h-1a5.35,5.35,0,0,1-.09-.64h0a1.76,1.76,0,0,1-.7.56,2.57,2.57,0,0,1-1,.19A2.24,2.24,0,0,1,260.5,195.69Zm2.73-.69a1,1,0,0,0,.4-.84v-.57h-1.7c-.58,0-.86.25-.86.74a.87.87,0,0,0,.31.72,1.25,1.25,0,0,0,.84.27A1.58,1.58,0,0,0,263.23,195Z"/><path class="cls-3" d="M266.33,190.36h1l.08.51a3.55,3.55,0,0,1,.87-.44,3,3,0,0,1,1-.17,1.79,1.79,0,0,1,1.49.68,3.75,3.75,0,0,1,2.08-.68,1.81,1.81,0,0,1,1.45.56,2.33,2.33,0,0,1,.47,1.58v3.7h-1.14v-3.44a3.82,3.82,0,0,0,0-.64,1.3,1.3,0,0,0-.15-.42,1,1,0,0,0-.87-.4,2.49,2.49,0,0,0-.81.15,2.31,2.31,0,0,0-.72.36,5.94,5.94,0,0,1,.05.76v3.63H270v-3.44a1.88,1.88,0,0,0-.24-1.1.93.93,0,0,0-.83-.36,2.16,2.16,0,0,0-.78.15,2.76,2.76,0,0,0-.68.37v4.38h-1.13Z"/><path class="cls-3" d="M276.81,195.46a2.86,2.86,0,0,1-.78-2.15,3.58,3.58,0,0,1,.33-1.59,2.56,2.56,0,0,1,1-1.08,2.92,2.92,0,0,1,1.51-.38,2.28,2.28,0,0,1,1.84.72,2.9,2.9,0,0,1,.61,1.91,4,4,0,0,1-.06.71h-4a1.71,1.71,0,0,0,.52,1.23,2,2,0,0,0,1.42.44,4.14,4.14,0,0,0,1.66-.3l.13.89a4.93,4.93,0,0,1-1.91.35A3.07,3.07,0,0,1,276.81,195.46Zm3.35-2.69v-.13a1.89,1.89,0,0,0-.3-1,1.16,1.16,0,0,0-1.06-.46,1.45,1.45,0,0,0-1.13.45,1.77,1.77,0,0,0-.45,1.19Z"/><path class="cls-3" d="M282.59,190.36h1l.09.51a3.71,3.71,0,0,1,.94-.45,3.54,3.54,0,0,1,1.06-.16,1.86,1.86,0,0,1,1.45.53,2.21,2.21,0,0,1,.49,1.57v3.74h-1.13v-3.62a1.44,1.44,0,0,0-.29-1,1.18,1.18,0,0,0-.87-.31,2.48,2.48,0,0,0-.84.15,2.83,2.83,0,0,0-.76.37v4.38h-1.14Z"/><path class="cls-3" d="M289.61,195.67a2.25,2.25,0,0,1-.45-1.57v-5l1.13-.23v1.6h2l-.33.94h-1.71v2.79a1.18,1.18,0,0,0,.22.79,1.11,1.11,0,0,0,.8.23,3.72,3.72,0,0,0,.91-.11l.07.88a4.42,4.42,0,0,1-1.21.16A1.94,1.94,0,0,1,289.61,195.67Z"/><path class="cls-3" d="M293.77,195.46a2.86,2.86,0,0,1-.78-2.15,3.58,3.58,0,0,1,.33-1.59,2.56,2.56,0,0,1,1-1.08,2.93,2.93,0,0,1,1.52-.38,2.27,2.27,0,0,1,1.83.72,2.9,2.9,0,0,1,.61,1.91,4,4,0,0,1-.06.71h-4a1.67,1.67,0,0,0,.51,1.23,2,2,0,0,0,1.42.44,4.14,4.14,0,0,0,1.66-.3l.14.89a5,5,0,0,1-1.92.35A3.07,3.07,0,0,1,293.77,195.46Zm3.36-2.69v-.13a1.9,1.9,0,0,0-.31-1,1.16,1.16,0,0,0-1.06-.46,1.46,1.46,0,0,0-1.13.45,1.77,1.77,0,0,0-.45,1.19Z"/><path class="cls-3" d="M201.82,217.11l-.27,1h-.69a1.34,1.34,0,0,1-.62-.12,1.14,1.14,0,0,1-.41-.41l-1.38-2a.35.35,0,0,0-.17-.17.71.71,0,0,0-.29,0h-.93v2.77h-1.15v-7.44h2.71a3.14,3.14,0,0,1,2,.55,2,2,0,0,1,.7,1.68,2.4,2.4,0,0,1-.44,1.48,2.12,2.12,0,0,1-1.34.79l1.1,1.62a1,1,0,0,0,.25.27.86.86,0,0,0,.37.06Zm-3.23-2.76a1.62,1.62,0,0,0,1.16-.38,1.31,1.31,0,0,0,.4-1c0-.86-.53-1.29-1.57-1.29h-1.52v2.7Z"/><path class="cls-3" d="M203.37,217.46a2.86,2.86,0,0,1-.78-2.15,3.45,3.45,0,0,1,.34-1.59,2.48,2.48,0,0,1,1-1.08,2.93,2.93,0,0,1,1.52-.38,2.27,2.27,0,0,1,1.83.72,2.84,2.84,0,0,1,.61,1.91,4,4,0,0,1-.06.71h-4a1.67,1.67,0,0,0,.51,1.23,2,2,0,0,0,1.42.44,4.14,4.14,0,0,0,1.66-.3l.14.89a5,5,0,0,1-1.92.35A3.07,3.07,0,0,1,203.37,217.46Zm3.36-2.69v-.13a1.82,1.82,0,0,0-.31-1,1.16,1.16,0,0,0-1.06-.46,1.48,1.48,0,0,0-1.13.45,1.77,1.77,0,0,0-.45,1.19Z"/><path class="cls-3" d="M210.78,220.65a4.25,4.25,0,0,1-.87-.22l.09-.91a4,4,0,0,0,.8.21,5,5,0,0,0,.82.07,1.61,1.61,0,0,0,1.28-.46,2.11,2.11,0,0,0,.42-1.45v-.37a2.12,2.12,0,0,1-.74.46,2.62,2.62,0,0,1-1,.17,2.9,2.9,0,0,1-1.44-.35,2.47,2.47,0,0,1-1-1,3,3,0,0,1-.36-1.5,3.18,3.18,0,0,1,.4-1.59,2.81,2.81,0,0,1,1.05-1.06,2.94,2.94,0,0,1,1.46-.37,2.32,2.32,0,0,1,1.07.23,2.15,2.15,0,0,1,.71.58l.11-.71h.85v5.48a3.06,3.06,0,0,1-.68,2.18,2.7,2.7,0,0,1-2,.71A6.19,6.19,0,0,1,210.78,220.65Zm2.54-4.17V214.6a1.33,1.33,0,0,0-.42-1,1.56,1.56,0,0,0-1.1-.39,1.71,1.71,0,0,0-1.32.55,2,2,0,0,0-.52,1.48,2,2,0,0,0,.51,1.45,1.7,1.7,0,0,0,1.29.54A2,2,0,0,0,213.32,216.48Z"/><path class="cls-3" d="M216.16,211.25a.75.75,0,0,1-.23-.55.74.74,0,0,1,.23-.56.76.76,0,0,1,.56-.22.78.78,0,0,1,.57.22.74.74,0,0,1,.24.56.72.72,0,0,1-.24.55.79.79,0,0,1-.57.23A.77.77,0,0,1,216.16,211.25Zm0,1.11h1.14v5.74h-1.14Z"/><path class="cls-3" d="M219.6,218.11a5.3,5.3,0,0,1-.92-.26l.1-1a4.44,4.44,0,0,0,.87.29,3.55,3.55,0,0,0,.89.11,1.52,1.52,0,0,0,.89-.2.64.64,0,0,0,0-1.06,4.79,4.79,0,0,0-1-.41,3.74,3.74,0,0,1-1.23-.63,1.49,1.49,0,0,1,.12-2.31,2.83,2.83,0,0,1,1.58-.4,5.38,5.38,0,0,1,1.56.24l-.09.92a4.26,4.26,0,0,0-1.4-.25c-.75,0-1.12.22-1.12.65a.55.55,0,0,0,.27.49,4.35,4.35,0,0,0,1,.4,3.82,3.82,0,0,1,1.29.66,1.34,1.34,0,0,1,.39,1,1.56,1.56,0,0,1-.64,1.35,2.7,2.7,0,0,1-1.64.46A4.68,4.68,0,0,1,219.6,218.11Z"/><path class="cls-3" d="M224.34,217.67a2.25,2.25,0,0,1-.45-1.57v-5l1.13-.23v1.6h2l-.33.94H225v2.79a1.13,1.13,0,0,0,.22.79,1.1,1.1,0,0,0,.79.23,3.66,3.66,0,0,0,.91-.11l.07.88a4.32,4.32,0,0,1-1.21.16A1.93,1.93,0,0,1,224.34,217.67Z"/><path class="cls-3" d="M228.29,212.36h1l.07.8a3.74,3.74,0,0,1,.93-.61,3,3,0,0,1,1.12-.29l-.09,1.11a3.8,3.8,0,0,0-1.9.66v4.07h-1.13Z"/><path class="cls-3" d="M232.71,217.46a2.86,2.86,0,0,1-.78-2.15,3.58,3.58,0,0,1,.33-1.59,2.56,2.56,0,0,1,1-1.08,2.92,2.92,0,0,1,1.51-.38,2.28,2.28,0,0,1,1.84.72,2.9,2.9,0,0,1,.61,1.91,4,4,0,0,1-.06.71h-4a1.71,1.71,0,0,0,.52,1.23,2,2,0,0,0,1.42.44,4.14,4.14,0,0,0,1.66-.3l.13.89a4.93,4.93,0,0,1-1.91.35A3.07,3.07,0,0,1,232.71,217.46Zm3.35-2.69v-.13a1.89,1.89,0,0,0-.3-1,1.16,1.16,0,0,0-1.06-.46,1.45,1.45,0,0,0-1.13.45,1.77,1.77,0,0,0-.45,1.19Z"/><path class="cls-3" d="M241.37,217.46a2.83,2.83,0,0,1-.79-2.15,3.58,3.58,0,0,1,.34-1.59,2.54,2.54,0,0,1,1-1.08,3,3,0,0,1,1.52-.38,2.26,2.26,0,0,1,1.83.72,2.84,2.84,0,0,1,.61,1.91,5.27,5.27,0,0,1,0,.71h-4a1.67,1.67,0,0,0,.52,1.23,2,2,0,0,0,1.42.44,4.17,4.17,0,0,0,1.66-.3l.13.89a5,5,0,0,1-1.91.35A3,3,0,0,1,241.37,217.46Zm3.35-2.69v-.13a1.89,1.89,0,0,0-.3-1,1.17,1.17,0,0,0-1.06-.46,1.48,1.48,0,0,0-1.14.45,1.77,1.77,0,0,0-.45,1.19Z"/><path class="cls-3" d="M247.15,212.36h1l.09.51a3.55,3.55,0,0,1,.94-.45,3.49,3.49,0,0,1,1.06-.16,1.85,1.85,0,0,1,1.44.53,2.21,2.21,0,0,1,.5,1.57v3.74h-1.13v-3.62a1.44,1.44,0,0,0-.29-1,1.18,1.18,0,0,0-.87-.31,2.58,2.58,0,0,0-.85.15,3,3,0,0,0-.76.37v4.38h-1.13Z"/><path class="cls-3" d="M256.25,210.34l1.13-.3v8.06h-1.13Z"/><path class="cls-3" d="M259.29,217.69a1.77,1.77,0,0,1-.59-1.38,1.37,1.37,0,0,1,.53-1.16,2.89,2.89,0,0,1,1.68-.39h.35a6.43,6.43,0,0,1,1.16.09v-.46a1.13,1.13,0,0,0-.35-.92,1.85,1.85,0,0,0-1.11-.28,6,6,0,0,0-1.66.25l-.1-.93a7.46,7.46,0,0,1,1.9-.25,2.89,2.89,0,0,1,1.84.5,1.84,1.84,0,0,1,.61,1.52V217c0,.49,0,.84,0,1.06h-1a5.35,5.35,0,0,1-.09-.64h0a1.76,1.76,0,0,1-.7.56,2.57,2.57,0,0,1-1,.19A2.24,2.24,0,0,1,259.29,217.69ZM262,217a1,1,0,0,0,.4-.84v-.57h-1.71c-.57,0-.85.25-.85.74a.87.87,0,0,0,.31.72,1.25,1.25,0,0,0,.84.27A1.6,1.6,0,0,0,262,217Z"/><path class="cls-3" d="M267.56,210.34l1.13-.3v2.8a3.74,3.74,0,0,1,2-.58,1.83,1.83,0,0,1,1.46.55,2.28,2.28,0,0,1,.47,1.55v3.74h-1.13v-3.62a1.45,1.45,0,0,0-.22-.88,1.08,1.08,0,0,0-.93-.4,2.58,2.58,0,0,0-.85.15,3.16,3.16,0,0,0-.76.37v4.38h-1.13Z"/><path class="cls-3" d="M274.21,211.25a.78.78,0,0,1,0-1.11.75.75,0,0,1,.56-.22.8.8,0,0,1,.57.22.73.73,0,0,1,.23.56.71.71,0,0,1-.23.55.81.81,0,0,1-.57.23A.75.75,0,0,1,274.21,211.25Zm0,1.11h1.13v5.74h-1.13Z"/><path class="cls-3" d="M277.64,218.11a5.18,5.18,0,0,1-.91-.26l.1-1a4.34,4.34,0,0,0,.86.29,3.57,3.57,0,0,0,.9.11,1.57,1.57,0,0,0,.89-.2.62.62,0,0,0,.3-.54.61.61,0,0,0-.27-.52,4.39,4.39,0,0,0-.95-.41,3.9,3.9,0,0,1-1.24-.63,1.36,1.36,0,0,1-.48-1.12,1.32,1.32,0,0,1,.61-1.19,2.81,2.81,0,0,1,1.58-.4,5.48,5.48,0,0,1,1.56.24l-.1.92a4.17,4.17,0,0,0-1.4-.25c-.74,0-1.12.22-1.12.65a.53.53,0,0,0,.28.49,4.44,4.44,0,0,0,.95.4,3.63,3.63,0,0,1,1.29.66,1.31,1.31,0,0,1,.4,1,1.58,1.58,0,0,1-.64,1.35,2.72,2.72,0,0,1-1.64.46A4.77,4.77,0,0,1,277.64,218.11Z"/><path class="cls-3" d="M282.38,217.67a2.25,2.25,0,0,1-.45-1.57v-5l1.14-.23v1.6h2l-.33.94h-1.7v2.79a1.13,1.13,0,0,0,.22.79,1.08,1.08,0,0,0,.79.23,3.72,3.72,0,0,0,.91-.11l.07.88a4.37,4.37,0,0,1-1.21.16A1.94,1.94,0,0,1,282.38,217.67Z"/><path class="cls-3" d="M287.11,217.84a2.47,2.47,0,0,1-1-1.05,3.33,3.33,0,0,1-.35-1.54,3.38,3.38,0,0,1,.35-1.56,2.52,2.52,0,0,1,1-1.05,3.39,3.39,0,0,1,3.12,0,2.49,2.49,0,0,1,1,1.05,3.26,3.26,0,0,1,.35,1.56,3.32,3.32,0,0,1-.34,1.54,2.49,2.49,0,0,1-1,1.05,3.22,3.22,0,0,1-1.57.37A3.26,3.26,0,0,1,287.11,217.84Zm2.86-1.09a2.26,2.26,0,0,0,.49-1.52,2.23,2.23,0,0,0-.49-1.51,1.76,1.76,0,0,0-2.56,0,2.18,2.18,0,0,0-.49,1.51,2.21,2.21,0,0,0,.49,1.52,1.76,1.76,0,0,0,2.56,0Z"/><path class="cls-3" d="M292.93,212.36h1l.08.8a3.51,3.51,0,0,1,.92-.61,3.14,3.14,0,0,1,1.13-.29l-.09,1.11a3.76,3.76,0,0,0-1.9.66v4.07h-1.14Z"/><path class="cls-3" d="M297.24,211.25a.75.75,0,0,1-.23-.55.74.74,0,0,1,.23-.56.77.77,0,0,1,.57-.22.78.78,0,0,1,.56.22.74.74,0,0,1,.24.56.72.72,0,0,1-.24.55.79.79,0,0,1-.56.23A.78.78,0,0,1,297.24,211.25Zm0,1.11h1.14v5.74h-1.14Z"/><path class="cls-3" d="M300.29,217.69a1.74,1.74,0,0,1-.59-1.38,1.37,1.37,0,0,1,.53-1.16,2.89,2.89,0,0,1,1.68-.39h.35a6.51,6.51,0,0,1,1.16.09v-.46a1.11,1.11,0,0,0-.36-.92,1.81,1.81,0,0,0-1.11-.28,6.09,6.09,0,0,0-1.66.25l-.1-.93a7.54,7.54,0,0,1,1.91-.25,2.89,2.89,0,0,1,1.84.5,1.87,1.87,0,0,1,.61,1.52V217c0,.49,0,.84,0,1.06h-1c0-.26-.07-.48-.09-.64h0a1.69,1.69,0,0,1-.7.56,2.52,2.52,0,0,1-1,.19A2.24,2.24,0,0,1,300.29,217.69ZM303,217a1,1,0,0,0,.41-.84v-.57h-1.71c-.57,0-.86.25-.86.74a.88.88,0,0,0,.32.72,1.25,1.25,0,0,0,.84.27A1.56,1.56,0,0,0,303,217Z"/><path class="cls-3" d="M235.73,229.85a2.56,2.56,0,0,1-1.08-1,3.06,3.06,0,0,1-.39-1.58,3.14,3.14,0,0,1,.4-1.6,2.57,2.57,0,0,1,1.11-1,3.73,3.73,0,0,1,1.64-.35,4.5,4.5,0,0,1,1.58.28l-.15.93a3.46,3.46,0,0,0-1.34-.28,2.07,2.07,0,0,0-1.53.55,2,2,0,0,0-.55,1.48,2.06,2.06,0,0,0,.54,1.48,2,2,0,0,0,1.52.57,3.62,3.62,0,0,0,1.45-.3l.13.89a4.34,4.34,0,0,1-1.72.35A3.44,3.44,0,0,1,235.73,229.85Z"/><path class="cls-3" d="M240.31,222.34l1.14-.3v8.06h-1.14Z"/><path class="cls-3" d="M242.59,223l2.29-1.36.53.89L243,223.66Zm.62,1.38h1.13v5.74h-1.13Z"/><path class="cls-3" d="M246.06,224.36h1l.08.51a3.62,3.62,0,0,1,1-.45,3.45,3.45,0,0,1,1.06-.16,1.85,1.85,0,0,1,1.44.53,2.21,2.21,0,0,1,.49,1.57v3.74H250v-3.62a1.44,1.44,0,0,0-.29-1,1.14,1.14,0,0,0-.86-.31,2.54,2.54,0,0,0-.85.15,2.83,2.83,0,0,0-.76.37v4.38h-1.13Z"/><path class="cls-3" d="M252.71,223.25a.78.78,0,0,1,0-1.11.75.75,0,0,1,.56-.22.8.8,0,0,1,.57.22.74.74,0,0,1,.24.56.72.72,0,0,1-.24.55.81.81,0,0,1-.57.23A.75.75,0,0,1,252.71,223.25Zm0,1.11h1.13v5.74h-1.13Z"/><path class="cls-3" d="M256.67,229.85a2.61,2.61,0,0,1-1.08-1,3.48,3.48,0,0,1,0-3.18,2.66,2.66,0,0,1,1.12-1,3.69,3.69,0,0,1,1.63-.35,4.55,4.55,0,0,1,1.59.28l-.16.93a3.43,3.43,0,0,0-1.34-.28,2.06,2.06,0,0,0-1.52.55,2,2,0,0,0-.56,1.48,2.06,2.06,0,0,0,.54,1.48,2,2,0,0,0,1.52.57,3.59,3.59,0,0,0,1.45-.3l.13.89a4.32,4.32,0,0,1-1.71.35A3.46,3.46,0,0,1,256.67,229.85Z"/><path class="cls-3" d="M261.49,229.69a1.76,1.76,0,0,1-.58-1.38,1.35,1.35,0,0,1,.53-1.16,2.87,2.87,0,0,1,1.68-.39h.35a6.31,6.31,0,0,1,1.15.09v-.46a1.1,1.1,0,0,0-.35-.92,1.81,1.81,0,0,0-1.11-.28,6,6,0,0,0-1.66.25l-.1-.93a7.52,7.52,0,0,1,1.9-.25,2.9,2.9,0,0,1,1.85.5,1.87,1.87,0,0,1,.61,1.52V229c0,.49,0,.84,0,1.06h-1c0-.26-.07-.48-.09-.64h0a1.76,1.76,0,0,1-.7.56,2.55,2.55,0,0,1-1,.19A2.27,2.27,0,0,1,261.49,229.69Zm2.73-.69a1,1,0,0,0,.4-.84v-.57h-1.7c-.57,0-.86.25-.86.74a.9.9,0,0,0,.31.72,1.26,1.26,0,0,0,.85.27A1.58,1.58,0,0,0,264.22,229Z"/></svg>