<svg id="Diseño" xmlns="http://www.w3.org/2000/svg" xmlns:xlink="http://www.w3.org/1999/xlink" viewBox="0 0 384 149.07"><defs><style>.cls-1,.cls-13,.cls-22,.cls-6{fill:none;}.cls-2{fill:#cececc;}.cls-3{fill:#8f201c;}.cls-4{fill:#fff;}.cls-5{fill:#87868b;}.cls-6{stroke:#b31a1e;stroke-miterlimit:10;stroke-width:4px;stroke-dasharray:0 6;}.cls-13,.cls-22,.cls-6{stroke-linecap:round;}.cls-7{fill:#549aa3;}.cls-8{fill:#b31a1e;}.cls-9{fill:#7dbdc5;}.cls-10{fill:#e8e8e6;}.cls-11{fill:#39959d;}.cls-12{fill:#9b9a9a;}.cls-13{stroke:#549aa3;}.cls-13,.cls-22{stroke-linejoin:round;}.cls-14{clip-path:url(#clip-path);}.cls-15{fill:#edcbb2;}.cls-16{fill:#dea880;}.cls-17{fill:#f3f7fa;}.cls-18{fill:#414142;}.cls-19{fill:#fffcf8;}.cls-20{fill:#5e2b0e;}.cls-21{fill:#464645;}.cls-22{stroke:#e1af8d;stroke-width:0.5px;opacity:0.5;}.cls-23{fill:#db718b;}.cls-24{fill:#efefef;}.cls-25{fill:#ebc0a3;}.cls-26{fill:#e9ba9d;}.cls-27{fill:#ce9d7c;}.cls-28{fill:#19293b;}</style><clipPath id="clip-path"><path class="cls-1" d="M194.12,111.12a31.23,31.23,0,0,1-7,19.8c-1.37,1.68,4.06,11.75,1.91,12.08-13,2-12.53-3.41-16-2.2a31.45,31.45,0,0,1-28.44-4.13C142.85,135.47,140,147,135,141c-1.48-1.77,1.9-11.94.72-13.94a31.37,31.37,0,1,1,58.4-15.94Z"/></clipPath></defs><path class="cls-2" d="M184,26.76H373a0,0,0,0,1,0,0V42.68a17.56,17.56,0,0,1-17.56,17.56H201.56A17.56,17.56,0,0,1,184,42.68V26.76a0,0,0,0,1,0,0Z"/><path class="cls-3" d="M194.38,36.09h.92l2.76,4.23.76-4.23h1.31l-1.2,6.76h-.82l-2.85-4.36-.77,4.36h-1.31Z"/><path class="cls-3" d="M202,42.55a2.83,2.83,0,0,1-1.08-1.09,3.24,3.24,0,0,1-.39-1.6,4.22,4.22,0,0,1,.47-2,3.31,3.31,0,0,1,1.33-1.37,3.87,3.87,0,0,1,2-.5,3.15,3.15,0,0,1,1.55.38,2.69,2.69,0,0,1,1.07,1.07,3.46,3.46,0,0,1,.38,1.65,4.13,4.13,0,0,1-.44,1.91,3.5,3.5,0,0,1-1.28,1.42,3.59,3.59,0,0,1-2,.53A3.3,3.3,0,0,1,202,42.55Zm2.84-1.16a2.12,2.12,0,0,0,.74-.9,3,3,0,0,0,.25-1.25,2.23,2.23,0,0,0-.44-1.49,1.47,1.47,0,0,0-1.19-.53,2.08,2.08,0,0,0-1.14.32,2.22,2.22,0,0,0-.78.88,2.86,2.86,0,0,0-.28,1.3,2.11,2.11,0,0,0,.48,1.45,1.56,1.56,0,0,0,1.25.55A1.91,1.91,0,0,0,204.79,41.39Z"/><path class="cls-3" d="M210.82,36.09h2.59a2.46,2.46,0,0,1,1.65.5,1.71,1.71,0,0,1,.58,1.39A2.81,2.81,0,0,1,215,40a2.91,2.91,0,0,1-2.16.71h-1.4L211,42.85h-1.4Zm2.05,3.41a1.26,1.26,0,0,0,1-.38,1.46,1.46,0,0,0,.31-1,.72.72,0,0,0-.27-.62,1.16,1.16,0,0,0-.74-.21H212l-.38,2.18Z"/><path class="cls-3" d="M217,36.09h2.64a2.54,2.54,0,0,1,1.62.47,1.69,1.69,0,0,1,.58,1.41,2.51,2.51,0,0,1-.44,1.54,2.39,2.39,0,0,1-1.36.83l.6,1a.83.83,0,0,0,.18.19.54.54,0,0,0,.27.06h.75l-.54,1.23h-.88a1.09,1.09,0,0,1-.57-.14,1.47,1.47,0,0,1-.39-.45l-.85-1.5a.54.54,0,0,0-.16-.19.47.47,0,0,0-.23,0h-.61l-.41,2.32h-1.4Zm2.13,3.21a1.25,1.25,0,0,0,.92-.32,1.2,1.2,0,0,0,.32-.88.71.71,0,0,0-.26-.6,1.31,1.31,0,0,0-.76-.18H218.2l-.36,2Z"/><path class="cls-3" d="M223.51,36.09h4.67l-.55,1.23h-2.94l-.28,1.61H227l-.28,1.23h-2.53l-.26,1.46h3.36l-.55,1.23h-4.43Z"/><path class="cls-3" d="M227.8,42.51l.3-1.24a5,5,0,0,0,1,.34,3.63,3.63,0,0,0,1,.13,1.93,1.93,0,0,0,1-.21.64.64,0,0,0,.35-.58.57.57,0,0,0-.09-.32,1.4,1.4,0,0,0-.35-.29c-.16-.1-.41-.23-.74-.39a3.3,3.3,0,0,1-1.15-.87,1.76,1.76,0,0,1-.38-1.12,1.68,1.68,0,0,1,.34-1,2.12,2.12,0,0,1,1-.69,4.21,4.21,0,0,1,1.54-.25,5.78,5.78,0,0,1,.89.07,7.48,7.48,0,0,1,.81.17L233,37.46a5.28,5.28,0,0,0-1.54-.26,2.22,2.22,0,0,0-1,.17.51.51,0,0,0-.34.48.55.55,0,0,0,.11.34,1.15,1.15,0,0,0,.34.3c.16.1.4.23.72.4a3.78,3.78,0,0,1,1.2.85,1.46,1.46,0,0,1,.35,1,1.93,1.93,0,0,1-.38,1.2,2.4,2.4,0,0,1-1,.75A4.2,4.2,0,0,1,230,43,5.38,5.38,0,0,1,227.8,42.51Z"/><path class="cls-3" d="M234.62,36.09h4.67l-.55,1.23H235.8l-.28,1.61h2.6l-.29,1.23H235.3l-.25,1.46h3.35l-.55,1.23h-4.42Z"/><path class="cls-3" d="M240.18,36.09h.92l2.76,4.23.76-4.23h1.31l-1.2,6.76h-.82l-2.85-4.36-.77,4.36H239Z"/><path class="cls-3" d="M247.82,42.58a2.62,2.62,0,0,1-1.16-1.07,3.43,3.43,0,0,1-.41-1.71,3.8,3.8,0,0,1,.49-1.91,3.51,3.51,0,0,1,1.4-1.38,4.28,4.28,0,0,1,2.17-.52,5.78,5.78,0,0,1,1.9.3l-.29,1.24a3.41,3.41,0,0,0-.74-.22,5.14,5.14,0,0,0-.88-.08,2.76,2.76,0,0,0-1.34.31,2.25,2.25,0,0,0-.91.87,2.46,2.46,0,0,0-.33,1.28,2.16,2.16,0,0,0,.27,1.1,1.86,1.86,0,0,0,.73.69,2.31,2.31,0,0,0,1,.23,5,5,0,0,0,1.68-.28l-.12,1.24a4.63,4.63,0,0,1-1.71.28A4.05,4.05,0,0,1,247.82,42.58Z"/><path class="cls-3" d="M253.38,36.09h1.41l-1.2,6.76h-1.41Z"/><path class="cls-3" d="M258.19,36.07h1.28L261,42.85h-1.46l-.27-1.33h-2.64l-.74,1.33h-1.58Zm.82,4.22L258.58,38h-.09l-1.21,2.31Z"/><path class="cls-3" d="M261.91,42.59a1,1,0,0,1-.29-.72,7.18,7.18,0,0,1,.13-.95l.85-4.83H264l-.82,4.56a5.89,5.89,0,0,0-.08.61q0,.36.48.36h2.62l-.54,1.23h-2.9A1.26,1.26,0,0,1,261.91,42.59Z"/><path class="cls-3" d="M276.55,37.32h-2.09l.23-1.23h5.73l-.55,1.23H278l-1,5.53h-1.42Z"/><path class="cls-3" d="M281.07,36.09h4.67l-.56,1.23h-2.93L282,38.93h2.6l-.28,1.23h-2.54l-.25,1.46h3.35l-.54,1.23h-4.43Z"/><path class="cls-3" d="M285.9,42.59a.94.94,0,0,1-.28-.72,7.18,7.18,0,0,1,.13-.95l.84-4.83H288l-.81,4.56a3.92,3.92,0,0,0-.08.61q0,.36.48.36h2.62l-.55,1.23h-2.9A1.28,1.28,0,0,1,285.9,42.59Z"/><path class="cls-3" d="M292,36.09h4.67l-.55,1.23h-2.94l-.29,1.61h2.6l-.28,1.23h-2.54l-.25,1.46h3.35l-.54,1.23h-4.43Z"/><path class="cls-3" d="M298,42.55a2.76,2.76,0,0,1-1.08-1.09,3.24,3.24,0,0,1-.39-1.6,4.1,4.1,0,0,1,.47-2,3.31,3.31,0,0,1,1.33-1.37,3.87,3.87,0,0,1,2-.5,3.15,3.15,0,0,1,1.55.38,2.69,2.69,0,0,1,1.07,1.07,3.46,3.46,0,0,1,.38,1.65,4.13,4.13,0,0,1-.44,1.91,3.5,3.5,0,0,1-1.28,1.42,3.62,3.62,0,0,1-2,.53A3.3,3.3,0,0,1,298,42.55Zm2.84-1.16a2.12,2.12,0,0,0,.74-.9,3,3,0,0,0,.25-1.25,2.23,2.23,0,0,0-.44-1.49,1.47,1.47,0,0,0-1.19-.53,2.08,2.08,0,0,0-1.14.32,2.22,2.22,0,0,0-.78.88,2.86,2.86,0,0,0-.28,1.3,2.11,2.11,0,0,0,.48,1.45,1.56,1.56,0,0,0,1.25.55A1.91,1.91,0,0,0,300.79,41.39Z"/><path class="cls-3" d="M304.8,36.09h2.55a4,4,0,0,1,2.34.6,2.34,2.34,0,0,1,.84,2.06,4.94,4.94,0,0,1-.44,2.13,3.3,3.3,0,0,1-1.34,1.45,4.33,4.33,0,0,1-2.19.52h-3Zm1.87,5.53a2.39,2.39,0,0,0,1.23-.31,2.14,2.14,0,0,0,.85-.91,3.26,3.26,0,0,0,.31-1.5,1.46,1.46,0,0,0-.46-1.23,2.29,2.29,0,0,0-1.37-.35H306l-.76,4.3Z"/><path class="cls-3" d="M312.68,42.55a2.79,2.79,0,0,1-1.09-1.09,3.24,3.24,0,0,1-.39-1.6,4.22,4.22,0,0,1,.47-2A3.37,3.37,0,0,1,313,36.49a3.91,3.91,0,0,1,2-.5,3.11,3.11,0,0,1,1.54.38,2.63,2.63,0,0,1,1.07,1.07,3.35,3.35,0,0,1,.39,1.65,4.25,4.25,0,0,1-.44,1.91,3.49,3.49,0,0,1-3.25,2A3.26,3.26,0,0,1,312.68,42.55Zm2.84-1.16a2.1,2.1,0,0,0,.73-.9,3,3,0,0,0,.26-1.25,2.28,2.28,0,0,0-.44-1.49,1.48,1.48,0,0,0-1.19-.53,2.09,2.09,0,0,0-1.92,1.2,2.86,2.86,0,0,0-.29,1.3,2.11,2.11,0,0,0,.48,1.45,1.58,1.58,0,0,0,1.26.55A1.91,1.91,0,0,0,315.52,41.39Z"/><path class="cls-3" d="M319.53,36.09h.92l2.76,4.23.76-4.23h1.31l-1.2,6.76h-.82l-2.85-4.36-.77,4.36h-1.31Z"/><path class="cls-3" d="M327.84,37.32h-2.08l.22-1.23h5.74l-.55,1.23h-1.91l-1,5.53h-1.42Z"/><path class="cls-3" d="M332.81,42.55a2.85,2.85,0,0,1-1.09-1.09,3.35,3.35,0,0,1-.38-1.6,4.1,4.1,0,0,1,.47-2,3.35,3.35,0,0,1,1.32-1.37,3.94,3.94,0,0,1,2-.5,3.18,3.18,0,0,1,1.55.38,2.6,2.6,0,0,1,1.06,1.07,3.35,3.35,0,0,1,.39,1.65,4.25,4.25,0,0,1-.44,1.91,3.57,3.57,0,0,1-1.28,1.42,3.62,3.62,0,0,1-2,.53A3.3,3.3,0,0,1,332.81,42.55Zm2.84-1.16a2.2,2.2,0,0,0,.74-.9,3,3,0,0,0,.25-1.25,2.28,2.28,0,0,0-.44-1.49,1.48,1.48,0,0,0-1.19-.53,2.08,2.08,0,0,0-1.14.32,2.22,2.22,0,0,0-.78.88,2.86,2.86,0,0,0-.28,1.3,2.11,2.11,0,0,0,.48,1.45,1.55,1.55,0,0,0,1.25.55A1.91,1.91,0,0,0,335.65,41.39Z"/><path class="cls-3" d="M338.94,42.59a1,1,0,0,1-.29-.72,8,8,0,0,1,.14-.95l.84-4.83H341l-.81,4.56a4.51,4.51,0,0,0-.09.61c0,.24.17.36.49.36h2.61l-.54,1.23h-2.9A1.26,1.26,0,0,1,338.94,42.59Z"/><path class="cls-3" d="M345,42.55a2.79,2.79,0,0,1-1.09-1.09,3.35,3.35,0,0,1-.38-1.6,4.21,4.21,0,0,1,.46-2,3.44,3.44,0,0,1,1.33-1.37,3.94,3.94,0,0,1,2-.5,3.18,3.18,0,0,1,1.55.38,2.66,2.66,0,0,1,1.06,1.07,3.35,3.35,0,0,1,.39,1.65,4.25,4.25,0,0,1-.44,1.91,3.57,3.57,0,0,1-1.28,1.42,3.62,3.62,0,0,1-2,.53A3.3,3.3,0,0,1,345,42.55Zm2.84-1.16a2.1,2.1,0,0,0,.73-.9,2.89,2.89,0,0,0,.26-1.25,2.28,2.28,0,0,0-.44-1.49,1.48,1.48,0,0,0-1.19-.53,2.08,2.08,0,0,0-1.14.32,2.22,2.22,0,0,0-.78.88,2.86,2.86,0,0,0-.28,1.3,2.16,2.16,0,0,0,.47,1.45,1.58,1.58,0,0,0,1.26.55A1.91,1.91,0,0,0,347.79,41.39Z"/><path class="cls-3" d="M352.47,42.56a2.76,2.76,0,0,1-1.14-1.08,3.08,3.08,0,0,1-.4-1.59,3.94,3.94,0,0,1,.52-2.06A3.53,3.53,0,0,1,353,36.47a5.37,5.37,0,0,1,2.36-.48,6.53,6.53,0,0,1,1.1.09,4.94,4.94,0,0,1,.9.22l-.3,1.23a5.72,5.72,0,0,0-1.89-.3,3.09,3.09,0,0,0-1.4.31,2.33,2.33,0,0,0-1,.87,2.43,2.43,0,0,0-.36,1.33,2.24,2.24,0,0,0,.25,1.06,1.74,1.74,0,0,0,.68.69,2,2,0,0,0,1,.24,3.5,3.5,0,0,0,1.09-.15l.36-2,1.46-.35-.57,3.15a4.7,4.7,0,0,1-1.1.39,6.57,6.57,0,0,1-1.35.14A3.65,3.65,0,0,1,352.47,42.56Z"/><path class="cls-3" d="M358.93,36.09h1.41l-1.2,6.76h-1.41Zm-.29-1.31,2.21-1.41.59,1-2.24,1.12Z"/><path class="cls-3" d="M363.74,36.07H365l1.51,6.78h-1.46l-.26-1.33h-2.65l-.74,1.33h-1.58Zm.82,4.22L364.13,38H364l-1.21,2.31Z"/><path class="cls-3" d="M235.85,55.16a2.58,2.58,0,0,1-1.16-1.08,3.37,3.37,0,0,1-.41-1.7,3.88,3.88,0,0,1,.49-1.91,3.62,3.62,0,0,1,1.41-1.39,4.37,4.37,0,0,1,2.16-.51,5.74,5.74,0,0,1,1.9.3L240,50.11a2.81,2.81,0,0,0-.74-.22,4.24,4.24,0,0,0-.88-.08,2.79,2.79,0,0,0-1.34.31,2.24,2.24,0,0,0-.91.87,2.46,2.46,0,0,0-.33,1.28,2.16,2.16,0,0,0,.27,1.1,1.83,1.83,0,0,0,.73.68,2.2,2.2,0,0,0,1,.24,4.86,4.86,0,0,0,1.68-.29l-.12,1.24a4.52,4.52,0,0,1-1.72.28A4.11,4.11,0,0,1,235.85,55.16Z"/><path class="cls-3" d="M241.22,55.2a2.16,2.16,0,0,1-.86-.86,2.47,2.47,0,0,1-.3-1.21,3.11,3.11,0,0,1,.38-1.51,2.88,2.88,0,0,1,1.09-1.1,3.14,3.14,0,0,1,1.62-.4,2.47,2.47,0,0,1,1.22.29,2.16,2.16,0,0,1,.86.81,2.28,2.28,0,0,1,.32,1.19,3.51,3.51,0,0,1-.36,1.59,2.6,2.6,0,0,1-1,1.11,3,3,0,0,1-1.61.41A2.58,2.58,0,0,1,241.22,55.2Zm2.54-1.37a2.33,2.33,0,0,0,.36-1.32,1.32,1.32,0,0,0-.31-.91,1,1,0,0,0-.79-.34,1.33,1.33,0,0,0-.82.25,1.6,1.6,0,0,0-.53.67,2.06,2.06,0,0,0-.18.85,1.38,1.38,0,0,0,.34,1,1.11,1.11,0,0,0,.86.35A1.19,1.19,0,0,0,243.76,53.83Z"/><path class="cls-3" d="M246.83,50.21H248v.56h0a3.7,3.7,0,0,1,.87-.48,2.89,2.89,0,0,1,1-.17,1.41,1.41,0,0,1,1,.35,1.19,1.19,0,0,1,.37.92,9.48,9.48,0,0,1-.2,1.6l-.43,2.43h-1.38l.42-2.39a9.09,9.09,0,0,0,.15-1.09c0-.42-.22-.63-.68-.63a1.75,1.75,0,0,0-.65.13,1.83,1.83,0,0,0-.55.33l-.65,3.65h-1.38Z"/><path class="cls-3" d="M254.67,50.21h1.09v.68a2.52,2.52,0,0,1,.8-.55,2.46,2.46,0,0,1,1-.22,2.08,2.08,0,0,1,1,.25,1.86,1.86,0,0,1,.72.75,2.35,2.35,0,0,1,.27,1.17,4,4,0,0,1-.33,1.66,2.58,2.58,0,0,1-2.46,1.57,2.69,2.69,0,0,1-.9-.14,2.39,2.39,0,0,1-.73-.38l-.4,2.4-1.46.37Zm3.09,3.6a2.23,2.23,0,0,0,.38-1.31,1.2,1.2,0,0,0-.3-.88,1,1,0,0,0-.78-.31,1.43,1.43,0,0,0-.95.33,1.48,1.48,0,0,0-.49.91l-.21,1.27a1.62,1.62,0,0,0,1.24.52A1.26,1.26,0,0,0,257.76,53.81Z"/><path class="cls-3" d="M260.57,55.07a1.53,1.53,0,0,1-.47-1.15c0-1.13.7-1.69,2.09-1.69h.71a6.17,6.17,0,0,1,.75,0,3.29,3.29,0,0,0,0-.38.53.53,0,0,0-.25-.46,1.58,1.58,0,0,0-.78-.15,5.79,5.79,0,0,0-.79.06,6.78,6.78,0,0,0-.78.15l.11-1.11a7.47,7.47,0,0,1,2-.26,2.43,2.43,0,0,1,1.39.36,1.21,1.21,0,0,1,.53,1.09,8.62,8.62,0,0,1-.16,1.31l-.28,1.5c-.09.5-.14.85-.16,1h-1.16l0-.5h0a1.71,1.71,0,0,1-.62.44,1.91,1.91,0,0,1-.8.16A1.78,1.78,0,0,1,260.57,55.07Zm2.49-.86a.93.93,0,0,0,.35-.6l.07-.41h-1.13a1,1,0,0,0-.62.15.53.53,0,0,0-.2.44.58.58,0,0,0,.21.47.87.87,0,0,0,.58.18A1.15,1.15,0,0,0,263.06,54.21Z"/><path class="cls-3" d="M266.37,54.89a2.27,2.27,0,0,1-.7-1.78,3,3,0,0,1,.37-1.49,2.71,2.71,0,0,1,1.11-1.09,3.56,3.56,0,0,1,1.77-.41,4.44,4.44,0,0,1,1.44.22L270,51.42a4,4,0,0,0-1.06-.15,1.84,1.84,0,0,0-1.32.47,1.65,1.65,0,0,0-.51,1.28,1.24,1.24,0,0,0,.39,1,1.43,1.43,0,0,0,1,.36,3.68,3.68,0,0,0,.66-.06,2.63,2.63,0,0,0,.6-.17l-.08,1.12a2.4,2.4,0,0,1-.67.2,4.4,4.4,0,0,1-.8.07A2.7,2.7,0,0,1,266.37,54.89Z"/><path class="cls-3" d="M271.36,50.21h1.39l-.93,5.21h-1.39Zm.28-.9a.74.74,0,0,1-.23-.57,1,1,0,0,1,1-1A.83.83,0,0,1,273,48a.71.71,0,0,1,.25.57.9.9,0,0,1-.3.68,1,1,0,0,1-.7.28A.81.81,0,0,1,271.64,49.31Z"/><path class="cls-3" d="M273.84,54.93a2.21,2.21,0,0,1-.66-1.75,3.28,3.28,0,0,1,.37-1.57,2.8,2.8,0,0,1,1-1.09,2.92,2.92,0,0,1,1.54-.4,2.12,2.12,0,0,1,1.57.54,2,2,0,0,1,.53,1.46,3.25,3.25,0,0,1-.06.55,6,6,0,0,1-.15.64H274.6a1,1,0,0,0,.33.77,1.51,1.51,0,0,0,1,.29,4.82,4.82,0,0,0,.8,0,3.55,3.55,0,0,0,.69-.19l-.08,1.12a4.31,4.31,0,0,1-1.65.27A2.67,2.67,0,0,1,273.84,54.93Zm3-2.59a2.16,2.16,0,0,0,0-.35.85.85,0,0,0-.21-.61.77.77,0,0,0-.59-.22,1.17,1.17,0,0,0-.85.32,1.52,1.52,0,0,0-.45.86Z"/><path class="cls-3" d="M279.49,50.21h1.18v.56h0a3.7,3.7,0,0,1,.87-.48,2.84,2.84,0,0,1,.95-.17,1.41,1.41,0,0,1,1,.35,1.23,1.23,0,0,1,.37.92,10.68,10.68,0,0,1-.2,1.6l-.44,2.43h-1.37l.42-2.39a9.09,9.09,0,0,0,.15-1.09q0-.63-.69-.63a1.91,1.91,0,0,0-1.19.46l-.66,3.65h-1.38Z"/><path class="cls-3" d="M285.12,55.13a1.17,1.17,0,0,1-.44-1,11.71,11.71,0,0,1,.2-1.41l.65-3.67,1.42-.21-.26,1.43h1.79L288,51.46h-1.54l-.25,1.33a7.57,7.57,0,0,0-.13,1,.51.51,0,0,0,.17.42.86.86,0,0,0,.53.13,3.58,3.58,0,0,0,.87-.08l-.12,1.07a3.86,3.86,0,0,1-1.27.17A1.87,1.87,0,0,1,285.12,55.13Z"/><path class="cls-3" d="M289.14,54.93a2.21,2.21,0,0,1-.66-1.75,3.28,3.28,0,0,1,.37-1.57,2.8,2.8,0,0,1,1-1.09,2.92,2.92,0,0,1,1.54-.4,2.12,2.12,0,0,1,1.57.54,2,2,0,0,1,.53,1.46,3.25,3.25,0,0,1-.06.55,6,6,0,0,1-.15.64H289.9a1,1,0,0,0,.33.77,1.51,1.51,0,0,0,1,.29,4.75,4.75,0,0,0,.8,0,3.55,3.55,0,0,0,.69-.19l-.08,1.12a4.29,4.29,0,0,1-1.64.27A2.68,2.68,0,0,1,289.14,54.93Zm3-2.59a2.16,2.16,0,0,0,0-.35.85.85,0,0,0-.21-.61.77.77,0,0,0-.59-.22,1.17,1.17,0,0,0-.85.32,1.52,1.52,0,0,0-.45.86Z"/><path class="cls-3" d="M298.93,48.46h1.36l-3.71,7.16h-1.35Z"/><path class="cls-3" d="M302.46,55.13a1.16,1.16,0,0,1-.43-1,9.87,9.87,0,0,1,.2-1.41l.64-3.67,1.42-.21L304,50.28h1.79l-.45,1.18h-1.54l-.24,1.33a6,6,0,0,0-.13,1,.49.49,0,0,0,.17.42.83.83,0,0,0,.52.13,3.72,3.72,0,0,0,.88-.08l-.12,1.07a3.94,3.94,0,0,1-1.27.17A1.9,1.9,0,0,1,302.46,55.13Z"/><path class="cls-3" d="M306.6,55.1a1.39,1.39,0,0,1-.57-1.18,10.05,10.05,0,0,1,.18-1.34l.43-2.37H308l-.43,2.36a10.23,10.23,0,0,0-.16,1.12.64.64,0,0,0,.21.51.94.94,0,0,0,.62.18,1,1,0,0,0,.76-.27,2.07,2.07,0,0,0,.39-1l.51-2.89h1.38l-.53,2.93a3.94,3.94,0,0,1-.47,1.41,1.82,1.82,0,0,1-.82.74,3.19,3.19,0,0,1-1.32.23A2.58,2.58,0,0,1,306.6,55.1Z"/><path class="cls-3" d="M312.13,55.13a1.16,1.16,0,0,1-.43-1,11.71,11.71,0,0,1,.2-1.41l.65-3.67,1.41-.21-.26,1.43h1.8L315,51.46H313.5l-.24,1.33a6,6,0,0,0-.13,1,.51.51,0,0,0,.17.42.83.83,0,0,0,.52.13,3.72,3.72,0,0,0,.88-.08l-.12,1.07a3.9,3.9,0,0,1-1.27.17A1.9,1.9,0,0,1,312.13,55.13Z"/><path class="cls-3" d="M316.65,55.2a2.22,2.22,0,0,1-.86-.86,2.46,2.46,0,0,1-.29-1.21,3,3,0,0,1,.38-1.51,2.78,2.78,0,0,1,1.08-1.1,3.19,3.19,0,0,1,1.62-.4,2.47,2.47,0,0,1,1.22.29,2.1,2.1,0,0,1,.86.81,2.28,2.28,0,0,1,.32,1.19,3.63,3.63,0,0,1-.35,1.59,2.69,2.69,0,0,1-1,1.11,3,3,0,0,1-1.61.41A2.61,2.61,0,0,1,316.65,55.2Zm2.54-1.37a2.33,2.33,0,0,0,.36-1.32,1.27,1.27,0,0,0-.31-.91,1,1,0,0,0-.79-.34,1.37,1.37,0,0,0-.82.25,1.58,1.58,0,0,0-.52.67,1.92,1.92,0,0,0-.19.85,1.42,1.42,0,0,0,.34,1,1.12,1.12,0,0,0,.86.35A1.17,1.17,0,0,0,319.19,53.83Z"/><path class="cls-3" d="M322.27,50.21h1.13l0,.78a4,4,0,0,1,1-.59,3.58,3.58,0,0,1,1.07-.29l-.22,1.34a5.18,5.18,0,0,0-1,.18,4.79,4.79,0,0,0-.87.34l-.63,3.45h-1.38Z"/><rect class="cls-3" x="6" width="377" height="31" rx="15.5"/><path class="cls-4" d="M30.09,10.53h4a4.9,4.9,0,0,1,3.13.89,3.33,3.33,0,0,1,1.09,2.74,3.76,3.76,0,0,1-1,2.81,4.21,4.21,0,0,1-3,1H32.36v3.37H30.09Zm4,5.45a1.92,1.92,0,0,0,1.41-.46A1.74,1.74,0,0,0,36,14.21c0-1.14-.65-1.71-1.94-1.71H32.36V16Z"/><path class="cls-4" d="M49,19.38l-.54,2h-1a2,2,0,0,1-1-.22,3.13,3.13,0,0,1-.78-.8L44,18a.81.81,0,0,0-.32-.3,1.28,1.28,0,0,0-.45-.07h-1v3.71H39.93V10.53h4.35a4.67,4.67,0,0,1,3,.82,3.19,3.19,0,0,1,1,2.63,3.78,3.78,0,0,1-.54,2,3,3,0,0,1-1.6,1.28L47.4,19a.64.64,0,0,0,.33.29,1.88,1.88,0,0,0,.63.08Zm-4.85-3.72c1.25,0,1.88-.54,1.88-1.61a1.38,1.38,0,0,0-.48-1.19,2.37,2.37,0,0,0-1.43-.36H42.2v3.16Z"/><path class="cls-4" d="M50.33,10.53h7.58l-.54,2H52.6v2.57h4.22l-.09,2H52.6v2.34h5.33l-.55,2H50.33Z"/><path class="cls-4" d="M59.41,10.53h4a4.85,4.85,0,0,1,3.12.89,3.34,3.34,0,0,1,1.1,2.74,3.76,3.76,0,0,1-1,2.81,4.21,4.21,0,0,1-3,1H61.69v3.37H59.41Zm4,5.45a1.93,1.93,0,0,0,1.41-.46,1.74,1.74,0,0,0,.47-1.31c0-1.14-.64-1.71-1.93-1.71H61.69V16Z"/><path class="cls-4" d="M71.75,10.51h2.06l4.34,10.83H75.72l-.8-2.12H70.61l-.81,2.12H67.29Zm2.43,6.74-1.34-3.63h-.15l-1.34,3.63Z"/><path class="cls-4" d="M88.52,19.38l-.55,2H87a1.93,1.93,0,0,1-1-.22,3,3,0,0,1-.79-.8L83.56,18a1,1,0,0,0-.32-.3,1.32,1.32,0,0,0-.45-.07H81.73v3.71H79.46V10.53h4.35a4.72,4.72,0,0,1,3,.82,3.19,3.19,0,0,1,1,2.63,3.78,3.78,0,0,1-.54,2,3,3,0,0,1-1.6,1.28L86.93,19a.66.66,0,0,0,.34.29,1.85,1.85,0,0,0,.62.08Zm-4.85-3.72c1.25,0,1.87-.54,1.87-1.61a1.38,1.38,0,0,0-.48-1.19,2.34,2.34,0,0,0-1.42-.36H81.73v3.16Z"/><path class="cls-4" d="M93.64,10.51H95.7L100,21.34H97.6l-.8-2.12H92.5l-.82,2.12H89.17Zm2.43,6.74-1.35-3.63h-.14l-1.34,3.63Z"/><path class="cls-4" d="M103,20.78a4.85,4.85,0,0,1-2-2,6,6,0,0,1-.64-2.82,5.83,5.83,0,0,1,.72-2.92,4.93,4.93,0,0,1,2-2,6.34,6.34,0,0,1,3.06-.7,8.4,8.4,0,0,1,3,.45l-.19,2a6.32,6.32,0,0,0-1.21-.32,7.79,7.79,0,0,0-1.44-.13,3.93,3.93,0,0,0-1.84.42A3,3,0,0,0,103.16,14a3.78,3.78,0,0,0-.47,1.91,3.35,3.35,0,0,0,3.62,3.62,9.78,9.78,0,0,0,1.41-.11,8.44,8.44,0,0,0,1.26-.29l.18,1.92a7.23,7.23,0,0,1-1.34.34,10.84,10.84,0,0,1-1.62.12A6.69,6.69,0,0,1,103,20.78Z"/><path class="cls-4" d="M110.87,10.53h2.27V21.34h-2.27Z"/><path class="cls-4" d="M117.62,20.82a5.13,5.13,0,0,1-2-1.94,5.73,5.73,0,0,1-.74-2.94,5.77,5.77,0,0,1,.74-2.95,5.13,5.13,0,0,1,2-1.94,6.06,6.06,0,0,1,5.58,0,5.12,5.12,0,0,1,2,1.93,5.78,5.78,0,0,1,.73,3,5.73,5.73,0,0,1-.73,2.94,5.08,5.08,0,0,1-2,1.94,6.06,6.06,0,0,1-5.58,0ZM122,19.07a3.08,3.08,0,0,0,1.14-1.28,4.4,4.4,0,0,0,0-3.71A3.15,3.15,0,0,0,122,12.8a3.15,3.15,0,0,0-3.28,0,3.2,3.2,0,0,0-1.13,1.28,4.4,4.4,0,0,0,0,3.71,3.13,3.13,0,0,0,1.13,1.28,3.1,3.1,0,0,0,3.28,0ZM118.6,8.29l3.29-2,1,1.69-3.53,1.65Z"/><path class="cls-4" d="M127.65,10.53h1.62l5.58,6.77V10.53H137V21.34h-1.54l-5.66-7v7h-2.13Z"/><path class="cls-4" d="M142.76,10.53h4a4.88,4.88,0,0,1,3.13.89A3.33,3.33,0,0,1,151,14.16,3.76,3.76,0,0,1,150,17a4.19,4.19,0,0,1-3,1H145v3.37h-2.27Zm4,5.45a2,2,0,0,0,1.42-.46,1.78,1.78,0,0,0,.47-1.31c0-1.14-.65-1.71-1.94-1.71H145V16Z"/><path class="cls-4" d="M155.09,10.51h2.07l4.33,10.83h-2.43l-.8-2.12H154l-.82,2.12h-2.51Zm2.43,6.74-1.34-3.63H156l-1.35,3.63Z"/><path class="cls-4" d="M171.86,19.38l-.54,2h-1a2,2,0,0,1-1-.22,2.83,2.83,0,0,1-.78-.8L166.9,18a.88.88,0,0,0-.32-.3,1.32,1.32,0,0,0-.45-.07h-1v3.71H162.8V10.53h4.36a4.67,4.67,0,0,1,3,.82,3.19,3.19,0,0,1,1,2.63,3.78,3.78,0,0,1-.54,2,3,3,0,0,1-1.6,1.28L170.28,19a.61.61,0,0,0,.33.29,1.88,1.88,0,0,0,.63.08ZM167,15.66c1.25,0,1.87-.54,1.87-1.61a1.38,1.38,0,0,0-.48-1.19A2.34,2.34,0,0,0,167,12.5h-1.9v3.16Z"/><path class="cls-4" d="M177,10.51H179l4.34,10.83H181l-.8-2.12h-4.31L175,21.34h-2.51Zm2.43,6.74-1.34-3.63h-.15l-1.34,3.63Z"/><path class="cls-4" d="M188.79,20.78a2.48,2.48,0,0,1-.53-1.72V10.53h2.27v7.81a1.13,1.13,0,0,0,.23.82,1.21,1.21,0,0,0,.83.22h3.79l-.54,2h-4.4A2.18,2.18,0,0,1,188.79,20.78Z"/><path class="cls-4" d="M200.69,10.51h2.07l4.33,10.83h-2.43l-.8-2.12h-4.3l-.82,2.12h-2.51Zm2.43,6.74-1.34-3.63h-.14l-1.35,3.63Z"/><path class="cls-4" d="M215.49,10.51h2.07l4.33,10.83h-2.43l-.8-2.12h-4.3l-.82,2.12H211Zm2.43,6.74-1.34-3.63h-.14l-1.35,3.63Z"/><path class="cls-4" d="M224.82,20.78a4.73,4.73,0,0,1-2-2,6,6,0,0,1-.65-2.82,5.83,5.83,0,0,1,.72-2.92,5,5,0,0,1,2-2,6.4,6.4,0,0,1,3.06-.7,8.5,8.5,0,0,1,3,.45l-.19,2a6.53,6.53,0,0,0-1.21-.32,8,8,0,0,0-1.45-.13,4,4,0,0,0-1.84.42A3,3,0,0,0,225,14a3.78,3.78,0,0,0-.46,1.91,3.6,3.6,0,0,0,1,2.64,3.55,3.55,0,0,0,2.65,1,9.78,9.78,0,0,0,1.41-.11,8.89,8.89,0,0,0,1.27-.29L231,21a7.11,7.11,0,0,1-1.33.34,10.87,10.87,0,0,1-1.63.12A6.62,6.62,0,0,1,224.82,20.78Z"/><path class="cls-4" d="M235.68,12.5h-3.37v-2h9.31l-.54,2H238v8.84h-2.31Z"/><path class="cls-4" d="M242.85,10.53h2.27V21.34h-2.27Z"/><path class="cls-4" d="M246.32,10.53h2.6l3,7.42H252l2.76-7.42h2.61l-4.54,10.81H251Z"/><path class="cls-4" d="M258.61,10.53h2.27V21.34h-2.27Z"/><path class="cls-4" d="M263.06,10.53h3.84a9.79,9.79,0,0,1,2.85.36A4.48,4.48,0,0,1,271.68,12a5.12,5.12,0,0,1,1.3,3.8,5.34,5.34,0,0,1-1.55,4.1A4.88,4.88,0,0,1,269.58,21a7.85,7.85,0,0,1-2.46.36h-4.06Zm4.1,8.85a4.46,4.46,0,0,0,1.54-.23,2.84,2.84,0,0,0,1.06-.7,2.9,2.9,0,0,0,.66-1.12,4.71,4.71,0,0,0,.22-1.49,5.63,5.63,0,0,0-.17-1.5,2.28,2.28,0,0,0-.56-1,2.45,2.45,0,0,0-1.11-.68,5.14,5.14,0,0,0-1.56-.2h-1.91v6.88Z"/><path class="cls-4" d="M277.65,10.51h2.07l4.33,10.83h-2.43l-.8-2.12h-4.3l-.82,2.12h-2.51Zm2.43,6.74-1.34-3.63h-.14l-1.35,3.63Z"/><path class="cls-4" d="M285.36,10.53h3.84a9.79,9.79,0,0,1,2.85.36A4.51,4.51,0,0,1,294,12a5.16,5.16,0,0,1,1.29,3.8,5.3,5.3,0,0,1-1.55,4.1A4.88,4.88,0,0,1,291.88,21a7.83,7.83,0,0,1-2.45.36h-4.07Zm4.1,8.85a4.42,4.42,0,0,0,1.54-.23,2.79,2.79,0,0,0,1.72-1.82,4.7,4.7,0,0,0,.23-1.49,5.21,5.21,0,0,0-.18-1.5,2.18,2.18,0,0,0-.56-1,2.47,2.47,0,0,0-1.1-.68,5.21,5.21,0,0,0-1.57-.2h-1.91v6.88Z"/><path class="cls-4" d="M302.77,20.78a4.79,4.79,0,0,1-2-2,6,6,0,0,1-.65-2.82,5.83,5.83,0,0,1,.72-2.92,5,5,0,0,1,2-2,6.33,6.33,0,0,1,3.05-.7,8.5,8.5,0,0,1,3,.45l-.19,2a6.32,6.32,0,0,0-1.21-.32,8,8,0,0,0-1.45-.13,4,4,0,0,0-1.84.42A3,3,0,0,0,303,14a3.78,3.78,0,0,0-.46,1.91,3.6,3.6,0,0,0,1,2.64,3.55,3.55,0,0,0,2.65,1,9.78,9.78,0,0,0,1.41-.11,8.89,8.89,0,0,0,1.27-.29L309,21a7.11,7.11,0,0,1-1.33.34,10.87,10.87,0,0,1-1.63.12A6.65,6.65,0,0,1,302.77,20.78Z"/><path class="cls-4" d="M311.17,20.78a2.48,2.48,0,0,1-.53-1.72V10.53h2.28v7.81a1.13,1.13,0,0,0,.22.82,1.23,1.23,0,0,0,.83.22h3.79l-.54,2h-4.4A2.18,2.18,0,0,1,311.17,20.78Z"/><path class="cls-4" d="M318.53,8.29l3.3-2,1,1.69-3.54,1.65Zm.67,2.24h2.27V21.34H319.2Z"/><path class="cls-4" d="M323.65,10.53h1.62l5.58,6.77V10.53H333V21.34h-1.54l-5.66-7v7h-2.13Z"/><path class="cls-4" d="M335.15,10.53h2.28V21.34h-2.28Z"/><path class="cls-4" d="M341.76,20.78a4.85,4.85,0,0,1-2-2,6,6,0,0,1-.64-2.82,5.82,5.82,0,0,1,.71-2.92,5,5,0,0,1,2-2,6.33,6.33,0,0,1,3-.7,8.46,8.46,0,0,1,3,.45l-.19,2a6.32,6.32,0,0,0-1.21-.32,7.87,7.87,0,0,0-1.44-.13,3.93,3.93,0,0,0-1.84.42A2.9,2.9,0,0,0,342,14a3.78,3.78,0,0,0-.47,1.91,3.35,3.35,0,0,0,3.62,3.62,9.54,9.54,0,0,0,1.4-.11,8.3,8.3,0,0,0,1.27-.29L348,21a7.23,7.23,0,0,1-1.34.34,10.84,10.84,0,0,1-1.62.12A6.66,6.66,0,0,1,341.76,20.78Z"/><path class="cls-4" d="M353.38,10.51h2.06l4.34,10.83h-2.43l-.8-2.12h-4.31l-.81,2.12h-2.52Zm2.43,6.74-1.34-3.63h-.15L353,17.25Z"/><polyline class="cls-3" points="271.09 36.96 273.31 39.19 271.09 41.41"/><path class="cls-3" d="M267.41,38.14h4.2a0,0,0,0,1,0,0v2.1a0,0,0,0,1,0,0h-5.24a0,0,0,0,1,0,0V39.18A1,1,0,0,1,267.41,38.14Z"/><rect class="cls-5" x="85.42" y="43" width="2.15" height="7" rx="1.08"/><rect class="cls-5" x="85.42" y="43" width="2.15" height="7" rx="1.08" transform="translate(133 -40) rotate(90)"/><path class="cls-6" d="M162.5,76c10.5,1,17.5,4,20,6C192,89.53,199,100.52,198,113.83a35.62,35.62,0,1,1-69.32-13.66A54.49,54.49,0,0,1,137,87a25.15,25.15,0,0,0,6.41-17.24C143.12,62.29,140.22,53.9,129,52c-20.38-3.45-26.39,13.71-24.69,22.35C105.37,79.77,107,85.18,107,91A52.5,52.5,0,1,1,25,47.57"/><rect class="cls-7" x="148" y="114" width="236" height="28" rx="14"/><circle class="cls-8" cx="162.75" cy="111.12" r="31.38"/><path class="cls-4" d="M196.66,119.54H198V126h-1.36Z"/><path class="cls-4" d="M199.32,119.54h1.19l2.27,4.15h.06l2.25-4.15h1.14V126h-1.32v-3.55l-1.62,2.77h-1l-1.64-2.85V126h-1.32Z"/><path class="cls-4" d="M207.54,119.54H210a2.87,2.87,0,0,1,1.87.54,2,2,0,0,1,.66,1.63,2.21,2.21,0,0,1-.61,1.67,2.51,2.51,0,0,1-1.82.6H208.9v2h-1.36Zm2.42,3.25a1.2,1.2,0,0,0,.85-.27,1.09,1.09,0,0,0,.28-.78c0-.68-.39-1-1.16-1h-1v2.07Z"/><path class="cls-4" d="M214.87,125.68a3,3,0,0,1-1.2-1.16,3.65,3.65,0,0,1,0-3.51,3,3,0,0,1,1.2-1.16,3.52,3.52,0,0,1,1.67-.4,3.48,3.48,0,0,1,1.68.4,3,3,0,0,1,1.19,1.16,3.65,3.65,0,0,1,0,3.51,3,3,0,0,1-1.19,1.16,3.48,3.48,0,0,1-1.68.4A3.52,3.52,0,0,1,214.87,125.68Zm2.66-1.05a1.8,1.8,0,0,0,.68-.76,2.66,2.66,0,0,0,0-2.21,1.86,1.86,0,0,0-.68-.76,1.89,1.89,0,0,0-2,0,1.91,1.91,0,0,0-.67.76,2.57,2.57,0,0,0,0,2.21,1.84,1.84,0,0,0,.67.76,1.89,1.89,0,0,0,2,0Z"/><path class="cls-4" d="M226.33,124.82,226,126h-.59a1.19,1.19,0,0,1-.62-.14,1.72,1.72,0,0,1-.47-.47l-1-1.38a.53.53,0,0,0-.19-.18.64.64,0,0,0-.27,0h-.63V126h-1.37v-6.45h2.62a2.81,2.81,0,0,1,1.79.5,1.87,1.87,0,0,1,.62,1.56,2.23,2.23,0,0,1-.33,1.17,1.78,1.78,0,0,1-1,.76l.75,1.07a.4.4,0,0,0,.2.17,1.09,1.09,0,0,0,.37,0Zm-2.91-2.22c.75,0,1.12-.32,1.12-1a.8.8,0,0,0-.29-.71,1.42,1.42,0,0,0-.85-.21h-1.14v1.88Z"/><path class="cls-4" d="M228.45,120.72h-2v-1.18H232l-.32,1.18h-1.86V126h-1.38Z"/><path class="cls-4" d="M234.08,119.54h1.24l2.6,6.45h-1.46l-.48-1.27H233.4l-.49,1.27H231.4Zm1.46,4-.81-2.17h-.08l-.81,2.17Z"/><path class="cls-4" d="M238.71,119.54h1l3.35,4v-4h1.28V126h-.93l-3.4-4.15V126h-1.27Z"/><path class="cls-4" d="M247.12,120.72h-2v-1.18h5.59l-.32,1.18H248.5V126h-1.38Z"/><path class="cls-4" d="M251.42,119.54H256l-.32,1.18h-2.86v1.53h2.53l-.06,1.17h-2.47v1.4H256l-.32,1.17h-4.24Z"/><path class="cls-4" d="M256.94,122.84a.82.82,0,0,1-.25-.59.83.83,0,0,1,.25-.59.85.85,0,0,1,.59-.25.84.84,0,0,1,.84.84.82.82,0,0,1-.84.83A.84.84,0,0,1,256.94,122.84Zm0,3a.82.82,0,0,1-.25-.59.85.85,0,0,1,.84-.84.82.82,0,0,1,.6.25.84.84,0,0,1,.24.59.82.82,0,0,1-.84.83A.84.84,0,0,1,256.94,125.85Z"/><path class="cls-4" d="M262,125.43a2.47,2.47,0,0,1-.68-1.86,3,3,0,0,1,.3-1.38,2.07,2.07,0,0,1,.85-.93,2.54,2.54,0,0,1,1.32-.33,2,2,0,0,1,1.6.62,2.5,2.5,0,0,1,.53,1.66,3,3,0,0,1-.05.61h-3.52a1.45,1.45,0,0,0,.45,1.07,1.77,1.77,0,0,0,1.24.38,3.72,3.72,0,0,0,1.45-.26l.12.77a4.42,4.42,0,0,1-1.68.3A2.67,2.67,0,0,1,262,125.43Zm2.93-2.33V123a1.6,1.6,0,0,0-.26-.92,1,1,0,0,0-.93-.4,1.31,1.31,0,0,0-1,.39,1.57,1.57,0,0,0-.39,1Z"/><path class="cls-4" d="M267.09,119.27l1-.27v7h-1Z"/><path class="cls-4" d="M271.71,121h.8l.11.66a2,2,0,0,1,1.66-.74,2.6,2.6,0,0,1,1.25.3,2.18,2.18,0,0,1,.86.87,2.76,2.76,0,0,1,.32,1.36,2.84,2.84,0,0,1-.33,1.4,2.23,2.23,0,0,1-.89.91,2.5,2.5,0,0,1-1.26.31,2.73,2.73,0,0,1-.87-.13,2.07,2.07,0,0,1-.66-.37V128l-1,.27Zm3.58,3.77a2,2,0,0,0,.41-1.29,1.81,1.81,0,0,0-.44-1.3,1.54,1.54,0,0,0-1.14-.44,1.51,1.51,0,0,0-1,.34,1.1,1.1,0,0,0-.4.89v1.65a1.5,1.5,0,0,0,.63.46,2,2,0,0,0,.83.17A1.38,1.38,0,0,0,275.29,124.78Z"/><path class="cls-4" d="M278,125.63a1.5,1.5,0,0,1-.52-1.2,1.18,1.18,0,0,1,.47-1,2.55,2.55,0,0,1,1.46-.34h.31a4.91,4.91,0,0,1,1,.09v-.4a1,1,0,0,0-.31-.8,1.57,1.57,0,0,0-1-.24A5.58,5.58,0,0,0,278,122l-.08-.8a6.48,6.48,0,0,1,1.66-.22,2.48,2.48,0,0,1,1.6.43,1.59,1.59,0,0,1,.54,1.32v2.39c0,.42,0,.73,0,.92h-.85a5.49,5.49,0,0,1-.07-.55h0a1.52,1.52,0,0,1-.61.48,2.16,2.16,0,0,1-.86.16A1.93,1.93,0,0,1,278,125.63Zm2.38-.59a.9.9,0,0,0,.35-.73v-.49h-1.49q-.75,0-.75.63a.77.77,0,0,0,.27.63,1.09,1.09,0,0,0,.74.23A1.42,1.42,0,0,0,280.41,125Z"/><path class="cls-4" d="M284.08,125.77a2.18,2.18,0,0,1-.94-.89,2.93,2.93,0,0,1,0-2.76,2.26,2.26,0,0,1,1-.89,3.27,3.27,0,0,1,1.43-.3,4,4,0,0,1,1.38.24l-.13.81a3.14,3.14,0,0,0-1.17-.24,1.79,1.79,0,0,0-1.33.47,1.67,1.67,0,0,0-.49,1.28,1.81,1.81,0,0,0,.47,1.29,1.76,1.76,0,0,0,1.33.49,3.28,3.28,0,0,0,1.27-.26l.11.77a3.79,3.79,0,0,1-1.5.3A3,3,0,0,1,284.08,125.77Z"/><path class="cls-4" d="M288.2,120.05a.62.62,0,0,1-.2-.48.61.61,0,0,1,.2-.48.66.66,0,0,1,.49-.19.71.71,0,0,1,.5.19.68.68,0,0,1,0,1,.72.72,0,0,1-.5.2A.66.66,0,0,1,288.2,120.05Zm0,1h1v5h-1Z"/><path class="cls-4" d="M291.06,125.43a2.47,2.47,0,0,1-.68-1.86,3.18,3.18,0,0,1,.29-1.38,2.19,2.19,0,0,1,.85-.93,2.6,2.6,0,0,1,1.33-.33,2,2,0,0,1,1.6.62,2.5,2.5,0,0,1,.53,1.66,3.86,3.86,0,0,1-.05.61h-3.52a1.45,1.45,0,0,0,.45,1.07,1.75,1.75,0,0,0,1.24.38,3.72,3.72,0,0,0,1.45-.26l.11.77a4.33,4.33,0,0,1-1.67.3A2.67,2.67,0,0,1,291.06,125.43ZM294,123.1V123a1.68,1.68,0,0,0-.26-.92,1,1,0,0,0-.93-.4,1.3,1.3,0,0,0-1,.39,1.57,1.57,0,0,0-.39,1Z"/><path class="cls-4" d="M296.11,121H297l.07.45a3.17,3.17,0,0,1,.83-.39,2.89,2.89,0,0,1,.92-.14,1.67,1.67,0,0,1,1.26.45,1.92,1.92,0,0,1,.43,1.37V126h-1v-3.14a1.22,1.22,0,0,0-.25-.84,1,1,0,0,0-.76-.26,2.37,2.37,0,0,0-.73.12,2.6,2.6,0,0,0-.67.32V126h-1Z"/><path class="cls-4" d="M302.24,125.62a2,2,0,0,1-.39-1.37v-4.33l1-.2v1.38h1.77l-.29.82h-1.48v2.41a1,1,0,0,0,.19.69,1,1,0,0,0,.69.2,3.37,3.37,0,0,0,.8-.1l.05.76a3.6,3.6,0,0,1-1.05.15A1.72,1.72,0,0,1,302.24,125.62Z"/><path class="cls-4" d="M305.87,125.43a2.47,2.47,0,0,1-.68-1.86,3.18,3.18,0,0,1,.29-1.38,2.19,2.19,0,0,1,.85-.93,2.55,2.55,0,0,1,1.33-.33,2,2,0,0,1,1.6.62,2.5,2.5,0,0,1,.53,1.66,3.86,3.86,0,0,1-.05.61h-3.52a1.45,1.45,0,0,0,.45,1.07,1.75,1.75,0,0,0,1.24.38,3.76,3.76,0,0,0,1.45-.26l.11.77a4.36,4.36,0,0,1-1.67.3A2.67,2.67,0,0,1,305.87,125.43Zm2.93-2.33V123a1.68,1.68,0,0,0-.26-.92,1,1,0,0,0-.93-.4,1.28,1.28,0,0,0-1,.39,1.57,1.57,0,0,0-.39,1Z"/><path class="cls-4" d="M313.88,125.78a2.13,2.13,0,0,1-.88-.88,2.72,2.72,0,0,1-.33-1.37,2.66,2.66,0,0,1,.35-1.37,2.31,2.31,0,0,1,1-.91,2.57,2.57,0,0,1,1.29-.32,2,2,0,0,1,.68.11,1.13,1.13,0,0,1,.5.28h0v-2l1.35-.35v5.58c0,.42,0,.89,0,1.41h-1.14c0-.17-.06-.34-.08-.51h0a1.66,1.66,0,0,1-.59.44,2.06,2.06,0,0,1-.84.16A2.66,2.66,0,0,1,313.88,125.78Zm2.12-1a1.1,1.1,0,0,0,.45-.37v-1.32a1.05,1.05,0,0,0-.29-.8,1.11,1.11,0,0,0-.8-.29,1.21,1.21,0,0,0-.95.4,1.4,1.4,0,0,0-.37,1,1.55,1.55,0,0,0,.37,1.09,1.25,1.25,0,0,0,1,.41A1.42,1.42,0,0,0,316,124.81Z"/><path class="cls-4" d="M319.31,125.42a2.53,2.53,0,0,1-.69-1.9,2.75,2.75,0,0,1,.31-1.33,2.29,2.29,0,0,1,.87-.93,2.76,2.76,0,0,1,1.38-.33,2,2,0,0,1,1.68.67,2.62,2.62,0,0,1,.55,1.69,3.58,3.58,0,0,1-.06.68H320a.93.93,0,0,0,.41.74,1.86,1.86,0,0,0,1.07.27,3.66,3.66,0,0,0,1.43-.25l.12,1.08a4.48,4.48,0,0,1-1.68.27A2.93,2.93,0,0,1,319.31,125.42Zm2.74-2.38a1,1,0,0,0,0-.18,1.2,1.2,0,0,0-.27-.69.82.82,0,0,0-.65-.25,1,1,0,0,0-.77.3,1.18,1.18,0,0,0-.29.82Z"/><path class="cls-4" d="M325.4,126a4.76,4.76,0,0,1-1.06-.3v-6.32l1.34-.35v2.45h0a2.28,2.28,0,0,1,.69-.38,2.48,2.48,0,0,1,.87-.14,2.16,2.16,0,0,1,1.09.28,2.06,2.06,0,0,1,.8.85,2.75,2.75,0,0,1,.3,1.33,2.55,2.55,0,0,1-.77,2,2.91,2.91,0,0,1-2.06.7A6.26,6.26,0,0,1,325.4,126Zm2.33-1.41a1.9,1.9,0,0,0,0-2.14,1.09,1.09,0,0,0-.88-.39,1.14,1.14,0,0,0-.89.32,1.34,1.34,0,0,0-.28.93v1.5a3.07,3.07,0,0,0,1.06.16A1.28,1.28,0,0,0,327.73,124.56Z"/><path class="cls-4" d="M330.82,125.42a2.53,2.53,0,0,1-.69-1.9,2.86,2.86,0,0,1,.3-1.33,2.25,2.25,0,0,1,.88-.93,2.7,2.7,0,0,1,1.37-.33,2,2,0,0,1,1.68.67,2.56,2.56,0,0,1,.55,1.69,3.58,3.58,0,0,1-.06.68h-3.3a.9.9,0,0,0,.41.74A1.84,1.84,0,0,0,333,125a3.66,3.66,0,0,0,1.43-.25l.11,1.08a4.48,4.48,0,0,1-1.68.27A2.89,2.89,0,0,1,330.82,125.42Zm2.74-2.38c0-.07,0-.13,0-.18a1.28,1.28,0,0,0-.28-.69.81.81,0,0,0-.65-.25,1,1,0,0,0-.77.3,1.18,1.18,0,0,0-.28.82Z"/><path class="cls-4" d="M339.08,125.78a2.2,2.2,0,0,1-1-.89,2.67,2.67,0,0,1-.35-1.38,2.58,2.58,0,0,1,.36-1.38,2.28,2.28,0,0,1,1-.89,3.25,3.25,0,0,1,1.45-.31,4.8,4.8,0,0,1,1.4.21l-.16,1.09a3.35,3.35,0,0,0-1.13-.19,1.69,1.69,0,0,0-1.11.37,1.55,1.55,0,0,0,0,2.17,1.63,1.63,0,0,0,1.12.39,2.92,2.92,0,0,0,1.18-.22l.12,1.08a3.36,3.36,0,0,1-.64.18,4.28,4.28,0,0,1-.81.07A3.38,3.38,0,0,1,339.08,125.78Z"/><path class="cls-4" d="M343.28,125.42a2.53,2.53,0,0,1-.69-1.9,2.75,2.75,0,0,1,.31-1.33,2.29,2.29,0,0,1,.87-.93,2.76,2.76,0,0,1,1.38-.33,2,2,0,0,1,1.68.67,2.61,2.61,0,0,1,.54,1.69,3.62,3.62,0,0,1-.05.68H344a.93.93,0,0,0,.41.74,1.86,1.86,0,0,0,1.07.27,3.66,3.66,0,0,0,1.43-.25l.12,1.08a4.48,4.48,0,0,1-1.68.27A2.92,2.92,0,0,1,343.28,125.42ZM346,123a1,1,0,0,0,0-.18,1.2,1.2,0,0,0-.27-.69.82.82,0,0,0-.65-.25,1,1,0,0,0-.77.3,1.18,1.18,0,0,0-.29.82Z"/><path class="cls-4" d="M348.31,121h1.1l.06.53a2.29,2.29,0,0,1,.75-.44,2.49,2.49,0,0,1,.94-.17,2.44,2.44,0,0,1,1.21.3,2.22,2.22,0,0,1,.86.86,2.72,2.72,0,0,1,.31,1.33,2.87,2.87,0,0,1-.34,1.46,2.19,2.19,0,0,1-.91.9,2.84,2.84,0,0,1-1.31.3,2.64,2.64,0,0,1-.74-.1,1.9,1.9,0,0,1-.59-.25v2.15l-1.34.35Zm3.51,3.57a1.64,1.64,0,0,0,.35-1.13,1.42,1.42,0,0,0-.36-1,1.22,1.22,0,0,0-.9-.36,1.3,1.3,0,0,0-.92.31,1.05,1.05,0,0,0-.34.82v1.31a1.36,1.36,0,0,0,.51.32,1.89,1.89,0,0,0,.69.14A1.28,1.28,0,0,0,351.82,124.58Z"/><path class="cls-4" d="M354.57,120.13a.86.86,0,0,1,0-1.21.87.87,0,0,1,.61-.23.89.89,0,0,1,.61.23.83.83,0,0,1,0,1.21.84.84,0,0,1-.61.23A.83.83,0,0,1,354.57,120.13Zm-.06.88h1.34v5h-1.34Z"/><path class="cls-4" d="M357.08,119.35l1.35-.35v7h-1.35Z"/><path class="cls-4" d="M359.64,119.35,361,119v7h-1.34Z"/><path class="cls-4" d="M362.74,125.86a1.6,1.6,0,0,1-.66-.6,1.62,1.62,0,0,1-.23-.87,1.25,1.25,0,0,1,.49-1.09,2.75,2.75,0,0,1,1.61-.36h.33a6.29,6.29,0,0,1,.73,0v-.22a.62.62,0,0,0-.27-.56,1.67,1.67,0,0,0-.85-.17,6.25,6.25,0,0,0-1.49.2l-.08-1.06a7.48,7.48,0,0,1,.91-.17,7.39,7.39,0,0,1,1-.07,2.44,2.44,0,0,1,1.56.43,1.62,1.62,0,0,1,.54,1.34V125c0,.45,0,.78,0,1h-1.16a3.7,3.7,0,0,1-.07-.48h0a1.88,1.88,0,0,1-1.42.57A2,2,0,0,1,362.74,125.86Zm2-1a.62.62,0,0,0,.27-.53v-.46h-1.17a.69.69,0,0,0-.45.14.45.45,0,0,0-.17.38.57.57,0,0,0,.23.49.93.93,0,0,0,.6.18A1.09,1.09,0,0,0,364.74,124.85Z"/><path class="cls-4" d="M367.45,121h1.16l.08.67a3.33,3.33,0,0,1,1.82-.76l-.05,1.26a3.66,3.66,0,0,0-.85.17,4.19,4.19,0,0,0-.81.34V126h-1.35Z"/><path class="cls-4" d="M196.3,137.25l.11-1.14a6.39,6.39,0,0,0,.78.22,3.65,3.65,0,0,0,.77.09,1.34,1.34,0,0,0,.65-.12.36.36,0,0,0,.21-.32.32.32,0,0,0-.08-.21.64.64,0,0,0-.28-.17,4.13,4.13,0,0,0-.6-.2,2.73,2.73,0,0,1-1.16-.61,1.32,1.32,0,0,1-.36-.95,1.21,1.21,0,0,1,.61-1.11,2.85,2.85,0,0,1,1.48-.36,5.68,5.68,0,0,1,1.46.19l-.09,1.09a3.89,3.89,0,0,0-1.27-.21c-.55,0-.82.12-.82.36s.08.21.22.29a7.72,7.72,0,0,0,.83.3,2.57,2.57,0,0,1,1.11.58,1.23,1.23,0,0,1,.31.86,1.46,1.46,0,0,1-.59,1.27,2.43,2.43,0,0,1-1.46.42A5.82,5.82,0,0,1,196.3,137.25Z"/><path class="cls-4" d="M201.5,137a2,2,0,0,1-.56-1.54v-3.05h1.34v3a1,1,0,0,0,.23.72,1.14,1.14,0,0,0,1.4,0,1,1,0,0,0,.23-.72v-3h1.34v3.05a1.86,1.86,0,0,1-.59,1.51,2.5,2.5,0,0,1-1.7.51A2.58,2.58,0,0,1,201.5,137Z"/><path class="cls-4" d="M206.32,137.25l.1-1.14a6.07,6.07,0,0,0,.79.22,3.58,3.58,0,0,0,.77.09,1.36,1.36,0,0,0,.65-.12.37.37,0,0,0,.2-.32.31.31,0,0,0-.07-.21.79.79,0,0,0-.28-.17,4.34,4.34,0,0,0-.61-.2,2.68,2.68,0,0,1-1.15-.61,1.33,1.33,0,0,1-.37-.95,1.23,1.23,0,0,1,.61-1.11,2.91,2.91,0,0,1,1.49-.36,5.74,5.74,0,0,1,1.46.19l-.1,1.09a3.8,3.8,0,0,0-1.27-.21q-.81,0-.81.36c0,.12.07.21.22.29a8.19,8.19,0,0,0,.82.3,2.46,2.46,0,0,1,1.11.58,1.24,1.24,0,0,1,.32.86,1.46,1.46,0,0,1-.59,1.27,2.45,2.45,0,0,1-1.46.42A5.77,5.77,0,0,1,206.32,137.25Z"/><path class="cls-4" d="M214.14,137.22a2.16,2.16,0,0,1-.89-.88,3,3,0,0,1,0-2.75,2.51,2.51,0,0,1,.95-.91,2.74,2.74,0,0,1,1.3-.31,2.18,2.18,0,0,1,.67.1,1.37,1.37,0,0,1,.51.29h0v-2l1.34-.35V136c0,.42,0,.89,0,1.41h-1.13a4.54,4.54,0,0,1-.09-.51h0a1.69,1.69,0,0,1-.59.44,2.06,2.06,0,0,1-.84.16A2.6,2.6,0,0,1,214.14,137.22Zm2.11-1a1.2,1.2,0,0,0,.46-.37v-1.32a1,1,0,0,0-.3-.8,1.09,1.09,0,0,0-.8-.29,1.21,1.21,0,0,0-1,.4,1.44,1.44,0,0,0-.36,1,1.59,1.59,0,0,0,.36,1.09,1.25,1.25,0,0,0,1,.41A1.55,1.55,0,0,0,216.25,136.25Z"/><path class="cls-4" d="M219.31,131.56a.76.76,0,0,1-.25-.6.79.79,0,0,1,.25-.6.9.9,0,0,1,1.22,0,.79.79,0,0,1,.26.6.76.76,0,0,1-.26.6.9.9,0,0,1-1.22,0Zm-.06.89h1.35v5h-1.35Z"/><path class="cls-4" d="M222.26,136.85a2.49,2.49,0,0,1-.69-1.89,2.86,2.86,0,0,1,.3-1.33,2.25,2.25,0,0,1,.88-.93,2.7,2.7,0,0,1,1.37-.33,2,2,0,0,1,1.68.67,2.56,2.56,0,0,1,.55,1.69,3.58,3.58,0,0,1-.06.68H223a.88.88,0,0,0,.41.73,1.75,1.75,0,0,0,1.07.28,3.89,3.89,0,0,0,1.43-.25l.11,1.08a4.48,4.48,0,0,1-1.68.27A2.85,2.85,0,0,1,222.26,136.85Zm2.73-2.37a1,1,0,0,0,0-.18,1.2,1.2,0,0,0-.27-.69.82.82,0,0,0-.65-.25,1,1,0,0,0-.77.3,1.18,1.18,0,0,0-.28.82Z"/><path class="cls-4" d="M227.28,132.45h1.19l.07.44a2.89,2.89,0,0,1,.79-.38,2.58,2.58,0,0,1,.83-.14,1.65,1.65,0,0,1,1.29.49,2.1,2.1,0,0,1,.43,1.44v3.13h-1.35v-3a1.49,1.49,0,0,0-.05-.47.64.64,0,0,0-.19-.29.88.88,0,0,0-.61-.19,1.82,1.82,0,0,0-.56.09,2.59,2.59,0,0,0-.5.24v3.6h-1.34Z"/><path class="cls-4" d="M233.39,137.08a1.71,1.71,0,0,1-.45-1.35v-4.38l1.34-.2v1.37H236l-.24,1.12h-1.5v1.85a1,1,0,0,0,.17.64.71.71,0,0,0,.55.2,3.47,3.47,0,0,0,.87-.08l.07,1.05a3,3,0,0,1-.55.12,4.87,4.87,0,0,1-.66,0A2,2,0,0,1,233.39,137.08Z"/><path class="cls-4" d="M237.16,136.85a2.49,2.49,0,0,1-.69-1.89,2.86,2.86,0,0,1,.3-1.33,2.32,2.32,0,0,1,.88-.93,2.7,2.7,0,0,1,1.37-.33,2,2,0,0,1,1.68.67,2.56,2.56,0,0,1,.55,1.69,3.58,3.58,0,0,1-.06.68h-3.3a.88.88,0,0,0,.41.73,1.77,1.77,0,0,0,1.07.28,3.85,3.85,0,0,0,1.43-.25l.12,1.08a4.57,4.57,0,0,1-1.69.27A2.85,2.85,0,0,1,237.16,136.85Zm2.74-2.37c0-.07,0-.13,0-.18a1.21,1.21,0,0,0-.28-.69.8.8,0,0,0-.64-.25,1,1,0,0,0-.78.3,1.23,1.23,0,0,0-.28.82Z"/><path class="cls-4" d="M241.9,137.25l.1-1.14a6.07,6.07,0,0,0,.79.22,3.58,3.58,0,0,0,.77.09,1.29,1.29,0,0,0,.64-.12.36.36,0,0,0,.21-.32.28.28,0,0,0-.08-.21.66.66,0,0,0-.27-.17,4.34,4.34,0,0,0-.61-.2,2.68,2.68,0,0,1-1.15-.61,1.29,1.29,0,0,1-.37-.95,1.23,1.23,0,0,1,.61-1.11,2.88,2.88,0,0,1,1.49-.36,5.74,5.74,0,0,1,1.46.19l-.1,1.09a3.85,3.85,0,0,0-1.27-.21q-.81,0-.81.36c0,.12.07.21.22.29a7.31,7.31,0,0,0,.82.3,2.57,2.57,0,0,1,1.11.58,1.23,1.23,0,0,1,.31.86,1.45,1.45,0,0,1-.58,1.27,2.45,2.45,0,0,1-1.46.42A5.77,5.77,0,0,1,241.9,137.25Z"/><path class="cls-4" d="M249.05,137.07a1.52,1.52,0,0,1-.51-1.2,1.17,1.17,0,0,1,.47-1,2.46,2.46,0,0,1,1.46-.34h.31a5,5,0,0,1,1,.09v-.41a1,1,0,0,0-.31-.79,1.59,1.59,0,0,0-1-.24,6,6,0,0,0-1.45.2l-.09-.8a7,7,0,0,1,1.66-.21,2.5,2.5,0,0,1,1.61.43,1.59,1.59,0,0,1,.54,1.32v2.39c0,.42,0,.73,0,.92H252c0-.23-.06-.42-.08-.56h0a1.49,1.49,0,0,1-.61.49,2.13,2.13,0,0,1-.86.16A2,2,0,0,1,249.05,137.07Zm2.39-.6a.87.87,0,0,0,.35-.72v-.5H250.3c-.5,0-.75.22-.75.64a.77.77,0,0,0,.27.63,1.13,1.13,0,0,0,.74.23A1.36,1.36,0,0,0,251.44,136.47Z"/><path class="cls-4" d="M254.14,132.45H255l.08.45a2.82,2.82,0,0,1,.82-.39,2.91,2.91,0,0,1,.93-.14,1.67,1.67,0,0,1,1.26.45,2,2,0,0,1,.43,1.37v3.24h-1v-3.14a1.22,1.22,0,0,0-.25-.84,1,1,0,0,0-.76-.27,2.45,2.45,0,0,0-.74.13,2.53,2.53,0,0,0-.66.32v3.8h-1Z"/><path class="cls-4" d="M260.27,137.05a1.87,1.87,0,0,1-.4-1.36v-4.34l1-.2v1.39h1.78l-.29.82h-1.49v2.41a1,1,0,0,0,.19.68.92.92,0,0,0,.69.2,3.32,3.32,0,0,0,.8-.09l.06.76a3.67,3.67,0,0,1-1.06.14A1.66,1.66,0,0,1,260.27,137.05Z"/><path class="cls-4" d="M263.9,136.87a2.45,2.45,0,0,1-.69-1.86,3,3,0,0,1,.3-1.38,2.13,2.13,0,0,1,.85-.93,2.54,2.54,0,0,1,1.32-.33,2,2,0,0,1,1.6.62,2.44,2.44,0,0,1,.53,1.65,4,4,0,0,1,0,.62h-3.53a1.45,1.45,0,0,0,.45,1.07,1.82,1.82,0,0,0,1.24.38,3.69,3.69,0,0,0,1.45-.26l.12.77a4.4,4.4,0,0,1-1.67.3A2.68,2.68,0,0,1,263.9,136.87Zm2.92-2.33v-.11a1.59,1.59,0,0,0-.26-.91,1,1,0,0,0-.93-.4,1.27,1.27,0,0,0-1,.39,1.52,1.52,0,0,0-.4,1Z"/><path class="cls-4" d="M269.46,137.44a5.08,5.08,0,0,1-.8-.23l.09-.85a4.13,4.13,0,0,0,.75.26,3.59,3.59,0,0,0,.78.09,1.46,1.46,0,0,0,.78-.17.56.56,0,0,0,.26-.48.52.52,0,0,0-.23-.44,4.34,4.34,0,0,0-.84-.36,3.26,3.26,0,0,1-1.07-.55,1.15,1.15,0,0,1-.43-1,1.17,1.17,0,0,1,.54-1,2.48,2.48,0,0,1,1.38-.34,4.74,4.74,0,0,1,1.36.21l-.09.8a3.38,3.38,0,0,0-1.22-.22c-.65,0-1,.18-1,.56a.49.49,0,0,0,.24.43,4.25,4.25,0,0,0,.84.34,3.12,3.12,0,0,1,1.12.57,1.16,1.16,0,0,1,.35.9,1.34,1.34,0,0,1-.56,1.16,2.37,2.37,0,0,1-1.43.4A5,5,0,0,1,269.46,137.44Z"/><path class="cls-4" d="M276.28,137.24a2.1,2.1,0,0,1-.86-.86,3.29,3.29,0,0,1,0-2.83,2.24,2.24,0,0,1,.89-.89,2.46,2.46,0,0,1,1.21-.29,2.07,2.07,0,0,1,.9.17,1.68,1.68,0,0,1,.6.47h0v-2.29l1-.27v5.66c0,.3,0,.74,0,1.33h-.84a5.4,5.4,0,0,1-.09-.6h0a2,2,0,0,1-1.64.69A2.58,2.58,0,0,1,276.28,137.24Zm2.2-.74a1.67,1.67,0,0,0,.59-.53v-1.55a1.16,1.16,0,0,0-.39-.88,1.57,1.57,0,0,0-2.14.13,2,2,0,0,0-.42,1.33,1.75,1.75,0,0,0,.42,1.27,1.47,1.47,0,0,0,1.11.43A1.62,1.62,0,0,0,278.48,136.5Z"/><path class="cls-4" d="M281.75,136.87a2.45,2.45,0,0,1-.68-1.86,3,3,0,0,1,.29-1.38,2.13,2.13,0,0,1,.85-.93,2.54,2.54,0,0,1,1.32-.33,2,2,0,0,1,1.6.62,2.45,2.45,0,0,1,.54,1.65,3.89,3.89,0,0,1-.05.62h-3.53a1.45,1.45,0,0,0,.45,1.07,1.84,1.84,0,0,0,1.24.38,3.69,3.69,0,0,0,1.45-.26l.12.77a4.36,4.36,0,0,1-1.67.3A2.7,2.7,0,0,1,281.75,136.87Zm2.93-2.33v-.11a1.6,1.6,0,0,0-.27-.91,1,1,0,0,0-.92-.4,1.28,1.28,0,0,0-1,.39,1.52,1.52,0,0,0-.4,1Z"/><path class="cls-4" d="M289,130.71l1-.27v7h-1Z"/><path class="cls-4" d="M291.49,130.71l1-.27v7h-1Z"/><path class="cls-4" d="M294.21,136.87a2.49,2.49,0,0,1-.68-1.86,3.15,3.15,0,0,1,.29-1.38,2.19,2.19,0,0,1,.85-.93,2.57,2.57,0,0,1,1.33-.33,2,2,0,0,1,1.6.62,2.49,2.49,0,0,1,.53,1.65,3.89,3.89,0,0,1-.05.62h-3.52a1.45,1.45,0,0,0,.45,1.07,1.8,1.8,0,0,0,1.24.38,3.76,3.76,0,0,0,1.45-.26l.11.77a4.33,4.33,0,0,1-1.67.3A2.71,2.71,0,0,1,294.21,136.87Zm2.93-2.33v-.11a1.67,1.67,0,0,0-.26-.91,1,1,0,0,0-.93-.4,1.28,1.28,0,0,0-1,.39,1.57,1.57,0,0,0-.39,1Z"/><path class="cls-4" d="M300.68,139.64a5,5,0,0,1-.76-.19l.08-.79a4.9,4.9,0,0,0,.69.18,5,5,0,0,0,.72.06,1.42,1.42,0,0,0,1.12-.4,1.81,1.81,0,0,0,.36-1.25v-.33a1.72,1.72,0,0,1-.64.41,2.6,2.6,0,0,1-.87.14,2.55,2.55,0,0,1-1.26-.3,2.21,2.21,0,0,1-.86-.88,3,3,0,0,1,0-2.68,2.33,2.33,0,0,1,.92-.92,2.52,2.52,0,0,1,1.27-.32,2,2,0,0,1,.94.2,1.93,1.93,0,0,1,.62.5l.09-.62h.74v4.75a2.61,2.61,0,0,1-.59,1.89,2.36,2.36,0,0,1-1.78.62A5.81,5.81,0,0,1,300.68,139.64Zm2.21-3.61V134.4a1.17,1.17,0,0,0-.36-.89,1.4,1.4,0,0,0-1-.33,1.49,1.49,0,0,0-1.15.47,2,2,0,0,0,0,2.54,1.49,1.49,0,0,0,1.13.46A1.7,1.7,0,0,0,302.89,136Z"/><path class="cls-4" d="M305.51,137.07a1.52,1.52,0,0,1-.51-1.2,1.16,1.16,0,0,1,.46-1,2.49,2.49,0,0,1,1.47-.34h.3a4.91,4.91,0,0,1,1,.09v-.41a.94.94,0,0,0-.31-.79,1.55,1.55,0,0,0-1-.24,6.07,6.07,0,0,0-1.45.2l-.08-.8a6.93,6.93,0,0,1,1.66-.21,2.52,2.52,0,0,1,1.61.43,1.62,1.62,0,0,1,.53,1.32v2.39c0,.42,0,.73,0,.92h-.84c0-.23-.07-.42-.08-.56h0a1.56,1.56,0,0,1-.61.49,2.13,2.13,0,0,1-.86.16A2,2,0,0,1,305.51,137.07Zm2.38-.6a.87.87,0,0,0,.35-.72v-.5h-1.49c-.5,0-.75.22-.75.64a.78.78,0,0,0,.28.63,1.12,1.12,0,0,0,.73.23A1.35,1.35,0,0,0,307.89,136.47Z"/><path class="cls-4" d="M310.59,132.45h.88l.07.7a3.18,3.18,0,0,1,.8-.53,2.58,2.58,0,0,1,1-.25l-.07,1a3.33,3.33,0,0,0-1.67.57v3.53h-1Z"/><path class="cls-4" d="M316.12,137.07a1.52,1.52,0,0,1-.51-1.2,1.16,1.16,0,0,1,.46-1,2.49,2.49,0,0,1,1.47-.34h.3a4.85,4.85,0,0,1,1,.09v-.41a1,1,0,0,0-.3-.79,1.59,1.59,0,0,0-1-.24,5.94,5.94,0,0,0-1.45.2l-.09-.8a6.93,6.93,0,0,1,1.66-.21,2.52,2.52,0,0,1,1.61.43,1.62,1.62,0,0,1,.53,1.32v2.39c0,.42,0,.73,0,.92H319c0-.23-.07-.42-.08-.56h0a1.56,1.56,0,0,1-.61.49,2.13,2.13,0,0,1-.86.16A2,2,0,0,1,316.12,137.07Zm2.38-.6a.85.85,0,0,0,.35-.72v-.5h-1.49c-.49,0-.74.22-.74.64a.77.77,0,0,0,.27.63,1.12,1.12,0,0,0,.73.23A1.33,1.33,0,0,0,318.5,136.47Z"/><path class="cls-4" d="M323.38,130.71l1-.27v7h-1Z"/><path class="cls-4" d="M326,137.07a1.52,1.52,0,0,1-.51-1.2,1.16,1.16,0,0,1,.46-1,2.49,2.49,0,0,1,1.47-.34h.3a4.85,4.85,0,0,1,1,.09v-.41a1,1,0,0,0-.3-.79,1.59,1.59,0,0,0-1-.24,5.94,5.94,0,0,0-1.45.2l-.09-.8a6.93,6.93,0,0,1,1.66-.21,2.52,2.52,0,0,1,1.61.43,1.62,1.62,0,0,1,.53,1.32v2.39c0,.42,0,.73,0,.92h-.84c0-.23-.07-.42-.08-.56h0a1.56,1.56,0,0,1-.61.49,2.13,2.13,0,0,1-.86.16A2,2,0,0,1,326,137.07Zm2.38-.6a.85.85,0,0,0,.35-.72v-.5h-1.49c-.49,0-.74.22-.74.64a.77.77,0,0,0,.27.63,1.12,1.12,0,0,0,.73.23A1.33,1.33,0,0,0,328.41,136.47Z"/><path class="cls-4" d="M334.22,137.21a2.13,2.13,0,0,1-.94-.89,2.63,2.63,0,0,1-.34-1.37,2.71,2.71,0,0,1,.35-1.39,2.2,2.2,0,0,1,1-.89,3.23,3.23,0,0,1,1.43-.3,4.09,4.09,0,0,1,1.38.24l-.13.8a3.13,3.13,0,0,0-1.18-.23,1.82,1.82,0,0,0-1.33.47,1.7,1.7,0,0,0-.48,1.28,1.81,1.81,0,0,0,.47,1.29,1.72,1.72,0,0,0,1.32.49,3.21,3.21,0,0,0,1.27-.26l.12.77a3.86,3.86,0,0,1-1.5.3A3,3,0,0,1,334.22,137.21Z"/><path class="cls-4" d="M338.33,131.49a.65.65,0,0,1-.19-.48.62.62,0,0,1,.19-.48.69.69,0,0,1,.5-.2.7.7,0,0,1,.49.2.65.65,0,0,1,0,1,.7.7,0,0,1-.49.2A.69.69,0,0,1,338.33,131.49Zm0,1h1v5h-1Z"/><path class="cls-4" d="M341.28,137.05a1.87,1.87,0,0,1-.4-1.36v-4.34l1-.2v1.39h1.78l-.29.82h-1.49v2.41a1,1,0,0,0,.19.68.92.92,0,0,0,.69.2,3.32,3.32,0,0,0,.8-.09l.06.76a3.67,3.67,0,0,1-1.06.14A1.66,1.66,0,0,1,341.28,137.05Z"/><path class="cls-4" d="M344.84,137.07a1.52,1.52,0,0,1-.51-1.2,1.14,1.14,0,0,1,.47-1,2.46,2.46,0,0,1,1.46-.34h.31a5,5,0,0,1,1,.09v-.41a1,1,0,0,0-.31-.79,1.59,1.59,0,0,0-1-.24,6,6,0,0,0-1.45.2l-.09-.8a7,7,0,0,1,1.66-.21,2.5,2.5,0,0,1,1.61.43,1.59,1.59,0,0,1,.53,1.32v2.39c0,.42,0,.73,0,.92h-.84c0-.23-.07-.42-.08-.56h0a1.49,1.49,0,0,1-.61.49,2.13,2.13,0,0,1-.86.16A2,2,0,0,1,344.84,137.07Zm2.38-.6a.86.86,0,0,0,.36-.72v-.5h-1.49c-.5,0-.75.22-.75.64a.77.77,0,0,0,.27.63,1.13,1.13,0,0,0,.74.23A1.32,1.32,0,0,0,347.22,136.47Z"/><rect class="cls-4" x="178.12" y="87.08" width="2.77" height="9" rx="1.38"/><rect class="cls-4" x="178.12" y="87.08" width="2.77" height="9" rx="1.38" transform="translate(271.08 -87.92) rotate(90)"/><rect class="cls-5" x="188.18" y="77.42" width="1.8" height="5.85" rx="0.75"/><rect class="cls-5" x="188.18" y="77.42" width="1.8" height="5.85" rx="0.75" transform="translate(269.42 -108.73) rotate(90)"/><circle class="cls-8" cx="54.5" cy="91.5" r="48.5"/><rect class="cls-9" x="30" y="66" width="49" height="61" rx="5.84"/><rect class="cls-10" x="35" y="70" width="39" height="53" rx="2.26"/><rect class="cls-11" x="46.5" y="61.5" width="16" height="11" rx="3.7"/><circle class="cls-11" cx="54.5" cy="61.5" r="3"/><rect class="cls-11" x="52.5" y="75.5" width="18" height="1.5" rx="0.75"/><rect class="cls-11" x="52.5" y="82.5" width="18" height="1.5" rx="0.75"/><rect class="cls-11" x="52.5" y="88.5" width="18" height="1.5" rx="0.75"/><rect class="cls-11" x="52.5" y="103.5" width="18" height="1.5" rx="0.75"/><rect class="cls-11" x="52.5" y="110.5" width="18" height="1.5" rx="0.75"/><rect class="cls-11" x="52.5" y="116.5" width="18" height="1.5" rx="0.75"/><rect class="cls-11" x="37" y="95.5" width="33.5" height="1.5" rx="0.75"/><circle class="cls-12" cx="44.75" cy="79" r="3"/><path class="cls-12" d="M44.7,81h.11a5.45,5.45,0,0,1,5.45,5.45v0A1.55,1.55,0,0,1,48.7,88H40.8a1.55,1.55,0,0,1-1.55-1.55v0A5.45,5.45,0,0,1,44.7,81Z"/><path class="cls-12" d="M41.39,104.11a3.56,3.56,0,0,1,1.16.22l1.06.32a3.38,3.38,0,0,0,2.06-.14,7.93,7.93,0,0,1,1.29-.36,2.15,2.15,0,0,1,1.84.51A3.07,3.07,0,0,1,50,107a5,5,0,0,1-.27,1.61c-.14.45-.29.89-.44,1.33a3.73,3.73,0,0,0-.18,1.1,11,11,0,0,1-.48,3.38,3.12,3.12,0,0,1-.4.82,1.29,1.29,0,0,1-2.16,0,3.93,3.93,0,0,1-.62-1.58,9.31,9.31,0,0,0-.43-1.48c-.16-.37-.36-.5-.69-.47a.68.68,0,0,0-.51.37,4.67,4.67,0,0,0-.45,1.14,14.83,14.83,0,0,1-.44,1.48,2.49,2.49,0,0,1-.4.69,1.09,1.09,0,0,1-1.73,0,3,3,0,0,1-.59-1.12,9.35,9.35,0,0,1-.45-2.73,6.65,6.65,0,0,0-.45-2.37,6.13,6.13,0,0,1-.47-1.8,3.08,3.08,0,0,1,.89-2.51A2.12,2.12,0,0,1,41.39,104.11Z"/><rect class="cls-4" x="68.5" y="49" width="4" height="13" rx="2"/><rect class="cls-4" x="68.5" y="49" width="4" height="13" rx="2" transform="translate(126 -15) rotate(90)"/><path class="cls-13" d="M113.66,60.62a13.54,13.54,0,0,1,23.79,8.85"/><polyline class="cls-13" points="135.88 67.91 137.44 69.47 139 67.91"/><g class="cls-14"><path class="cls-15" d="M157.48,104.53s.72,2.93-2.37,5.62l1.22,6H168s-.27-4.43,1.66-5.83c0,0-3.08-1.55-2-7.6"/><path class="cls-16" d="M157.77,105.06s-.25,1.66,3.53,3.45a13.35,13.35,0,0,0,7.46,1.11,5.29,5.29,0,0,1-1.2-2.79,17.14,17.14,0,0,1-.08-4.09"/><path class="cls-15" d="M156,101.35a8.66,8.66,0,0,0,5,6.17,1.82,1.82,0,0,0,1.15.08,10.58,10.58,0,0,0,3.67-1.89,5.19,5.19,0,0,0,1.83-2.71,7.89,7.89,0,0,0,.27-1.25,2.15,2.15,0,0,0,2.09-.7c.7-1,2.19-4.08.9-5.08,0,0-.65-.65-1.55,1.35l-.1-7.08-12.54-.69-2.1,6.27s-1.09-.5-1.59.4.4,2.49,1.1,3.49S155.16,102.79,156,101.35Z"/><path class="cls-17" d="M160.19,103.14a6,6,0,0,0,4.68-.4s.63-.09-.18.7a3.67,3.67,0,0,1-2.41,1.36c-1.09.13-2.59-1.36-2.59-1.36"/><path class="cls-18" d="M156.89,96.33a5.57,5.57,0,0,1,2.07-.55,2,2,0,0,1,1.14.15,1.28,1.28,0,0,1,.71.95l-.07,0a5,5,0,0,0-.92-.29c-.27-.07-.56-.19-.88-.25a7.62,7.62,0,0,0-2,0Z"/><path class="cls-18" d="M167.63,96.4a7.21,7.21,0,0,0-2,0c-.32.05-.61.18-.88.24a6.06,6.06,0,0,0-.92.3l-.06,0a1.25,1.25,0,0,1,.7-.95,1.89,1.89,0,0,1,1.14-.15,5.57,5.57,0,0,1,2.07.55Z"/><path class="cls-19" d="M157.05,97.61a3.75,3.75,0,0,1,3.95,0s-.18,1.28-2.16,1.24S157.05,97.61,157.05,97.61Z"/><path class="cls-19" d="M167.73,97.45a3.73,3.73,0,0,0-3.93.33s.28,1.25,2.26,1S167.73,97.45,167.73,97.45Z"/><circle class="cls-20" cx="165.42" cy="97.76" r="0.7"/><circle class="cls-20" cx="159.1" cy="97.76" r="0.7"/><path class="cls-21" d="M153.41,95a.61.61,0,0,0,.32.44,3,3,0,0,1,1.71,2.5,12.09,12.09,0,0,1,.52-4.81c.8-1.89.89-3.18,2-2.89s4.78.6,5.83.75,1.14.35,1.14.35-.43-1.11.19-.8a5.22,5.22,0,0,1,2.9,2.29,13.71,13.71,0,0,1,1.1,4.68c-.1.5,1.09-2.09,2-1.69,0,0,1.59-7.27-2.59-9.56s-7.07-2.69-9.76-.2a3.32,3.32,0,0,0-3.89,1.79A11,11,0,0,0,153.41,95Z"/><path class="cls-22" d="M161.29,101a2,2,0,0,0,2.49,0"/><path class="cls-23" d="M144.06,104.14a.61.61,0,0,0-.51.67c0,.62,1,.32,1,.32l10.37-1.35a7.74,7.74,0,0,1,2.64-1l2.43-.2s.6-.51-.2-.75l-4.28.65s-1,.4-1.69.6S144.06,104.14,144.06,104.14Z"/><polygon class="cls-24" points="156.61 104.54 156.43 102.74 160.21 102.16 160.49 104.14 156.61 104.54"/><path class="cls-25" d="M146.92,103.78l2.63-.28c.26.3,1-.15,1-.15a2.52,2.52,0,0,0,1.46-.06c.47.3,1.23-.28,1.23-.28.41.32,1.4-.25,1.4-.25A15.33,15.33,0,0,0,152.8,101c-.72-.5-.92.44-.92.44s.14-.24-.35-.64-.91.42-.91.42l-.29-.42c-.4-.5-1.37.42-1.37.42-.67-.67-1.37.22-1.37.22a4.5,4.5,0,0,0-1.12,2.5"/><path class="cls-25" d="M147.84,131.63c-.7,2-3.09,3.58-5.58,5.77s-3.28,2-3.78,1.7a9.68,9.68,0,0,1-2.59-7.07c.2-3.79,5.18-15.24,7.17-18.43a37.18,37.18,0,0,0,3-5.94,3.28,3.28,0,0,1,0-2.73l8.6-1.12a4.57,4.57,0,0,0-1,1.17c-.3.6,0,2.18-1.79,3.53s-2.2,1.75-2.4,2.65a51.73,51.73,0,0,0-1.89,6.87c-.5,3.19-.69,10.76-1.79,12.85Z"/><path class="cls-26" d="M149.13,110.49c0-.11,0-.22,0-.32s.06-.36,0-.12,0-.06,0-.11l.06-.32c0-.17.09-.34.14-.51s.13-.29,0-.07,0,0,0-.07.08-.16.13-.24.2-.25,0-.07,0,0,.06,0,.15-.12.19-.18-.25.17,0,0l.2-.12c.28-.15-.31.1,0,0l.22-.07a6.2,6.2,0,0,0,2.21-.81,2.36,2.36,0,0,0,.89-1.72c0-.36,0-.72,0-1.08a1.51,1.51,0,0,0-1.5-1.5,1.53,1.53,0,0,0-1.5,1.5v.55a1.92,1.92,0,0,1,0,.24c0,.12-.05.41,0,0,0,.23.05-.11.11-.19s.34-.31.16-.17l-.08,0,.16-.07-.22.06a8.27,8.27,0,0,0-2.18.75,4.08,4.08,0,0,0-1.65,2,9.2,9.2,0,0,0-.55,2.61,1.53,1.53,0,0,0,.44,1.06,1.56,1.56,0,0,0,1.06.44,1.54,1.54,0,0,0,1.5-1.5Z"/><path class="cls-27" d="M145.8,130.88a23.5,23.5,0,0,1-2.94,3.24l3.26-3.12"/><path class="cls-28" d="M145.63,131.1a3.64,3.64,0,0,0,2.24,1.4l1.66-2.86-.69,13.44,15.34,3,10.85-4-1.19-12.16.79,1.9L186,129.54l-4.88-14.84a4.89,4.89,0,0,0-3.39-2.3c-2.39-.39-7.77-2.09-7.77-2.09s-1.92,2.43-7.76,2.14-7.51-2.53-7.51-2.53l-5.34,1.79a34.94,34.94,0,0,0-1.83,6.94C147.34,121.07,145.51,130.28,145.63,131.1Z"/><path class="cls-25" d="M160.49,127.34s.6-.09.3-1.69,1.79-3.19,1.79-3.19.9.3.3,1.5a8.91,8.91,0,0,0,.21,2.05,17.43,17.43,0,0,0,1,2.93,6.05,6.05,0,0,0,4.38,3.09c2.19.2,5.68.49,6.47.59l.8.1-.8-1.49,10.56-1.89s1.69,7.07,1.49,8.56.5,2.59-1.39,3.49-7.57.5-11.06-1.1-9.76-5-12.65-5.12c-1.29-.06-5.37-.95-5.87-1.55a3.11,3.11,0,0,1-.5-1.69,1.58,1.58,0,0,1-.5-1.2c0-.8.5-.8.5-.8a1.22,1.22,0,0,1-.5-1.59c.5-1,1-1.19.8-1.59a1.06,1.06,0,0,1,.5-1.5c.79-.49,2.69,1.1,2.79,1.2S160.49,127.34,160.49,127.34Z"/><path class="cls-27" d="M175.21,132.66s4.6.86,5.9,2c0,0-1.1-1.5-5.68-2.46l.27.48"/><polyline class="cls-28" points="174.63 131.83 185.8 129.57 185.19 128.44 174.63 130.04"/></g><path class="cls-8" d="M224.66,79.51h1.06l1.91,4.64h.06l1.84-4.64h1.05L228,85.6h-.75Z"/><path class="cls-8" d="M231.41,79.51h4.06l-.28.81h-2.85v1.92h2.5l0,.8h-2.46v1.75h3.14l-.28.81h-3.79Z"/><path class="cls-8" d="M241.48,84.79l-.23.81h-.55a1.15,1.15,0,0,1-.51-.1,1,1,0,0,1-.34-.33l-1.13-1.67a.31.31,0,0,0-.14-.14.67.67,0,0,0-.23,0h-.77V85.6h-.93V79.51h2.21a2.61,2.61,0,0,1,1.63.45,1.62,1.62,0,0,1,.57,1.37,2,2,0,0,1-.36,1.22,1.72,1.72,0,0,1-1.09.64l.9,1.33a.73.73,0,0,0,.2.22.71.71,0,0,0,.3.05Zm-2.65-2.26a1.34,1.34,0,0,0,1-.31,1.11,1.11,0,0,0,.32-.84c0-.71-.43-1.06-1.29-1.06h-1.24v2.21Z"/><path class="cls-8" d="M242.65,79.51h.93V85.6h-.93Z"/><path class="cls-8" d="M245.11,79.51h4l-.27.81h-2.78v2h2.48l0,.8h-2.44v2.5h-.94Z"/><path class="cls-8" d="M250,79.51h.93V85.6H250Z"/><path class="cls-8" d="M256.44,87.08a1.62,1.62,0,0,1-.42-.31l-1-1.09a3.27,3.27,0,0,1-1.46-.43,2.89,2.89,0,0,1-1-1.08,3.3,3.3,0,0,1-.38-1.61,3.21,3.21,0,0,1,.42-1.67,2.93,2.93,0,0,1,1.12-1.09,3.21,3.21,0,0,1,1.53-.38,3.15,3.15,0,0,1,1.53.38,2.8,2.8,0,0,1,1.12,1.09,3.21,3.21,0,0,1,.42,1.67,3.15,3.15,0,0,1-.6,2,2.88,2.88,0,0,1-1.57,1l.55.58a.54.54,0,0,0,.23.16.92.92,0,0,0,.32,0H258l-.27.82H257A1.26,1.26,0,0,1,256.44,87.08Zm-.2-2.46a2.05,2.05,0,0,0,.76-.81,2.5,2.5,0,0,0,.29-1.26A2.65,2.65,0,0,0,257,81.3a2.08,2.08,0,0,0-2.87-.81,2.05,2.05,0,0,0-.76.81,2.65,2.65,0,0,0-.28,1.25,2.5,2.5,0,0,0,.29,1.26,2.05,2.05,0,0,0,.76.81,2.16,2.16,0,0,0,2.09,0Z"/><path class="cls-8" d="M260.07,85.1a2.3,2.3,0,0,1-.64-1.76V79.51h.94V83.3a1.62,1.62,0,0,0,.39,1.17,1.8,1.8,0,0,0,2.29,0,1.62,1.62,0,0,0,.39-1.17V79.51h.93v3.83a2.29,2.29,0,0,1-.63,1.76,2.6,2.6,0,0,1-1.83.59A2.64,2.64,0,0,1,260.07,85.1Z"/><path class="cls-8" d="M265.83,79.51h4.06l-.28.81h-2.84v1.92h2.49l0,.8h-2.45v1.75h3.13l-.28.81h-3.79Z"/><path class="cls-8" d="M273.28,85.3a1.27,1.27,0,0,1-.28-.91V79.51h.93v4.66a.71.71,0,0,0,.13.48.64.64,0,0,0,.47.14h2.38l-.28.81h-2.44A1.2,1.2,0,0,1,273.28,85.3Z"/><path class="cls-8" d="M280,79.5h.76l2.47,6.1h-1l-.56-1.42h-2.6l-.56,1.42h-1Zm1.35,3.87-.94-2.44h-.07l-1,2.44Z"/><path class="cls-8" d="M284.77,85.57a3.78,3.78,0,0,1-.95-.31l.11-.85a4.3,4.3,0,0,0,.9.35,3.86,3.86,0,0,0,.93.13,1.62,1.62,0,0,0,1-.27.87.87,0,0,0,.35-.72.78.78,0,0,0-.16-.49,1,1,0,0,0-.42-.29,7.72,7.72,0,0,0-.79-.27,7.36,7.36,0,0,1-.9-.33,1.59,1.59,0,0,1-.62-.51,1.42,1.42,0,0,1-.25-.89,1.47,1.47,0,0,1,.59-1.27,2.71,2.71,0,0,1,1.58-.43,6.53,6.53,0,0,1,1.61.25l-.06.82a5.15,5.15,0,0,0-1.53-.27c-.82,0-1.22.28-1.22.84a.67.67,0,0,0,.14.46,1,1,0,0,0,.39.28,6.45,6.45,0,0,0,.75.25,8.8,8.8,0,0,1,1,.36,1.52,1.52,0,0,1,.62.51,1.46,1.46,0,0,1,.24.88,1.68,1.68,0,0,1-.63,1.4,2.69,2.69,0,0,1-1.67.49A4.57,4.57,0,0,1,284.77,85.57Z"/><path class="cls-8" d="M292.35,85.28a2.69,2.69,0,0,1-1.1-1.12,3.62,3.62,0,0,1,0-3.23,2.72,2.72,0,0,1,1.12-1.11,3.66,3.66,0,0,1,1.74-.4,4.46,4.46,0,0,1,1,.11,3.41,3.41,0,0,1,.78.25l-.09.83a3.82,3.82,0,0,0-1.64-.38,2.54,2.54,0,0,0-1.23.29,1.93,1.93,0,0,0-.8.8,2.53,2.53,0,0,0-.28,1.22,2.57,2.57,0,0,0,.29,1.23,2,2,0,0,0,.82.82,2.58,2.58,0,0,0,1.24.29,4.32,4.32,0,0,0,.85-.09,3.48,3.48,0,0,0,.77-.25l.09.8a3.79,3.79,0,0,1-.82.25,4.59,4.59,0,0,1-1,.1A3.55,3.55,0,0,1,292.35,85.28Z"/><path class="cls-8" d="M298,85.31a2.79,2.79,0,0,1-1.12-1.09,3.27,3.27,0,0,1-.41-1.66,3.21,3.21,0,0,1,.42-1.67A2.93,2.93,0,0,1,298,79.8a3.21,3.21,0,0,1,1.53-.38,3.15,3.15,0,0,1,1.53.38,2.8,2.8,0,0,1,1.12,1.09,3.21,3.21,0,0,1,.42,1.67,3.17,3.17,0,0,1-.41,1.66,2.71,2.71,0,0,1-1.11,1.09,3.23,3.23,0,0,1-1.55.38A3.19,3.19,0,0,1,298,85.31Zm2.59-.69a2.05,2.05,0,0,0,.76-.81,2.59,2.59,0,0,0,.29-1.25,2.66,2.66,0,0,0-.28-1.26,2.08,2.08,0,0,0-2.87-.81,2.05,2.05,0,0,0-.76.81,2.66,2.66,0,0,0-.28,1.26,2.59,2.59,0,0,0,.28,1.25,2.15,2.15,0,0,0,.77.81,2.16,2.16,0,0,0,2.09,0Z"/><path class="cls-8" d="M303.86,79.51h.71l3.49,4.39V79.51h.88V85.6h-.65l-3.55-4.5v4.5h-.88Z"/><path class="cls-8" d="M310.45,79.51h2.19a3.75,3.75,0,0,1,2.47.71,2.83,2.83,0,0,1,.85,2.25,3,3,0,0,1-.94,2.41,3.69,3.69,0,0,1-2.45.72h-2.12Zm2.24,5.28a2.26,2.26,0,0,0,1.74-.61,2.41,2.41,0,0,0,.56-1.72,2.08,2.08,0,0,0-.59-1.65,2.72,2.72,0,0,0-1.81-.49h-1.2v4.47Z"/><path class="cls-8" d="M317.2,79.51h.94V85.6h-.94Z"/><path class="cls-8" d="M320.85,85.28a2.76,2.76,0,0,1-1.1-1.12,3.62,3.62,0,0,1,0-3.23,2.78,2.78,0,0,1,1.12-1.11,3.66,3.66,0,0,1,1.74-.4,4.62,4.62,0,0,1,1,.11,3.48,3.48,0,0,1,.77.25l-.09.83a3.81,3.81,0,0,0-1.63-.38,2.55,2.55,0,0,0-1.24.29,1.93,1.93,0,0,0-.8.8,2.64,2.64,0,0,0-.28,1.22,2.57,2.57,0,0,0,.29,1.23,2,2,0,0,0,.82.82,2.58,2.58,0,0,0,1.24.29,4.32,4.32,0,0,0,.85-.09,3.32,3.32,0,0,0,.77-.25l.09.8a3.79,3.79,0,0,1-.82.25,4.59,4.59,0,0,1-1,.1A3.55,3.55,0,0,1,320.85,85.28Z"/><path class="cls-8" d="M325.56,79.51h.94V85.6h-.94Z"/><path class="cls-8" d="M329.26,85.31a2.71,2.71,0,0,1-1.11-1.09,3.27,3.27,0,0,1-.41-1.66,3.21,3.21,0,0,1,.42-1.67,2.86,2.86,0,0,1,1.12-1.09,3.27,3.27,0,0,1,3.06,0,2.86,2.86,0,0,1,1.12,1.09,3.21,3.21,0,0,1,.42,1.67,3.27,3.27,0,0,1-.41,1.66,2.71,2.71,0,0,1-1.11,1.09,3.35,3.35,0,0,1-3.1,0Zm2.59-.69a2.07,2.07,0,0,0,.77-.81,2.59,2.59,0,0,0,.29-1.25,2.66,2.66,0,0,0-.29-1.26,2,2,0,0,0-.76-.81,2.09,2.09,0,0,0-1.05-.28,2.11,2.11,0,0,0-1.05.28,2.05,2.05,0,0,0-.76.81,2.66,2.66,0,0,0-.29,1.26,2.59,2.59,0,0,0,.29,1.25,2.07,2.07,0,0,0,.77.81,2.14,2.14,0,0,0,2.08,0Z"/><path class="cls-8" d="M335.1,79.51h.71l3.5,4.39V79.51h.88V85.6h-.65L336,81.1v4.5h-.89Z"/><path class="cls-8" d="M341.7,79.51h4.06l-.28.81h-2.84v1.92h2.49l0,.8h-2.45v1.75h3.13l-.28.81H341.7Z"/><path class="cls-8" d="M347.46,85.57a3.65,3.65,0,0,1-.95-.31l.1-.85a4.18,4.18,0,0,0,.91.35,3.71,3.71,0,0,0,.92.13,1.62,1.62,0,0,0,1-.27.87.87,0,0,0,.35-.72.77.77,0,0,0-.15-.49,1.13,1.13,0,0,0-.43-.29,6.94,6.94,0,0,0-.79-.27,7.36,7.36,0,0,1-.9-.33,1.56,1.56,0,0,1-.61-.51,1.37,1.37,0,0,1-.26-.89,1.48,1.48,0,0,1,.6-1.27,2.69,2.69,0,0,1,1.58-.43,6.67,6.67,0,0,1,1.61.25l-.07.82a5.15,5.15,0,0,0-1.53-.27c-.81,0-1.22.28-1.22.84a.72.72,0,0,0,.14.46,1,1,0,0,0,.39.28,6.45,6.45,0,0,0,.75.25,9.89,9.89,0,0,1,1,.36,1.5,1.5,0,0,1,.61.51,1.46,1.46,0,0,1,.24.88,1.68,1.68,0,0,1-.63,1.4,2.66,2.66,0,0,1-1.66.49A4.57,4.57,0,0,1,347.46,85.57Z"/><path class="cls-8" d="M355.39,83.36l-2.22-3.85h1.08l1.61,2.9h0l1.59-2.9h1l-2.2,3.86V85.6h-.93Z"/><path class="cls-8" d="M215.91,94.79l-.23.81h-.56a1.22,1.22,0,0,1-.51-.1,1,1,0,0,1-.33-.33l-1.13-1.67a.37.37,0,0,0-.14-.14.7.7,0,0,0-.24,0H212V95.6h-.94V89.51h2.22a2.61,2.61,0,0,1,1.63.45,1.62,1.62,0,0,1,.57,1.37,2,2,0,0,1-.36,1.22,1.75,1.75,0,0,1-1.1.64l.9,1.33a.89.89,0,0,0,.21.22.71.71,0,0,0,.3.05Zm-2.65-2.26a1.29,1.29,0,0,0,1-.31,1.08,1.08,0,0,0,.33-.84c0-.71-.43-1.06-1.29-1.06H212v2.21Z"/><path class="cls-8" d="M216.92,89.51H221l-.28.81h-2.84v1.92h2.49l0,.8h-2.46v1.75H221l-.28.81h-3.79Z"/><path class="cls-8" d="M226.07,97.08a1.77,1.77,0,0,1-.41-.31l-1-1.09a3.27,3.27,0,0,1-1.46-.43,2.82,2.82,0,0,1-1-1.08,3.3,3.3,0,0,1-.38-1.61,3.21,3.21,0,0,1,.42-1.67,2.86,2.86,0,0,1,1.12-1.09,3.27,3.27,0,0,1,3.06,0,2.86,2.86,0,0,1,1.12,1.09,3.21,3.21,0,0,1,.42,1.67,3.15,3.15,0,0,1-.6,2,2.87,2.87,0,0,1-1.58,1l.56.58a.48.48,0,0,0,.23.16.89.89,0,0,0,.32,0h.77l-.27.82h-.74A1.31,1.31,0,0,1,226.07,97.08Zm-.19-2.46a2.12,2.12,0,0,0,.76-.81,2.61,2.61,0,0,0,.29-1.26,2.65,2.65,0,0,0-.28-1.25,2.08,2.08,0,0,0-2.87-.81,2.05,2.05,0,0,0-.76.81,2.65,2.65,0,0,0-.28,1.25,2.61,2.61,0,0,0,.28,1.26,2.15,2.15,0,0,0,.77.81,2.16,2.16,0,0,0,2.09,0Z"/><path class="cls-8" d="M229.71,95.1a2.26,2.26,0,0,1-.64-1.76V89.51H230V93.3a1.66,1.66,0,0,0,.38,1.17,1.55,1.55,0,0,0,1.16.41,1.51,1.51,0,0,0,1.14-.41,1.62,1.62,0,0,0,.39-1.17V89.51H234v3.83a2.29,2.29,0,0,1-.63,1.76,2.61,2.61,0,0,1-1.83.59A2.64,2.64,0,0,1,229.71,95.1Z"/><path class="cls-8" d="M235.49,89.51h.93V95.6h-.93Z"/><path class="cls-8" d="M238.56,95.57a3.78,3.78,0,0,1-.95-.31l.11-.85a4.3,4.3,0,0,0,.9.35,3.86,3.86,0,0,0,.93.13,1.62,1.62,0,0,0,1-.27.87.87,0,0,0,.35-.72.78.78,0,0,0-.16-.49,1,1,0,0,0-.42-.29,7.72,7.72,0,0,0-.79-.27,7.36,7.36,0,0,1-.9-.33A1.59,1.59,0,0,1,238,92a1.42,1.42,0,0,1-.25-.89,1.47,1.47,0,0,1,.59-1.27,2.71,2.71,0,0,1,1.58-.43,6.53,6.53,0,0,1,1.61.25l-.06.82a5.15,5.15,0,0,0-1.53-.27c-.81,0-1.22.28-1.22.84a.67.67,0,0,0,.14.46,1,1,0,0,0,.39.28,6.45,6.45,0,0,0,.75.25,8.8,8.8,0,0,1,1,.36,1.52,1.52,0,0,1,.62.51,1.46,1.46,0,0,1,.24.88,1.68,1.68,0,0,1-.63,1.4,2.69,2.69,0,0,1-1.67.49A4.57,4.57,0,0,1,238.56,95.57Z"/><path class="cls-8" d="M243,89.51H244V95.6H243Z"/><path class="cls-8" d="M246.92,90.32h-2v-.81h5.19l-.28.81h-1.93V95.6h-.93Z"/><path class="cls-8" d="M251.76,95.31a2.71,2.71,0,0,1-1.11-1.09,3.27,3.27,0,0,1-.41-1.66,3.21,3.21,0,0,1,.42-1.67,2.86,2.86,0,0,1,1.12-1.09,3.27,3.27,0,0,1,3.06,0A2.86,2.86,0,0,1,256,90.89a3.21,3.21,0,0,1,.42,1.67,3.27,3.27,0,0,1-.41,1.66,2.83,2.83,0,0,1-1.11,1.09,3.35,3.35,0,0,1-3.1,0Zm2.59-.69a2.07,2.07,0,0,0,.77-.81,2.59,2.59,0,0,0,.29-1.25,2.66,2.66,0,0,0-.29-1.26,2.05,2.05,0,0,0-.76-.81,2.11,2.11,0,0,0-1.05-.28,2.06,2.06,0,0,0-1.05.28,2,2,0,0,0-.76.81,2.66,2.66,0,0,0-.29,1.26,2.59,2.59,0,0,0,.29,1.25,2,2,0,0,0,1.81,1.08A2.07,2.07,0,0,0,254.35,94.62Z"/><path class="cls-8" d="M258.21,95.57a3.78,3.78,0,0,1-.95-.31l.11-.85a4.3,4.3,0,0,0,.9.35,3.78,3.78,0,0,0,.92.13,1.63,1.63,0,0,0,1-.27.86.86,0,0,0,.34-.72.77.77,0,0,0-.15-.49,1,1,0,0,0-.43-.29,6.66,6.66,0,0,0-.78-.27,6.79,6.79,0,0,1-.9-.33,1.59,1.59,0,0,1-.62-.51,1.43,1.43,0,0,1-.26-.89,1.48,1.48,0,0,1,.6-1.27,2.71,2.71,0,0,1,1.58-.43,6.6,6.6,0,0,1,1.61.25l-.06.82a5.15,5.15,0,0,0-1.53-.27q-1.23,0-1.23.84a.72.72,0,0,0,.14.46,1.1,1.1,0,0,0,.4.28,5.59,5.59,0,0,0,.74.25,9.08,9.08,0,0,1,1,.36,1.43,1.43,0,0,1,.61.51,1.46,1.46,0,0,1,.25.88,1.71,1.71,0,0,1-.63,1.4,2.69,2.69,0,0,1-1.67.49A4.57,4.57,0,0,1,258.21,95.57Z"/><path class="cls-8" d="M265.21,95.57a3.78,3.78,0,0,1-.95-.31l.11-.85a4.3,4.3,0,0,0,.9.35,3.86,3.86,0,0,0,.93.13,1.62,1.62,0,0,0,1-.27.87.87,0,0,0,.35-.72.78.78,0,0,0-.16-.49,1,1,0,0,0-.42-.29,7.72,7.72,0,0,0-.79-.27,7.36,7.36,0,0,1-.9-.33,1.59,1.59,0,0,1-.62-.51,1.43,1.43,0,0,1-.26-.89,1.48,1.48,0,0,1,.6-1.27,2.71,2.71,0,0,1,1.58-.43,6.53,6.53,0,0,1,1.61.25l-.06.82a5.15,5.15,0,0,0-1.53-.27c-.82,0-1.22.28-1.22.84a.67.67,0,0,0,.14.46,1,1,0,0,0,.39.28,6.16,6.16,0,0,0,.74.25,8.39,8.39,0,0,1,1,.36,1.43,1.43,0,0,1,.61.51,1.39,1.39,0,0,1,.25.88,1.68,1.68,0,0,1-.63,1.4,2.69,2.69,0,0,1-1.67.49A4.57,4.57,0,0,1,265.21,95.57Z"/><path class="cls-8" d="M269.66,89.51h4.06l-.28.81H270.6v1.92h2.49l0,.8H270.6v1.75h3.13l-.28.81h-3.79Z"/><path class="cls-8" d="M276,95.29a2.72,2.72,0,0,1-1.13-1.1,3.15,3.15,0,0,1-.4-1.61,3.21,3.21,0,0,1,.42-1.65,2.81,2.81,0,0,1,1.2-1.11,4,4,0,0,1,1.85-.4,4.48,4.48,0,0,1,1.8.35l-.09.84a4,4,0,0,0-1.71-.38,2.94,2.94,0,0,0-1.34.29,2,2,0,0,0-.86.8,2.43,2.43,0,0,0-.29,1.23,2.46,2.46,0,0,0,.3,1.25,2.18,2.18,0,0,0,.85.8,2.79,2.79,0,0,0,1.24.28,3.79,3.79,0,0,0,.67-.06,1.91,1.91,0,0,0,.55-.16v-2l.94-.25v2.69a3.65,3.65,0,0,1-1,.39,5.13,5.13,0,0,1-1.24.15A3.79,3.79,0,0,1,276,95.29Z"/><path class="cls-8" d="M281.82,95.1a2.26,2.26,0,0,1-.64-1.76V89.51h.94V93.3a1.66,1.66,0,0,0,.38,1.17,1.55,1.55,0,0,0,1.16.41,1.51,1.51,0,0,0,1.14-.41,1.62,1.62,0,0,0,.39-1.17V89.51h.93v3.83a2.29,2.29,0,0,1-.63,1.76,3.15,3.15,0,0,1-3.67,0Zm.95-6.65,1.88-1.12.43.72-2,1Z"/><path class="cls-8" d="M287.58,89.51h.71l3.49,4.39V89.51h.89V95.6H292l-3.56-4.5v4.5h-.88Z"/><path class="cls-8" d="M296.44,95.3a1.27,1.27,0,0,1-.28-.91V89.51h.93v4.66a.76.76,0,0,0,.13.48.64.64,0,0,0,.47.14h2.38l-.28.81h-2.44A1.2,1.2,0,0,1,296.44,95.3Z"/><path class="cls-8" d="M301.68,95.31a2.71,2.71,0,0,1-1.11-1.09,3.27,3.27,0,0,1-.41-1.66,3.21,3.21,0,0,1,.42-1.67,2.86,2.86,0,0,1,1.12-1.09,3.27,3.27,0,0,1,3.06,0,2.86,2.86,0,0,1,1.12,1.09,3.21,3.21,0,0,1,.42,1.67,3.27,3.27,0,0,1-.41,1.66,2.71,2.71,0,0,1-1.11,1.09,3.35,3.35,0,0,1-3.1,0Zm2.59-.69a2.07,2.07,0,0,0,.77-.81,2.59,2.59,0,0,0,.29-1.25A2.66,2.66,0,0,0,305,91.3a2.05,2.05,0,0,0-.76-.81,2.09,2.09,0,0,0-1-.28,2.11,2.11,0,0,0-1.05.28,2.05,2.05,0,0,0-.76.81,2.66,2.66,0,0,0-.29,1.26,2.59,2.59,0,0,0,.29,1.25,2.07,2.07,0,0,0,.77.81,2.14,2.14,0,0,0,2.08,0Z"/><path class="cls-8" d="M308.13,95.57a3.78,3.78,0,0,1-.95-.31l.11-.85a4.3,4.3,0,0,0,.9.35,3.86,3.86,0,0,0,.93.13,1.62,1.62,0,0,0,1-.27.87.87,0,0,0,.35-.72.78.78,0,0,0-.16-.49,1,1,0,0,0-.43-.29,6.66,6.66,0,0,0-.78-.27,7.36,7.36,0,0,1-.9-.33,1.59,1.59,0,0,1-.62-.51,1.43,1.43,0,0,1-.26-.89,1.48,1.48,0,0,1,.6-1.27,2.71,2.71,0,0,1,1.58-.43,6.6,6.6,0,0,1,1.61.25l-.06.82a5.15,5.15,0,0,0-1.53-.27c-.82,0-1.22.28-1.22.84a.67.67,0,0,0,.14.46,1,1,0,0,0,.39.28,5.59,5.59,0,0,0,.74.25,8.39,8.39,0,0,1,1,.36,1.43,1.43,0,0,1,.61.51,1.39,1.39,0,0,1,.25.88,1.68,1.68,0,0,1-.63,1.4,2.69,2.69,0,0,1-1.67.49A4.57,4.57,0,0,1,308.13,95.57Z"/><path class="cls-8" d="M314.53,89.51h2.13c1.5,0,2.26.64,2.26,1.91a2.12,2.12,0,0,1-.54,1.5,2.17,2.17,0,0,1-1.68.59h-1.24V95.6h-.93Zm2.1,3.19a1.44,1.44,0,0,0,1-.3,1.18,1.18,0,0,0,.32-.91,1.1,1.1,0,0,0-.32-.89,1.5,1.5,0,0,0-1-.28h-1.2V92.7Z"/><path class="cls-8" d="M324.76,94.79l-.23.81H324a1.15,1.15,0,0,1-.51-.1,1,1,0,0,1-.34-.33L322,93.5a.31.31,0,0,0-.14-.14.67.67,0,0,0-.23,0h-.77V95.6h-.93V89.51h2.21a2.61,2.61,0,0,1,1.63.45,1.62,1.62,0,0,1,.57,1.37,2,2,0,0,1-.36,1.22,1.72,1.72,0,0,1-1.09.64l.9,1.33a.73.73,0,0,0,.2.22.71.71,0,0,0,.3.05Zm-2.65-2.26a1.34,1.34,0,0,0,1-.31,1.11,1.11,0,0,0,.32-.84c0-.71-.43-1.06-1.29-1.06h-1.24v2.21Z"/><path class="cls-8" d="M326.83,95.31a2.71,2.71,0,0,1-1.11-1.09,3.17,3.17,0,0,1-.41-1.66,3.21,3.21,0,0,1,.42-1.67,2.8,2.8,0,0,1,1.12-1.09,3.15,3.15,0,0,1,1.53-.38,3.21,3.21,0,0,1,1.53.38A2.93,2.93,0,0,1,331,90.89a3.21,3.21,0,0,1,.42,1.67,3.27,3.27,0,0,1-.41,1.66,2.79,2.79,0,0,1-1.12,1.09,3.19,3.19,0,0,1-1.54.38A3.23,3.23,0,0,1,326.83,95.31Zm2.59-.69a2.15,2.15,0,0,0,.77-.81,2.59,2.59,0,0,0,.28-1.25,2.66,2.66,0,0,0-.28-1.26,2.05,2.05,0,0,0-.76-.81,2,2,0,0,0-2.87.81,2.66,2.66,0,0,0-.28,1.26,2.59,2.59,0,0,0,.29,1.25,2.05,2.05,0,0,0,.76.81,2.16,2.16,0,0,0,2.09,0Z"/><path class="cls-8" d="M333.71,90.32h-2v-.81h5.19l-.27.81h-1.93V95.6h-.94Z"/><path class="cls-8" d="M338.56,95.31a2.79,2.79,0,0,1-1.12-1.09,3.27,3.27,0,0,1-.41-1.66,3.21,3.21,0,0,1,.42-1.67,2.93,2.93,0,0,1,1.12-1.09,3.21,3.21,0,0,1,1.53-.38,3.15,3.15,0,0,1,1.53.38,2.8,2.8,0,0,1,1.12,1.09,3.21,3.21,0,0,1,.42,1.67,3.17,3.17,0,0,1-.41,1.66,2.71,2.71,0,0,1-1.11,1.09,3.23,3.23,0,0,1-1.55.38A3.19,3.19,0,0,1,338.56,95.31Zm2.59-.69a2.05,2.05,0,0,0,.76-.81,2.59,2.59,0,0,0,.29-1.25,2.66,2.66,0,0,0-.28-1.26,2.08,2.08,0,0,0-2.87-.81,2.05,2.05,0,0,0-.76.81,2.66,2.66,0,0,0-.28,1.26,2.59,2.59,0,0,0,.28,1.25,2.15,2.15,0,0,0,.77.81,2.16,2.16,0,0,0,2.09,0Z"/><path class="cls-8" d="M345.57,95.28a2.73,2.73,0,0,1-1.09-1.12,3.34,3.34,0,0,1-.37-1.6,3.47,3.47,0,0,1,.38-1.63,2.81,2.81,0,0,1,1.13-1.11,3.66,3.66,0,0,1,1.74-.4,4.46,4.46,0,0,1,1,.11,3.41,3.41,0,0,1,.78.25l-.09.83a3.82,3.82,0,0,0-1.64-.38,2.54,2.54,0,0,0-1.23.29,1.87,1.87,0,0,0-.8.8,2.53,2.53,0,0,0-.28,1.22,2.57,2.57,0,0,0,.29,1.23,2,2,0,0,0,.82.82,2.55,2.55,0,0,0,1.24.29,4.32,4.32,0,0,0,.85-.09,3.48,3.48,0,0,0,.77-.25l.09.8a3.72,3.72,0,0,1-.83.25,4.5,4.5,0,0,1-1,.1A3.62,3.62,0,0,1,345.57,95.28Z"/><path class="cls-8" d="M351.24,95.31a2.83,2.83,0,0,1-1.11-1.09,3.27,3.27,0,0,1-.41-1.66,3.21,3.21,0,0,1,.42-1.67,2.86,2.86,0,0,1,1.12-1.09,3.27,3.27,0,0,1,3.06,0,2.86,2.86,0,0,1,1.12,1.09,3.21,3.21,0,0,1,.42,1.67,3.17,3.17,0,0,1-.41,1.66,2.71,2.71,0,0,1-1.11,1.09,3.35,3.35,0,0,1-3.1,0Zm2.6-.69a2.12,2.12,0,0,0,.76-.81,2.59,2.59,0,0,0,.29-1.25,2.66,2.66,0,0,0-.28-1.26,2.08,2.08,0,0,0-2.87-.81,2.05,2.05,0,0,0-.76.81,2.66,2.66,0,0,0-.28,1.26,2.59,2.59,0,0,0,.28,1.25,2.15,2.15,0,0,0,.77.81,2.16,2.16,0,0,0,2.09,0Z"/><path class="cls-8" d="M357.35,95.3a1.27,1.27,0,0,1-.28-.91V89.51H358v4.66a.76.76,0,0,0,.13.48.66.66,0,0,0,.47.14H361l-.28.81h-2.44A1.2,1.2,0,0,1,357.35,95.3Z"/><path class="cls-8" d="M362.59,95.31a2.77,2.77,0,0,1-1.11-1.09,3.27,3.27,0,0,1-.41-1.66,3.21,3.21,0,0,1,.42-1.67,2.86,2.86,0,0,1,1.12-1.09,3.27,3.27,0,0,1,3.06,0,2.86,2.86,0,0,1,1.12,1.09,3.21,3.21,0,0,1,.42,1.67,3.27,3.27,0,0,1-.41,1.66,2.71,2.71,0,0,1-1.11,1.09,3.35,3.35,0,0,1-3.1,0Zm2.6-.69a2.12,2.12,0,0,0,.76-.81,2.59,2.59,0,0,0,.29-1.25A2.78,2.78,0,0,0,366,91.3a2,2,0,0,0-1.82-1.09,2.11,2.11,0,0,0-1.05.28,2.05,2.05,0,0,0-.76.81,2.66,2.66,0,0,0-.29,1.26,2.59,2.59,0,0,0,.29,1.25,2,2,0,0,0,1.81,1.08A2.11,2.11,0,0,0,365.19,94.62Z"/><path class="cls-8" d="M369,95.57a3.78,3.78,0,0,1-1-.31l.11-.85a4.3,4.3,0,0,0,.9.35,3.86,3.86,0,0,0,.93.13,1.62,1.62,0,0,0,1-.27.87.87,0,0,0,.35-.72.78.78,0,0,0-.16-.49,1,1,0,0,0-.42-.29,7.72,7.72,0,0,0-.79-.27,7.36,7.36,0,0,1-.9-.33,1.59,1.59,0,0,1-.62-.51,1.42,1.42,0,0,1-.25-.89,1.47,1.47,0,0,1,.59-1.27,2.71,2.71,0,0,1,1.58-.43,6.53,6.53,0,0,1,1.61.25l-.06.82a5.15,5.15,0,0,0-1.53-.27c-.82,0-1.22.28-1.22.84a.67.67,0,0,0,.14.46,1,1,0,0,0,.39.28,6.45,6.45,0,0,0,.75.25,8.8,8.8,0,0,1,1,.36,1.52,1.52,0,0,1,.62.51,1.46,1.46,0,0,1,.24.88,1.68,1.68,0,0,1-.63,1.4,2.69,2.69,0,0,1-1.67.49A4.57,4.57,0,0,1,369,95.57Z"/><path class="cls-8" d="M252.37,99.51h2.19a3.7,3.7,0,0,1,2.46.71,2.84,2.84,0,0,1,.86,2.25,3,3,0,0,1-.95,2.41,3.67,3.67,0,0,1-2.45.72h-2.11Zm2.24,5.28a2.29,2.29,0,0,0,1.74-.61,2.4,2.4,0,0,0,.55-1.72,2.05,2.05,0,0,0-.59-1.65,2.71,2.71,0,0,0-1.8-.49H253.3v4.47Z"/><path class="cls-8" d="M259.1,99.51h4.06l-.28.81H260v1.92h2.49l0,.8H260v1.75h3.13l-.28.81H259.1Z"/><path class="cls-8" d="M266.28,99.51h2.2c1.35,0,2,.51,2,1.53a1.3,1.3,0,0,1-.83,1.31v0a1.42,1.42,0,0,1,.88.5,1.71,1.71,0,0,1-.27,2.29,2.69,2.69,0,0,1-1.61.44h-2.4Zm2.25,2.56a1.19,1.19,0,0,0,.78-.23.82.82,0,0,0,.27-.67.75.75,0,0,0-.26-.64,1.27,1.27,0,0,0-.8-.21h-1.3v1.75Zm.16,2.72c.81,0,1.22-.32,1.22-1a.85.85,0,0,0-.31-.72,1.59,1.59,0,0,0-.94-.23h-1.44v1.92Z"/><path class="cls-8" d="M272,99.51h.94v6.09H272Z"/><path class="cls-8" d="M275.66,105.31a2.71,2.71,0,0,1-1.11-1.09,3.27,3.27,0,0,1-.41-1.66,3.21,3.21,0,0,1,.42-1.67,2.86,2.86,0,0,1,1.12-1.09,3.27,3.27,0,0,1,3.06,0,2.86,2.86,0,0,1,1.12,1.09,3.21,3.21,0,0,1,.42,1.67,3.27,3.27,0,0,1-.41,1.66,2.83,2.83,0,0,1-1.11,1.09,3.35,3.35,0,0,1-3.1,0Zm2.59-.69a2.07,2.07,0,0,0,.77-.81,2.59,2.59,0,0,0,.29-1.25,2.66,2.66,0,0,0-.29-1.26,2.05,2.05,0,0,0-.76-.81,2.11,2.11,0,0,0-1.05-.28,2.06,2.06,0,0,0-1,.28,2,2,0,0,0-.76.81,2.66,2.66,0,0,0-.29,1.26,2.59,2.59,0,0,0,.29,1.25,2,2,0,0,0,1.81,1.08A2.07,2.07,0,0,0,278.25,104.62Z"/><path class="cls-8" d="M282.11,105.57a3.78,3.78,0,0,1-.95-.31l.11-.85a4.3,4.3,0,0,0,.9.35,3.78,3.78,0,0,0,.92.13,1.63,1.63,0,0,0,1-.27.86.86,0,0,0,.34-.72.77.77,0,0,0-.15-.49,1,1,0,0,0-.43-.29,6.31,6.31,0,0,0-.79-.27,7.15,7.15,0,0,1-.89-.33,1.59,1.59,0,0,1-.62-.51,1.43,1.43,0,0,1-.26-.89,1.48,1.48,0,0,1,.6-1.27,2.71,2.71,0,0,1,1.58-.43,6.6,6.6,0,0,1,1.61.25l-.06.82a5.15,5.15,0,0,0-1.53-.27q-1.23,0-1.23.84a.72.72,0,0,0,.14.46,1.15,1.15,0,0,0,.39.28,6.45,6.45,0,0,0,.75.25,9.08,9.08,0,0,1,1,.36,1.43,1.43,0,0,1,.61.51,1.46,1.46,0,0,1,.25.88,1.69,1.69,0,0,1-.64,1.4,2.66,2.66,0,0,1-1.66.49A4.57,4.57,0,0,1,282.11,105.57Z"/><path class="cls-8" d="M286.56,99.51h4.06l-.28.81H287.5v1.92H290l0,.8H287.5v1.75h3.13l-.28.81h-3.79Z"/><path class="cls-8" d="M292.93,105.29a2.69,2.69,0,0,1-1.14-1.1,3.25,3.25,0,0,1-.39-1.61,3.21,3.21,0,0,1,.42-1.65,2.81,2.81,0,0,1,1.2-1.11,4,4,0,0,1,1.85-.4,4.48,4.48,0,0,1,1.8.35l-.09.84a4,4,0,0,0-1.71-.38,2.91,2.91,0,0,0-1.34.29,2,2,0,0,0-.86.8,2.44,2.44,0,0,0-.3,1.23,2.46,2.46,0,0,0,.31,1.25,2.12,2.12,0,0,0,.85.8,2.76,2.76,0,0,0,1.24.28,3.88,3.88,0,0,0,.67-.06,2,2,0,0,0,.55-.16v-2l.94-.25v2.69a3.73,3.73,0,0,1-1,.39,5.05,5.05,0,0,1-1.23.15A3.79,3.79,0,0,1,292.93,105.29Z"/><path class="cls-8" d="M298.72,105.1a2.26,2.26,0,0,1-.64-1.76V99.51H299v3.79a1.62,1.62,0,0,0,.38,1.17,1.82,1.82,0,0,0,2.3,0,1.62,1.62,0,0,0,.38-1.17V99.51H303v3.83a2.29,2.29,0,0,1-.63,1.76,2.64,2.64,0,0,1-1.84.59A2.61,2.61,0,0,1,298.72,105.1Z"/><path class="cls-8" d="M309.31,104.79l-.22.81h-.56a1.15,1.15,0,0,1-.51-.1,1.06,1.06,0,0,1-.34-.33l-1.12-1.67a.39.39,0,0,0-.15-.14.63.63,0,0,0-.23,0h-.77v2.27h-.93V99.51h2.21a2.59,2.59,0,0,1,1.63.45,1.62,1.62,0,0,1,.58,1.37,2,2,0,0,1-.37,1.22,1.72,1.72,0,0,1-1.09.64l.9,1.33a.89.89,0,0,0,.21.22.65.65,0,0,0,.29.05Zm-2.65-2.26a1.34,1.34,0,0,0,1-.31,1.11,1.11,0,0,0,.32-.84c0-.71-.43-1.06-1.28-1.06h-1.25v2.21Z"/><path class="cls-8" d="M310.48,99.51h.94v6.09h-.94Z"/><path class="cls-8" d="M313,99.51h2.18a3.71,3.71,0,0,1,2.47.71,2.83,2.83,0,0,1,.85,2.25,3,3,0,0,1-.94,2.41,3.67,3.67,0,0,1-2.45.72H313Zm2.24,5.28a2.25,2.25,0,0,0,1.73-.61,2.36,2.36,0,0,0,.56-1.72,2.08,2.08,0,0,0-.59-1.65,2.71,2.71,0,0,0-1.8-.49h-1.21v4.47Z"/><path class="cls-8" d="M321.26,99.5H322l2.46,6.1h-1l-.55-1.42h-2.6l-.56,1.42h-1Zm1.36,3.87-.94-2.44h-.08l-1,2.44Z"/><path class="cls-8" d="M325.41,99.51h2.19a3.7,3.7,0,0,1,2.46.71,2.84,2.84,0,0,1,.86,2.25,3,3,0,0,1-.95,2.41,3.66,3.66,0,0,1-2.44.72h-2.12Zm2.24,5.28a2.26,2.26,0,0,0,1.74-.61,2.41,2.41,0,0,0,.56-1.72,2.05,2.05,0,0,0-.6-1.65,2.67,2.67,0,0,0-1.8-.49h-1.2v4.47Z"/></svg>