<svg id="Diseño" xmlns="http://www.w3.org/2000/svg" viewBox="0 0 377 53.91"><defs><style>.cls-1{fill:#cececc;}.cls-2{fill:#8f201c;}.cls-3{fill:#fff;}</style></defs><path class="cls-1" d="M264.37,31.78h101a0,0,0,0,1,0,0v7.7a13.25,13.25,0,0,1-13.25,13.25h-74.5a13.25,13.25,0,0,1-13.25-13.25v-7.7A0,0,0,0,1,264.37,31.78Z"/><rect class="cls-2" y="1.18" width="377" height="31" rx="15.5"/><path class="cls-3" d="M91.09,11h7.59l-.55,2H93.37v2.58h4.22l-.1,2H93.37v2.33h5.32l-.54,2H91.09Z"/><path class="cls-3" d="M100.18,11h1.62l5.58,6.76V11h2.13V21.83H108l-5.66-7v7h-2.13Z"/><path class="cls-3" d="M115.78,21.26a2.44,2.44,0,0,1-.53-1.72V11h2.28v7.8a1.16,1.16,0,0,0,.22.83,1.24,1.24,0,0,0,.83.21h3.79l-.54,2h-4.4A2.14,2.14,0,0,1,115.78,21.26Z"/><path class="cls-3" d="M127.68,11h2.07l4.33,10.83h-2.43l-.8-2.13h-4.3l-.82,2.13h-2.51Zm2.44,6.74-1.35-3.64h-.14l-1.35,3.64Z"/><path class="cls-3" d="M142.48,11h2.07l4.33,10.83h-2.43l-.8-2.13h-4.3l-.82,2.13H138Zm2.44,6.74-1.35-3.64h-.14l-1.35,3.64Z"/><path class="cls-3" d="M151.81,21.26a4.71,4.71,0,0,1-2-2,6,6,0,0,1-.65-2.82,5.89,5.89,0,0,1,.72-2.93,5,5,0,0,1,2-2,6.33,6.33,0,0,1,3-.7,8.71,8.71,0,0,1,3,.44l-.19,2a5.66,5.66,0,0,0-1.21-.32,7.9,7.9,0,0,0-1.45-.13,4,4,0,0,0-1.84.42A3,3,0,0,0,152,14.48a3.78,3.78,0,0,0-.46,1.91A3.35,3.35,0,0,0,155.16,20a9.76,9.76,0,0,0,1.4-.11,8.59,8.59,0,0,0,1.27-.29l.17,1.92a6.29,6.29,0,0,1-1.33.33A9.69,9.69,0,0,1,155,22,6.54,6.54,0,0,1,151.81,21.26Z"/><path class="cls-3" d="M162.68,13H159.3V11h9.31l-.54,2H165v8.85h-2.3Z"/><path class="cls-3" d="M169.84,11h2.28V21.83h-2.28Z"/><path class="cls-3" d="M173.32,11h2.59l3,7.42H179L181.8,11h2.6l-4.54,10.81H178Z"/><path class="cls-3" d="M185.6,11h2.28V21.83H185.6Z"/><path class="cls-3" d="M190.05,11h3.84a9.79,9.79,0,0,1,2.85.36,4.66,4.66,0,0,1,1.94,1.12A5.2,5.2,0,0,1,200,16.31a5.34,5.34,0,0,1-1.55,4.1,4.88,4.88,0,0,1-1.85,1.06,7.83,7.83,0,0,1-2.45.36h-4.07Zm4.1,8.84a4.45,4.45,0,0,0,1.54-.22,2.88,2.88,0,0,0,1.07-.7,3.09,3.09,0,0,0,.65-1.12,4.7,4.7,0,0,0,.23-1.49,5.21,5.21,0,0,0-.18-1.5,2.28,2.28,0,0,0-.56-1,2.56,2.56,0,0,0-1.1-.68,5.55,5.55,0,0,0-1.57-.2h-1.91v6.88Z"/><path class="cls-3" d="M204.64,11h2.07L211,21.83h-2.43l-.8-2.13h-4.3l-.82,2.13h-2.51Zm2.44,6.74-1.35-3.64h-.14l-1.35,3.64Z"/><path class="cls-3" d="M212.36,11h3.84a9.72,9.72,0,0,1,2.84.36A4.6,4.6,0,0,1,221,12.5a5.2,5.2,0,0,1,1.3,3.81,5.31,5.31,0,0,1-1.56,4.1,4.84,4.84,0,0,1-1.84,1.06,7.85,7.85,0,0,1-2.46.36h-4.06Zm4.09,8.84a4.51,4.51,0,0,0,1.55-.22,2.84,2.84,0,0,0,1.06-.7,3,3,0,0,0,.66-1.12,4.71,4.71,0,0,0,.22-1.49,5.21,5.21,0,0,0-.18-1.5,2.18,2.18,0,0,0-.56-1,2.45,2.45,0,0,0-1.1-.68,5.55,5.55,0,0,0-1.57-.2h-1.9v6.88Z"/><path class="cls-3" d="M229.76,21.26a4.77,4.77,0,0,1-2-2,6,6,0,0,1-.64-2.82,5.89,5.89,0,0,1,.72-2.93,5,5,0,0,1,2-2,6.33,6.33,0,0,1,3.05-.7,8.71,8.71,0,0,1,3,.44l-.19,2a5.66,5.66,0,0,0-1.21-.32,7.79,7.79,0,0,0-1.44-.13,3.93,3.93,0,0,0-1.84.42A2.9,2.9,0,0,0,230,14.48a3.78,3.78,0,0,0-.47,1.91A3.35,3.35,0,0,0,233.11,20a9.78,9.78,0,0,0,1.41-.11,8.44,8.44,0,0,0,1.26-.29l.18,1.92a6.56,6.56,0,0,1-1.34.33A9.66,9.66,0,0,1,233,22,6.58,6.58,0,0,1,229.76,21.26Z"/><path class="cls-3" d="M238.16,21.26a2.44,2.44,0,0,1-.52-1.72V11h2.27v7.8a1.16,1.16,0,0,0,.22.83,1.24,1.24,0,0,0,.83.21h3.8l-.55,2h-4.4A2.17,2.17,0,0,1,238.16,21.26Z"/><path class="cls-3" d="M245.52,8.78l3.3-2,1,1.69-3.54,1.65ZM246.2,11h2.27V21.83H246.2Z"/><path class="cls-3" d="M250.64,11h1.62l5.58,6.76V11H260V21.83h-1.53l-5.67-7v7h-2.13Z"/><path class="cls-3" d="M262.15,11h2.27V21.83h-2.27Z"/><path class="cls-3" d="M268.76,21.26a4.65,4.65,0,0,1-2-2,5.92,5.92,0,0,1-.65-2.82,5.89,5.89,0,0,1,.72-2.93,5,5,0,0,1,2-2,6.34,6.34,0,0,1,3.06-.7,8.75,8.75,0,0,1,3,.44l-.2,2a5.72,5.72,0,0,0-1.2-.32,8,8,0,0,0-1.45-.13,3.93,3.93,0,0,0-1.84.42A3,3,0,0,0,269,14.48a3.78,3.78,0,0,0-.47,1.91A3.35,3.35,0,0,0,272.1,20a9.78,9.78,0,0,0,1.41-.11,8.44,8.44,0,0,0,1.26-.29l.18,1.92a6.56,6.56,0,0,1-1.34.33A9.66,9.66,0,0,1,272,22,6.51,6.51,0,0,1,268.76,21.26Z"/><path class="cls-3" d="M280.37,11h2.07l4.33,10.83h-2.43l-.8-2.13h-4.3l-.82,2.13h-2.51Zm2.43,6.74-1.34-3.64h-.14L280,17.74Z"/><path class="cls-2" d="M280.72,36.83h3.44a3.26,3.26,0,0,1,2.19.66,2.33,2.33,0,0,1,.77,1.86A3.29,3.29,0,0,1,283.34,43h-1.86l-.5,2.82h-1.85Zm2.72,4.55a1.64,1.64,0,0,0,1.31-.5,1.92,1.92,0,0,0,.42-1.3,1,1,0,0,0-.36-.83,1.51,1.51,0,0,0-1-.28h-1.55l-.51,2.91Z"/><path class="cls-2" d="M288.54,36.83H292a3.31,3.31,0,0,1,2.16.63,2.29,2.29,0,0,1,.77,1.88,3.42,3.42,0,0,1-.58,2.06,3.2,3.2,0,0,1-1.81,1.11l.8,1.37a.76.76,0,0,0,.24.26.74.74,0,0,0,.36.08h1l-.72,1.64h-1.16a1.32,1.32,0,0,1-.76-.19,1.55,1.55,0,0,1-.51-.6l-1.14-2a.61.61,0,0,0-.21-.25.6.6,0,0,0-.31-.06h-.8l-.55,3.1H287Zm2.84,4.29a1.66,1.66,0,0,0,1.22-.43,1.62,1.62,0,0,0,.42-1.18.9.9,0,0,0-.34-.79,1.69,1.69,0,0,0-1-.25h-1.56l-.47,2.65Z"/><path class="cls-2" d="M296.76,36.83H303l-.74,1.64h-3.9L298,40.62h3.44L301,42.26h-3.37l-.33,2h4.45l-.72,1.64h-5.88Z"/><path class="cls-2" d="M302.05,45.4l.4-1.65a6.61,6.61,0,0,0,1.27.46,5.3,5.3,0,0,0,1.28.17,2.55,2.55,0,0,0,1.33-.29.85.85,0,0,0,.46-.77.68.68,0,0,0-.13-.42,1.52,1.52,0,0,0-.45-.39c-.22-.14-.55-.31-1-.53a4.23,4.23,0,0,1-1.54-1.16,2.36,2.36,0,0,1-.49-1.49,2.3,2.3,0,0,1,.44-1.39A3,3,0,0,1,305,37a5.68,5.68,0,0,1,2-.32,8.56,8.56,0,0,1,1.18.09,7.45,7.45,0,0,1,1.08.23l-.3,1.64a6.94,6.94,0,0,0-2-.35,3,3,0,0,0-1.3.23.7.7,0,0,0-.44.64.78.78,0,0,0,.14.46,1.7,1.7,0,0,0,.46.39,9.92,9.92,0,0,0,1,.54,5.37,5.37,0,0,1,1.6,1.13,2,2,0,0,1,.46,1.35,2.56,2.56,0,0,1-.51,1.61,3.14,3.14,0,0,1-1.37,1A5.28,5.28,0,0,1,305,46,6.89,6.89,0,0,1,302.05,45.4Z"/><path class="cls-2" d="M310.7,36.83h6.2l-.73,1.64h-3.9l-.38,2.15h3.45L315,42.26H311.6l-.34,2h4.45L315,45.86h-5.88Z"/><path class="cls-2" d="M317.67,36.83h1.22l3.67,5.65,1-5.65h1.74l-1.59,9h-1.08L318.84,40l-1,5.83h-1.74Z"/><path class="cls-2" d="M327.41,45.5a3.44,3.44,0,0,1-1.54-1.43,4.56,4.56,0,0,1-.54-2.29,5.09,5.09,0,0,1,.65-2.55,4.79,4.79,0,0,1,1.86-1.85,5.72,5.72,0,0,1,2.87-.68,7.48,7.48,0,0,1,2.52.4l-.38,1.65a4.74,4.74,0,0,0-1-.29,6.45,6.45,0,0,0-1.17-.11,3.8,3.8,0,0,0-1.78.41,3,3,0,0,0-1.21,1.17,3.34,3.34,0,0,0-.43,1.71,2.86,2.86,0,0,0,.36,1.47,2.32,2.32,0,0,0,1,.92,3,3,0,0,0,1.35.31,6.44,6.44,0,0,0,2.23-.38L332,45.62a6,6,0,0,1-2.27.37A5.25,5.25,0,0,1,327.41,45.5Z"/><path class="cls-2" d="M334.38,36.83h1.87l-1.59,9h-1.87Z"/><path class="cls-2" d="M340.37,36.8h1.69l2,9.06h-1.94l-.35-1.78h-3.51l-1,1.78H335.2Zm1.09,5.64-.57-3.09h-.12l-1.61,3.09Z"/><path class="cls-2" d="M344.9,45.51a1.24,1.24,0,0,1-.38-1,12,12,0,0,1,.17-1.27l1.13-6.45h1.87l-1.09,6.09a6.68,6.68,0,0,0-.1.81c0,.32.21.49.64.49h3.47l-.72,1.64H346A1.65,1.65,0,0,1,344.9,45.51Z"/></svg>