<svg id="Diseño" xmlns="http://www.w3.org/2000/svg" viewBox="0 0 197.5 72"><defs><style>.cls-1{fill:#b31a1e;}.cls-2{fill:#fff;}</style></defs><rect class="cls-1" width="197.5" height="72" rx="12.6"/><path class="cls-2" d="M23.52,14.38H19.65v-1h9.2l-.45,1H24.69v9.79H23.52Z"/><path class="cls-2" d="M29.3,15.82h1.05l.1,1.2a4.54,4.54,0,0,1,1.3-.9,4.65,4.65,0,0,1,1.68-.44l-.07,1.12a4.2,4.2,0,0,0-1.53.34,5.37,5.37,0,0,0-1.38.79v6.24H29.3Z"/><path class="cls-2" d="M34.94,14.14a.84.84,0,0,1-.27-.64.85.85,0,0,1,.27-.64.87.87,0,0,1,.64-.25.92.92,0,0,1,.66.25.85.85,0,0,1,.27.64.84.84,0,0,1-.27.64.93.93,0,0,1-.66.26A.88.88,0,0,1,34.94,14.14ZM35,15.82h1.15v8.35H35Z"/><path class="cls-2" d="M39.18,23.6a2.5,2.5,0,0,1-.84-2,1.82,1.82,0,0,1,.71-1.54,3.27,3.27,0,0,1,2.05-.55h1.33q.62,0,1.44.06v-.77a2.25,2.25,0,0,0-.54-1.67,2.33,2.33,0,0,0-1.68-.52,8.91,8.91,0,0,0-2.5.37l-.13-.9a12,12,0,0,1,1.32-.29,9.48,9.48,0,0,1,1.5-.12,3.44,3.44,0,0,1,2.36.73A2.77,2.77,0,0,1,45,18.59v3.47c0,.51,0,1.22,0,2.11h-1c0-.22-.08-.57-.15-1h0a2.22,2.22,0,0,1-1,.88,3.56,3.56,0,0,1-1.61.32A3.13,3.13,0,0,1,39.18,23.6Zm4-.76a1.92,1.92,0,0,0,.64-1.55v-.84H40.94a1.76,1.76,0,0,0-1,.27,1.06,1.06,0,0,0-.36.91,1.59,1.59,0,0,0,.56,1.3,2.13,2.13,0,0,0,1.42.46A2.51,2.51,0,0,0,43.23,22.84Z"/><path class="cls-2" d="M44.85,27.74l.06-.89a3.87,3.87,0,0,0,1.23.2,1.3,1.3,0,0,0,1.2-.55,3.71,3.71,0,0,0,.34-1.86V15.82h1.15v8.77a4.37,4.37,0,0,1-.61,2.57,2.22,2.22,0,0,1-1.93.84A3.67,3.67,0,0,1,44.85,27.74Zm2.74-13.6a.87.87,0,0,1-.26-.64.88.88,0,0,1,.26-.64.9.9,0,0,1,.65-.25.92.92,0,0,1,.66.25.85.85,0,0,1,.27.64.84.84,0,0,1-.27.64.93.93,0,0,1-.66.26A.91.91,0,0,1,47.59,14.14Z"/><path class="cls-2" d="M52,23.25A4.33,4.33,0,0,1,50.86,20a5,5,0,0,1,.48-2.23,3.66,3.66,0,0,1,1.4-1.54,4,4,0,0,1,2.16-.56,3.14,3.14,0,0,1,2.52,1,3.81,3.81,0,0,1,.87,2.53,7.94,7.94,0,0,1-.07,1.16H52.05a3.31,3.31,0,0,0,.81,2.25,3.13,3.13,0,0,0,2.36.81,6.07,6.07,0,0,0,1.2-.14,6.26,6.26,0,0,0,1.2-.39l.17.88a6.62,6.62,0,0,1-2.73.59A4.25,4.25,0,0,1,52,23.25Zm5.12-3.84a4.33,4.33,0,0,0,0-.44,2.67,2.67,0,0,0-.55-1.71,2.13,2.13,0,0,0-1.75-.65,2.53,2.53,0,0,0-2,.77,3.16,3.16,0,0,0-.8,2Z"/><path class="cls-2" d="M66.43,14.38H62.56v-1h9.2l-.45,1H67.6v9.79H66.43Z"/><path class="cls-2" d="M72.19,23.25A4.33,4.33,0,0,1,71.07,20a5,5,0,0,1,.48-2.23,3.7,3.7,0,0,1,1.39-1.54,4,4,0,0,1,2.16-.56,3.17,3.17,0,0,1,2.53,1,3.87,3.87,0,0,1,.87,2.53,9.63,9.63,0,0,1-.07,1.16H72.26a3.31,3.31,0,0,0,.81,2.25,3.1,3.1,0,0,0,2.35.81,6.08,6.08,0,0,0,1.21-.14,6.15,6.15,0,0,0,1.19-.39l.18.88a6.66,6.66,0,0,1-2.74.59A4.24,4.24,0,0,1,72.19,23.25Zm5.12-3.84a4.33,4.33,0,0,0,0-.44,2.73,2.73,0,0,0-.55-1.71A2.15,2.15,0,0,0,75,16.61a2.53,2.53,0,0,0-2,.77,3.16,3.16,0,0,0-.8,2Z"/><path class="cls-2" d="M80.48,12.78l1.15-.33V24.17H80.48Z"/><path class="cls-2" d="M84.59,23.25A4.33,4.33,0,0,1,83.47,20,5,5,0,0,1,84,17.78a3.7,3.7,0,0,1,1.39-1.54,4,4,0,0,1,2.16-.56,3.17,3.17,0,0,1,2.53,1,3.87,3.87,0,0,1,.87,2.53,9.63,9.63,0,0,1-.07,1.16H84.66a3.31,3.31,0,0,0,.81,2.25,3.1,3.1,0,0,0,2.35.81A6.08,6.08,0,0,0,89,23.25a6.15,6.15,0,0,0,1.19-.39l.18.88a6.66,6.66,0,0,1-2.74.59A4.24,4.24,0,0,1,84.59,23.25Zm5.12-3.84a4.33,4.33,0,0,0,0-.44,2.73,2.73,0,0,0-.55-1.71,2.15,2.15,0,0,0-1.76-.65,2.53,2.53,0,0,0-2,.77,3.16,3.16,0,0,0-.8,2Z"/><path class="cls-2" d="M94.19,23.77a3.67,3.67,0,0,1-1.41-1.56,5.26,5.26,0,0,1,0-4.41,3.62,3.62,0,0,1,1.45-1.55,4.43,4.43,0,0,1,2.3-.57,4.08,4.08,0,0,1,2.19.57,3.51,3.51,0,0,1,1.39,1.56,5.1,5.1,0,0,1,.47,2.2,4.87,4.87,0,0,1-.48,2.17,3.73,3.73,0,0,1-1.43,1.57,4.32,4.32,0,0,1-2.3.58A4.2,4.2,0,0,1,94.19,23.77Zm4.4-1.27a3.7,3.7,0,0,0,.8-2.5,3.62,3.62,0,0,0-.81-2.49,2.94,2.94,0,0,0-4.27,0A3.62,3.62,0,0,0,93.5,20a4.09,4.09,0,0,0,.38,1.81,2.71,2.71,0,0,0,2.57,1.61A2.67,2.67,0,0,0,98.59,22.5Z"/><path class="cls-2" d="M102.62,15.82h1.06l.1,1.2a4.4,4.4,0,0,1,1.3-.9,4.65,4.65,0,0,1,1.67-.44l-.06,1.12a4.3,4.3,0,0,0-1.54.34,5.47,5.47,0,0,0-1.37.79v6.24h-1.16Z"/><path class="cls-2" d="M108.26,14.14a.87.87,0,0,1-.26-.64.88.88,0,0,1,.26-.64,1,1,0,0,1,1.31,0,.85.85,0,0,1,.27.64.84.84,0,0,1-.27.64,1,1,0,0,1-1.31,0Zm.08,1.68h1.15v8.35h-1.15Z"/><path class="cls-2" d="M112.69,23.25A4.29,4.29,0,0,1,111.57,20a5,5,0,0,1,.48-2.23,3.64,3.64,0,0,1,1.39-1.54,4,4,0,0,1,2.16-.56,3.18,3.18,0,0,1,2.53,1,3.86,3.86,0,0,1,.86,2.53,9.82,9.82,0,0,1-.06,1.16h-6.18a3.31,3.31,0,0,0,.82,2.25,3.09,3.09,0,0,0,2.35.81,6.25,6.25,0,0,0,1.21-.14,6.15,6.15,0,0,0,1.19-.39l.18.88a6.66,6.66,0,0,1-2.74.59A4.23,4.23,0,0,1,112.69,23.25Zm5.12-3.84c0-.1,0-.24,0-.44a2.67,2.67,0,0,0-.55-1.71,2.13,2.13,0,0,0-1.75-.65,2.55,2.55,0,0,0-2,.77,3.16,3.16,0,0,0-.8,2Z"/><path class="cls-2" d="M120.93,15.82h1l.09.77a5.78,5.78,0,0,1,1.47-.66,5.19,5.19,0,0,1,1.57-.25,2.83,2.83,0,0,1,2.18.77,2.34,2.34,0,0,1,.5.87,3.74,3.74,0,0,1,.17,1.25v5.6H126.8V18.69a2.31,2.31,0,0,0-.4-1.49,1.41,1.41,0,0,0-.59-.44,2.72,2.72,0,0,0-1-.14,4.37,4.37,0,0,0-1.44.25,5.77,5.77,0,0,0-1.34.66v6.64h-1.15Z"/><path class="cls-2" d="M131,23.68a2.27,2.27,0,0,1-.62-1.75V14l1.16-.33V16h3l-.4,1h-2.6v4.82a1.85,1.85,0,0,0,.31,1.21,1.39,1.39,0,0,0,1.09.36,6.07,6.07,0,0,0,1.51-.18l.08.86a5.43,5.43,0,0,1-1.65.23A2.74,2.74,0,0,1,131,23.68Z"/><path class="cls-2" d="M136.42,23.6a2.5,2.5,0,0,1-.84-2,1.83,1.83,0,0,1,.72-1.54,3.27,3.27,0,0,1,2-.55h1.33q.6,0,1.44.06v-.77a2.25,2.25,0,0,0-.54-1.67,2.37,2.37,0,0,0-1.68-.52,8.81,8.81,0,0,0-2.5.37l-.13-.9a12,12,0,0,1,1.32-.29,9.48,9.48,0,0,1,1.5-.12,3.44,3.44,0,0,1,2.36.73,2.77,2.77,0,0,1,.82,2.18v3.47c0,.51,0,1.22,0,2.11h-1c0-.22-.08-.57-.14-1h0a2.24,2.24,0,0,1-1,.88,3.48,3.48,0,0,1-1.6.32A3.16,3.16,0,0,1,136.42,23.6Zm4.06-.76a1.92,1.92,0,0,0,.64-1.55v-.84h-2.93a1.74,1.74,0,0,0-1,.27,1.07,1.07,0,0,0-.37.91,1.62,1.62,0,0,0,.56,1.3,2.17,2.17,0,0,0,1.43.46A2.53,2.53,0,0,0,140.48,22.84Z"/><path class="cls-2" d="M146.35,23.81a3.58,3.58,0,0,1-1.51-1.5A4.82,4.82,0,0,1,144.3,20a4.44,4.44,0,0,1,.58-2.28,3.82,3.82,0,0,1,1.57-1.49,4.6,4.6,0,0,1,2.19-.52,5.92,5.92,0,0,1,2.45.46l-.19.93a4.92,4.92,0,0,0-1-.32,6,6,0,0,0-1.17-.13,3.28,3.28,0,0,0-1.68.43,3,3,0,0,0-1.11,1.19,3.54,3.54,0,0,0-.4,1.71,3.76,3.76,0,0,0,.8,2.47,3,3,0,0,0,2.48,1,5.15,5.15,0,0,0,1.14-.14,5.88,5.88,0,0,0,1.12-.37l.18.88a6.29,6.29,0,0,1-2.6.57A4.72,4.72,0,0,1,146.35,23.81Z"/><path class="cls-2" d="M153,14.14a.87.87,0,0,1-.26-.64.88.88,0,0,1,.26-.64.9.9,0,0,1,.65-.25.94.94,0,0,1,.66.25.85.85,0,0,1,.27.64.84.84,0,0,1-.27.64,1,1,0,0,1-.66.26A.91.91,0,0,1,153,14.14Zm.07,1.68h1.16v8.35H153Z"/><path class="cls-2" d="M158.14,23.77a3.67,3.67,0,0,1-1.41-1.56,5.07,5.07,0,0,1-.48-2.2,5,5,0,0,1,.49-2.21,3.62,3.62,0,0,1,1.45-1.55,4.45,4.45,0,0,1,2.31-.57,4,4,0,0,1,2.18.57,3.51,3.51,0,0,1,1.39,1.56,5,5,0,0,1,.47,2.2,4.87,4.87,0,0,1-.48,2.17,3.67,3.67,0,0,1-1.43,1.57,4.29,4.29,0,0,1-2.3.58A4.2,4.2,0,0,1,158.14,23.77Zm4.4-1.27a3.65,3.65,0,0,0,.8-2.5,3.67,3.67,0,0,0-.8-2.49,2.95,2.95,0,0,0-4.28,0,3.62,3.62,0,0,0-.8,2.49,4.09,4.09,0,0,0,.37,1.81,2.71,2.71,0,0,0,2.57,1.61A2.67,2.67,0,0,0,162.54,22.5ZM158.91,14l3.36-2,.64,1-3.5,1.73Z"/><path class="cls-2" d="M166.57,15.82h1l.1.77a5.87,5.87,0,0,1,1.46-.66,5.25,5.25,0,0,1,1.58-.25,2.83,2.83,0,0,1,2.18.77,2.34,2.34,0,0,1,.5.87,4,4,0,0,1,.17,1.25v5.6h-1.15V18.69a2.37,2.37,0,0,0-.4-1.49,1.41,1.41,0,0,0-.59-.44,2.72,2.72,0,0,0-1-.14,4.37,4.37,0,0,0-1.44.25,5.77,5.77,0,0,0-1.34.66v6.64h-1.16Z"/><path class="cls-2" d="M175.9,18.48a1,1,0,0,1-.3-.71,1,1,0,0,1,.3-.72.94.94,0,0,1,.71-.3,1,1,0,0,1,1,1,1,1,0,0,1-.3.72,1,1,0,0,1-.72.29A1,1,0,0,1,175.9,18.48Zm0,5.57a1,1,0,0,1-.3-.71,1,1,0,0,1,.3-.72.94.94,0,0,1,.71-.3,1,1,0,0,1,.72.3,1,1,0,0,1,.3.72.94.94,0,0,1-.3.71,1,1,0,0,1-.72.3A1,1,0,0,1,175.9,24.05Z"/><path class="cls-2" d="M23.64,30.36h4a4.86,4.86,0,0,1,3.13.89A3.34,3.34,0,0,1,31.9,34a3.72,3.72,0,0,1-1,2.81,4.18,4.18,0,0,1-3,1H25.91v3.37H23.64Zm4,5.45a2,2,0,0,0,1.42-.46A1.78,1.78,0,0,0,29.56,34c0-1.14-.64-1.71-1.94-1.71H25.91v3.48Z"/><path class="cls-2" d="M34.12,41A2.75,2.75,0,0,1,33,40a2.69,2.69,0,0,1-.4-1.46,2.16,2.16,0,0,1,.82-1.83,4.62,4.62,0,0,1,2.69-.61h.54c.38,0,.79,0,1.22.07v-.37a1,1,0,0,0-.45-.93A2.7,2.7,0,0,0,36,34.53a10.24,10.24,0,0,0-2.48.34l-.14-1.78A12.76,12.76,0,0,1,35,32.8a12.52,12.52,0,0,1,1.68-.12,4,4,0,0,1,2.6.73,2.68,2.68,0,0,1,.91,2.24v3.86c0,.76,0,1.31,0,1.66H38.23a6,6,0,0,1-.11-.8h0a3.13,3.13,0,0,1-2.37,1A3.46,3.46,0,0,1,34.12,41Zm3.33-1.7a1.06,1.06,0,0,0,.45-.9v-.76H36a1.18,1.18,0,0,0-.76.22.76.76,0,0,0-.28.64,1,1,0,0,0,.38.83,1.55,1.55,0,0,0,1,.31A1.89,1.89,0,0,0,37.45,39.27Z"/><path class="cls-2" d="M43.78,40.82a3.79,3.79,0,0,1-1.63-1.49A4.51,4.51,0,0,1,41.58,37a4.37,4.37,0,0,1,.6-2.31,3.89,3.89,0,0,1,1.66-1.5,5.37,5.37,0,0,1,2.41-.52,7.7,7.7,0,0,1,2.33.35l-.25,1.84a5.43,5.43,0,0,0-1.89-.32,2.78,2.78,0,0,0-1.85.62A2.28,2.28,0,0,0,43.86,37a2.31,2.31,0,0,0,.74,1.83,2.7,2.7,0,0,0,1.87.65,4.91,4.91,0,0,0,2-.37l.19,1.81a4.35,4.35,0,0,1-1.06.31,7.37,7.37,0,0,1-1.35.12A5.51,5.51,0,0,1,43.78,40.82Z"/><path class="cls-2" d="M50.34,31.33a1.44,1.44,0,0,1,0-2,1.5,1.5,0,0,1,2,0,1.39,1.39,0,0,1,0,2,1.5,1.5,0,0,1-2,0Zm-.09,1.49h2.24v8.35H50.25Z"/><path class="cls-2" d="M55.26,40.21A4.21,4.21,0,0,1,54.1,37a4.76,4.76,0,0,1,.51-2.23,3.64,3.64,0,0,1,1.46-1.55,4.4,4.4,0,0,1,2.29-.57,3.37,3.37,0,0,1,2.8,1.13,4.34,4.34,0,0,1,.91,2.84A6.55,6.55,0,0,1,62,37.78H56.47A1.52,1.52,0,0,0,57.15,39a3,3,0,0,0,1.79.46,6.17,6.17,0,0,0,2.38-.42l.19,1.81a7.25,7.25,0,0,1-2.8.46A4.74,4.74,0,0,1,55.26,40.21Zm4.56-4a2.36,2.36,0,0,0,0-.3,2,2,0,0,0-.46-1.16,1.35,1.35,0,0,0-1.08-.43,1.62,1.62,0,0,0-1.28.51,2,2,0,0,0-.48,1.38Z"/><path class="cls-2" d="M63.62,32.82h2l.11.74a5.12,5.12,0,0,1,1.33-.64,4.45,4.45,0,0,1,1.37-.24,2.77,2.77,0,0,1,2.15.83,3.48,3.48,0,0,1,.72,2.42v5.24H69.05v-5a2.44,2.44,0,0,0-.1-.8,1.09,1.09,0,0,0-.3-.48,1.55,1.55,0,0,0-1-.32,3,3,0,0,0-.93.16,3.56,3.56,0,0,0-.83.4v6H63.62Z"/><path class="cls-2" d="M73.81,40.59a2.84,2.84,0,0,1-.76-2.26V31l2.24-.33v2.28h2.89l-.4,1.89H75.29v3.11A1.59,1.59,0,0,0,75.58,39a1.14,1.14,0,0,0,.91.33,7.07,7.07,0,0,0,1.45-.12L78.06,41a5.58,5.58,0,0,1-.92.2,10.32,10.32,0,0,1-1.1.07A3.35,3.35,0,0,1,73.81,40.59Z"/><path class="cls-2" d="M80.09,40.21A4.2,4.2,0,0,1,78.94,37a4.76,4.76,0,0,1,.5-2.23,3.7,3.7,0,0,1,1.46-1.55,4.42,4.42,0,0,1,2.29-.57A3.37,3.37,0,0,1,86,33.81a4.34,4.34,0,0,1,.91,2.84,6.55,6.55,0,0,1-.09,1.13H81.3A1.55,1.55,0,0,0,82,39a3,3,0,0,0,1.79.46,6.14,6.14,0,0,0,2.38-.42l.19,1.81a7.25,7.25,0,0,1-2.8.46A4.76,4.76,0,0,1,80.09,40.21Zm4.56-4a2.36,2.36,0,0,0,0-.3,2,2,0,0,0-.45-1.16,1.35,1.35,0,0,0-1.08-.43,1.63,1.63,0,0,0-1.29.51,2,2,0,0,0-.47,1.38Z"/><path class="cls-2" d="M93.68,40.83a3.7,3.7,0,0,1-1.48-1.48,4.68,4.68,0,0,1-.54-2.3,4.45,4.45,0,0,1,.58-2.31,4,4,0,0,1,1.58-1.53A4.54,4.54,0,0,1,96,32.68a3.55,3.55,0,0,1,1.12.18,2.08,2.08,0,0,1,.84.47h0V30l2.24-.59v9.36c0,.7,0,1.49,0,2.36H98.34a7.74,7.74,0,0,1-.14-.84h0a2.63,2.63,0,0,1-1,.72,3.3,3.3,0,0,1-1.4.28A4.28,4.28,0,0,1,93.68,40.83Zm3.52-1.64a2,2,0,0,0,.76-.61V36.36a1.68,1.68,0,0,0-1.82-1.83,2,2,0,0,0-1.59.67,2.44,2.44,0,0,0-.61,1.7,2.69,2.69,0,0,0,.61,1.83,2.1,2.1,0,0,0,1.63.68A2.31,2.31,0,0,0,97.2,39.19Z"/><path class="cls-2" d="M102.73,40.21A4.2,4.2,0,0,1,101.58,37a4.76,4.76,0,0,1,.5-2.23,3.7,3.7,0,0,1,1.46-1.55,4.42,4.42,0,0,1,2.29-.57,3.37,3.37,0,0,1,2.8,1.13,4.34,4.34,0,0,1,.91,2.84,6.55,6.55,0,0,1-.09,1.13h-5.51a1.55,1.55,0,0,0,.68,1.24,3,3,0,0,0,1.79.46,6.14,6.14,0,0,0,2.38-.42l.19,1.81a7.25,7.25,0,0,1-2.8.46A4.76,4.76,0,0,1,102.73,40.21Zm4.56-4a2.36,2.36,0,0,0,0-.3,2,2,0,0,0-.45-1.16,1.35,1.35,0,0,0-1.08-.43,1.63,1.63,0,0,0-1.29.51,2,2,0,0,0-.47,1.38Z"/><path class="cls-2" d="M112.87,41.15a8.67,8.67,0,0,1-1.77-.5V30l2.24-.59v4.11h0a3.76,3.76,0,0,1,1.15-.64,4.27,4.27,0,0,1,1.44-.24,3.6,3.6,0,0,1,1.83.48,3.49,3.49,0,0,1,1.33,1.41,4.75,4.75,0,0,1,.49,2.24,4.34,4.34,0,0,1-1.27,3.35,4.87,4.87,0,0,1-3.43,1.17A11.49,11.49,0,0,1,112.87,41.15Zm3.87-2.38A2.58,2.58,0,0,0,117.3,37a2.67,2.67,0,0,0-.55-1.8,1.83,1.83,0,0,0-1.46-.65,1.87,1.87,0,0,0-1.49.54,2.32,2.32,0,0,0-.46,1.56v2.51a5.09,5.09,0,0,0,1.76.27A2,2,0,0,0,116.74,38.77Z"/><path class="cls-2" d="M121.9,40.21A4.21,4.21,0,0,1,120.74,37a4.76,4.76,0,0,1,.51-2.23,3.64,3.64,0,0,1,1.46-1.55,4.4,4.4,0,0,1,2.29-.57,3.37,3.37,0,0,1,2.8,1.13,4.34,4.34,0,0,1,.91,2.84,6.55,6.55,0,0,1-.09,1.13h-5.51a1.52,1.52,0,0,0,.68,1.24,3,3,0,0,0,1.79.46,6.17,6.17,0,0,0,2.38-.42l.19,1.81a7.25,7.25,0,0,1-2.8.46A4.74,4.74,0,0,1,121.9,40.21Zm4.56-4a2.36,2.36,0,0,0,0-.3,2,2,0,0,0-.46-1.16,1.35,1.35,0,0,0-1.08-.43,1.62,1.62,0,0,0-1.28.51,2,2,0,0,0-.48,1.38Z"/><path class="cls-2" d="M133.9,30l2.24-.59V41.17H133.9Z"/><path class="cls-2" d="M138.15,30l2.24-.59V41.17h-2.24Z"/><path class="cls-2" d="M143,40.21A4.2,4.2,0,0,1,141.82,37a4.76,4.76,0,0,1,.5-2.23,3.7,3.7,0,0,1,1.46-1.55,4.42,4.42,0,0,1,2.29-.57,3.37,3.37,0,0,1,2.8,1.13,4.34,4.34,0,0,1,.91,2.84,6.55,6.55,0,0,1-.09,1.13h-5.51a1.55,1.55,0,0,0,.68,1.24,3,3,0,0,0,1.79.46,6.17,6.17,0,0,0,2.38-.42l.19,1.81a7.25,7.25,0,0,1-2.8.46A4.76,4.76,0,0,1,143,40.21Zm4.56-4a2.36,2.36,0,0,0,0-.3,2,2,0,0,0-.45-1.16,1.36,1.36,0,0,0-1.08-.43,1.63,1.63,0,0,0-1.29.51,2,2,0,0,0-.47,1.38Z"/><path class="cls-2" d="M153.9,44.89a9.3,9.3,0,0,1-1.33-.31l.21-1.84a6.82,6.82,0,0,0,1.09.3,6,6,0,0,0,1.15.12c1.53,0,2.3-.72,2.3-2.16v-.53a3.16,3.16,0,0,1-1,.58,3.57,3.57,0,0,1-1.27.22,4.22,4.22,0,0,1-2.16-.54,3.74,3.74,0,0,1-1.43-1.52,4.76,4.76,0,0,1-.5-2.23,4.51,4.51,0,0,1,.54-2.2A3.87,3.87,0,0,1,153,33.24a4.53,4.53,0,0,1,2.3-.56,3.57,3.57,0,0,1,1.35.26,2.57,2.57,0,0,1,1,.76l.15-.88h1.63V40.5a4.66,4.66,0,0,1-1.09,3.38,4.07,4.07,0,0,1-3,1.12A10.19,10.19,0,0,1,153.9,44.89Zm2.59-5.65a2.27,2.27,0,0,0,.75-.45V36.21a1.55,1.55,0,0,0-.51-1.2,1.78,1.78,0,0,0-1.27-.48,2.09,2.09,0,0,0-1.63.67,2.87,2.87,0,0,0,0,3.56,2.1,2.1,0,0,0,1.61.65A2.82,2.82,0,0,0,156.49,39.24Z"/><path class="cls-2" d="M162.38,41a2.71,2.71,0,0,1-1.49-2.48,2.15,2.15,0,0,1,.81-1.83,4.64,4.64,0,0,1,2.69-.61h.55c.38,0,.78,0,1.21.07v-.37a1,1,0,0,0-.45-.93,2.66,2.66,0,0,0-1.4-.29,10.18,10.18,0,0,0-2.48.34l-.15-1.78a13.58,13.58,0,0,1,1.53-.29,12.55,12.55,0,0,1,1.69-.12,4,4,0,0,1,2.6.73,2.7,2.7,0,0,1,.9,2.24v3.86c0,.76,0,1.31,0,1.66h-1.93a4.71,4.71,0,0,1-.11-.8h0a3.09,3.09,0,0,1-2.36,1A3.43,3.43,0,0,1,162.38,41Zm3.32-1.7a1.06,1.06,0,0,0,.45-.9v-.76h-1.93a1.17,1.17,0,0,0-.76.22.76.76,0,0,0-.28.64,1,1,0,0,0,.37.83,1.57,1.57,0,0,0,1,.31A1.89,1.89,0,0,0,165.7,39.27Z"/><path class="cls-2" d="M170.23,32.82h1.92l.15,1.12a5.59,5.59,0,0,1,3-1.28l-.08,2.13a6,6,0,0,0-1.42.27,6.78,6.78,0,0,0-1.35.58v5.53h-2.24Z"/><path class="cls-2" d="M14.49,55.82a3.71,3.71,0,0,1-1.62-1.49A4.42,4.42,0,0,1,12.29,52a4.37,4.37,0,0,1,.6-2.31,3.89,3.89,0,0,1,1.66-1.5A5.4,5.4,0,0,1,17,47.68,7.81,7.81,0,0,1,19.3,48L19,49.87a5.35,5.35,0,0,0-1.89-.32,2.75,2.75,0,0,0-1.84.62A2.25,2.25,0,0,0,14.58,52a2.3,2.3,0,0,0,.73,1.83,2.71,2.71,0,0,0,1.88.65,4.86,4.86,0,0,0,2-.37l.2,1.81a4.59,4.59,0,0,1-1.07.31,7.37,7.37,0,0,1-1.35.12A5.51,5.51,0,0,1,14.49,55.82Z"/><path class="cls-2" d="M21.49,55.21A4.2,4.2,0,0,1,20.34,52a4.76,4.76,0,0,1,.5-2.23,3.7,3.7,0,0,1,1.46-1.55,4.42,4.42,0,0,1,2.29-.57,3.37,3.37,0,0,1,2.8,1.13,4.34,4.34,0,0,1,.91,2.84,6.55,6.55,0,0,1-.09,1.13H22.7A1.55,1.55,0,0,0,23.38,54a3,3,0,0,0,1.79.46,6.14,6.14,0,0,0,2.38-.42l.19,1.81a7.22,7.22,0,0,1-2.8.46A4.76,4.76,0,0,1,21.49,55.21Zm4.56-4a2.36,2.36,0,0,0,0-.3,2,2,0,0,0-.45-1.16,1.35,1.35,0,0,0-1.08-.43,1.63,1.63,0,0,0-1.29.51,2,2,0,0,0-.47,1.38Z"/><path class="cls-2" d="M29.86,47.82H31.7l.09.88a4.48,4.48,0,0,1,2.82-1,4.12,4.12,0,0,1,2,.5,3.59,3.59,0,0,1,1.43,1.46,4.65,4.65,0,0,1,.52,2.23A5,5,0,0,1,38,54.31a3.77,3.77,0,0,1-1.53,1.51,4.88,4.88,0,0,1-3.41.35,3.6,3.6,0,0,1-1-.43v3.6l-2.24.59Zm5.85,6a2.77,2.77,0,0,0,.58-1.89,2.36,2.36,0,0,0-.6-1.73,2,2,0,0,0-1.5-.61,2.13,2.13,0,0,0-1.52.52,1.77,1.77,0,0,0-.57,1.37v2.21a2.21,2.21,0,0,0,.84.53,3,3,0,0,0,1.16.24A2.1,2.1,0,0,0,35.71,53.81Z"/><path class="cls-2" d="M40.29,46.33a1.41,1.41,0,0,1,0-2,1.5,1.5,0,0,1,2,0,1.41,1.41,0,0,1,0,2,1.5,1.5,0,0,1-2,0Zm-.1,1.49h2.24v8.35H40.19Z"/><path class="cls-2" d="M44.48,45l2.24-.59V56.17H44.48Z"/><path class="cls-2" d="M48.74,45,51,44.45V56.17H48.74Z"/><path class="cls-2" d="M53.9,56a2.82,2.82,0,0,1-1.09-1,2.77,2.77,0,0,1-.39-1.46,2.15,2.15,0,0,1,.81-1.83,4.64,4.64,0,0,1,2.69-.61h.54c.39,0,.79,0,1.22.07v-.37a1,1,0,0,0-.45-.93,2.7,2.7,0,0,0-1.41-.29,10.31,10.31,0,0,0-2.48.34l-.14-1.78a13.58,13.58,0,0,1,1.53-.29,12.55,12.55,0,0,1,1.69-.12,4,4,0,0,1,2.6.73,2.7,2.7,0,0,1,.9,2.24v3.86c0,.76,0,1.31,0,1.66H58a6.25,6.25,0,0,1-.12-.8h0a3.11,3.11,0,0,1-2.37,1A3.49,3.49,0,0,1,53.9,56Zm3.33-1.7a1.06,1.06,0,0,0,.45-.9v-.76H55.74a1.18,1.18,0,0,0-.76.22.79.79,0,0,0-.28.64,1,1,0,0,0,.38.83,1.55,1.55,0,0,0,1,.31A1.89,1.89,0,0,0,57.23,54.27Z"/><path class="cls-2" d="M63.38,55.83a3.76,3.76,0,0,1-1.48-1.48,4.68,4.68,0,0,1-.54-2.3,4.45,4.45,0,0,1,.58-2.31,4.07,4.07,0,0,1,1.58-1.53,4.54,4.54,0,0,1,2.16-.53,3.66,3.66,0,0,1,1.13.18,2.08,2.08,0,0,1,.84.47h0V45l2.24-.59v9.36c0,.7,0,1.49,0,2.36H68.05a7.76,7.76,0,0,1-.15-.84h0a2.76,2.76,0,0,1-1,.72,3.3,3.3,0,0,1-1.4.28A4.3,4.3,0,0,1,63.38,55.83Zm3.52-1.64a1.92,1.92,0,0,0,.76-.61V51.36a1.67,1.67,0,0,0-1.82-1.83,2,2,0,0,0-1.58.67,2.4,2.4,0,0,0-.61,1.7,2.65,2.65,0,0,0,.61,1.83,2.08,2.08,0,0,0,1.63.68A2.29,2.29,0,0,0,66.9,54.19Z"/><path class="cls-2" d="M72.44,55.18A4.28,4.28,0,0,1,71.28,52a4.75,4.75,0,0,1,.54-2.31,3.55,3.55,0,0,1,1.52-1.5,4.93,4.93,0,0,1,2.32-.52A4.86,4.86,0,0,1,78,48.2a3.53,3.53,0,0,1,1.52,1.49A4.7,4.7,0,0,1,80.05,52a4.75,4.75,0,0,1-.54,2.31A3.47,3.47,0,0,1,78,55.81a4.87,4.87,0,0,1-2.32.52A4.36,4.36,0,0,1,72.44,55.18Zm4.74-1.32a3.24,3.24,0,0,0,0-3.7,2.07,2.07,0,0,0-3,0,3.24,3.24,0,0,0,0,3.7,2,2,0,0,0,1.53.65A1.91,1.91,0,0,0,77.18,53.86Z"/><path class="cls-2" d="M86.14,56a2.73,2.73,0,0,1-1.48-2.48,2.15,2.15,0,0,1,.81-1.83,4.64,4.64,0,0,1,2.69-.61h.54c.39,0,.79,0,1.22.07v-.37a1,1,0,0,0-.45-.93,2.7,2.7,0,0,0-1.41-.29,10.31,10.31,0,0,0-2.48.34l-.14-1.78A13.58,13.58,0,0,1,87,47.8a12.55,12.55,0,0,1,1.69-.12,4,4,0,0,1,2.6.73,2.7,2.7,0,0,1,.9,2.24v3.86c0,.76,0,1.31,0,1.66H90.26a4.86,4.86,0,0,1-.12-.8h0a3.13,3.13,0,0,1-2.37,1A3.49,3.49,0,0,1,86.14,56Zm3.33-1.7a1.06,1.06,0,0,0,.45-.9v-.76H88a1.18,1.18,0,0,0-.76.22.79.79,0,0,0-.28.64,1,1,0,0,0,.38.83,1.55,1.55,0,0,0,1,.31A1.89,1.89,0,0,0,89.47,54.27Z"/><path class="cls-2" d="M94,45l2.24-.59V56.17H94Z"/><path class="cls-2" d="M103.66,55.82A3.79,3.79,0,0,1,102,54.33a4.51,4.51,0,0,1-.57-2.32,4.37,4.37,0,0,1,.6-2.31,3.89,3.89,0,0,1,1.66-1.5,5.37,5.37,0,0,1,2.41-.52,7.7,7.7,0,0,1,2.33.35l-.25,1.84a5.43,5.43,0,0,0-1.89-.32,2.78,2.78,0,0,0-1.85.62,2.28,2.28,0,0,0-.73,1.81,2.31,2.31,0,0,0,.74,1.83,2.68,2.68,0,0,0,1.87.65,4.91,4.91,0,0,0,2-.37l.19,1.81a4.49,4.49,0,0,1-1.06.31,7.45,7.45,0,0,1-1.35.12A5.48,5.48,0,0,1,103.66,55.82Z"/><path class="cls-2" d="M110.66,55.18A4.28,4.28,0,0,1,109.5,52,4.75,4.75,0,0,1,110,49.7a3.63,3.63,0,0,1,1.53-1.5,5.46,5.46,0,0,1,4.65,0,3.64,3.64,0,0,1,1.52,1.49,4.81,4.81,0,0,1,.53,2.31,4.86,4.86,0,0,1-.53,2.31,3.57,3.57,0,0,1-1.53,1.5,4.9,4.9,0,0,1-2.32.52A4.38,4.38,0,0,1,110.66,55.18Zm4.75-1.32A2.71,2.71,0,0,0,116,52a2.68,2.68,0,0,0-.58-1.85,2.06,2.06,0,0,0-3,0,3.2,3.2,0,0,0,0,3.7,2.09,2.09,0,0,0,3,0Z"/><path class="cls-2" d="M119.82,47.82h2l.11.74a5.12,5.12,0,0,1,1.33-.64,4.45,4.45,0,0,1,1.37-.24,2.77,2.77,0,0,1,2.15.83,3.48,3.48,0,0,1,.72,2.42v5.24h-2.24v-5a2.44,2.44,0,0,0-.1-.8,1.09,1.09,0,0,0-.3-.48,1.55,1.55,0,0,0-1-.32,3,3,0,0,0-.93.16,3.56,3.56,0,0,0-.83.4v6h-2.24Z"/><path class="cls-2" d="M128.88,55.87l.18-1.9a8.66,8.66,0,0,0,1.31.36,6,6,0,0,0,1.28.15,2.27,2.27,0,0,0,1.08-.2.6.6,0,0,0,.34-.54.49.49,0,0,0-.13-.35,1.3,1.3,0,0,0-.46-.29,8.55,8.55,0,0,0-1-.33,4.42,4.42,0,0,1-1.92-1,2.22,2.22,0,0,1-.61-1.59,2,2,0,0,1,1-1.87,4.69,4.69,0,0,1,2.47-.61,9.33,9.33,0,0,1,2.43.32l-.16,1.84a6.19,6.19,0,0,0-2.11-.35c-.9,0-1.36.2-1.36.6,0,.2.12.35.37.48a11,11,0,0,0,1.38.5,4.31,4.31,0,0,1,1.84,1,2.06,2.06,0,0,1,.52,1.45,2.45,2.45,0,0,1-1,2.13,4,4,0,0,1-2.43.7A9.46,9.46,0,0,1,128.88,55.87Z"/><path class="cls-2" d="M137.55,55.52a3.23,3.23,0,0,1-.94-2.58V47.82h2.24v5.09a1.7,1.7,0,0,0,.38,1.21,1.59,1.59,0,0,0,1.17.39,1.54,1.54,0,0,0,1.15-.39,1.66,1.66,0,0,0,.39-1.21V47.82h2.24v5.12a3.21,3.21,0,0,1-1,2.54,4.18,4.18,0,0,1-2.83.85A4.24,4.24,0,0,1,137.55,55.52Z"/><path class="cls-2" d="M146.08,45l2.24-.59V56.17h-2.24Z"/><path class="cls-2" d="M151.19,55.59a2.84,2.84,0,0,1-.76-2.26V46l2.24-.33v2.28h2.9l-.4,1.89h-2.5v3.11A1.65,1.65,0,0,0,153,54a1.15,1.15,0,0,0,.91.33,7.25,7.25,0,0,0,1.46-.12l.11,1.76a5.36,5.36,0,0,1-.92.2,10.15,10.15,0,0,1-1.1.07A3.37,3.37,0,0,1,151.19,55.59Z"/><path class="cls-2" d="M157.48,55.18A4.28,4.28,0,0,1,156.32,52a4.86,4.86,0,0,1,.53-2.31,3.63,3.63,0,0,1,1.53-1.5,5.46,5.46,0,0,1,4.65,0,3.58,3.58,0,0,1,1.52,1.49,4.7,4.7,0,0,1,.54,2.31,4.75,4.75,0,0,1-.54,2.31,3.57,3.57,0,0,1-1.53,1.5,4.87,4.87,0,0,1-2.32.52A4.36,4.36,0,0,1,157.48,55.18Zm4.74-1.32A2.67,2.67,0,0,0,162.8,52a2.73,2.73,0,0,0-.58-1.85,1.94,1.94,0,0,0-1.52-.66,1.92,1.92,0,0,0-1.51.66,3.24,3.24,0,0,0,0,3.7,2,2,0,0,0,1.53.65A1.91,1.91,0,0,0,162.22,53.86Z"/><path class="cls-2" d="M166.64,47.82h1.92l.14,1.12a5.65,5.65,0,0,1,3-1.28l-.08,2.13a6.1,6.1,0,0,0-1.43.27,6.46,6.46,0,0,0-1.34.58v5.53h-2.24Z"/><path class="cls-2" d="M173.18,46.33a1.44,1.44,0,0,1,0-2,1.5,1.5,0,0,1,2,0,1.39,1.39,0,0,1,0,2,1.5,1.5,0,0,1-2,0Zm-.09,1.49h2.24v8.35h-2.24Z"/><path class="cls-2" d="M178.1,55.18A4.28,4.28,0,0,1,176.94,52a4.75,4.75,0,0,1,.54-2.31A3.63,3.63,0,0,1,179,48.2a5.44,5.44,0,0,1,4.64,0,3.53,3.53,0,0,1,1.52,1.49,4.7,4.7,0,0,1,.54,2.31,4.75,4.75,0,0,1-.54,2.31,3.5,3.5,0,0,1-1.52,1.5,4.9,4.9,0,0,1-2.32.52A4.38,4.38,0,0,1,178.1,55.18Zm4.75-1.32a2.71,2.71,0,0,0,.57-1.85,2.68,2.68,0,0,0-.58-1.85,1.92,1.92,0,0,0-1.51-.66,1.94,1.94,0,0,0-1.52.66,3.24,3.24,0,0,0,0,3.7,2,2,0,0,0,1.53.65A1.94,1.94,0,0,0,182.85,53.86Z"/></svg>