<svg id="Diseño" xmlns="http://www.w3.org/2000/svg" xmlns:xlink="http://www.w3.org/1999/xlink" viewBox="0 0 288 120"><defs><style>.cls-1,.cls-30,.cls-31,.cls-5,.cls-6{fill:none;}.cls-2{fill:#87868b;}.cls-3{fill:#b31a1e;}.cls-4{fill:#fff;}.cls-5{stroke:#b31a1e;stroke-width:4px;stroke-dasharray:0 6;}.cls-30,.cls-5{stroke-linecap:round;}.cls-31,.cls-5,.cls-6{stroke-miterlimit:10;}.cls-6{stroke:#579fa7;}.cls-7{fill:#579fa7;}.cls-8{clip-path:url(#clip-path);}.cls-9{fill:#4f4e4e;}.cls-10{fill:#cecccb;}.cls-11{fill:url(#Degradado_sin_nombre_13);}.cls-12{fill:#483e3e;}.cls-13{fill:#a9a4a3;}.cls-14{fill:#97cad2;}.cls-15{fill:#010101;}.cls-16{fill:#f29aa2;}.cls-17{fill:#ef808a;}.cls-18{fill:#faf8f9;}.cls-19{fill:#f299a2;}.cls-20{fill:#efedef;}.cls-21{fill:#efedee;}.cls-22{fill:#e4e0e4;}.cls-23{fill:#e5ae97;}.cls-24{fill:#2d2d2e;}.cls-25{fill:#82beb6;}.cls-26{fill:#2e4448;}.cls-27{fill:#e1e1de;}.cls-28{fill:#4e2e16;}.cls-29{fill:#a7c2d6;}.cls-30{stroke:#a7c2d6;stroke-linejoin:round;}.cls-30,.cls-31{stroke-width:0.5px;}.cls-31{stroke:#88bcb4;}.cls-32{fill:#6ba199;}.cls-33{fill:#68889a;}.cls-34{fill:#5d8881;}.cls-35{fill:#1a293b;}.cls-36{fill:#214566;}.cls-37{fill:#404041;}.cls-38{fill:#549aa3;}.cls-39{fill:#18283a;}.cls-40{fill:#18293b;}.cls-41{fill:#f2d6c4;}.cls-42{fill:#d05771;}.cls-43{fill:#f5dac8;}.cls-44{fill:#d4728b;}.cls-45{fill:#4c949d;}.cls-46{fill:#8c2826;}.cls-47{fill:#c31921;}.cls-48{fill:#97191e;}.cls-49{fill:#5a6598;}.cls-50{fill:#7183b1;}.cls-51{fill:#e6ebf7;}.cls-52{fill:#c3cdea;}.cls-53{fill:#c2cce9;}.cls-54{fill:#98a8d0;}.cls-55{fill:#7477b6;}.cls-56{fill:#5969ae;}.cls-57{fill:#48519d;}.cls-58{fill:#ecedf3;}.cls-59{fill:#ececf2;}.cls-60{fill:#919bcb;}.cls-61{fill:#8f99c9;}.cls-62{fill:#feffff;}</style><clipPath id="clip-path"><path class="cls-1" d="M261.23,60.18c0,.44,5.45.78,5.49,1.27.63,10.07,2,30.05-2.54,37.17-2.13,3.35-11.87,2.4-16.89,2.53-.81,0-2-5.13-2.53-4.71a48.14,48.14,0,1,1,16.47-36.26Z"/></clipPath><linearGradient id="Degradado_sin_nombre_13" x1="171.61" y1="74.97" x2="221.53" y2="74.97" gradientUnits="userSpaceOnUse"><stop offset="0" stop-color="#e8e8e6"/><stop offset="1" stop-color="#7f7a7a"/></linearGradient></defs><rect class="cls-2" x="252.54" y="12.39" width="2.3" height="7.47" rx="0.98"/><rect class="cls-2" x="252.54" y="12.39" width="2.3" height="7.47" rx="0.98" transform="translate(269.82 -237.56) rotate(90)"/><circle class="cls-3" cx="72.42" cy="60.18" r="48.15"/><rect class="cls-4" x="103.64" y="36.06" width="3.65" height="11.87" rx="1.55"/><rect class="cls-4" x="103.64" y="36.06" width="3.65" height="11.87" rx="1.55" transform="translate(147.46 -63.46) rotate(90)"/><rect class="cls-2" x="119" y="30.49" width="1.91" height="6.21" rx="0.81"/><rect class="cls-2" x="119" y="30.49" width="1.91" height="6.21" rx="0.81" transform="matrix(0, 1, -1, 0, 153.54, -86.36)"/><path class="cls-5" d="M183,18.28a53.22,53.22,0,1,1,30.9,96.54c-29.39,0-46.61-19.83-54.48-48.15C157.33,59.07,158,41,143,41c-13,0-17.46,11.15-18.21,20-2.53,30-23.64,52.79-52.79,52.79A52.8,52.8,0,0,1,29.86,29.21"/><circle class="cls-6" cx="33.56" cy="22.38" r="14.57"/><circle class="cls-7" cx="33.56" cy="22.38" r="12.22"/><path class="cls-4" d="M37.41,15.59,35,29.22h-2.8l1.92-10.77L30.8,19.9l-.4-2.32,4.73-2Z"/><circle class="cls-3" cx="214.67" cy="60.18" r="48.15"/><circle class="cls-6" cx="174.65" cy="22.17" r="14.78"/><circle class="cls-7" cx="174.65" cy="22.17" r="12.4"/><path class="cls-4" d="M168.77,28a9.85,9.85,0,0,1,.92-2.88,5.28,5.28,0,0,1,1.66-1.83,15.43,15.43,0,0,1,3-1.53c.76-.3,1.35-.56,1.78-.78a3.43,3.43,0,0,0,1-.77,1.61,1.61,0,0,0,.4-1.09,1.33,1.33,0,0,0-.59-1.17,2.7,2.7,0,0,0-1.58-.4,9.84,9.84,0,0,0-1.94.23,13.07,13.07,0,0,0-2.09.63l0-2.4a13.49,13.49,0,0,1,4.91-1,4.89,4.89,0,0,1,3.17,1,3.3,3.3,0,0,1,1.18,2.7A4.55,4.55,0,0,1,180,21a4.62,4.62,0,0,1-1.53,1.59A18.74,18.74,0,0,1,175.67,24l-.52.23c-.77.34-1.34.6-1.69.77a3.57,3.57,0,0,0-.88.6,1.48,1.48,0,0,0-.45.77l0,.19h7.46l-1.14,2.51h-9.82Z"/><circle class="cls-3" cx="23.43" cy="84.26" r="19.43"/><circle class="cls-3" cx="120.57" cy="98.62" r="19.01"/><g class="cls-8"><path class="cls-9" d="M176.47,41.6h40.27a4.86,4.86,0,0,1,4.86,4.86v26a0,0,0,0,1,0,0h-50a0,0,0,0,1,0,0v-26A4.86,4.86,0,0,1,176.47,41.6Z"/><polyline class="cls-10" points="193.39 75.81 192.9 84.68 201.29 84.68 200.83 76.3"/><path class="cls-11" d="M171.61,72.43h49.92a0,0,0,0,1,0,0V77.5a0,0,0,0,1,0,0h-46.8a3.11,3.11,0,0,1-3.11-3.11v-2A0,0,0,0,1,171.61,72.43Z"/><circle class="cls-12" cx="196.57" cy="74.97" r="1.27"/><rect class="cls-13" x="192.38" y="84.26" width="9.29" height="0.84" rx="0.36"/><rect class="cls-14" x="173.8" y="44.56" width="46.46" height="27.03"/><path class="cls-15" d="M189.15,66.78a.47.47,0,0,1-.62.17,22.8,22.8,0,0,1-3.35-1.4,1.24,1.24,0,0,1-.73-1.22c0-.83,0-1.66,0-2.49a1.13,1.13,0,0,1,.86-1.21c.71-.28.8-.74.77-1.46-.05-.93-.25-1.56-1.21-1.84-.3-.08-.42-.47-.42-.81,0-.92,0-1.83,0-2.74a1.19,1.19,0,0,1,.7-1.1,23.23,23.23,0,0,1,7.62-2.41,41.3,41.3,0,0,1,8.61-.09c.87.07,1.73.27,2.6.42a.43.43,0,0,1,.41.48c-.08.48-.44.46-.77.4-.72-.13-1.43-.27-2.15-.35a35.39,35.39,0,0,0-6.67-.1h-.4a20.71,20.71,0,0,0-4.35.73,26.6,26.6,0,0,0-4.05,1.5.89.89,0,0,0-.6.94c0,.64,0,1.28,0,1.92a.86.86,0,0,0,.07.45c.05.07.11.14.21.12a.15.15,0,0,0,.12-.14,1.28,1.28,0,0,1,.76-1.16,3,3,0,0,1,2-.2,1.25,1.25,0,0,0,.93-.1,3.34,3.34,0,0,1,2.89-.25.8.8,0,0,0,.72-.06,4,4,0,0,1,3.76-.25,1.31,1.31,0,0,0,1.11,0,4,4,0,0,1,3.75.23.75.75,0,0,0,.68.08,3.49,3.49,0,0,1,3,.25,1.16,1.16,0,0,0,.88.09,3,3,0,0,1,2,.18,1.19,1.19,0,0,1,.79,1c0,.12,0,.31.2.28s.2-.16.22-.31,0-.47,0-.71c0-.5,0-1,0-1.51a.82.82,0,0,0-.55-.87A31.26,31.26,0,0,0,206,52.1a2.75,2.75,0,0,1-.62-.24c-.2-.13-.4-.28-.21-.56a.55.55,0,0,1,.71-.2,25,25,0,0,1,3.83,1.56,1.28,1.28,0,0,1,.74,1.23c0,.76,0,1.52,0,2.28s-.19,1.22-1.05,1.49c-.4.12-.54.3-.5.7a2,2,0,0,1-.15,1.09c-.13.26.28,1,.56,1.07,1,.37,1.14.59,1.14,1.64,0,.71,0,1.42,0,2.13a1.29,1.29,0,0,1-.75,1.27,23.24,23.24,0,0,1-8.54,2.49,45.45,45.45,0,0,1-7.65,0,21.72,21.72,0,0,1-3.09-.54c-.3-.07-.49-.21-.49-.54s.46-.38.77-.33c.7.1,1.38.31,2.08.37a36.76,36.76,0,0,0,7.34.2,23.18,23.18,0,0,0,7.53-1.71c.43-.17.83-.38,1.26-.55a.82.82,0,0,0,.58-.9c0-.31,0-.61,0-.92s0-.88,0-1.31c0-.14-.08-.29-.24-.28s-.15.15-.16.27c-.18,1.37-.71,1.83-2.11,1.82a2.09,2.09,0,0,1-.56,0c-.22,0-.36,0-.41.24a1.1,1.1,0,0,1-.64.74,3.33,3.33,0,0,1-2.41.36c-.36-.1-.61-.09-.73.33a1.06,1.06,0,0,1-.61.58,3.8,3.8,0,0,1-3.38.24,1.71,1.71,0,0,0-1.54,0,3.72,3.72,0,0,1-3.19-.12,1.5,1.5,0,0,1-.9-.84c-.1-.29-.3-.26-.54-.2a3.42,3.42,0,0,1-2.41-.28,1.24,1.24,0,0,1-.76-.83c-.06-.26-.22-.24-.42-.21a3.15,3.15,0,0,1-1.84-.21,1.2,1.2,0,0,1-.81-1.17c0-.11,0-.21,0-.31s0-.35-.19-.34-.22.19-.23.35c0,.81,0,1.62,0,2.43,0,.37.3.51.58.63.87.39,1.74.77,2.63,1.08C189,66.15,189.34,66.28,189.15,66.78Z"/><path class="cls-16" d="M194.3,50.89a33.79,33.79,0,0,1,9.47.47c.28.06.51,0,.62-.28l.8.22c0,.4.27.49.57.58a25.64,25.64,0,0,1,3.37,1.33.85.85,0,0,1,.57.93c0,.51,0,1,0,1.52-.14,0-.22-.06-.3-.14a3.13,3.13,0,0,0-2.88-.91,2.18,2.18,0,0,1-1.13-.15,3.8,3.8,0,0,0-2.77-.21,1,1,0,0,1-.78-.08,4.74,4.74,0,0,0-3.93-.17,1.07,1.07,0,0,1-.84,0,4.9,4.9,0,0,0-3.23-.11c-.55.17-.69,0-.61-.52a5.81,5.81,0,0,1,.71-2.1A.89.89,0,0,1,194.3,50.89Z"/><path class="cls-17" d="M192.78,67.13a10.7,10.7,0,0,1-2-.36c-.31-.07-.6-.13-.81.19l-.8-.18c.06-.33-.12-.48-.42-.58a24.22,24.22,0,0,1-3-1.24.73.73,0,0,1-.47-.75c0-.76,0-1.52,0-2.28,0-.2,0-.43.21-.53s.34-.16.47-.12.07.26.07.4c0,1.31.51,1.79,1.84,1.8a2.8,2.8,0,0,0,1.14-.2,2.07,2.07,0,0,0,2.46,1.57,4,4,0,0,0,1.18-.28,2.71,2.71,0,0,0,3,1.62c.65-.09,1.23-.52,1.82-.54s1.16.47,1.81.53a4,4,0,0,0,2.56-.63c.35-.22.39-.61.45-1a3.5,3.5,0,0,0,2.64.06c.61-.24,1.13-.52,1-1.35a3.06,3.06,0,0,0,2.36-.05,1,1,0,0,0,.68-1.06c0-.3,0-.6,0-.92.54.06.83.26.76.81,0,.34,0,.68,0,1a2.31,2.31,0,0,1-2.1,1.33,2.39,2.39,0,0,0-1.34.56,4,4,0,0,1-2.84.86.89.89,0,0,0-.7.2,4.47,4.47,0,0,1-4.6.87,1.71,1.71,0,0,0-1.22,0,4.53,4.53,0,0,1-3.69-.21,3.86,3.86,0,0,0-.41-.2h-.08C192.63,66.7,192.9,66.9,192.78,67.13Z"/><path class="cls-17" d="M194.3,50.89a6.23,6.23,0,0,0-1,2.62c0,.31.06.4.36.29a4.68,4.68,0,0,1,3.6.13.5.5,0,0,0,.43,0,4.8,4.8,0,0,1,4.29.18.5.5,0,0,0,.43.06,4.07,4.07,0,0,1,3.24.25,1,1,0,0,0,.63.09,3.23,3.23,0,0,1,3.39,1.16c0,.15,0,.3,0,.45,0,.68,0,.7-.72.85a.4.4,0,0,1,0-.15c.15-1-.37-1.31-1.51-1.55a1.36,1.36,0,0,0-.75,0A2,2,0,0,1,204.9,55a3.05,3.05,0,0,0-2.51,0c-.16.07-.29.16-.5,0a3.82,3.82,0,0,0-4.08-.26.71.71,0,0,1-.73,0,3.85,3.85,0,0,0-4,.26.43.43,0,0,1-.46,0,3.3,3.3,0,0,0-3.27.31.49.49,0,0,1-.51,0,2.91,2.91,0,0,0-2.17.13,1,1,0,0,0-.67,1c0,.14.15.45-.15.42s-.57-.09-.58-.46,0-.6,0-.91a9.35,9.35,0,0,0,0-1.06,1.25,1.25,0,0,1,.91-1.49,25.19,25.19,0,0,1,7.92-2.15A2,2,0,0,1,194.3,50.89Z"/><path class="cls-18" d="M197.06,57.74c0,.52,0,1,0,1.57s-.1.58-.52.63a9.29,9.29,0,0,1-2.58,0c-.35,0-.5-.19-.5-.55q0-1.72,0-3.45a.47.47,0,0,1,.3-.47,3.29,3.29,0,0,1,3,0,.47.47,0,0,1,.32.5C197.05,56.55,197.06,57.14,197.06,57.74Z"/><path class="cls-18" d="M201.44,57.7c0,.57,0,1.15,0,1.72a.44.44,0,0,1-.43.51,8.93,8.93,0,0,1-2.73,0,.43.43,0,0,1-.43-.5q0-1.76,0-3.51a.43.43,0,0,1,.31-.45,3.27,3.27,0,0,1,3,0,.48.48,0,0,1,.31.51C201.42,56.55,201.44,57.12,201.44,57.7Z"/><path class="cls-18" d="M193.48,63c0-.52,0-1.05,0-1.57a.44.44,0,0,1,.43-.51,8.62,8.62,0,0,1,2.73,0,.46.46,0,0,1,.43.52c0,1,0,2.1,0,3.15a.42.42,0,0,1-.27.43,3.24,3.24,0,0,1-3.07,0,.4.4,0,0,1-.25-.43C193.49,64.07,193.48,63.55,193.48,63Z"/><path class="cls-18" d="M201.44,63.07c0,.49,0,1,0,1.47a.49.49,0,0,1-.34.54,3.28,3.28,0,0,1-2.93,0,.48.48,0,0,1-.32-.51q0-1.55,0-3.09c0-.35.15-.48.47-.53a8.6,8.6,0,0,1,2.68,0,.45.45,0,0,1,.44.51C201.43,62,201.44,62.53,201.44,63.07Z"/><path class="cls-19" d="M192.78,67.13a2.84,2.84,0,0,1-.37-1c.4.2.76.4,1.13.55a4.45,4.45,0,0,0,3.54,0,.86.86,0,0,1,.72,0,4.32,4.32,0,0,0,4.3-.34,2.73,2.73,0,0,1,1.82-.63,2.71,2.71,0,0,0,2-.65,3.11,3.11,0,0,1,2-.82,2.57,2.57,0,0,0,1.78-1.13.32.32,0,0,1,0,.09c0,1.89.3,1.44-1.36,2.2a22.71,22.71,0,0,1-9.07,2.06,41.31,41.31,0,0,1-6-.18Z"/><path class="cls-20" d="M192.69,57.67c0,.48,0,.95,0,1.42,0,.28-.1.39-.37.43a7.18,7.18,0,0,1-2.17,0c-.27,0-.39-.16-.39-.43,0-.94,0-1.89,0-2.84a.4.4,0,0,1,.28-.42,2.67,2.67,0,0,1,1.57-.26c.94.13,1.08.3,1.08,1.24Z"/><path class="cls-20" d="M205.15,57.67c0,.46,0,.92,0,1.37,0,.28-.09.44-.4.48a7.18,7.18,0,0,1-2.17,0c-.27,0-.37-.15-.37-.43,0-.94,0-1.89,0-2.84a.42.42,0,0,1,.32-.44,2.82,2.82,0,0,1,1.37-.26c1,.07,1.24.34,1.24,1.31Z"/><path class="cls-21" d="M189.76,62.11c0-.39,0-.78,0-1.17s.1-.45.39-.48a7.89,7.89,0,0,1,2.17,0,.36.36,0,0,1,.37.43q0,1.24,0,2.49c0,.25-.11.34-.31.44a2.63,2.63,0,0,1-2.29,0,.46.46,0,0,1-.33-.5C189.78,62.92,189.76,62.51,189.76,62.11Z"/><path class="cls-21" d="M202.23,62.16c0-.41,0-.82,0-1.22s.09-.45.38-.48a7.89,7.89,0,0,1,2.17,0,.38.38,0,0,1,.39.43q0,1.24,0,2.49a.4.4,0,0,1-.24.4,2.71,2.71,0,0,1-2.48,0,.39.39,0,0,1-.22-.41C202.23,63,202.23,62.56,202.23,62.16Z"/><path class="cls-22" d="M189,57.65c0,.36,0,.71,0,1.07a.32.32,0,0,1-.35.38h-.16c-1.73.14-1.73.14-1.73-1.58V57c0-.82.08-.92.91-1l.26,0c.87,0,1.06.24,1.06,1.1Z"/><path class="cls-22" d="M208.14,57.68c0,.3,0,.61,0,.91s-.09.53-.46.52h-1.37c-.29,0-.42-.11-.41-.43,0-.69,0-1.38,0-2.07a.38.38,0,0,1,.27-.42,2.49,2.49,0,0,1,.89-.19c.88,0,1.08.23,1.08,1.08Z"/><path class="cls-22" d="M186.78,61.22v-.46c0-.79,0-.79.78-.83,1.45-.08,1.45-.08,1.45,1.35v.46c0,.77,0,.83-.83.95l-.3,0c-.89,0-1.1-.21-1.1-1.1Z"/><path class="cls-22" d="M208.14,61.25v.4c0,.86-.13,1-1,1.06a2.51,2.51,0,0,1-.61-.05c-.44-.08-.73-.26-.66-.8a10.3,10.3,0,0,0,0-1.47c0-.25.06-.39.32-.4s.34-.06.5-.06C208.14,59.86,208.14,59.86,208.14,61.25Z"/><path class="cls-23" d="M217.87,57.86s-1.52-.63-1.68,2.32A3.73,3.73,0,0,0,218.57,64,4.18,4.18,0,0,0,222,68.88c0,.17.81.17.81.17v5.07h7.1c-.34,0,0-4.34,0-4.34A8.41,8.41,0,0,0,234.62,64a6.47,6.47,0,0,0,1.69-4.23c0-2.53-2.05-1.9-2.05-1.9s1.2-4.86-1.33-5.7-13.52,0-13.52,0-1.41,3.8-.7,5.7"/><path class="cls-24" d="M217.3,53.43s-.84,4.22,1.69,5.06c0,0-.84-5.91.85-7.6s-.31,0-.16,0h3.53a4.23,4.23,0,0,0,4.23,2.54A2.48,2.48,0,0,0,230,50.89a5.88,5.88,0,0,1,3.38,7.6s2.53-.84,2.53-2.53a12.06,12.06,0,0,0-1.68-5.07c-.85-1.69-11-1.69-11-1.69l-5.49,1.27"/><path class="cls-25" d="M217.24,53.85s.84-2.44,9.53-2.07,8.69,2.07,8.69,2.07l.69-7.6a3.73,3.73,0,0,0-1.73-3.51,12.18,12.18,0,0,0-6.56-1.56c-5.13,0-7.82.49-9.93,1.83a3.68,3.68,0,0,0-1.63,3.59Z"/><path class="cls-26" d="M220.22,56.67a6.52,6.52,0,0,1,2.23-.79,2.17,2.17,0,0,1,1.26,0,1.32,1.32,0,0,1,.86,1l-.06,0a3.27,3.27,0,0,0-1-.29,9.42,9.42,0,0,0-1-.17,9.55,9.55,0,0,0-2.23.26Z"/><path class="cls-26" d="M232.92,56.42a9.36,9.36,0,0,0-2.25.07,10.26,10.26,0,0,0-1,.32,3.39,3.39,0,0,0-.95.43l-.07,0a1.34,1.34,0,0,1,.71-1.08,2.19,2.19,0,0,1,1.24-.23,6.43,6.43,0,0,1,2.32.45Z"/><path class="cls-27" d="M221,57.59a5.42,5.42,0,0,1,4.52.34s-.29.92-2,1S220.86,58.71,221,57.59Z"/><circle class="cls-28" cx="223.04" cy="58.04" r="0.79"/><path class="cls-27" d="M233.06,57.59a5.42,5.42,0,0,0-4.52.34s.29.92,2,1S233.15,58.71,233.06,57.59Z"/><circle class="cls-28" cx="230.97" cy="58.04" r="0.79"/><path class="cls-29" d="M233.35,66.1c0,1.11.24,2-.42,3-1.69,2.54-4.37,2.11-6.76,2.11-2.16,0-4.6-.2-5.91-1.26C219.15,69,219,67.37,219,66.1c0-2.8,3.22-5.07,7.18-5.07S233.35,63.3,233.35,66.1Z"/><path class="cls-29" d="M220.68,63.56l4.54-4.26a1.93,1.93,0,0,1,2.62,0l4.67,4.27"/><line class="cls-30" x1="230.82" y1="62.72" x2="234.26" y2="57.86"/><line class="cls-30" x1="218.15" y1="57.65" x2="222.13" y2="62.72"/><path class="cls-31" d="M231.27,61h-.34c-.77,0-1.51-1.11-2.11-1.59l-1-.81a2,2,0,0,0-2.44,0l-1.07.84c-.59.47-1.33,1.57-2.08,1.57h-1.15a2.92,2.92,0,0,1-2.92-2.92V56.59a1.47,1.47,0,0,1,1.47-1.47h13.1a1.48,1.48,0,0,1,1.48,1.47v1.52A2.93,2.93,0,0,1,231.27,61Z"/><path class="cls-32" d="M208.91,81.58s-6,3.94-6,14.93v12.3l9.29,1.21L215,83"/><path class="cls-25" d="M257.42,74.12V70.65c0-.75-1.68-1.6-1.68-5A1.65,1.65,0,0,1,257.42,64V57.66a1,1,0,0,1,1-1h0a1,1,0,0,1,1,1V63s2.14-1.63,3.47-.29c.43.42,1.27-.42,1.27,1.27a1.73,1.73,0,0,1,1.69,2.53L265,68.21a6.59,6.59,0,0,1-1.69,4.22L262.49,75"/><path class="cls-32" d="M242.64,79.61s8.45,5.07,11,8.45c0,0,.85-12.67,3.38-15.21l6.76.85s1.69,13.51-.85,19.43-4.22,6.75-10.13,5.91-11-6.76-11-6.76"/><path class="cls-25" d="M207.84,82.5a14.92,14.92,0,0,1,4.39,10.63v16.54L235,105.8,243.49,99l.84-17.74s-2.53-3.38-5.07-4.22-5.91-2.16-5.91-2.16.85-3.76-3.37-3.76l-.24,1.69a16,16,0,0,1-7,0V71s-2.95.18-2.95,1.87v2.54S213.92,74.54,207.84,82.5Z"/><path class="cls-33" d="M220.68,63.81a5,5,0,0,0,0,5.74S219.41,66.18,220.68,63.81Z"/><path class="cls-33" d="M232.41,63.81a5,5,0,0,1,0,5.74S233.68,66.18,232.41,63.81Z"/><path class="cls-34" d="M258.36,59.43l.13,0h.66c.05,0,0,0,0,0l.14,0a.22.22,0,0,0,.27-.16.21.21,0,0,0-.15-.27,3,3,0,0,0-1.19,0,.24.24,0,0,0-.16.28.24.24,0,0,0,.28.16Z"/><path class="cls-34" d="M257.51,63.79a1.93,1.93,0,0,1,1.81,0,3.83,3.83,0,0,1,1,1.34,9.59,9.59,0,0,1,.47.9c.08.19.33.62.19.82s-.22.11-.32.12a2,2,0,0,1-.42,0,2.89,2.89,0,0,1-.83-.08,1.47,1.47,0,0,1-.74-.48c-.22-.27-.37-.58-.6-.84s-.51.1-.31.32.39.61.63.88a1.91,1.91,0,0,0,.83.53,3,3,0,0,0,1,.12,1.84,1.84,0,0,0,1-.19.75.75,0,0,0,.22-.87,5.73,5.73,0,0,0-.45-1,6.23,6.23,0,0,0-1.21-1.78,2.24,2.24,0,0,0-2.36-.23c-.27.1-.16.54.11.43Z"/><path class="cls-34" d="M257.86,65.9a9.46,9.46,0,0,0,1,1.84c.42.5,1.06.55,1.61.85a.79.79,0,0,1,.49.81,2.15,2.15,0,0,1-.4.93c-.38.53-1,.88-1,1.61a.23.23,0,0,0,.45,0c0-.42.33-.69.6-1a2.89,2.89,0,0,0,.57-.81,1.41,1.41,0,0,0-.09-1.67c-.45-.46-1.11-.48-1.63-.82a2.23,2.23,0,0,1-.65-.86l-.59-1.14c-.13-.26-.52,0-.38.23Z"/><path class="cls-34" d="M261.14,71a2.13,2.13,0,0,0,2.24,1.63.24.24,0,0,0,.23-.22.23.23,0,0,0-.23-.23,1.9,1.9,0,0,1-1.22-.35,1.57,1.57,0,0,1-.59-1,.22.22,0,0,0-.27-.16.23.23,0,0,0-.16.28Z"/><path class="cls-34" d="M262.14,63.88a2.89,2.89,0,0,1-.2,1.92,4.5,4.5,0,0,1-.56.81,1.15,1.15,0,0,0-.31.82,1,1,0,0,0,1.4.8,2.42,2.42,0,0,0,1.35-1.37,6.37,6.37,0,0,0,.52-2.23c0-.29-.43-.29-.45,0a6.48,6.48,0,0,1-.35,1.74,2.45,2.45,0,0,1-1,1.36.76.76,0,0,1-.81,0,.49.49,0,0,1-.07-.7c.15-.23.35-.42.5-.65a3.49,3.49,0,0,0,.35-.73,3.35,3.35,0,0,0,.08-1.88.22.22,0,0,0-.43.12Z"/><path class="cls-34" d="M263.07,67.37a.92.92,0,0,0,.05,1,1.11,1.11,0,0,0,1,.41c.9-.1,1.4-1,1.81-1.67a.22.22,0,0,0-.39-.22c-.31.52-.66,1.22-1.29,1.41a.77.77,0,0,1-.75-.13.47.47,0,0,1-.08-.6c.15-.24-.24-.46-.39-.22Z"/><path class="cls-34" d="M260.07,63l0,0s0,0,0,0l0,.06a.75.75,0,0,0,.07.12s0,0,0,0,0,0,0,0,0,0,0,.06,0,.1,0,.15v0s0,0,0,0a.2.2,0,0,0,0,.07.66.66,0,0,1,0,.14v0s0,.05,0,0,0,0,0,0v0a.74.74,0,0,1,0,.14.23.23,0,0,0,.16.28.23.23,0,0,0,.27-.16,1.4,1.4,0,0,0-.26-1.36.22.22,0,0,0-.32,0,.22.22,0,0,0,0,.31Z"/><path class="cls-34" d="M258.34,61.72h.21a1,1,0,0,1,.25,0l.24,0h.08l.13,0a.24.24,0,0,0,.28-.16.23.23,0,0,0-.16-.28,3.41,3.41,0,0,0-1.15,0,.2.2,0,0,0-.13.11.24.24,0,0,0,0,.17.25.25,0,0,0,.28.16Z"/><path class="cls-34" d="M259.79,63.18h0s0,0,0,0l.06,0,.06,0s0,0,0,0h0a.28.28,0,0,1,.13,0s0,0,0,0h.11a.23.23,0,0,0,.23-.22.24.24,0,0,0-.23-.23,1.45,1.45,0,0,0-1,.45.22.22,0,0,0,0,.32.22.22,0,0,0,.31,0l.09-.07,0,0s0,0,0,0,0,0,0,0l0,0,.18-.12.1,0h.23V62.6a1,1,0,0,0-.69.26.22.22,0,0,0,0,.32.22.22,0,0,0,.31,0Z"/><path class="cls-34" d="M261.27,62.61l.07,0h0s.07,0,.09,0h0s0,0,0,0l.15,0s0,0,0,0h0l.07,0,.07.05,0,0h0a.63.63,0,0,1,.12.1l.23.25a.22.22,0,0,0,.32,0,.22.22,0,0,0,0-.31,1.85,1.85,0,0,0-.57-.51,1,1,0,0,0-.79-.09.23.23,0,1,0,.12.44Z"/><path class="cls-34" d="M263.29,63.18h.28l.08,0h0l0,0h0s0,0,0,0l.05,0s0,0,0,0v0s0,0,0,0,0,0,0,0,0,0,0,0,0,.06,0,.08,0,0,0,0v.07a1.22,1.22,0,0,0,.1.45.24.24,0,0,0,.31.08.24.24,0,0,0,.08-.31s0,0,0,0v0l0,0a.06.06,0,0,0,0,0h0a1.36,1.36,0,0,0,0-.2.79.79,0,0,0-.19-.46.93.93,0,0,0-.78-.23.23.23,0,1,0,0,.45Z"/><path class="cls-34" d="M265.55,64.92l.06.06h0l0,0a.54.54,0,0,1,.07.13v0l0,.08s0,0,0,.06,0,.1,0,0a1.89,1.89,0,0,1-.06.67.23.23,0,0,0,.15.28.24.24,0,0,0,.28-.16,1.58,1.58,0,0,0-.26-1.54.23.23,0,0,0-.32.32Z"/></g><path class="cls-35" d="M75.61,92.4H56.81a1.69,1.69,0,0,1-1.68-1.69h0A1.68,1.68,0,0,1,56.7,89l18.8-1.22a1.69,1.69,0,0,1,1.79,1.69v1.21A1.69,1.69,0,0,1,75.61,92.4Z"/><polyline class="cls-35" points="63.71 81.06 72.39 85.55 78.02 81.06 70.86 77.09"/><path class="cls-4" d="M69.33,92.7H97.82s-2-6.94-6-8.68-9-4.19-13.08-3.88-8.17,3.27-9,6.74A16,16,0,0,0,69.33,92.7Z"/><polyline class="cls-35" points="54.01 67.09 55.58 74.36 57.27 72.99 55.64 65.36"/><path class="cls-36" d="M56.56,72.17l1.73-3.68s.51-2.35,4.4-2.45,20.83-.67,20.83-.67l15.23,3.74a2.73,2.73,0,0,1,1,1.73c0,.92-.22,1.33-1.39,1.33s-12.56-2.6-14.09-2.71a19.06,19.06,0,0,0-4.49.72L57,74.06"/><path class="cls-37" d="M94,67.12s.59.94,1,1.06,1.72,1.21,3,0,1.16-2,2.42-2.81a10.87,10.87,0,0,0,2.49-3.11.82.82,0,0,0-1.36,0,10.27,10.27,0,0,1-3.74,2.25,10.55,10.55,0,0,1-3.27.61"/><path class="cls-38" d="M58.29,62.26a3,3,0,0,0,2.08,3.11c2.32.67,8.55.26,11.61-.45s6.85-1.43,6.85-1.43l14.73,4.34,1.71-3.12L81,58.6a9.53,9.53,0,0,0-5.46.24c-3,1-.31,0-.31,0s-9.19.31-10,.2a32.18,32.18,0,0,1-4-1.43"/><path class="cls-39" d="M64.93,62.87s-.92-.22-1.22,1-1.84,8-1.84,8l1.53-.3,2.45-9a10,10,0,0,1,3.78-1.23c1.84-.1,8.07-.51,8.07-.51s-.1-1.12-3.16-1c-2.78.09-7.13.18-9.38.73a1,1,0,0,0-.72,1.23.9.9,0,0,0,.9.59Z"/><path class="cls-4" d="M58.39,72.17A2.73,2.73,0,0,0,55.74,74,40.72,40.72,0,0,0,54.1,78.5a3.2,3.2,0,0,0,.64,2.82,15.82,15.82,0,0,0,3.14,2.5s1,.81,3.37-.51c1.73-1,12.54-6.28,18.13-9a3.41,3.41,0,0,0,1.43-4.81h0a3.4,3.4,0,0,0-3.68-1.58Z"/><path class="cls-36" d="M33.77,47.35s-1.22-1.84,1.64-1.64a40.66,40.66,0,0,1,6.74,4.5c2.66,2.35,2.76,3.67,2.76,3.67s2.86-.61,4.6.72,8.07,6.33,8.07,6.33a5.64,5.64,0,0,1-1.74,5.36H54l-3.28-1.68"/><path class="cls-4" d="M41.33,55.31A1.77,1.77,0,0,0,42.05,57c.92.82,5.11,5.31,7.87,7.56s3.67,3.37,4.49,2.86,1.53-1,.92-2.66-4.94-6.84-13.19-9.4a1,1,0,0,0,0-1.43c-.71-.81-7.66-6.33-8.07-6.74s-1-.41-.82.41,2.86,4,3.78,4.9S39.5,55.62,41.33,55.31Z"/><path class="cls-40" d="M65.09,58.6h-2V21.71a3.65,3.65,0,0,1,4.07-3.33H81.73l.15.05a2.28,2.28,0,0,1,1.64,1.46,2.92,2.92,0,0,1-.55,2.4l-.09.12-9.21,6.52-1.13-1.58L81.49,21a.94.94,0,0,0,.18-.53.72.72,0,0,0-.25-.16H67.09a2.62,2.62,0,0,0-1,.17,1.49,1.49,0,0,0-1,1.36Z"/><path class="cls-4" d="M77.42,37.34l-4.4,2-4-8.81,4.4-2a4.85,4.85,0,0,1,6.42,2.39h0A4.84,4.84,0,0,1,77.42,37.34Z"/><path class="cls-41" d="M42.8,50.81s1.58,0,1.59,0l.62.93s4.7-2.15,6-4.19a26.43,26.43,0,0,1-2.45-2.35A2.11,2.11,0,0,0,49.92,44a12.24,12.24,0,0,1-2.46-.71,6.79,6.79,0,0,1-1.85-2,3.37,3.37,0,0,0-2.13-.57,42.41,42.41,0,0,0-3.68,2.75v3"/><path class="cls-37" d="M37.77,46.87s-.93-2.9.6-4.94a6.89,6.89,0,0,1,5.42-2.35c.61.21,1.12.82.3,1.43S42,42.34,42.36,43.36s1.24,2,1,2.34-.57.11-1.08.22a1,1,0,0,0-.51,1.63c.72.82,1.53,1.12,2.15.2,0,0,.49-.1.24.57s-.86,2.29-1.77,2.4"/><path class="cls-42" d="M45,51.74l1.48,2.71,10.78,8.08a3.47,3.47,0,0,0,3.53-5.12c-.52-1.23-3.16-5.55-5.88-6.69a12.88,12.88,0,0,0-6.07-1.15"/><path class="cls-43" d="M68.32,59l3.46-.83,4,1.23s.35.4-.44.4-6.75,0-6.75,0"/><path class="cls-44" d="M49.51,52.56s.61-1.33,2.14-.41,7.54,5.46,7.54,5.46l9.22,1.18s1,1.07.7,1.25c-.19,0-11.53.89-11.53.89l-8.46-6.59A2.23,2.23,0,0,1,49.51,52.56Z"/><path class="cls-45" d="M24.27,73.28l-3.48.32A2.43,2.43,0,0,0,19,75.23L14.37,89.59l-2.32,3.3a2.27,2.27,0,0,0,1,3.41l8.1,3.31a2.27,2.27,0,0,0,3.11-1.83l.56-4.48,6.69-13.12a2.43,2.43,0,0,0-.12-2.43l-2.05-1.94"/><path class="cls-46" d="M20.21,76.46,15.25,91a.52.52,0,0,0,.29.65l6.79,2.81a.54.54,0,0,0,.67-.25l6.74-13.51a.53.53,0,0,0-.25-.71l-8.57-3.86A.52.52,0,0,0,20.21,76.46Z"/><path class="cls-47" d="M19.85,77.51c-.14.23,5.32,4.4,9.64,2.5l-8.57-3.86a.48.48,0,0,0-.71.31C20,77,19.85,77.51,19.85,77.51Z"/><path class="cls-46" d="M25.26,68.42h5.59a.2.2,0,0,1,.2.2v6a.52.52,0,0,1-.52.52H25.58a.52.52,0,0,1-.52-.52v-6A.2.2,0,0,1,25.26,68.42Z" transform="translate(31.98 -5.18) rotate(24.26)"/><path class="cls-48" d="M108.94,84.54a2,2,0,0,1,1.73.32,2.08,2.08,0,0,1,.59,1.18,1.48,1.48,0,0,0,.78,1.08,22.1,22.1,0,0,1,5.13,4.32c3.77,3.79,7.57,7.55,11.32,11.36a21.2,21.2,0,0,1,1.88,2.69.27.27,0,0,1,0,.19c-.32.86.44,1.43.59,2.16.05.19.23.16.38.15s.53,0,.8,0a.82.82,0,0,1,.78.82.79.79,0,0,1-.78.75c-.38,0-.77.06-1.15.07a1.41,1.41,0,0,1-1.54-1.09,2.69,2.69,0,0,0-1.52-1.94,14.85,14.85,0,0,1-3.34-2.73c-4.18-4.21-8.39-8.39-12.56-12.6a19.72,19.72,0,0,1-1.85-2.66.27.27,0,0,1,0-.19c.3-.85-.43-1.43-.59-2.15,0-.2-.21-.18-.37-.17s-.6.05-.9,0a.79.79,0,0,1-.81-.77.8.8,0,0,1,.81-.79C108.57,84.53,108.82,84.54,108.94,84.54Z"/><path class="cls-49" d="M126.81,101.9c.34.33.66.66,1,1,.19.18.13.29,0,.44-.4.39-.81.78-1.19,1.2-.2.21-.32.2-.51,0-.79-.81-1.6-1.61-2.4-2.41L112.93,91.35c-.3-.29-.33-.45,0-.73a11.56,11.56,0,0,0,1-1.05c.22-.24.35-.21.55,0s.6.63.9.94c-.15.29-.46.42-.66.67a.65.65,0,0,0,0,1c.1.12.23.24.34.35l9.69,9.7c.12.11.24.24.36.34a.65.65,0,0,0,1,0C126.39,102.36,126.51,102,126.81,101.9Z"/><path class="cls-50" d="M126.81,101.9a1.34,1.34,0,0,1-.17.31c-.61.66-.93,1.11-1.87.16-3.21-3.26-6.46-6.48-9.69-9.71-1-1-.88-1.47.35-2.14l.93.89a.85.85,0,0,1,.21.79,2.93,2.93,0,0,0,1.16,2.67c1.87,1.77,3.67,3.63,5.48,5.46a1.07,1.07,0,0,0,1,.4,2.09,2.09,0,0,0,.25,0A2.37,2.37,0,0,1,126.81,101.9Z"/><path class="cls-51" d="M119.81,94.9l5.2,5.31a1.9,1.9,0,0,1-1.68-.49c-1.14-1.23-2.35-2.4-3.53-3.59A1.12,1.12,0,0,1,119.81,94.9Z"/><path class="cls-52" d="M119.81,94.9v1.23c-.84-.82-1.69-1.63-2.5-2.48-.38-.39-.1-.91-.25-1.45Z"/><path class="cls-53" d="M130.07,107c.06.13.13.27.18.4.47,1.13.47,1.13,1.7,1.08h.29c.2,0,.4,0,.4.24s-.19.27-.39.27l-1.3,0a.94.94,0,0,1-1-.69c-.12-.36-.21-.73-.31-1.1S129.83,106.91,130.07,107Z"/><path class="cls-53" d="M110.53,87a.58.58,0,0,1-.08-.18c-.23-1-.8-1.57-1.92-1.3-.17,0-.37,0-.38-.21s.18-.28.38-.29h0c1.77-.14,2,0,2.35,1.76C111,87.18,110.77,87.15,110.53,87Z"/><path class="cls-54" d="M128.2,105.43c.23-.23.45-.48.68-.71.06,0,.17-.13.19-.12a3.92,3.92,0,0,1,.66.91c.16.24-.13.3-.22.43a1.07,1.07,0,0,1-.22.2A1.18,1.18,0,0,1,128.2,105.43Z"/><path class="cls-54" d="M112.4,88.63c-.15.16-.29.32-.44.47-.44.44-.44.44-.8-.09s-.41-.6.14-1.08A1.2,1.2,0,0,1,112.4,88.63Z"/><path class="cls-55" d="M128.2,105.43a4.86,4.86,0,0,0,1.09.71c-.23.41-.51.44-.85.12a1.25,1.25,0,0,0-.24-.16C127.74,105.87,127.82,105.65,128.2,105.43Z"/><path class="cls-55" d="M112.4,88.63a4.67,4.67,0,0,0-1.1-.7c.23-.42.51-.44.85-.12a1.07,1.07,0,0,0,.25.16C112.86,88.19,112.78,88.41,112.4,88.63Z"/><path class="cls-56" d="M127.39,104.52l.49-.49c.27.1.47-.13.72-.14s.14.25,0,.38l-.59.56C127.51,105,127.43,105,127.39,104.52Z"/><path class="cls-56" d="M112,90.18c-.17-.11-.17-.23,0-.36l.61-.58c.5-.17.57-.13.62.3l-.5.49C112.44,89.93,112.24,90.17,112,90.18Z"/><path class="cls-57" d="M127.39,104.52c0,.41.36.29.61.31a3.42,3.42,0,0,0-.36.4c-.24.35-.47.21-.69,0s.11-.32.19-.47S127.3,104.6,127.39,104.52Z"/><path class="cls-57" d="M113.21,89.54c-.06-.4-.37-.28-.62-.3a4.59,4.59,0,0,0,.36-.41c.24-.34.48-.2.69,0s-.11.33-.18.48S113.29,89.46,113.21,89.54Z"/><path class="cls-58" d="M128.6,103.89c-.23.11-.38.6-.72.14.07-.08.15-.16.22-.25C128.34,103.48,128.49,103.54,128.6,103.89Z"/><path class="cls-59" d="M112,90.18c.22-.11.37-.6.71-.15-.07.08-.15.16-.22.25C112.26,90.58,112.1,90.52,112,90.18Z"/><path class="cls-60" d="M130.07,107c-.18,0-.36,0-.4.22-.13-.28-.28-.57.17-.78Z"/><path class="cls-61" d="M110.53,87c.18,0,.36,0,.4-.22,0,.07,0,.15.08.22s.09.41-.13.49-.19-.2-.28-.31A.56.56,0,0,1,110.53,87Z"/><path class="cls-62" d="M121,96.24,123.73,99c.07.07.17.15.1.25s-.15,0-.23.06a.58.58,0,0,1-.51-.26c-.62-.62-1.24-1.25-1.87-1.86A.85.85,0,0,1,121,96.24Z"/><rect class="cls-4" x="226.93" y="20.13" width="4.4" height="14.29" rx="1.87"/><rect class="cls-4" x="226.93" y="20.13" width="4.4" height="14.29" rx="1.87" transform="translate(256.4 -201.85) rotate(90)"/></svg>