<svg id="Diseño" xmlns="http://www.w3.org/2000/svg" xmlns:xlink="http://www.w3.org/1999/xlink" viewBox="0 0 539 342"><defs><style>.cls-1,.cls-15,.cls-24,.cls-3,.cls-31,.cls-5,.cls-8{fill:none;}.cls-2{fill:#cececc;}.cls-3{stroke:#8f201c;}.cls-3,.cls-31,.cls-5,.cls-8{stroke-miterlimit:10;}.cls-4{fill:#8f201c;}.cls-31,.cls-5,.cls-8{stroke:#b31a1e;}.cls-15,.cls-24,.cls-31,.cls-5,.cls-8{stroke-linecap:round;}.cls-5{stroke-width:5px;stroke-dasharray:0 9;}.cls-6{fill:#fff;}.cls-7{fill:#87868b;}.cls-8{stroke-width:4px;stroke-dasharray:0 6;}.cls-9{fill:#549aa3;}.cls-10{fill:#b31a1e;}.cls-11{fill:#7dbdc5;}.cls-12{fill:#e8e8e6;}.cls-13{fill:#39959d;}.cls-14{fill:#9b9a9a;}.cls-15{stroke:#549aa3;}.cls-15,.cls-24{stroke-linejoin:round;}.cls-16{clip-path:url(#clip-path);}.cls-17{fill:#edcbb2;}.cls-18{fill:#dea880;}.cls-19{fill:#f3f7fa;}.cls-20{fill:#414142;}.cls-21{fill:#fffcf8;}.cls-22{fill:#5e2b0e;}.cls-23{fill:#464645;}.cls-24{stroke:#e1af8d;stroke-width:0.5px;opacity:0.5;}.cls-25{fill:#db718b;}.cls-26{fill:#efefef;}.cls-27{fill:#ebc0a3;}.cls-28{fill:#e9ba9d;}.cls-29{fill:#ce9d7c;}.cls-30{fill:#19293b;}.cls-31{stroke-width:3px;}</style><clipPath id="clip-path"><path class="cls-1" d="M202.12,217.13a31.22,31.22,0,0,1-7,19.79c-1.37,1.68,4.06,11.75,1.91,12.08-13,2-12.53-3.41-16-2.2a31.45,31.45,0,0,1-28.44-4.13C150.85,241.47,148,253,143,247c-1.48-1.77,1.9-11.94.72-13.94a31.37,31.37,0,1,1,58.4-15.93Z"/></clipPath></defs><path class="cls-2" d="M192,132.76H381a0,0,0,0,1,0,0v15.92a17.56,17.56,0,0,1-17.56,17.56H209.56A17.56,17.56,0,0,1,192,148.68V132.76A0,0,0,0,1,192,132.76Z"/><path class="cls-3" d="M282.25,308.5H256.76a11.26,11.26,0,0,0-11.26,11.26V329"/><path class="cls-2" d="M278,296H379a0,0,0,0,1,0,0v7.7a13.25,13.25,0,0,1-13.25,13.25h-74.5A13.25,13.25,0,0,1,278,303.66V296A0,0,0,0,1,278,296Z"/><path class="cls-4" d="M202.38,142.09h.92l2.76,4.23.76-4.23h1.31l-1.2,6.76h-.82l-2.85-4.36-.77,4.36h-1.31Z"/><path class="cls-4" d="M210,148.55a2.83,2.83,0,0,1-1.08-1.09,3.24,3.24,0,0,1-.39-1.6,4.22,4.22,0,0,1,.47-2,3.31,3.31,0,0,1,1.33-1.37,3.87,3.87,0,0,1,2-.5,3.15,3.15,0,0,1,1.55.38,2.69,2.69,0,0,1,1.07,1.07,3.46,3.46,0,0,1,.38,1.65,4.13,4.13,0,0,1-.44,1.91,3.5,3.5,0,0,1-1.28,1.42,3.59,3.59,0,0,1-2,.53A3.3,3.3,0,0,1,210,148.55Zm2.84-1.16a2.12,2.12,0,0,0,.74-.9,3,3,0,0,0,.25-1.25,2.23,2.23,0,0,0-.44-1.49,1.47,1.47,0,0,0-1.19-.53,2.08,2.08,0,0,0-1.14.32,2.22,2.22,0,0,0-.78.88,2.86,2.86,0,0,0-.28,1.3,2.11,2.11,0,0,0,.48,1.45,1.56,1.56,0,0,0,1.25.55A1.91,1.91,0,0,0,212.79,147.39Z"/><path class="cls-4" d="M218.82,142.09h2.59a2.46,2.46,0,0,1,1.65.5,1.71,1.71,0,0,1,.58,1.39A2.81,2.81,0,0,1,223,146a2.91,2.91,0,0,1-2.16.71h-1.4l-.37,2.11h-1.4Zm2.05,3.41a1.26,1.26,0,0,0,1-.38,1.46,1.46,0,0,0,.31-1,.72.72,0,0,0-.27-.62,1.16,1.16,0,0,0-.74-.21H220l-.38,2.18Z"/><path class="cls-4" d="M225,142.09h2.64a2.54,2.54,0,0,1,1.62.47,1.69,1.69,0,0,1,.58,1.41,2.51,2.51,0,0,1-.44,1.54,2.39,2.39,0,0,1-1.36.83l.6,1a.83.83,0,0,0,.18.19.54.54,0,0,0,.27.06h.75l-.54,1.23h-.88a1.09,1.09,0,0,1-.57-.14,1.47,1.47,0,0,1-.39-.45l-.85-1.5a.54.54,0,0,0-.16-.19.47.47,0,0,0-.23,0h-.61l-.41,2.32h-1.4Zm2.13,3.21a1.25,1.25,0,0,0,.92-.32,1.2,1.2,0,0,0,.32-.88.71.71,0,0,0-.26-.6,1.31,1.31,0,0,0-.76-.18H226.2l-.36,2Z"/><path class="cls-4" d="M231.51,142.09h4.67l-.55,1.23h-2.94l-.28,1.61H235l-.28,1.23h-2.53l-.26,1.46h3.36l-.55,1.23h-4.43Z"/><path class="cls-4" d="M235.8,148.51l.3-1.24a5,5,0,0,0,1,.34,3.63,3.63,0,0,0,1,.13,1.93,1.93,0,0,0,1-.21.64.64,0,0,0,.35-.58.57.57,0,0,0-.09-.32,1.4,1.4,0,0,0-.35-.29c-.16-.1-.41-.23-.74-.39a3.3,3.3,0,0,1-1.15-.87,1.76,1.76,0,0,1-.38-1.12,1.68,1.68,0,0,1,.34-1,2.12,2.12,0,0,1,1-.69,4.21,4.21,0,0,1,1.54-.25,5.78,5.78,0,0,1,.89.07,7.48,7.48,0,0,1,.81.17l-.22,1.23a5.28,5.28,0,0,0-1.54-.26,2.22,2.22,0,0,0-1,.17.51.51,0,0,0-.34.48.55.55,0,0,0,.11.34,1.15,1.15,0,0,0,.34.3c.16.1.4.23.72.4a3.78,3.78,0,0,1,1.2.85,1.46,1.46,0,0,1,.35,1,1.93,1.93,0,0,1-.38,1.2,2.4,2.4,0,0,1-1,.75A4.2,4.2,0,0,1,238,149,5.38,5.38,0,0,1,235.8,148.51Z"/><path class="cls-4" d="M242.62,142.09h4.67l-.55,1.23H243.8l-.28,1.61h2.6l-.29,1.23H243.3l-.25,1.46h3.35l-.55,1.23h-4.42Z"/><path class="cls-4" d="M248.18,142.09h.92l2.76,4.23.76-4.23h1.31l-1.2,6.76h-.82l-2.85-4.36-.77,4.36H247Z"/><path class="cls-4" d="M255.82,148.58a2.62,2.62,0,0,1-1.16-1.07,3.43,3.43,0,0,1-.41-1.71,3.8,3.8,0,0,1,.49-1.91,3.51,3.51,0,0,1,1.4-1.38,4.28,4.28,0,0,1,2.17-.52,5.78,5.78,0,0,1,1.9.3l-.29,1.24a3.41,3.41,0,0,0-.74-.22,5.14,5.14,0,0,0-.88-.08,2.76,2.76,0,0,0-1.34.31,2.25,2.25,0,0,0-.91.87,2.46,2.46,0,0,0-.33,1.28,2.16,2.16,0,0,0,.27,1.1,1.86,1.86,0,0,0,.73.69,2.31,2.31,0,0,0,1,.23,5,5,0,0,0,1.68-.28l-.12,1.24a4.63,4.63,0,0,1-1.71.28A4.05,4.05,0,0,1,255.82,148.58Z"/><path class="cls-4" d="M261.38,142.09h1.41l-1.2,6.76h-1.41Z"/><path class="cls-4" d="M266.19,142.07h1.28l1.51,6.78h-1.46l-.27-1.33h-2.64l-.74,1.33h-1.58Zm.82,4.22-.43-2.31h-.09l-1.21,2.31Z"/><path class="cls-4" d="M269.91,148.59a1,1,0,0,1-.29-.72,7.18,7.18,0,0,1,.13-1l.85-4.83H272l-.82,4.56a5.89,5.89,0,0,0-.08.61q0,.36.48.36h2.62l-.54,1.23h-2.9A1.26,1.26,0,0,1,269.91,148.59Z"/><path class="cls-4" d="M284.55,143.32h-2.09l.23-1.23h5.73l-.55,1.23H286l-1,5.53h-1.42Z"/><path class="cls-4" d="M289.07,142.09h4.67l-.56,1.23h-2.93l-.29,1.61h2.6l-.28,1.23h-2.54l-.25,1.46h3.35l-.54,1.23h-4.43Z"/><path class="cls-4" d="M293.9,148.59a.94.94,0,0,1-.28-.72,7.18,7.18,0,0,1,.13-1l.84-4.83H296l-.81,4.56a3.92,3.92,0,0,0-.08.61q0,.36.48.36h2.62l-.55,1.23h-2.9A1.28,1.28,0,0,1,293.9,148.59Z"/><path class="cls-4" d="M300,142.09h4.67l-.55,1.23h-2.94l-.29,1.61h2.6l-.28,1.23h-2.54l-.25,1.46h3.35l-.54,1.23h-4.43Z"/><path class="cls-4" d="M306,148.55a2.76,2.76,0,0,1-1.08-1.09,3.24,3.24,0,0,1-.39-1.6,4.1,4.1,0,0,1,.47-2,3.31,3.31,0,0,1,1.33-1.37,3.87,3.87,0,0,1,2-.5,3.15,3.15,0,0,1,1.55.38,2.69,2.69,0,0,1,1.07,1.07,3.46,3.46,0,0,1,.38,1.65,4.13,4.13,0,0,1-.44,1.91,3.5,3.5,0,0,1-1.28,1.42,3.62,3.62,0,0,1-2,.53A3.3,3.3,0,0,1,306,148.55Zm2.84-1.16a2.12,2.12,0,0,0,.74-.9,3,3,0,0,0,.25-1.25,2.23,2.23,0,0,0-.44-1.49,1.47,1.47,0,0,0-1.19-.53,2.08,2.08,0,0,0-1.14.32,2.22,2.22,0,0,0-.78.88,2.86,2.86,0,0,0-.28,1.3,2.11,2.11,0,0,0,.48,1.45,1.56,1.56,0,0,0,1.25.55A1.91,1.91,0,0,0,308.79,147.39Z"/><path class="cls-4" d="M312.8,142.09h2.55a4,4,0,0,1,2.34.6,2.34,2.34,0,0,1,.84,2.06,4.94,4.94,0,0,1-.44,2.13,3.3,3.3,0,0,1-1.34,1.45,4.33,4.33,0,0,1-2.19.52h-3Zm1.87,5.53a2.39,2.39,0,0,0,1.23-.31,2.14,2.14,0,0,0,.85-.91,3.26,3.26,0,0,0,.31-1.5,1.46,1.46,0,0,0-.46-1.23,2.29,2.29,0,0,0-1.37-.35H314l-.76,4.3Z"/><path class="cls-4" d="M320.68,148.55a2.79,2.79,0,0,1-1.09-1.09,3.24,3.24,0,0,1-.39-1.6,4.22,4.22,0,0,1,.47-2,3.37,3.37,0,0,1,1.33-1.37,3.91,3.91,0,0,1,2-.5,3.11,3.11,0,0,1,1.54.38,2.63,2.63,0,0,1,1.07,1.07,3.35,3.35,0,0,1,.39,1.65,4.25,4.25,0,0,1-.44,1.91,3.49,3.49,0,0,1-3.25,1.95A3.26,3.26,0,0,1,320.68,148.55Zm2.84-1.16a2.1,2.1,0,0,0,.73-.9,3,3,0,0,0,.26-1.25,2.28,2.28,0,0,0-.44-1.49,1.48,1.48,0,0,0-1.19-.53,2.09,2.09,0,0,0-1.92,1.2,2.86,2.86,0,0,0-.29,1.3,2.11,2.11,0,0,0,.48,1.45,1.58,1.58,0,0,0,1.26.55A1.91,1.91,0,0,0,323.52,147.39Z"/><path class="cls-4" d="M327.53,142.09h.92l2.76,4.23.76-4.23h1.31l-1.2,6.76h-.82l-2.85-4.36-.77,4.36h-1.31Z"/><path class="cls-4" d="M335.84,143.32h-2.08l.22-1.23h5.74l-.55,1.23h-1.91l-1,5.53h-1.42Z"/><path class="cls-4" d="M340.81,148.55a2.85,2.85,0,0,1-1.09-1.09,3.35,3.35,0,0,1-.38-1.6,4.1,4.1,0,0,1,.47-2,3.35,3.35,0,0,1,1.32-1.37,3.94,3.94,0,0,1,2-.5,3.18,3.18,0,0,1,1.55.38,2.6,2.6,0,0,1,1.06,1.07,3.35,3.35,0,0,1,.39,1.65,4.25,4.25,0,0,1-.44,1.91,3.57,3.57,0,0,1-1.28,1.42,3.62,3.62,0,0,1-2,.53A3.3,3.3,0,0,1,340.81,148.55Zm2.84-1.16a2.2,2.2,0,0,0,.74-.9,3,3,0,0,0,.25-1.25,2.28,2.28,0,0,0-.44-1.49,1.48,1.48,0,0,0-1.19-.53,2.08,2.08,0,0,0-1.14.32,2.22,2.22,0,0,0-.78.88,2.86,2.86,0,0,0-.28,1.3,2.11,2.11,0,0,0,.48,1.45,1.55,1.55,0,0,0,1.25.55A1.91,1.91,0,0,0,343.65,147.39Z"/><path class="cls-4" d="M346.94,148.59a1,1,0,0,1-.29-.72,8,8,0,0,1,.14-1l.84-4.83H349l-.81,4.56a4.51,4.51,0,0,0-.09.61c0,.24.17.36.49.36h2.61l-.54,1.23h-2.9A1.26,1.26,0,0,1,346.94,148.59Z"/><path class="cls-4" d="M353,148.55a2.79,2.79,0,0,1-1.09-1.09,3.35,3.35,0,0,1-.38-1.6,4.21,4.21,0,0,1,.46-2,3.44,3.44,0,0,1,1.33-1.37,3.94,3.94,0,0,1,2-.5,3.18,3.18,0,0,1,1.55.38,2.66,2.66,0,0,1,1.06,1.07,3.35,3.35,0,0,1,.39,1.65,4.25,4.25,0,0,1-.44,1.91,3.57,3.57,0,0,1-1.28,1.42,3.62,3.62,0,0,1-2,.53A3.3,3.3,0,0,1,353,148.55Zm2.84-1.16a2.1,2.1,0,0,0,.73-.9,2.89,2.89,0,0,0,.26-1.25,2.28,2.28,0,0,0-.44-1.49,1.48,1.48,0,0,0-1.19-.53,2.08,2.08,0,0,0-1.14.32,2.22,2.22,0,0,0-.78.88,2.86,2.86,0,0,0-.28,1.3,2.16,2.16,0,0,0,.47,1.45,1.58,1.58,0,0,0,1.26.55A1.91,1.91,0,0,0,355.79,147.39Z"/><path class="cls-4" d="M360.47,148.56a2.76,2.76,0,0,1-1.14-1.08,3.08,3.08,0,0,1-.4-1.59,3.94,3.94,0,0,1,.52-2.06,3.53,3.53,0,0,1,1.52-1.36,5.37,5.37,0,0,1,2.36-.48,6.53,6.53,0,0,1,1.1.09,4.94,4.94,0,0,1,.9.22l-.3,1.23a5.72,5.72,0,0,0-1.89-.3,3.09,3.09,0,0,0-1.4.31,2.33,2.33,0,0,0-1,.87,2.43,2.43,0,0,0-.36,1.33,2.24,2.24,0,0,0,.25,1.06,1.74,1.74,0,0,0,.68.69,2,2,0,0,0,1,.24,3.5,3.5,0,0,0,1.09-.15l.36-2,1.46-.35-.57,3.15a4.7,4.7,0,0,1-1.1.39,6.57,6.57,0,0,1-1.35.14A3.65,3.65,0,0,1,360.47,148.56Z"/><path class="cls-4" d="M366.93,142.09h1.41l-1.2,6.76h-1.41Zm-.29-1.31,2.21-1.41.59,1-2.24,1.12Z"/><path class="cls-4" d="M371.74,142.07H373l1.51,6.78h-1.46l-.26-1.33h-2.65l-.74,1.33h-1.58Zm.82,4.22-.43-2.31H372l-1.21,2.31Z"/><path class="cls-4" d="M243.85,161.16a2.58,2.58,0,0,1-1.16-1.08,3.37,3.37,0,0,1-.41-1.7,3.88,3.88,0,0,1,.49-1.91,3.62,3.62,0,0,1,1.41-1.39,4.37,4.37,0,0,1,2.16-.51,5.74,5.74,0,0,1,1.9.3l-.29,1.24a2.81,2.81,0,0,0-.74-.22,4.24,4.24,0,0,0-.88-.08,2.79,2.79,0,0,0-1.34.31,2.24,2.24,0,0,0-.91.87,2.46,2.46,0,0,0-.33,1.28,2.16,2.16,0,0,0,.27,1.1,1.83,1.83,0,0,0,.73.68,2.2,2.2,0,0,0,1,.24,4.86,4.86,0,0,0,1.68-.29l-.12,1.24a4.52,4.52,0,0,1-1.72.28A4.11,4.11,0,0,1,243.85,161.16Z"/><path class="cls-4" d="M249.22,161.2a2.16,2.16,0,0,1-.86-.86,2.47,2.47,0,0,1-.3-1.21,3.11,3.11,0,0,1,.38-1.51,2.88,2.88,0,0,1,1.09-1.1,3.14,3.14,0,0,1,1.62-.4,2.47,2.47,0,0,1,1.22.29,2.16,2.16,0,0,1,.86.81,2.28,2.28,0,0,1,.32,1.19,3.51,3.51,0,0,1-.36,1.59,2.6,2.6,0,0,1-1,1.11,3,3,0,0,1-1.61.41A2.58,2.58,0,0,1,249.22,161.2Zm2.54-1.37a2.33,2.33,0,0,0,.36-1.32,1.32,1.32,0,0,0-.31-.91,1,1,0,0,0-.79-.34,1.33,1.33,0,0,0-.82.25,1.6,1.6,0,0,0-.53.67,2.06,2.06,0,0,0-.18.85,1.38,1.38,0,0,0,.34,1,1.11,1.11,0,0,0,.86.35A1.19,1.19,0,0,0,251.76,159.83Z"/><path class="cls-4" d="M254.83,156.21H256v.56h0a3.7,3.7,0,0,1,.87-.48,2.9,2.9,0,0,1,1-.17,1.4,1.4,0,0,1,1,.35,1.19,1.19,0,0,1,.37.92,9.48,9.48,0,0,1-.2,1.6l-.43,2.43h-1.38l.42-2.39a9.09,9.09,0,0,0,.15-1.09c0-.42-.22-.63-.68-.63a1.75,1.75,0,0,0-.65.13,1.83,1.83,0,0,0-.55.33l-.65,3.65h-1.38Z"/><path class="cls-4" d="M262.67,156.21h1.09v.68a2.52,2.52,0,0,1,.8-.55,2.46,2.46,0,0,1,1-.22,2.08,2.08,0,0,1,1,.25,1.86,1.86,0,0,1,.72.75,2.35,2.35,0,0,1,.27,1.17,4,4,0,0,1-.33,1.66,2.58,2.58,0,0,1-2.46,1.57,2.69,2.69,0,0,1-.9-.14,2.39,2.39,0,0,1-.73-.38l-.4,2.4-1.46.37Zm3.09,3.6a2.23,2.23,0,0,0,.38-1.31,1.2,1.2,0,0,0-.3-.88,1,1,0,0,0-.78-.31,1.43,1.43,0,0,0-.95.33,1.48,1.48,0,0,0-.49.91l-.21,1.27a1.62,1.62,0,0,0,1.24.52A1.26,1.26,0,0,0,265.76,159.81Z"/><path class="cls-4" d="M268.57,161.07a1.53,1.53,0,0,1-.47-1.15c0-1.13.7-1.69,2.09-1.69h.71a6.17,6.17,0,0,1,.75,0,3.29,3.29,0,0,0,0-.38.53.53,0,0,0-.25-.46,1.58,1.58,0,0,0-.78-.15,5.79,5.79,0,0,0-.79.06,6.78,6.78,0,0,0-.78.15l.11-1.11a7.47,7.47,0,0,1,2-.26,2.43,2.43,0,0,1,1.39.36,1.21,1.21,0,0,1,.53,1.09,8.62,8.62,0,0,1-.16,1.31l-.28,1.5c-.09.5-.14.85-.16,1h-1.16l0-.5h0a1.71,1.71,0,0,1-.62.44,1.91,1.91,0,0,1-.8.16A1.78,1.78,0,0,1,268.57,161.07Zm2.49-.86a.93.93,0,0,0,.35-.6l.07-.41h-1.13a1,1,0,0,0-.62.15.53.53,0,0,0-.2.44.58.58,0,0,0,.21.47.87.87,0,0,0,.58.18A1.15,1.15,0,0,0,271.06,160.21Z"/><path class="cls-4" d="M274.37,160.89a2.27,2.27,0,0,1-.7-1.78,3,3,0,0,1,.37-1.49,2.71,2.71,0,0,1,1.11-1.09,3.56,3.56,0,0,1,1.77-.41,4.44,4.44,0,0,1,1.44.22l-.35,1.08a4,4,0,0,0-1.06-.15,1.84,1.84,0,0,0-1.32.47,1.65,1.65,0,0,0-.51,1.28,1.24,1.24,0,0,0,.39,1,1.43,1.43,0,0,0,1,.36,3.68,3.68,0,0,0,.66-.06,2.63,2.63,0,0,0,.6-.17l-.08,1.12a2.4,2.4,0,0,1-.67.2,4.4,4.4,0,0,1-.8.07A2.7,2.7,0,0,1,274.37,160.89Z"/><path class="cls-4" d="M279.36,156.21h1.39l-.93,5.21h-1.39Zm.28-.9a.74.74,0,0,1-.23-.57,1,1,0,0,1,1-1,.83.83,0,0,1,.61.23.71.71,0,0,1,.25.57.9.9,0,0,1-.3.68,1,1,0,0,1-.7.28A.81.81,0,0,1,279.64,155.31Z"/><path class="cls-4" d="M281.84,160.93a2.21,2.21,0,0,1-.66-1.75,3.28,3.28,0,0,1,.37-1.57,2.8,2.8,0,0,1,1-1.09,2.92,2.92,0,0,1,1.54-.4,2.12,2.12,0,0,1,1.57.54,2,2,0,0,1,.53,1.46,3.25,3.25,0,0,1-.06.55,6,6,0,0,1-.15.64H282.6a1,1,0,0,0,.33.77,1.51,1.51,0,0,0,1,.3,4.74,4.74,0,0,0,.8-.06,3.55,3.55,0,0,0,.69-.19l-.08,1.12a4.31,4.31,0,0,1-1.65.27A2.67,2.67,0,0,1,281.84,160.93Zm3-2.59a2.16,2.16,0,0,0,0-.35.85.85,0,0,0-.21-.61.77.77,0,0,0-.59-.22,1.17,1.17,0,0,0-.85.32,1.52,1.52,0,0,0-.45.86Z"/><path class="cls-4" d="M287.49,156.21h1.18v.56h0a3.7,3.7,0,0,1,.87-.48,2.84,2.84,0,0,1,.95-.17,1.41,1.41,0,0,1,1,.35,1.23,1.23,0,0,1,.37.92,10.68,10.68,0,0,1-.2,1.6l-.44,2.43h-1.37l.42-2.39a9.09,9.09,0,0,0,.15-1.09q0-.63-.69-.63a1.91,1.91,0,0,0-1.19.46l-.66,3.65h-1.38Z"/><path class="cls-4" d="M293.12,161.13a1.17,1.17,0,0,1-.44-1,11.71,11.71,0,0,1,.2-1.41l.65-3.67,1.42-.21-.26,1.43h1.79l-.45,1.18h-1.54l-.25,1.33a7.57,7.57,0,0,0-.13,1,.51.51,0,0,0,.17.42.86.86,0,0,0,.53.13,3.58,3.58,0,0,0,.87-.08l-.12,1.07a3.86,3.86,0,0,1-1.27.17A1.87,1.87,0,0,1,293.12,161.13Z"/><path class="cls-4" d="M297.14,160.93a2.21,2.21,0,0,1-.66-1.75,3.28,3.28,0,0,1,.37-1.57,2.8,2.8,0,0,1,1-1.09,2.92,2.92,0,0,1,1.54-.4,2.12,2.12,0,0,1,1.57.54,2,2,0,0,1,.53,1.46,3.25,3.25,0,0,1-.06.55,6,6,0,0,1-.15.64H297.9a1,1,0,0,0,.33.77,1.51,1.51,0,0,0,1,.3,4.66,4.66,0,0,0,.8-.06,3.55,3.55,0,0,0,.69-.19l-.08,1.12a4.29,4.29,0,0,1-1.64.27A2.68,2.68,0,0,1,297.14,160.93Zm3-2.59a2.16,2.16,0,0,0,0-.35.85.85,0,0,0-.21-.61.77.77,0,0,0-.59-.22,1.17,1.17,0,0,0-.85.32,1.52,1.52,0,0,0-.45.86Z"/><path class="cls-4" d="M306.93,154.46h1.36l-3.71,7.16h-1.35Z"/><path class="cls-4" d="M310.46,161.13a1.16,1.16,0,0,1-.43-1,9.87,9.87,0,0,1,.2-1.41l.64-3.67,1.42-.21-.26,1.43h1.79l-.45,1.18h-1.54l-.24,1.33a6,6,0,0,0-.13,1,.49.49,0,0,0,.17.42.83.83,0,0,0,.52.13,3.72,3.72,0,0,0,.88-.08l-.12,1.07a3.94,3.94,0,0,1-1.27.17A1.9,1.9,0,0,1,310.46,161.13Z"/><path class="cls-4" d="M314.6,161.1a1.39,1.39,0,0,1-.57-1.18,10.05,10.05,0,0,1,.18-1.34l.43-2.37H316l-.43,2.36a10.23,10.23,0,0,0-.16,1.12.64.64,0,0,0,.21.51.94.94,0,0,0,.62.18,1,1,0,0,0,.76-.27,2.07,2.07,0,0,0,.39-1l.51-2.89h1.38l-.53,2.93a3.94,3.94,0,0,1-.47,1.41,1.82,1.82,0,0,1-.82.74,3.19,3.19,0,0,1-1.32.23A2.58,2.58,0,0,1,314.6,161.1Z"/><path class="cls-4" d="M320.13,161.13a1.16,1.16,0,0,1-.43-1,11.71,11.71,0,0,1,.2-1.41l.65-3.67,1.41-.21-.26,1.43h1.8l-.46,1.18H321.5l-.24,1.33a6,6,0,0,0-.13,1,.51.51,0,0,0,.17.42.83.83,0,0,0,.52.13,3.72,3.72,0,0,0,.88-.08l-.12,1.07a3.9,3.9,0,0,1-1.27.17A1.9,1.9,0,0,1,320.13,161.13Z"/><path class="cls-4" d="M324.65,161.2a2.22,2.22,0,0,1-.86-.86,2.46,2.46,0,0,1-.29-1.21,3,3,0,0,1,.38-1.51,2.78,2.78,0,0,1,1.08-1.1,3.19,3.19,0,0,1,1.62-.4,2.47,2.47,0,0,1,1.22.29,2.1,2.1,0,0,1,.86.81,2.19,2.19,0,0,1,.32,1.19,3.63,3.63,0,0,1-.35,1.59,2.69,2.69,0,0,1-1,1.11,3,3,0,0,1-1.61.41A2.61,2.61,0,0,1,324.65,161.2Zm2.54-1.37a2.33,2.33,0,0,0,.36-1.32,1.27,1.27,0,0,0-.31-.91,1,1,0,0,0-.79-.34,1.37,1.37,0,0,0-.82.25,1.58,1.58,0,0,0-.52.67,1.92,1.92,0,0,0-.19.85,1.42,1.42,0,0,0,.34,1,1.12,1.12,0,0,0,.86.35A1.17,1.17,0,0,0,327.19,159.83Z"/><path class="cls-4" d="M330.27,156.21h1.13l0,.78a4,4,0,0,1,1-.59,3.58,3.58,0,0,1,1.07-.29l-.22,1.34a5.18,5.18,0,0,0-1,.18,4.79,4.79,0,0,0-.87.34l-.63,3.45h-1.38Z"/><path class="cls-4" d="M297.86,302.4h3.2a3,3,0,0,1,2,.61,2.11,2.11,0,0,1,.71,1.71,3.46,3.46,0,0,1-.85,2.53,3.55,3.55,0,0,1-2.65.86h-1.72l-.46,2.6h-1.72Zm2.53,4.19a1.54,1.54,0,0,0,1.21-.46,1.76,1.76,0,0,0,.38-1.2.91.91,0,0,0-.32-.77,1.53,1.53,0,0,0-.91-.25h-1.44l-.47,2.68Z"/><path class="cls-4" d="M305.49,302.4h3.24a3.06,3.06,0,0,1,2,.58,2.08,2.08,0,0,1,.72,1.73,3.08,3.08,0,0,1-.54,1.9,2.89,2.89,0,0,1-1.68,1l.74,1.27a.7.7,0,0,0,.22.23.68.68,0,0,0,.34.08h.92l-.67,1.51H309.7a1.32,1.32,0,0,1-.7-.17,1.51,1.51,0,0,1-.48-.56l-1-1.84a.67.67,0,0,0-.19-.23.69.69,0,0,0-.29-.05h-.75l-.5,2.85H304Zm2.62,3.94a1.54,1.54,0,0,0,1.14-.39,1.46,1.46,0,0,0,.39-1.08.83.83,0,0,0-.32-.73,1.59,1.59,0,0,0-.93-.23h-1.45l-.44,2.43Z"/><path class="cls-4" d="M313.48,302.4h5.74l-.68,1.51h-3.62l-.34,2h3.19l-.34,1.51h-3.12l-.31,1.8h4.12l-.67,1.51H312Z"/><path class="cls-4" d="M318.75,310.29l.37-1.52a5.91,5.91,0,0,0,1.18.42,5,5,0,0,0,1.19.15,2.46,2.46,0,0,0,1.23-.25.82.82,0,0,0,.43-.72A.64.64,0,0,0,323,308a1.6,1.6,0,0,0-.42-.36c-.21-.13-.51-.29-.91-.49a4,4,0,0,1-1.43-1.07,2.19,2.19,0,0,1-.45-1.37,2,2,0,0,1,.41-1.27,2.62,2.62,0,0,1,1.21-.85,5.35,5.35,0,0,1,1.89-.3,8.88,8.88,0,0,1,1.09.08,7.47,7.47,0,0,1,1,.21l-.27,1.51a6.51,6.51,0,0,0-1.89-.32,2.69,2.69,0,0,0-1.2.21.64.64,0,0,0-.41.59.69.69,0,0,0,.13.43,1.3,1.3,0,0,0,.42.36c.19.12.49.29.88.49a4.66,4.66,0,0,1,1.48,1.05,1.82,1.82,0,0,1,.43,1.24,2.38,2.38,0,0,1-.47,1.48,2.85,2.85,0,0,1-1.27.91,4.78,4.78,0,0,1-1.78.31A6.57,6.57,0,0,1,318.75,310.29Z"/><path class="cls-4" d="M327.15,302.4h5.74l-.68,1.51h-3.62l-.34,2h3.19l-.35,1.51H328l-.3,1.8h4.12l-.67,1.51h-5.45Z"/><path class="cls-4" d="M334,302.4h1.13l3.4,5.2.93-5.2h1.61l-1.47,8.31h-1l-3.51-5.36-.94,5.36h-1.61Z"/><path class="cls-4" d="M343.38,310.38a3.21,3.21,0,0,1-1.43-1.32,4.08,4.08,0,0,1-.5-2.1,4.75,4.75,0,0,1,.6-2.35,4.39,4.39,0,0,1,1.72-1.7,5.38,5.38,0,0,1,2.67-.63,7,7,0,0,1,2.34.37l-.36,1.52a3.62,3.62,0,0,0-.91-.27,5.6,5.6,0,0,0-1.09-.1,3.48,3.48,0,0,0-1.64.38,2.75,2.75,0,0,0-1.12,1.07,3,3,0,0,0-.41,1.57,2.66,2.66,0,0,0,.34,1.36,2.08,2.08,0,0,0,.9.84,2.71,2.71,0,0,0,1.25.29,6,6,0,0,0,2.07-.35l-.15,1.53a5.56,5.56,0,0,1-2.1.34A4.93,4.93,0,0,1,343.38,310.38Z"/><path class="cls-4" d="M350.21,302.4H352l-1.48,8.31h-1.73Z"/><path class="cls-4" d="M356.13,302.38h1.57l1.86,8.33h-1.79l-.33-1.64h-3.25l-.91,1.64h-1.94Zm1,5.18-.54-2.84h-.11L355,307.56Z"/><path class="cls-4" d="M360.71,310.39a1.12,1.12,0,0,1-.36-.89c0-.15.06-.54.16-1.16l1-5.94h1.74l-1,5.6a7.26,7.26,0,0,0-.09.75c0,.3.19.45.59.45H366l-.67,1.51h-3.57A1.52,1.52,0,0,1,360.71,310.39Z"/><path class="cls-5" d="M383.5,121.5h11a14,14,0,0,1,14,14V267a14,14,0,0,1-14,14h-11"/><rect class="cls-4" x="14" y="106" width="377" height="31" rx="15.5"/><path class="cls-6" d="M38.09,116.53h4a4.9,4.9,0,0,1,3.13.89,3.33,3.33,0,0,1,1.09,2.74,3.76,3.76,0,0,1-1,2.81,4.21,4.21,0,0,1-3,1H40.36v3.37H38.09Zm4,5.45a1.92,1.92,0,0,0,1.41-.46,1.74,1.74,0,0,0,.48-1.31c0-1.14-.65-1.71-1.94-1.71H40.36V122Z"/><path class="cls-6" d="M57,125.38l-.54,2h-1a2,2,0,0,1-1-.22,3.13,3.13,0,0,1-.78-.8L52,124a.81.81,0,0,0-.32-.3,1.28,1.28,0,0,0-.45-.07h-1v3.71H47.93V116.53h4.35a4.67,4.67,0,0,1,3,.82,3.19,3.19,0,0,1,1,2.63,3.78,3.78,0,0,1-.54,2,3,3,0,0,1-1.6,1.28L55.4,125a.64.64,0,0,0,.33.29,1.88,1.88,0,0,0,.63.08Zm-4.85-3.72c1.25,0,1.88-.53,1.88-1.61a1.38,1.38,0,0,0-.48-1.19,2.37,2.37,0,0,0-1.43-.36H50.2v3.16Z"/><path class="cls-6" d="M58.33,116.53h7.58l-.54,2H60.6v2.57h4.22l-.09,2H60.6v2.34h5.33l-.55,2h-7Z"/><path class="cls-6" d="M67.41,116.53h4a4.85,4.85,0,0,1,3.12.89,3.34,3.34,0,0,1,1.1,2.74,3.76,3.76,0,0,1-1,2.81,4.21,4.21,0,0,1-3,1H69.69v3.37H67.41Zm4,5.45a1.93,1.93,0,0,0,1.41-.46,1.74,1.74,0,0,0,.47-1.31c0-1.14-.64-1.71-1.93-1.71H69.69V122Z"/><path class="cls-6" d="M79.75,116.51h2.06l4.34,10.83H83.72l-.8-2.12H78.61l-.81,2.12H75.29Zm2.43,6.74-1.34-3.63h-.15l-1.34,3.63Z"/><path class="cls-6" d="M96.52,125.38l-.55,2H95a1.93,1.93,0,0,1-1-.22,3,3,0,0,1-.79-.8L91.56,124a1,1,0,0,0-.32-.3,1.32,1.32,0,0,0-.45-.07H89.73v3.71H87.46V116.53h4.35a4.72,4.72,0,0,1,3,.82,3.19,3.19,0,0,1,1,2.63,3.78,3.78,0,0,1-.54,2,3,3,0,0,1-1.6,1.28L94.93,125a.66.66,0,0,0,.34.29,1.85,1.85,0,0,0,.62.08Zm-4.85-3.72c1.25,0,1.87-.53,1.87-1.61a1.38,1.38,0,0,0-.48-1.19,2.34,2.34,0,0,0-1.42-.36H89.73v3.16Z"/><path class="cls-6" d="M101.64,116.51h2.06L108,127.34H105.6l-.8-2.12h-4.3l-.82,2.12H97.17Zm2.43,6.74-1.35-3.63h-.14l-1.34,3.63Z"/><path class="cls-6" d="M111,126.78a4.85,4.85,0,0,1-2-2,6,6,0,0,1-.64-2.82,5.83,5.83,0,0,1,.72-2.92,4.93,4.93,0,0,1,2-2,6.34,6.34,0,0,1,3.06-.7,8.4,8.4,0,0,1,3,.45l-.19,2a6.32,6.32,0,0,0-1.21-.32,7.79,7.79,0,0,0-1.44-.13,3.93,3.93,0,0,0-1.84.42,3,3,0,0,0-1.28,1.22,3.78,3.78,0,0,0-.47,1.91,3.35,3.35,0,0,0,3.62,3.62,9.78,9.78,0,0,0,1.41-.11,8.44,8.44,0,0,0,1.26-.29l.18,1.92a7.23,7.23,0,0,1-1.34.34,10.84,10.84,0,0,1-1.62.12A6.69,6.69,0,0,1,111,126.78Z"/><path class="cls-6" d="M118.87,116.53h2.27v10.81h-2.27Z"/><path class="cls-6" d="M125.62,126.82a5.13,5.13,0,0,1-2-1.94,6.23,6.23,0,0,1,0-5.89,5.13,5.13,0,0,1,2-1.94,6.06,6.06,0,0,1,5.58,0,5.12,5.12,0,0,1,2,1.93,6.33,6.33,0,0,1,0,5.9,5.08,5.08,0,0,1-2,1.94,6.06,6.06,0,0,1-5.58,0Zm4.42-1.75a3.08,3.08,0,0,0,1.14-1.28,4.4,4.4,0,0,0,0-3.71A3.15,3.15,0,0,0,130,118.8a3.15,3.15,0,0,0-3.28,0,3.2,3.2,0,0,0-1.13,1.28,4.4,4.4,0,0,0,0,3.71,3.13,3.13,0,0,0,1.13,1.28,3.1,3.1,0,0,0,3.28,0Zm-3.44-10.78,3.29-2,1,1.69-3.53,1.65Z"/><path class="cls-6" d="M135.65,116.53h1.62l5.58,6.77v-6.77H145v10.81h-1.54l-5.66-7v7h-2.13Z"/><path class="cls-6" d="M150.76,116.53h4a4.88,4.88,0,0,1,3.13.89,3.33,3.33,0,0,1,1.09,2.74,3.76,3.76,0,0,1-1,2.81,4.19,4.19,0,0,1-3,1H153v3.37h-2.27Zm4,5.45a2,2,0,0,0,1.42-.46,1.78,1.78,0,0,0,.47-1.31c0-1.14-.65-1.71-1.94-1.71H153V122Z"/><path class="cls-6" d="M163.09,116.51h2.07l4.33,10.83h-2.43l-.8-2.12H162l-.82,2.12h-2.51Zm2.43,6.74-1.34-3.63H164l-1.35,3.63Z"/><path class="cls-6" d="M179.86,125.38l-.54,2h-1a2,2,0,0,1-1-.22,2.83,2.83,0,0,1-.78-.8L174.9,124a.88.88,0,0,0-.32-.3,1.32,1.32,0,0,0-.45-.07h-1v3.71H170.8V116.53h4.36a4.67,4.67,0,0,1,3,.82,3.19,3.19,0,0,1,1,2.63,3.78,3.78,0,0,1-.54,2,3,3,0,0,1-1.6,1.28l1.25,1.79a.61.61,0,0,0,.33.29,1.88,1.88,0,0,0,.63.08ZM175,121.66c1.25,0,1.87-.53,1.87-1.61a1.38,1.38,0,0,0-.48-1.19,2.34,2.34,0,0,0-1.42-.36h-1.9v3.16Z"/><path class="cls-6" d="M185,116.51H187l4.34,10.83H189l-.8-2.12h-4.31l-.81,2.12h-2.51Zm2.43,6.74-1.34-3.63h-.15l-1.34,3.63Z"/><path class="cls-6" d="M196.79,126.78a2.48,2.48,0,0,1-.53-1.72v-8.53h2.27v7.81a1.13,1.13,0,0,0,.23.82,1.21,1.21,0,0,0,.83.22h3.79l-.54,2h-4.4A2.18,2.18,0,0,1,196.79,126.78Z"/><path class="cls-6" d="M208.69,116.51h2.07l4.33,10.83h-2.43l-.8-2.12h-4.3l-.82,2.12h-2.51Zm2.43,6.74-1.34-3.63h-.14l-1.35,3.63Z"/><path class="cls-6" d="M223.49,116.51h2.07l4.33,10.83h-2.43l-.8-2.12h-4.3l-.82,2.12H219Zm2.43,6.74-1.34-3.63h-.14l-1.35,3.63Z"/><path class="cls-6" d="M232.82,126.78a4.73,4.73,0,0,1-2-2,6,6,0,0,1-.65-2.82,5.83,5.83,0,0,1,.72-2.92,5,5,0,0,1,2-2,6.4,6.4,0,0,1,3.06-.7,8.5,8.5,0,0,1,3,.45l-.19,2a6.53,6.53,0,0,0-1.21-.32,8,8,0,0,0-1.45-.13,4,4,0,0,0-1.84.42A3,3,0,0,0,233,120a3.78,3.78,0,0,0-.46,1.91,3.6,3.6,0,0,0,1,2.64,3.55,3.55,0,0,0,2.65,1,9.78,9.78,0,0,0,1.41-.11,8.89,8.89,0,0,0,1.27-.29L239,127a7.11,7.11,0,0,1-1.33.34,10.87,10.87,0,0,1-1.63.12A6.62,6.62,0,0,1,232.82,126.78Z"/><path class="cls-6" d="M243.68,118.5h-3.37v-2h9.31l-.54,2H246v8.84h-2.31Z"/><path class="cls-6" d="M250.85,116.53h2.27v10.81h-2.27Z"/><path class="cls-6" d="M254.32,116.53h2.6l3,7.42H260l2.76-7.42h2.61l-4.54,10.81H259Z"/><path class="cls-6" d="M266.61,116.53h2.27v10.81h-2.27Z"/><path class="cls-6" d="M271.06,116.53h3.84a9.79,9.79,0,0,1,2.85.36,4.48,4.48,0,0,1,1.93,1.13,5.12,5.12,0,0,1,1.3,3.8,5.34,5.34,0,0,1-1.55,4.1,4.88,4.88,0,0,1-1.85,1.06,7.85,7.85,0,0,1-2.46.36h-4.06Zm4.1,8.85a4.46,4.46,0,0,0,1.54-.23,2.84,2.84,0,0,0,1.06-.7,2.9,2.9,0,0,0,.66-1.12,4.71,4.71,0,0,0,.22-1.49,5.63,5.63,0,0,0-.17-1.5,2.28,2.28,0,0,0-.56-1,2.45,2.45,0,0,0-1.11-.68,5.14,5.14,0,0,0-1.56-.2h-1.91v6.88Z"/><path class="cls-6" d="M285.65,116.51h2.07l4.33,10.83h-2.43l-.8-2.12h-4.3l-.82,2.12h-2.51Zm2.43,6.74-1.34-3.63h-.14l-1.35,3.63Z"/><path class="cls-6" d="M293.36,116.53h3.84a9.79,9.79,0,0,1,2.85.36A4.51,4.51,0,0,1,302,118a5.16,5.16,0,0,1,1.29,3.8,5.3,5.3,0,0,1-1.55,4.1,4.88,4.88,0,0,1-1.85,1.06,7.83,7.83,0,0,1-2.45.36h-4.07Zm4.1,8.85a4.42,4.42,0,0,0,1.54-.23,2.79,2.79,0,0,0,1.72-1.82,4.7,4.7,0,0,0,.23-1.49,5.21,5.21,0,0,0-.18-1.5,2.18,2.18,0,0,0-.56-1,2.47,2.47,0,0,0-1.1-.68,5.21,5.21,0,0,0-1.57-.2h-1.91v6.88Z"/><path class="cls-6" d="M310.77,126.78a4.79,4.79,0,0,1-2-2,6,6,0,0,1-.65-2.82,5.83,5.83,0,0,1,.72-2.92,5,5,0,0,1,2-2,6.33,6.33,0,0,1,3.05-.7,8.5,8.5,0,0,1,3,.45l-.19,2a6.32,6.32,0,0,0-1.21-.32,8,8,0,0,0-1.45-.13,4,4,0,0,0-1.84.42A3,3,0,0,0,311,120a3.78,3.78,0,0,0-.46,1.91,3.6,3.6,0,0,0,1,2.64,3.55,3.55,0,0,0,2.65,1,9.78,9.78,0,0,0,1.41-.11,8.89,8.89,0,0,0,1.27-.29L317,127a7.11,7.11,0,0,1-1.33.34,10.87,10.87,0,0,1-1.63.12A6.65,6.65,0,0,1,310.77,126.78Z"/><path class="cls-6" d="M319.17,126.78a2.48,2.48,0,0,1-.53-1.72v-8.53h2.28v7.81a1.13,1.13,0,0,0,.22.82,1.23,1.23,0,0,0,.83.22h3.79l-.54,2h-4.4A2.18,2.18,0,0,1,319.17,126.78Z"/><path class="cls-6" d="M326.53,114.29l3.3-2,1,1.69-3.54,1.65Zm.67,2.24h2.27v10.81H327.2Z"/><path class="cls-6" d="M331.65,116.53h1.62l5.58,6.77v-6.77H341v10.81h-1.54l-5.66-7v7h-2.13Z"/><path class="cls-6" d="M343.15,116.53h2.28v10.81h-2.28Z"/><path class="cls-6" d="M349.76,126.78a4.85,4.85,0,0,1-2-2,6,6,0,0,1-.64-2.82,5.72,5.72,0,0,1,.72-2.92,4.87,4.87,0,0,1,2-2,6.33,6.33,0,0,1,3-.7,8.46,8.46,0,0,1,3,.45l-.19,2a6.32,6.32,0,0,0-1.21-.32,7.87,7.87,0,0,0-1.44-.13,3.93,3.93,0,0,0-1.84.42A2.9,2.9,0,0,0,350,120a3.78,3.78,0,0,0-.47,1.91,3.35,3.35,0,0,0,3.62,3.62,9.54,9.54,0,0,0,1.4-.11,8.3,8.3,0,0,0,1.27-.29L356,127a7.23,7.23,0,0,1-1.34.34,10.84,10.84,0,0,1-1.62.12A6.66,6.66,0,0,1,349.76,126.78Z"/><path class="cls-6" d="M361.38,116.51h2.06l4.34,10.83h-2.43l-.8-2.12h-4.31l-.81,2.12h-2.52Zm2.43,6.74-1.34-3.63h-.15L361,123.25Z"/><rect class="cls-4" x="14" y="266" width="377" height="31" rx="15.5"/><path class="cls-6" d="M105.09,275.83h7.59l-.55,2h-4.76v2.58h4.22l-.1,2h-4.12v2.34h5.32l-.54,2h-7.06Z"/><path class="cls-6" d="M114.18,275.83h1.62l5.58,6.77v-6.77h2.13v10.82H122l-5.66-7v7h-2.13Z"/><path class="cls-6" d="M129.78,286.08a2.46,2.46,0,0,1-.53-1.72v-8.53h2.28v7.81a1.13,1.13,0,0,0,.22.82,1.18,1.18,0,0,0,.83.22h3.79l-.54,2h-4.4A2.14,2.14,0,0,1,129.78,286.08Z"/><path class="cls-6" d="M141.68,275.82h2.07l4.33,10.83h-2.43l-.8-2.13h-4.3l-.82,2.13h-2.51Zm2.44,6.73-1.35-3.63h-.14l-1.35,3.63Z"/><path class="cls-6" d="M156.48,275.82h2.07l4.33,10.83h-2.43l-.8-2.13h-4.3l-.82,2.13H152Zm2.44,6.73-1.35-3.63h-.14l-1.35,3.63Z"/><path class="cls-6" d="M165.81,286.08a4.73,4.73,0,0,1-2-2,6,6,0,0,1-.65-2.81,5.86,5.86,0,0,1,.72-2.93,4.93,4.93,0,0,1,2-2,6.33,6.33,0,0,1,3-.71,8.46,8.46,0,0,1,3,.45l-.19,2a7.16,7.16,0,0,0-1.21-.32,8.87,8.87,0,0,0-1.45-.12,4,4,0,0,0-1.84.41A3.09,3.09,0,0,0,166,279.3a3.73,3.73,0,0,0-.46,1.91,3.34,3.34,0,0,0,3.62,3.61,8.5,8.5,0,0,0,1.4-.11,7.48,7.48,0,0,0,1.27-.29l.17,1.92a6.91,6.91,0,0,1-1.33.34,10.87,10.87,0,0,1-1.63.13A6.54,6.54,0,0,1,165.81,286.08Z"/><path class="cls-6" d="M176.68,277.8H173.3v-2h9.31l-.54,2H179v8.85h-2.3Z"/><path class="cls-6" d="M183.84,275.83h2.28v10.82h-2.28Z"/><path class="cls-6" d="M187.32,275.83h2.59l3,7.43H193l2.77-7.43h2.6l-4.54,10.82H192Z"/><path class="cls-6" d="M199.6,275.83h2.28v10.82H199.6Z"/><path class="cls-6" d="M204.05,275.83h3.84a9.79,9.79,0,0,1,2.85.36,4.68,4.68,0,0,1,1.94,1.13,5.17,5.17,0,0,1,1.29,3.81,5.31,5.31,0,0,1-1.55,4.09,4.9,4.9,0,0,1-1.85,1.07,7.83,7.83,0,0,1-2.45.36h-4.07Zm4.1,8.85a4.7,4.7,0,0,0,1.54-.22,2.91,2.91,0,0,0,1.07-.71,3,3,0,0,0,.65-1.12,4.66,4.66,0,0,0,.23-1.49,5.18,5.18,0,0,0-.18-1.49,2.28,2.28,0,0,0-.56-1,2.47,2.47,0,0,0-1.1-.68,5.55,5.55,0,0,0-1.57-.2h-1.91v6.88Z"/><path class="cls-6" d="M218.64,275.82h2.07L225,286.65h-2.43l-.8-2.13h-4.3l-.82,2.13h-2.51Zm2.44,6.73-1.35-3.63h-.14l-1.35,3.63Z"/><path class="cls-6" d="M226.36,275.83h3.84a9.72,9.72,0,0,1,2.84.36,4.62,4.62,0,0,1,1.94,1.13,5.17,5.17,0,0,1,1.3,3.81,5.28,5.28,0,0,1-1.56,4.09,4.86,4.86,0,0,1-1.84,1.07,7.85,7.85,0,0,1-2.46.36h-4.06Zm4.09,8.85a4.76,4.76,0,0,0,1.55-.22,2.9,2.9,0,0,0,1.72-1.83,4.66,4.66,0,0,0,.22-1.49,5.18,5.18,0,0,0-.18-1.49,2.18,2.18,0,0,0-.56-1,2.36,2.36,0,0,0-1.1-.68,5.55,5.55,0,0,0-1.57-.2h-1.9v6.88Z"/><path class="cls-6" d="M243.76,286.08a4.79,4.79,0,0,1-2-2,6,6,0,0,1-.64-2.81,5.86,5.86,0,0,1,.72-2.93,4.9,4.9,0,0,1,2-2,6.33,6.33,0,0,1,3.05-.71,8.46,8.46,0,0,1,3,.45l-.19,2a7.16,7.16,0,0,0-1.21-.32,8.75,8.75,0,0,0-1.44-.12,3.93,3.93,0,0,0-1.84.41A3,3,0,0,0,244,279.3a3.73,3.73,0,0,0-.47,1.91,3.34,3.34,0,0,0,3.62,3.61,8.54,8.54,0,0,0,1.41-.11,7.35,7.35,0,0,0,1.26-.29l.18,1.92a7.23,7.23,0,0,1-1.34.34,10.84,10.84,0,0,1-1.62.13A6.58,6.58,0,0,1,243.76,286.08Z"/><path class="cls-6" d="M252.16,286.08a2.46,2.46,0,0,1-.52-1.72v-8.53h2.27v7.81a1.13,1.13,0,0,0,.22.82,1.18,1.18,0,0,0,.83.22h3.8l-.55,2h-4.4A2.17,2.17,0,0,1,252.16,286.08Z"/><path class="cls-6" d="M259.52,273.59l3.3-2,1,1.7-3.54,1.65Zm.68,2.24h2.27v10.82H260.2Z"/><path class="cls-6" d="M264.64,275.83h1.62l5.58,6.77v-6.77H274v10.82h-1.53l-5.67-7v7h-2.13Z"/><path class="cls-6" d="M276.15,275.83h2.27v10.82h-2.27Z"/><path class="cls-6" d="M282.76,286.08a4.68,4.68,0,0,1-2-2,6.36,6.36,0,0,1,.07-5.74,4.9,4.9,0,0,1,2-2,6.34,6.34,0,0,1,3.06-.71,8.5,8.5,0,0,1,3,.45l-.2,2a7.28,7.28,0,0,0-1.2-.32,9,9,0,0,0-1.45-.12,3.93,3.93,0,0,0-1.84.41A3,3,0,0,0,283,279.3a3.73,3.73,0,0,0-.47,1.91,3.34,3.34,0,0,0,3.62,3.61,8.54,8.54,0,0,0,1.41-.11,7.35,7.35,0,0,0,1.26-.29l.18,1.92a7.23,7.23,0,0,1-1.34.34,10.84,10.84,0,0,1-1.62.13A6.51,6.51,0,0,1,282.76,286.08Z"/><path class="cls-6" d="M294.37,275.82h2.07l4.33,10.83h-2.43l-.8-2.13h-4.3l-.82,2.13h-2.51Zm2.43,6.73-1.34-3.63h-.14L294,282.55Z"/><polyline class="cls-4" points="279.09 142.96 281.31 145.19 279.09 147.41"/><path class="cls-4" d="M275.41,144.14h4.2a0,0,0,0,1,0,0v2.1a0,0,0,0,1,0,0h-5.24a0,0,0,0,1,0,0v-1.06A1,1,0,0,1,275.41,144.14Z"/><rect class="cls-7" x="93.42" y="149" width="2.15" height="7" rx="1.08"/><rect class="cls-7" x="93.42" y="149" width="2.15" height="7" rx="1.08" transform="translate(247 58) rotate(90)"/><path class="cls-8" d="M170.5,182c10.5,1,17.5,4,20,6C200,195.53,207,206.52,206,219.83a35.62,35.62,0,1,1-69.32-13.66A54.49,54.49,0,0,1,145,193a25.15,25.15,0,0,0,6.41-17.24c-.25-7.5-3.15-15.89-14.37-17.79-20.38-3.45-26.39,13.71-24.69,22.35,1.06,5.42,2.69,10.83,2.69,16.65a52.5,52.5,0,1,1-82-43.43"/><rect class="cls-9" x="156" y="220" width="236" height="28" rx="14"/><circle class="cls-10" cx="170.75" cy="217.13" r="31.38"/><path class="cls-6" d="M204.66,225.54H206V232h-1.36Z"/><path class="cls-6" d="M207.32,225.54h1.19l2.27,4.15h.06l2.25-4.15h1.14V232h-1.32v-3.55l-1.62,2.77h-1l-1.64-2.85V232h-1.32Z"/><path class="cls-6" d="M215.54,225.54H218a2.87,2.87,0,0,1,1.87.54,2,2,0,0,1,.66,1.63,2.21,2.21,0,0,1-.61,1.67,2.51,2.51,0,0,1-1.82.6H216.9v2h-1.36Zm2.42,3.25a1.2,1.2,0,0,0,.85-.27,1.09,1.09,0,0,0,.28-.78c0-.68-.39-1-1.16-1h-1v2.07Z"/><path class="cls-6" d="M222.87,231.68a3,3,0,0,1-1.2-1.16,3.65,3.65,0,0,1,0-3.51,3,3,0,0,1,1.2-1.16,3.52,3.52,0,0,1,1.67-.4,3.48,3.48,0,0,1,1.68.4,3,3,0,0,1,1.19,1.16,3.65,3.65,0,0,1,0,3.51,3,3,0,0,1-1.19,1.16,3.48,3.48,0,0,1-1.68.4A3.52,3.52,0,0,1,222.87,231.68Zm2.66-1.05a1.8,1.8,0,0,0,.68-.76,2.66,2.66,0,0,0,0-2.21,1.86,1.86,0,0,0-.68-.76,1.89,1.89,0,0,0-2,0,1.91,1.91,0,0,0-.67.76,2.57,2.57,0,0,0,0,2.21,1.84,1.84,0,0,0,.67.76,1.89,1.89,0,0,0,2,0Z"/><path class="cls-6" d="M234.33,230.82,234,232h-.59a1.19,1.19,0,0,1-.62-.14,1.72,1.72,0,0,1-.47-.47l-1-1.38a.53.53,0,0,0-.19-.18.64.64,0,0,0-.27,0h-.63V232h-1.37v-6.45h2.62a2.81,2.81,0,0,1,1.79.5,1.87,1.87,0,0,1,.62,1.56,2.23,2.23,0,0,1-.33,1.17,1.78,1.78,0,0,1-1,.76l.75,1.07a.4.4,0,0,0,.2.17,1.09,1.09,0,0,0,.37,0Zm-2.91-2.22c.75,0,1.12-.32,1.12-1a.8.8,0,0,0-.29-.71,1.42,1.42,0,0,0-.85-.21h-1.14v1.88Z"/><path class="cls-6" d="M236.45,226.72h-2v-1.18H240l-.32,1.18h-1.86V232h-1.38Z"/><path class="cls-6" d="M242.08,225.54h1.24l2.6,6.45h-1.46l-.48-1.27H241.4l-.49,1.27H239.4Zm1.46,4-.81-2.17h-.08l-.81,2.17Z"/><path class="cls-6" d="M246.71,225.54h1l3.35,4v-4h1.28V232h-.93l-3.4-4.15V232h-1.27Z"/><path class="cls-6" d="M255.12,226.72h-2v-1.18h5.59l-.32,1.18H256.5V232h-1.38Z"/><path class="cls-6" d="M259.42,225.54H264l-.32,1.18h-2.86v1.53h2.53l-.06,1.17h-2.47v1.4H264l-.32,1.17h-4.24Z"/><path class="cls-6" d="M264.94,228.84a.82.82,0,0,1-.25-.59.83.83,0,0,1,.25-.59.85.85,0,0,1,.59-.25.84.84,0,0,1,.84.84.82.82,0,0,1-.84.83A.84.84,0,0,1,264.94,228.84Zm0,3a.82.82,0,0,1-.25-.59.85.85,0,0,1,.84-.84.82.82,0,0,1,.6.25.84.84,0,0,1,.24.59.82.82,0,0,1-.84.83A.84.84,0,0,1,264.94,231.85Z"/><path class="cls-6" d="M270,231.43a2.47,2.47,0,0,1-.68-1.86,3,3,0,0,1,.3-1.38,2.07,2.07,0,0,1,.85-.93,2.54,2.54,0,0,1,1.32-.33,2,2,0,0,1,1.6.62,2.5,2.5,0,0,1,.53,1.66,3,3,0,0,1-.05.61h-3.52a1.45,1.45,0,0,0,.45,1.07,1.77,1.77,0,0,0,1.24.38,3.72,3.72,0,0,0,1.45-.26l.12.77a4.42,4.42,0,0,1-1.68.3A2.67,2.67,0,0,1,270,231.43Zm2.93-2.33V229a1.6,1.6,0,0,0-.26-.92,1,1,0,0,0-.93-.4,1.31,1.31,0,0,0-1,.39,1.57,1.57,0,0,0-.39,1Z"/><path class="cls-6" d="M275.09,225.27l1-.27v7h-1Z"/><path class="cls-6" d="M279.71,227h.8l.11.66a2,2,0,0,1,1.66-.74,2.6,2.6,0,0,1,1.25.3,2.18,2.18,0,0,1,.86.87,2.76,2.76,0,0,1,.32,1.36,2.84,2.84,0,0,1-.33,1.4,2.23,2.23,0,0,1-.89.91,2.5,2.5,0,0,1-1.26.31,2.73,2.73,0,0,1-.87-.13,2.07,2.07,0,0,1-.66-.37V234l-1,.27Zm3.58,3.77a2,2,0,0,0,.41-1.29,1.81,1.81,0,0,0-.44-1.3,1.54,1.54,0,0,0-1.14-.44,1.51,1.51,0,0,0-1,.34,1.1,1.1,0,0,0-.4.89v1.65a1.5,1.5,0,0,0,.63.46,2,2,0,0,0,.83.17A1.38,1.38,0,0,0,283.29,230.78Z"/><path class="cls-6" d="M286,231.63a1.5,1.5,0,0,1-.52-1.2,1.18,1.18,0,0,1,.47-1,2.55,2.55,0,0,1,1.46-.34h.31a4.91,4.91,0,0,1,1,.09v-.4a1,1,0,0,0-.31-.8,1.57,1.57,0,0,0-1-.24A5.58,5.58,0,0,0,286,228l-.08-.8a6.48,6.48,0,0,1,1.66-.22,2.48,2.48,0,0,1,1.6.43,1.59,1.59,0,0,1,.54,1.32v2.39c0,.42,0,.73,0,.92h-.85a5.49,5.49,0,0,1-.07-.55h0a1.52,1.52,0,0,1-.61.48,2.16,2.16,0,0,1-.86.16A1.93,1.93,0,0,1,286,231.63Zm2.38-.59a.9.9,0,0,0,.35-.73v-.49h-1.49q-.75,0-.75.63a.77.77,0,0,0,.27.63,1.09,1.09,0,0,0,.74.23A1.42,1.42,0,0,0,288.41,231Z"/><path class="cls-6" d="M292.08,231.77a2.18,2.18,0,0,1-.94-.89,2.93,2.93,0,0,1,0-2.76,2.26,2.26,0,0,1,1-.89,3.27,3.27,0,0,1,1.43-.3,4,4,0,0,1,1.38.24l-.13.81a3.14,3.14,0,0,0-1.17-.24,1.79,1.79,0,0,0-1.33.47,1.67,1.67,0,0,0-.49,1.28,1.81,1.81,0,0,0,.47,1.29,1.76,1.76,0,0,0,1.33.49,3.28,3.28,0,0,0,1.27-.26l.11.77a3.79,3.79,0,0,1-1.5.3A3,3,0,0,1,292.08,231.77Z"/><path class="cls-6" d="M296.2,226.05a.62.62,0,0,1-.2-.48.61.61,0,0,1,.2-.48.66.66,0,0,1,.49-.19.71.71,0,0,1,.5.19.68.68,0,0,1,0,1,.72.72,0,0,1-.5.2A.66.66,0,0,1,296.2,226.05Zm0,1h1v5h-1Z"/><path class="cls-6" d="M299.06,231.43a2.47,2.47,0,0,1-.68-1.86,3.18,3.18,0,0,1,.29-1.38,2.19,2.19,0,0,1,.85-.93,2.6,2.6,0,0,1,1.33-.33,2,2,0,0,1,1.6.62,2.5,2.5,0,0,1,.53,1.66,3.86,3.86,0,0,1-.05.61h-3.52a1.45,1.45,0,0,0,.45,1.07,1.75,1.75,0,0,0,1.24.38,3.72,3.72,0,0,0,1.45-.26l.11.77a4.33,4.33,0,0,1-1.67.3A2.67,2.67,0,0,1,299.06,231.43ZM302,229.1V229a1.68,1.68,0,0,0-.26-.92,1,1,0,0,0-.93-.4,1.3,1.3,0,0,0-1,.39,1.57,1.57,0,0,0-.39,1Z"/><path class="cls-6" d="M304.11,227H305l.07.45a3.17,3.17,0,0,1,.83-.39,2.89,2.89,0,0,1,.92-.14,1.67,1.67,0,0,1,1.26.45,1.92,1.92,0,0,1,.43,1.37V232h-1v-3.14a1.22,1.22,0,0,0-.25-.84,1,1,0,0,0-.76-.26,2.37,2.37,0,0,0-.73.12,2.6,2.6,0,0,0-.67.32V232h-1Z"/><path class="cls-6" d="M310.24,231.62a2,2,0,0,1-.39-1.37v-4.33l1-.2v1.38h1.77l-.29.82h-1.48v2.41a1,1,0,0,0,.19.69,1,1,0,0,0,.69.2,3.37,3.37,0,0,0,.8-.1l.05.76a3.6,3.6,0,0,1-1.05.15A1.72,1.72,0,0,1,310.24,231.62Z"/><path class="cls-6" d="M313.87,231.43a2.47,2.47,0,0,1-.68-1.86,3.18,3.18,0,0,1,.29-1.38,2.19,2.19,0,0,1,.85-.93,2.55,2.55,0,0,1,1.33-.33,2,2,0,0,1,1.6.62,2.5,2.5,0,0,1,.53,1.66,3.86,3.86,0,0,1-.05.61h-3.52a1.45,1.45,0,0,0,.45,1.07,1.75,1.75,0,0,0,1.24.38,3.76,3.76,0,0,0,1.45-.26l.11.77a4.36,4.36,0,0,1-1.67.3A2.67,2.67,0,0,1,313.87,231.43Zm2.93-2.33V229a1.68,1.68,0,0,0-.26-.92,1,1,0,0,0-.93-.4,1.28,1.28,0,0,0-1,.39,1.57,1.57,0,0,0-.39,1Z"/><path class="cls-6" d="M321.88,231.78a2.13,2.13,0,0,1-.88-.88,2.72,2.72,0,0,1-.33-1.37,2.66,2.66,0,0,1,.35-1.37,2.31,2.31,0,0,1,1-.91,2.57,2.57,0,0,1,1.29-.32,2,2,0,0,1,.68.11,1.13,1.13,0,0,1,.5.28h0v-2l1.35-.35v5.58c0,.42,0,.89,0,1.41h-1.14c0-.17-.06-.34-.08-.51h0a1.66,1.66,0,0,1-.59.44,2.06,2.06,0,0,1-.84.16A2.66,2.66,0,0,1,321.88,231.78Zm2.12-1a1.1,1.1,0,0,0,.45-.37v-1.32a1.05,1.05,0,0,0-.29-.8,1.11,1.11,0,0,0-.8-.29,1.21,1.21,0,0,0-.95.4,1.4,1.4,0,0,0-.37,1,1.55,1.55,0,0,0,.37,1.09,1.25,1.25,0,0,0,1,.41A1.42,1.42,0,0,0,324,230.81Z"/><path class="cls-6" d="M327.31,231.42a2.53,2.53,0,0,1-.69-1.9,2.75,2.75,0,0,1,.31-1.33,2.29,2.29,0,0,1,.87-.93,2.76,2.76,0,0,1,1.38-.33,2,2,0,0,1,1.68.67,2.62,2.62,0,0,1,.55,1.69,3.58,3.58,0,0,1-.06.68H328a.93.93,0,0,0,.41.74,1.86,1.86,0,0,0,1.07.27,3.66,3.66,0,0,0,1.43-.25l.12,1.08a4.48,4.48,0,0,1-1.68.27A2.93,2.93,0,0,1,327.31,231.42Zm2.74-2.38a1,1,0,0,0,0-.18,1.2,1.2,0,0,0-.27-.69.82.82,0,0,0-.65-.25,1,1,0,0,0-.77.3,1.18,1.18,0,0,0-.29.82Z"/><path class="cls-6" d="M333.4,232a4.76,4.76,0,0,1-1.06-.3v-6.32l1.34-.35v2.45h0a2.28,2.28,0,0,1,.69-.38,2.48,2.48,0,0,1,.87-.14,2.16,2.16,0,0,1,1.09.28,2.06,2.06,0,0,1,.8.85,2.75,2.75,0,0,1,.3,1.33,2.55,2.55,0,0,1-.77,2,2.91,2.91,0,0,1-2.06.7A6.26,6.26,0,0,1,333.4,232Zm2.33-1.41a1.9,1.9,0,0,0,0-2.14,1.09,1.09,0,0,0-.88-.39,1.14,1.14,0,0,0-.89.32,1.36,1.36,0,0,0-.28.93v1.5a3.07,3.07,0,0,0,1.06.16A1.28,1.28,0,0,0,335.73,230.56Z"/><path class="cls-6" d="M338.82,231.42a2.53,2.53,0,0,1-.69-1.9,2.86,2.86,0,0,1,.3-1.33,2.25,2.25,0,0,1,.88-.93,2.7,2.7,0,0,1,1.37-.33,2,2,0,0,1,1.68.67,2.56,2.56,0,0,1,.55,1.69,3.58,3.58,0,0,1-.06.68h-3.3a.9.9,0,0,0,.41.74A1.84,1.84,0,0,0,341,231a3.66,3.66,0,0,0,1.43-.25l.11,1.08a4.48,4.48,0,0,1-1.68.27A2.89,2.89,0,0,1,338.82,231.42Zm2.74-2.38c0-.07,0-.13,0-.18a1.28,1.28,0,0,0-.28-.69.81.81,0,0,0-.65-.25,1,1,0,0,0-.77.3,1.18,1.18,0,0,0-.28.82Z"/><path class="cls-6" d="M347.08,231.78a2.2,2.2,0,0,1-1-.89,2.67,2.67,0,0,1-.35-1.38,2.58,2.58,0,0,1,.36-1.38,2.28,2.28,0,0,1,1-.89,3.25,3.25,0,0,1,1.45-.31,4.8,4.8,0,0,1,1.4.21l-.16,1.09a3.35,3.35,0,0,0-1.13-.19,1.69,1.69,0,0,0-1.11.37,1.55,1.55,0,0,0,0,2.17,1.63,1.63,0,0,0,1.12.39,2.92,2.92,0,0,0,1.18-.22l.12,1.08a3.36,3.36,0,0,1-.64.18,4.28,4.28,0,0,1-.81.07A3.38,3.38,0,0,1,347.08,231.78Z"/><path class="cls-6" d="M351.28,231.42a2.53,2.53,0,0,1-.69-1.9,2.75,2.75,0,0,1,.31-1.33,2.29,2.29,0,0,1,.87-.93,2.76,2.76,0,0,1,1.38-.33,2,2,0,0,1,1.68.67,2.61,2.61,0,0,1,.54,1.69,3.62,3.62,0,0,1-.05.68H352a.93.93,0,0,0,.41.74,1.86,1.86,0,0,0,1.07.27,3.66,3.66,0,0,0,1.43-.25l.12,1.08a4.48,4.48,0,0,1-1.68.27A2.92,2.92,0,0,1,351.28,231.42ZM354,229a1,1,0,0,0,0-.18,1.2,1.2,0,0,0-.27-.69.82.82,0,0,0-.65-.25,1,1,0,0,0-.77.3,1.18,1.18,0,0,0-.29.82Z"/><path class="cls-6" d="M356.31,227h1.1l.06.53a2.29,2.29,0,0,1,.75-.44,2.49,2.49,0,0,1,.94-.17,2.44,2.44,0,0,1,1.21.3,2.22,2.22,0,0,1,.86.86,2.72,2.72,0,0,1,.31,1.33,2.87,2.87,0,0,1-.34,1.46,2.19,2.19,0,0,1-.91.9,2.84,2.84,0,0,1-1.31.3,2.64,2.64,0,0,1-.74-.1,1.9,1.9,0,0,1-.59-.25v2.15l-1.34.35Zm3.51,3.57a1.64,1.64,0,0,0,.35-1.13,1.42,1.42,0,0,0-.36-1,1.22,1.22,0,0,0-.9-.36,1.3,1.3,0,0,0-.92.31,1.05,1.05,0,0,0-.34.82v1.31a1.36,1.36,0,0,0,.51.32,1.89,1.89,0,0,0,.69.14A1.28,1.28,0,0,0,359.82,230.58Z"/><path class="cls-6" d="M362.57,226.13a.86.86,0,0,1,0-1.21.87.87,0,0,1,.61-.23.89.89,0,0,1,.61.23.83.83,0,0,1,0,1.21.84.84,0,0,1-.61.23A.83.83,0,0,1,362.57,226.13Zm-.06.88h1.34v5h-1.34Z"/><path class="cls-6" d="M365.08,225.35l1.35-.35v7h-1.35Z"/><path class="cls-6" d="M367.64,225.35,369,225v7h-1.34Z"/><path class="cls-6" d="M370.74,231.86a1.6,1.6,0,0,1-.66-.6,1.62,1.62,0,0,1-.23-.87,1.25,1.25,0,0,1,.49-1.09,2.75,2.75,0,0,1,1.61-.36h.33a6.29,6.29,0,0,1,.73,0v-.22a.62.62,0,0,0-.27-.56,1.67,1.67,0,0,0-.85-.17,6.25,6.25,0,0,0-1.49.2l-.08-1.06a7.48,7.48,0,0,1,.91-.17,7.39,7.39,0,0,1,1-.07,2.44,2.44,0,0,1,1.56.43,1.62,1.62,0,0,1,.54,1.34V231c0,.45,0,.78,0,1h-1.16a3.7,3.7,0,0,1-.07-.48h0a1.88,1.88,0,0,1-1.42.57A2,2,0,0,1,370.74,231.86Zm2-1a.62.62,0,0,0,.27-.53v-.46h-1.17a.69.69,0,0,0-.45.14.45.45,0,0,0-.17.38.57.57,0,0,0,.23.49.93.93,0,0,0,.6.18A1.09,1.09,0,0,0,372.74,230.85Z"/><path class="cls-6" d="M375.45,227h1.16l.08.67a3.33,3.33,0,0,1,1.82-.76l-.05,1.26a3.66,3.66,0,0,0-.85.17,4.19,4.19,0,0,0-.81.34V232h-1.35Z"/><path class="cls-6" d="M204.3,243.25l.11-1.14a6.39,6.39,0,0,0,.78.22,3.65,3.65,0,0,0,.77.09,1.34,1.34,0,0,0,.65-.12.36.36,0,0,0,.21-.32.32.32,0,0,0-.08-.21.64.64,0,0,0-.28-.17,4.13,4.13,0,0,0-.6-.2,2.73,2.73,0,0,1-1.16-.61,1.32,1.32,0,0,1-.36-.95,1.21,1.21,0,0,1,.61-1.11,2.85,2.85,0,0,1,1.48-.36,5.68,5.68,0,0,1,1.46.19l-.09,1.09a3.89,3.89,0,0,0-1.27-.21c-.55,0-.82.12-.82.36s.08.21.22.29a7.72,7.72,0,0,0,.83.3,2.57,2.57,0,0,1,1.11.58,1.23,1.23,0,0,1,.31.86,1.46,1.46,0,0,1-.59,1.27,2.43,2.43,0,0,1-1.46.42A5.82,5.82,0,0,1,204.3,243.25Z"/><path class="cls-6" d="M209.5,243a2,2,0,0,1-.56-1.54v-3.05h1.34v3a1,1,0,0,0,.23.72,1.14,1.14,0,0,0,1.4,0,1,1,0,0,0,.23-.72v-3h1.34v3.05a1.86,1.86,0,0,1-.59,1.51,2.5,2.5,0,0,1-1.7.51A2.58,2.58,0,0,1,209.5,243Z"/><path class="cls-6" d="M214.32,243.25l.1-1.14a6.07,6.07,0,0,0,.79.22,3.58,3.58,0,0,0,.77.09,1.36,1.36,0,0,0,.65-.12.37.37,0,0,0,.2-.32.31.31,0,0,0-.07-.21.79.79,0,0,0-.28-.17,4.34,4.34,0,0,0-.61-.2,2.68,2.68,0,0,1-1.15-.61,1.33,1.33,0,0,1-.37-.95,1.23,1.23,0,0,1,.61-1.11,2.91,2.91,0,0,1,1.49-.36,5.74,5.74,0,0,1,1.46.19l-.1,1.09a3.8,3.8,0,0,0-1.27-.21q-.81,0-.81.36c0,.12.07.21.22.29a8.19,8.19,0,0,0,.82.3,2.46,2.46,0,0,1,1.11.58,1.24,1.24,0,0,1,.32.86,1.46,1.46,0,0,1-.59,1.27,2.45,2.45,0,0,1-1.46.42A5.77,5.77,0,0,1,214.32,243.25Z"/><path class="cls-6" d="M222.14,243.22a2.16,2.16,0,0,1-.89-.88,3,3,0,0,1,0-2.75,2.51,2.51,0,0,1,.95-.91,2.74,2.74,0,0,1,1.3-.31,2.18,2.18,0,0,1,.67.1,1.37,1.37,0,0,1,.51.29h0v-2l1.34-.35V242c0,.42,0,.89,0,1.41h-1.13a4.54,4.54,0,0,1-.09-.51h0a1.69,1.69,0,0,1-.59.44,2.06,2.06,0,0,1-.84.16A2.6,2.6,0,0,1,222.14,243.22Zm2.11-1a1.2,1.2,0,0,0,.46-.37v-1.32a1,1,0,0,0-.3-.8,1.09,1.09,0,0,0-.8-.29,1.21,1.21,0,0,0-1,.4,1.44,1.44,0,0,0-.36,1,1.59,1.59,0,0,0,.36,1.09,1.25,1.25,0,0,0,1,.41A1.55,1.55,0,0,0,224.25,242.25Z"/><path class="cls-6" d="M227.31,237.56a.76.76,0,0,1-.25-.6.79.79,0,0,1,.25-.6.92.92,0,0,1,1.22,0,.79.79,0,0,1,.26.6.76.76,0,0,1-.26.6.9.9,0,0,1-1.22,0Zm-.06.89h1.35v5h-1.35Z"/><path class="cls-6" d="M230.26,242.85a2.49,2.49,0,0,1-.69-1.89,2.86,2.86,0,0,1,.3-1.33,2.25,2.25,0,0,1,.88-.93,2.7,2.7,0,0,1,1.37-.33,2,2,0,0,1,1.68.67,2.56,2.56,0,0,1,.55,1.69,3.58,3.58,0,0,1-.06.68H231a.88.88,0,0,0,.41.73,1.75,1.75,0,0,0,1.07.28,3.89,3.89,0,0,0,1.43-.25l.11,1.08a4.48,4.48,0,0,1-1.68.27A2.85,2.85,0,0,1,230.26,242.85Zm2.73-2.37a1,1,0,0,0,0-.18,1.2,1.2,0,0,0-.27-.69.82.82,0,0,0-.65-.25,1,1,0,0,0-.77.3,1.18,1.18,0,0,0-.28.82Z"/><path class="cls-6" d="M235.28,238.45h1.19l.07.44a2.89,2.89,0,0,1,.79-.38,2.58,2.58,0,0,1,.83-.14,1.65,1.65,0,0,1,1.29.49,2.1,2.1,0,0,1,.43,1.44v3.13h-1.35v-3a1.49,1.49,0,0,0-.05-.47.64.64,0,0,0-.19-.29.88.88,0,0,0-.61-.19,1.82,1.82,0,0,0-.56.09,2.59,2.59,0,0,0-.5.24v3.6h-1.34Z"/><path class="cls-6" d="M241.39,243.08a1.71,1.71,0,0,1-.45-1.35v-4.38l1.34-.2v1.37H244l-.24,1.12h-1.5v1.85a1,1,0,0,0,.17.64.71.71,0,0,0,.55.2,3.47,3.47,0,0,0,.87-.08l.07,1.05a3,3,0,0,1-.55.12,4.87,4.87,0,0,1-.66,0A2,2,0,0,1,241.39,243.08Z"/><path class="cls-6" d="M245.16,242.85a2.49,2.49,0,0,1-.69-1.89,2.86,2.86,0,0,1,.3-1.33,2.32,2.32,0,0,1,.88-.93,2.7,2.7,0,0,1,1.37-.33,2,2,0,0,1,1.68.67,2.56,2.56,0,0,1,.55,1.69,3.58,3.58,0,0,1-.06.68h-3.3a.88.88,0,0,0,.41.73,1.77,1.77,0,0,0,1.07.28,3.85,3.85,0,0,0,1.43-.25l.12,1.08a4.57,4.57,0,0,1-1.69.27A2.85,2.85,0,0,1,245.16,242.85Zm2.74-2.37c0-.07,0-.13,0-.18a1.21,1.21,0,0,0-.28-.69.8.8,0,0,0-.64-.25,1,1,0,0,0-.78.3,1.23,1.23,0,0,0-.28.82Z"/><path class="cls-6" d="M249.9,243.25l.1-1.14a6.07,6.07,0,0,0,.79.22,3.58,3.58,0,0,0,.77.09,1.29,1.29,0,0,0,.64-.12.36.36,0,0,0,.21-.32.28.28,0,0,0-.08-.21.66.66,0,0,0-.27-.17,4.34,4.34,0,0,0-.61-.2,2.68,2.68,0,0,1-1.15-.61,1.29,1.29,0,0,1-.37-.95,1.23,1.23,0,0,1,.61-1.11,2.88,2.88,0,0,1,1.49-.36,5.74,5.74,0,0,1,1.46.19l-.1,1.09a3.85,3.85,0,0,0-1.27-.21q-.81,0-.81.36c0,.12.07.21.22.29a7.31,7.31,0,0,0,.82.3,2.57,2.57,0,0,1,1.11.58,1.23,1.23,0,0,1,.31.86,1.45,1.45,0,0,1-.58,1.27,2.45,2.45,0,0,1-1.46.42A5.77,5.77,0,0,1,249.9,243.25Z"/><path class="cls-6" d="M257.05,243.07a1.52,1.52,0,0,1-.51-1.2,1.17,1.17,0,0,1,.47-1,2.46,2.46,0,0,1,1.46-.34h.31a5,5,0,0,1,1,.09v-.41a1,1,0,0,0-.31-.79,1.59,1.59,0,0,0-1-.24,6,6,0,0,0-1.45.2l-.09-.8a7,7,0,0,1,1.66-.21,2.5,2.5,0,0,1,1.61.43,1.59,1.59,0,0,1,.54,1.32v2.39c0,.42,0,.73,0,.92H260c0-.23-.06-.42-.08-.56h0a1.49,1.49,0,0,1-.61.49,2.13,2.13,0,0,1-.86.16A2,2,0,0,1,257.05,243.07Zm2.39-.6a.87.87,0,0,0,.35-.72v-.5H258.3c-.5,0-.75.22-.75.64a.77.77,0,0,0,.27.63,1.13,1.13,0,0,0,.74.23A1.36,1.36,0,0,0,259.44,242.47Z"/><path class="cls-6" d="M262.14,238.45H263l.08.45a2.82,2.82,0,0,1,.82-.39,2.91,2.91,0,0,1,.93-.14,1.67,1.67,0,0,1,1.26.45,2,2,0,0,1,.43,1.37v3.24h-1v-3.14a1.22,1.22,0,0,0-.25-.84,1,1,0,0,0-.76-.27,2.45,2.45,0,0,0-.74.13,2.53,2.53,0,0,0-.66.32v3.8h-1Z"/><path class="cls-6" d="M268.27,243.05a1.87,1.87,0,0,1-.4-1.36v-4.34l1-.2v1.39h1.78l-.29.82h-1.49v2.41a1,1,0,0,0,.19.68.92.92,0,0,0,.69.2,3.32,3.32,0,0,0,.8-.09l.06.76a3.67,3.67,0,0,1-1.06.14A1.66,1.66,0,0,1,268.27,243.05Z"/><path class="cls-6" d="M271.9,242.87a2.45,2.45,0,0,1-.69-1.86,3,3,0,0,1,.3-1.38,2.13,2.13,0,0,1,.85-.93,2.54,2.54,0,0,1,1.32-.33,2,2,0,0,1,1.6.62,2.44,2.44,0,0,1,.53,1.65,4,4,0,0,1,0,.62h-3.53a1.45,1.45,0,0,0,.45,1.07,1.82,1.82,0,0,0,1.24.38,3.69,3.69,0,0,0,1.45-.26l.12.77a4.4,4.4,0,0,1-1.67.3A2.68,2.68,0,0,1,271.9,242.87Zm2.92-2.33v-.11a1.59,1.59,0,0,0-.26-.91,1,1,0,0,0-.93-.4,1.27,1.27,0,0,0-1,.39,1.52,1.52,0,0,0-.4,1Z"/><path class="cls-6" d="M277.46,243.44a5.08,5.08,0,0,1-.8-.23l.09-.85a4.13,4.13,0,0,0,.75.26,3.59,3.59,0,0,0,.78.09,1.46,1.46,0,0,0,.78-.17.56.56,0,0,0,.26-.48.52.52,0,0,0-.23-.44,4.34,4.34,0,0,0-.84-.36,3.26,3.26,0,0,1-1.07-.55,1.15,1.15,0,0,1-.43-1,1.17,1.17,0,0,1,.54-1,2.48,2.48,0,0,1,1.38-.34,4.74,4.74,0,0,1,1.36.21l-.09.8a3.38,3.38,0,0,0-1.22-.22c-.65,0-1,.18-1,.56a.49.49,0,0,0,.24.43,4.25,4.25,0,0,0,.84.34,3.12,3.12,0,0,1,1.12.57,1.16,1.16,0,0,1,.35.9,1.34,1.34,0,0,1-.56,1.16,2.37,2.37,0,0,1-1.43.4A5,5,0,0,1,277.46,243.44Z"/><path class="cls-6" d="M284.28,243.24a2.1,2.1,0,0,1-.86-.86,3.29,3.29,0,0,1,0-2.83,2.24,2.24,0,0,1,.89-.89,2.46,2.46,0,0,1,1.21-.29,2.07,2.07,0,0,1,.9.17,1.68,1.68,0,0,1,.6.47h0v-2.29l1-.27v5.66c0,.3,0,.74,0,1.33h-.84a5.4,5.4,0,0,1-.09-.6h0a2,2,0,0,1-1.64.69A2.58,2.58,0,0,1,284.28,243.24Zm2.2-.74a1.67,1.67,0,0,0,.59-.53v-1.55a1.16,1.16,0,0,0-.39-.88,1.57,1.57,0,0,0-2.14.13,2,2,0,0,0-.42,1.33,1.75,1.75,0,0,0,.42,1.27,1.47,1.47,0,0,0,1.11.43A1.62,1.62,0,0,0,286.48,242.5Z"/><path class="cls-6" d="M289.75,242.87a2.45,2.45,0,0,1-.68-1.86,3,3,0,0,1,.29-1.38,2.13,2.13,0,0,1,.85-.93,2.54,2.54,0,0,1,1.32-.33,2,2,0,0,1,1.6.62,2.45,2.45,0,0,1,.54,1.65,3.89,3.89,0,0,1-.05.62h-3.53a1.45,1.45,0,0,0,.45,1.07,1.84,1.84,0,0,0,1.24.38,3.69,3.69,0,0,0,1.45-.26l.12.77a4.36,4.36,0,0,1-1.67.3A2.7,2.7,0,0,1,289.75,242.87Zm2.93-2.33v-.11a1.6,1.6,0,0,0-.27-.91,1,1,0,0,0-.92-.4,1.28,1.28,0,0,0-1,.39,1.52,1.52,0,0,0-.4,1Z"/><path class="cls-6" d="M297,236.71l1-.27v7h-1Z"/><path class="cls-6" d="M299.49,236.71l1-.27v7h-1Z"/><path class="cls-6" d="M302.21,242.87a2.49,2.49,0,0,1-.68-1.86,3.15,3.15,0,0,1,.29-1.38,2.19,2.19,0,0,1,.85-.93,2.57,2.57,0,0,1,1.33-.33,2,2,0,0,1,1.6.62,2.49,2.49,0,0,1,.53,1.65,3.89,3.89,0,0,1-.05.62h-3.52a1.45,1.45,0,0,0,.45,1.07,1.8,1.8,0,0,0,1.24.38,3.76,3.76,0,0,0,1.45-.26l.11.77a4.33,4.33,0,0,1-1.67.3A2.71,2.71,0,0,1,302.21,242.87Zm2.93-2.33v-.11a1.67,1.67,0,0,0-.26-.91,1,1,0,0,0-.93-.4,1.28,1.28,0,0,0-1,.39,1.57,1.57,0,0,0-.39,1Z"/><path class="cls-6" d="M308.68,245.64a5,5,0,0,1-.76-.19l.08-.79a4.9,4.9,0,0,0,.69.18,5,5,0,0,0,.72.06,1.42,1.42,0,0,0,1.12-.4,1.81,1.81,0,0,0,.36-1.25v-.33a1.72,1.72,0,0,1-.64.41,2.6,2.6,0,0,1-.87.14,2.55,2.55,0,0,1-1.26-.3,2.21,2.21,0,0,1-.86-.88,3,3,0,0,1,0-2.68,2.33,2.33,0,0,1,.92-.92,2.52,2.52,0,0,1,1.27-.32,2,2,0,0,1,.94.2,1.93,1.93,0,0,1,.62.5l.09-.62h.74v4.75a2.61,2.61,0,0,1-.59,1.89,2.36,2.36,0,0,1-1.78.62A5.81,5.81,0,0,1,308.68,245.64Zm2.21-3.61V240.4a1.17,1.17,0,0,0-.36-.89,1.4,1.4,0,0,0-1-.33,1.49,1.49,0,0,0-1.15.47,2,2,0,0,0,0,2.54,1.49,1.49,0,0,0,1.13.46A1.7,1.7,0,0,0,310.89,242Z"/><path class="cls-6" d="M313.51,243.07a1.52,1.52,0,0,1-.51-1.2,1.16,1.16,0,0,1,.46-1,2.49,2.49,0,0,1,1.47-.34h.3a4.91,4.91,0,0,1,1,.09v-.41a.94.94,0,0,0-.31-.79,1.55,1.55,0,0,0-1-.24,6.07,6.07,0,0,0-1.45.2l-.08-.8a6.93,6.93,0,0,1,1.66-.21,2.52,2.52,0,0,1,1.61.43,1.62,1.62,0,0,1,.53,1.32v2.39c0,.42,0,.73,0,.92h-.84c0-.23-.07-.42-.08-.56h0a1.56,1.56,0,0,1-.61.49,2.13,2.13,0,0,1-.86.16A2,2,0,0,1,313.51,243.07Zm2.38-.6a.87.87,0,0,0,.35-.72v-.5h-1.49c-.5,0-.75.22-.75.64a.78.78,0,0,0,.28.63,1.12,1.12,0,0,0,.73.23A1.35,1.35,0,0,0,315.89,242.47Z"/><path class="cls-6" d="M318.59,238.45h.88l.07.7a3.18,3.18,0,0,1,.8-.53,2.58,2.58,0,0,1,1-.25l-.07,1a3.33,3.33,0,0,0-1.67.57v3.53h-1Z"/><path class="cls-6" d="M324.12,243.07a1.52,1.52,0,0,1-.51-1.2,1.16,1.16,0,0,1,.46-1,2.49,2.49,0,0,1,1.47-.34h.3a4.85,4.85,0,0,1,1,.09v-.41a1,1,0,0,0-.3-.79,1.59,1.59,0,0,0-1-.24,5.94,5.94,0,0,0-1.45.2l-.09-.8a6.93,6.93,0,0,1,1.66-.21,2.52,2.52,0,0,1,1.61.43,1.62,1.62,0,0,1,.53,1.32v2.39c0,.42,0,.73,0,.92H327c0-.23-.07-.42-.08-.56h0a1.56,1.56,0,0,1-.61.49,2.13,2.13,0,0,1-.86.16A2,2,0,0,1,324.12,243.07Zm2.38-.6a.85.85,0,0,0,.35-.72v-.5h-1.49c-.49,0-.74.22-.74.64a.77.77,0,0,0,.27.63,1.12,1.12,0,0,0,.73.23A1.33,1.33,0,0,0,326.5,242.47Z"/><path class="cls-6" d="M331.38,236.71l1-.27v7h-1Z"/><path class="cls-6" d="M334,243.07a1.52,1.52,0,0,1-.51-1.2,1.16,1.16,0,0,1,.46-1,2.49,2.49,0,0,1,1.47-.34h.3a4.85,4.85,0,0,1,1,.09v-.41a1,1,0,0,0-.3-.79,1.59,1.59,0,0,0-1-.24,5.94,5.94,0,0,0-1.45.2l-.09-.8a6.93,6.93,0,0,1,1.66-.21,2.52,2.52,0,0,1,1.61.43,1.62,1.62,0,0,1,.53,1.32v2.39c0,.42,0,.73,0,.92h-.84c0-.23-.07-.42-.08-.56h0a1.56,1.56,0,0,1-.61.49,2.13,2.13,0,0,1-.86.16A2,2,0,0,1,334,243.07Zm2.38-.6a.85.85,0,0,0,.35-.72v-.5h-1.49c-.49,0-.74.22-.74.64a.77.77,0,0,0,.27.63,1.12,1.12,0,0,0,.73.23A1.33,1.33,0,0,0,336.41,242.47Z"/><path class="cls-6" d="M342.22,243.21a2.13,2.13,0,0,1-.94-.89,2.63,2.63,0,0,1-.34-1.37,2.71,2.71,0,0,1,.35-1.39,2.2,2.2,0,0,1,1-.89,3.23,3.23,0,0,1,1.43-.3,4.09,4.09,0,0,1,1.38.24l-.13.8a3.13,3.13,0,0,0-1.18-.23,1.82,1.82,0,0,0-1.33.47,1.7,1.7,0,0,0-.48,1.28,1.81,1.81,0,0,0,.47,1.29,1.72,1.72,0,0,0,1.32.49,3.21,3.21,0,0,0,1.27-.26l.12.77a3.86,3.86,0,0,1-1.5.3A3,3,0,0,1,342.22,243.21Z"/><path class="cls-6" d="M346.33,237.49a.65.65,0,0,1-.19-.48.62.62,0,0,1,.19-.48.69.69,0,0,1,.5-.2.7.7,0,0,1,.49.2.65.65,0,0,1,0,1,.7.7,0,0,1-.49.2A.69.69,0,0,1,346.33,237.49Zm0,1h1v5h-1Z"/><path class="cls-6" d="M349.28,243.05a1.87,1.87,0,0,1-.4-1.36v-4.34l1-.2v1.39h1.78l-.29.82h-1.49v2.41a1,1,0,0,0,.19.68.92.92,0,0,0,.69.2,3.32,3.32,0,0,0,.8-.09l.06.76a3.67,3.67,0,0,1-1.06.14A1.66,1.66,0,0,1,349.28,243.05Z"/><path class="cls-6" d="M352.84,243.07a1.52,1.52,0,0,1-.51-1.2,1.14,1.14,0,0,1,.47-1,2.46,2.46,0,0,1,1.46-.34h.31a5,5,0,0,1,1,.09v-.41a1,1,0,0,0-.31-.79,1.59,1.59,0,0,0-1-.24,6,6,0,0,0-1.45.2l-.09-.8a7,7,0,0,1,1.66-.21,2.5,2.5,0,0,1,1.61.43,1.59,1.59,0,0,1,.53,1.32v2.39c0,.42,0,.73,0,.92h-.84c0-.23-.07-.42-.08-.56h0a1.49,1.49,0,0,1-.61.49,2.13,2.13,0,0,1-.86.16A2,2,0,0,1,352.84,243.07Zm2.38-.6a.86.86,0,0,0,.36-.72v-.5h-1.49c-.5,0-.75.22-.75.64a.77.77,0,0,0,.27.63,1.13,1.13,0,0,0,.74.23A1.32,1.32,0,0,0,355.22,242.47Z"/><rect class="cls-6" x="186.12" y="193.08" width="2.77" height="9" rx="1.38"/><rect class="cls-6" x="186.12" y="193.08" width="2.77" height="9" rx="1.38" transform="translate(385.08 10.08) rotate(90)"/><rect class="cls-7" x="196.18" y="183.42" width="1.8" height="5.85" rx="0.75"/><rect class="cls-7" x="196.18" y="183.42" width="1.8" height="5.85" rx="0.75" transform="translate(383.42 -10.73) rotate(90)"/><circle class="cls-10" cx="62.5" cy="197.5" r="48.5"/><rect class="cls-11" x="38" y="172" width="49" height="61" rx="5.84"/><rect class="cls-12" x="43" y="176" width="39" height="53" rx="2.26"/><rect class="cls-13" x="54.5" y="167.5" width="16" height="11" rx="3.7"/><circle class="cls-13" cx="62.5" cy="167.5" r="3"/><rect class="cls-13" x="60.5" y="181.5" width="18" height="1.5" rx="0.75"/><rect class="cls-13" x="60.5" y="188.5" width="18" height="1.5" rx="0.75"/><rect class="cls-13" x="60.5" y="194.5" width="18" height="1.5" rx="0.75"/><rect class="cls-13" x="60.5" y="209.5" width="18" height="1.5" rx="0.75"/><rect class="cls-13" x="60.5" y="216.5" width="18" height="1.5" rx="0.75"/><rect class="cls-13" x="60.5" y="222.5" width="18" height="1.5" rx="0.75"/><rect class="cls-13" x="45" y="201.5" width="33.5" height="1.5" rx="0.75"/><circle class="cls-14" cx="52.75" cy="185" r="3"/><path class="cls-14" d="M52.7,187h.11a5.45,5.45,0,0,1,5.45,5.45v0A1.55,1.55,0,0,1,56.7,194H48.8a1.55,1.55,0,0,1-1.55-1.55v0A5.45,5.45,0,0,1,52.7,187Z"/><path class="cls-14" d="M49.39,210.11a3.56,3.56,0,0,1,1.16.22l1.06.32a3.38,3.38,0,0,0,2.06-.14,7.93,7.93,0,0,1,1.29-.36,2.15,2.15,0,0,1,1.84.51A3.07,3.07,0,0,1,58,213a5,5,0,0,1-.27,1.61c-.14.45-.29.89-.44,1.33a3.73,3.73,0,0,0-.18,1.1,11,11,0,0,1-.48,3.38,3.12,3.12,0,0,1-.4.82,1.29,1.29,0,0,1-2.16,0,3.93,3.93,0,0,1-.62-1.58,9.31,9.31,0,0,0-.43-1.48c-.16-.37-.36-.5-.69-.47a.68.68,0,0,0-.51.37,4.67,4.67,0,0,0-.45,1.14,14.83,14.83,0,0,1-.44,1.48,2.49,2.49,0,0,1-.4.69,1.09,1.09,0,0,1-1.73,0,3,3,0,0,1-.59-1.12,9.35,9.35,0,0,1-.45-2.73,6.65,6.65,0,0,0-.45-2.37,6.13,6.13,0,0,1-.47-1.8,3.08,3.08,0,0,1,.89-2.51A2.12,2.12,0,0,1,49.39,210.11Z"/><rect class="cls-6" x="76.5" y="155" width="4" height="13" rx="2"/><rect class="cls-6" x="76.5" y="155" width="4" height="13" rx="2" transform="translate(240 83) rotate(90)"/><path class="cls-15" d="M121.66,166.62a13.54,13.54,0,0,1,23.79,8.85"/><polyline class="cls-15" points="143.88 173.91 145.44 175.47 147 173.91"/><g class="cls-16"><path class="cls-17" d="M165.48,210.53s.72,2.93-2.37,5.62l1.22,6H176s-.27-4.43,1.66-5.83c0,0-3.08-1.55-2-7.6"/><path class="cls-18" d="M165.77,211.06s-.25,1.66,3.53,3.45a13.35,13.35,0,0,0,7.46,1.11,5.29,5.29,0,0,1-1.2-2.79,17.14,17.14,0,0,1-.08-4.09"/><path class="cls-17" d="M164,207.35a8.66,8.66,0,0,0,5,6.17,1.82,1.82,0,0,0,1.15.08,10.58,10.58,0,0,0,3.67-1.89,5.19,5.19,0,0,0,1.83-2.71,7.89,7.89,0,0,0,.27-1.25,2.15,2.15,0,0,0,2.09-.7c.7-1,2.19-4.08.9-5.08,0,0-.65-.65-1.55,1.35l-.1-7.08-12.54-.69-2.1,6.27s-1.09-.5-1.59.4.4,2.49,1.1,3.49S163.16,208.79,164,207.35Z"/><path class="cls-19" d="M168.19,209.14a6,6,0,0,0,4.68-.4s.63-.09-.18.7a3.67,3.67,0,0,1-2.41,1.36c-1.09.13-2.59-1.36-2.59-1.36"/><path class="cls-20" d="M164.89,202.33a5.57,5.57,0,0,1,2.07-.55,2,2,0,0,1,1.14.15,1.28,1.28,0,0,1,.71.95l-.07,0a5,5,0,0,0-.92-.29c-.27-.07-.56-.19-.88-.25a7.62,7.62,0,0,0-2,0Z"/><path class="cls-20" d="M175.63,202.4a7.21,7.21,0,0,0-2,0c-.32.05-.61.18-.88.24a6.06,6.06,0,0,0-.92.3l-.06,0a1.25,1.25,0,0,1,.7-.95,1.89,1.89,0,0,1,1.14-.15,5.57,5.57,0,0,1,2.07.55Z"/><path class="cls-21" d="M165.05,203.61a3.75,3.75,0,0,1,3.95,0s-.18,1.28-2.16,1.24S165.05,203.61,165.05,203.61Z"/><path class="cls-21" d="M175.73,203.45a3.73,3.73,0,0,0-3.93.33s.28,1.25,2.26,1.05S175.73,203.45,175.73,203.45Z"/><circle class="cls-22" cx="173.42" cy="203.76" r="0.7"/><circle class="cls-22" cx="167.1" cy="203.76" r="0.7"/><path class="cls-23" d="M161.41,201a.61.61,0,0,0,.32.44,3,3,0,0,1,1.71,2.5,12.09,12.09,0,0,1,.52-4.81c.8-1.89.89-3.18,2-2.89s4.78.6,5.83.75,1.14.35,1.14.35-.43-1.11.19-.8a5.22,5.22,0,0,1,2.9,2.29,13.71,13.71,0,0,1,1.1,4.68c-.1.5,1.09-2.09,2-1.69,0,0,1.59-7.27-2.59-9.56s-7.07-2.69-9.76-.2a3.32,3.32,0,0,0-3.89,1.79A11,11,0,0,0,161.41,201Z"/><path class="cls-24" d="M169.29,207a2,2,0,0,0,2.49,0"/><path class="cls-25" d="M152.06,210.14a.61.61,0,0,0-.51.67c0,.62,1,.32,1,.32l10.37-1.35a7.74,7.74,0,0,1,2.64-1l2.43-.2s.6-.51-.2-.75l-4.28.65s-1,.4-1.69.6S152.06,210.14,152.06,210.14Z"/><polygon class="cls-26" points="164.61 210.54 164.43 208.74 168.21 208.16 168.49 210.14 164.61 210.54"/><path class="cls-27" d="M154.92,209.78l2.63-.28c.26.3,1-.15,1-.15a2.52,2.52,0,0,0,1.46-.06c.47.3,1.23-.28,1.23-.28.41.32,1.4-.25,1.4-.25A15.33,15.33,0,0,0,160.8,207c-.72-.5-.92.44-.92.44s.14-.24-.35-.64-.91.42-.91.42l-.29-.42c-.4-.5-1.37.42-1.37.42-.67-.67-1.37.22-1.37.22a4.5,4.5,0,0,0-1.12,2.5"/><path class="cls-27" d="M155.84,237.63c-.7,2-3.09,3.58-5.58,5.77s-3.28,2-3.78,1.7a9.68,9.68,0,0,1-2.59-7.07c.2-3.79,5.18-15.24,7.17-18.43a37.18,37.18,0,0,0,3-5.94,3.28,3.28,0,0,1,0-2.73l8.6-1.12a4.57,4.57,0,0,0-1,1.17c-.3.6,0,2.18-1.79,3.53s-2.2,1.75-2.4,2.65a51.73,51.73,0,0,0-1.89,6.87c-.5,3.19-.69,10.76-1.79,12.85Z"/><path class="cls-28" d="M157.13,216.49c0-.11,0-.22,0-.32s.06-.36,0-.12,0-.06,0-.11l.06-.32c0-.17.09-.34.14-.51s.13-.29,0-.07,0,0,0-.07.08-.16.13-.24.2-.25,0-.07,0,0,.06,0,.15-.12.19-.18c-.07.09-.25.17,0,0l.2-.12c.28-.15-.31.1,0,0l.22-.07a6.2,6.2,0,0,0,2.21-.81,2.36,2.36,0,0,0,.89-1.72c0-.36,0-.72,0-1.08a1.51,1.51,0,0,0-1.5-1.5,1.53,1.53,0,0,0-1.5,1.5v.55a1.92,1.92,0,0,1,0,.24c0,.12-.05.41,0,0,0,.23.05-.11.11-.19s.34-.31.16-.17l-.08,0,.16-.07-.22.06a8.27,8.27,0,0,0-2.18.75,4.08,4.08,0,0,0-1.65,2,9.2,9.2,0,0,0-.55,2.61,1.53,1.53,0,0,0,.44,1.06,1.56,1.56,0,0,0,1.06.44,1.54,1.54,0,0,0,1.5-1.5Z"/><path class="cls-29" d="M153.8,236.88a23.5,23.5,0,0,1-2.94,3.24l3.26-3.12"/><path class="cls-30" d="M153.63,237.1a3.64,3.64,0,0,0,2.24,1.4l1.66-2.86-.69,13.44,15.34,3,10.85-4-1.19-12.16.79,1.9L194,235.54l-4.88-14.84a4.89,4.89,0,0,0-3.39-2.3c-2.39-.39-7.77-2.09-7.77-2.09s-1.92,2.43-7.76,2.14-7.51-2.53-7.51-2.53l-5.34,1.79a34.94,34.94,0,0,0-1.83,6.94C155.34,227.07,153.51,236.28,153.63,237.1Z"/><path class="cls-27" d="M168.49,233.34s.6-.09.3-1.69,1.79-3.19,1.79-3.19.9.3.3,1.5a8.91,8.91,0,0,0,.21,2,17.43,17.43,0,0,0,1,2.93,6.05,6.05,0,0,0,4.38,3.09c2.19.2,5.68.49,6.47.59l.8.1-.8-1.49,10.56-1.89s1.69,7.07,1.49,8.56.5,2.59-1.39,3.49-7.57.5-11.06-1.1-9.76-5-12.65-5.12c-1.29-.06-5.37-.95-5.87-1.55a3.11,3.11,0,0,1-.5-1.69,1.58,1.58,0,0,1-.5-1.2c0-.8.5-.8.5-.8a1.22,1.22,0,0,1-.5-1.59c.5-1,1-1.19.8-1.59a1.06,1.06,0,0,1,.5-1.5c.79-.49,2.69,1.1,2.79,1.2S168.49,233.34,168.49,233.34Z"/><path class="cls-29" d="M183.21,238.66s4.6.86,5.9,2c0,0-1.1-1.5-5.68-2.46l.27.48"/><polyline class="cls-30" points="182.63 237.83 193.8 235.57 193.19 234.44 182.63 236.04"/></g><path class="cls-31" d="M434.5,67.5c0,2-.5,133.75-.5,133.75H408.5"/><rect class="cls-10" x="328.5" y="21.5" width="197.5" height="72" rx="12.6"/><path class="cls-6" d="M352,35.88h-3.87v-1h9.2l-.45,1h-3.71v9.79H352Z"/><path class="cls-6" d="M357.8,37.32h1.05l.1,1.2a4.54,4.54,0,0,1,1.3-.9,4.65,4.65,0,0,1,1.68-.44l-.07,1.12a4.2,4.2,0,0,0-1.53.34,5.68,5.68,0,0,0-1.38.79v6.24H357.8Z"/><path class="cls-6" d="M363.44,35.64a.84.84,0,0,1-.27-.64.85.85,0,0,1,.27-.64.87.87,0,0,1,.64-.25.92.92,0,0,1,.66.25A.85.85,0,0,1,365,35a.84.84,0,0,1-.27.64.93.93,0,0,1-.66.26A.88.88,0,0,1,363.44,35.64Zm.07,1.68h1.15v8.35h-1.15Z"/><path class="cls-6" d="M367.68,45.1a2.5,2.5,0,0,1-.84-2,1.82,1.82,0,0,1,.71-1.54A3.27,3.27,0,0,1,369.6,41h1.33q.61,0,1.44.06v-.77a2.25,2.25,0,0,0-.54-1.67,2.33,2.33,0,0,0-1.68-.52,8.91,8.91,0,0,0-2.5.37l-.13-.9a12,12,0,0,1,1.32-.29,9.48,9.48,0,0,1,1.5-.12,3.44,3.44,0,0,1,2.36.73,2.77,2.77,0,0,1,.82,2.18v3.47c0,.51,0,1.22,0,2.11h-1c0-.22-.08-.57-.15-1h0a2.22,2.22,0,0,1-1,.88,3.56,3.56,0,0,1-1.61.32A3.13,3.13,0,0,1,367.68,45.1Zm4.05-.76a1.92,1.92,0,0,0,.64-1.55V42h-2.93a1.76,1.76,0,0,0-1,.27,1.06,1.06,0,0,0-.36.91,1.59,1.59,0,0,0,.56,1.3,2.13,2.13,0,0,0,1.42.46A2.51,2.51,0,0,0,371.73,44.34Z"/><path class="cls-6" d="M373.35,49.24l.06-.89a3.87,3.87,0,0,0,1.23.2,1.3,1.3,0,0,0,1.2-.55,3.71,3.71,0,0,0,.34-1.86V37.32h1.15v8.77a4.37,4.37,0,0,1-.61,2.57,2.22,2.22,0,0,1-1.93.84A3.67,3.67,0,0,1,373.35,49.24Zm2.74-13.6a.87.87,0,0,1-.26-.64.88.88,0,0,1,.26-.64.9.9,0,0,1,.65-.25.92.92,0,0,1,.66.25.85.85,0,0,1,.27.64.84.84,0,0,1-.27.64.93.93,0,0,1-.66.26A.91.91,0,0,1,376.09,35.64Z"/><path class="cls-6" d="M380.48,44.75a4.33,4.33,0,0,1-1.12-3.24,5,5,0,0,1,.48-2.23,3.66,3.66,0,0,1,1.4-1.54,4,4,0,0,1,2.16-.56,3.14,3.14,0,0,1,2.52,1,3.81,3.81,0,0,1,.87,2.53,7.94,7.94,0,0,1-.07,1.16h-6.17a3.31,3.31,0,0,0,.81,2.25,3.13,3.13,0,0,0,2.36.81,6.07,6.07,0,0,0,1.2-.14,6.26,6.26,0,0,0,1.2-.39l.17.88a6.62,6.62,0,0,1-2.73.59A4.25,4.25,0,0,1,380.48,44.75Zm5.12-3.84a4.33,4.33,0,0,0,0-.44,2.67,2.67,0,0,0-.55-1.71,2.13,2.13,0,0,0-1.75-.65,2.53,2.53,0,0,0-2,.77,3.16,3.16,0,0,0-.8,2Z"/><path class="cls-6" d="M394.93,35.88h-3.87v-1h9.2l-.45,1H396.1v9.79h-1.17Z"/><path class="cls-6" d="M400.69,44.75a4.33,4.33,0,0,1-1.12-3.24,5,5,0,0,1,.48-2.23,3.7,3.7,0,0,1,1.39-1.54,4,4,0,0,1,2.16-.56,3.17,3.17,0,0,1,2.53,1,3.87,3.87,0,0,1,.87,2.53,9.63,9.63,0,0,1-.07,1.16h-6.17a3.31,3.31,0,0,0,.81,2.25,3.1,3.1,0,0,0,2.35.81,6.08,6.08,0,0,0,1.21-.14,6.15,6.15,0,0,0,1.19-.39l.18.88a6.66,6.66,0,0,1-2.74.59A4.24,4.24,0,0,1,400.69,44.75Zm5.12-3.84a4.33,4.33,0,0,0,0-.44,2.73,2.73,0,0,0-.55-1.71,2.15,2.15,0,0,0-1.76-.65,2.53,2.53,0,0,0-2,.77,3.16,3.16,0,0,0-.8,2Z"/><path class="cls-6" d="M409,34.28l1.15-.33V45.67H409Z"/><path class="cls-6" d="M413.09,44.75A4.33,4.33,0,0,1,412,41.51a5,5,0,0,1,.48-2.23,3.7,3.7,0,0,1,1.39-1.54,4,4,0,0,1,2.16-.56,3.17,3.17,0,0,1,2.53,1,3.87,3.87,0,0,1,.87,2.53,9.63,9.63,0,0,1-.07,1.16h-6.17a3.31,3.31,0,0,0,.81,2.25,3.1,3.1,0,0,0,2.35.81,6.08,6.08,0,0,0,1.21-.14,6.15,6.15,0,0,0,1.19-.39l.18.88a6.66,6.66,0,0,1-2.74.59A4.24,4.24,0,0,1,413.09,44.75Zm5.12-3.84a4.33,4.33,0,0,0,0-.44,2.73,2.73,0,0,0-.55-1.71,2.15,2.15,0,0,0-1.76-.65,2.53,2.53,0,0,0-2,.77,3.16,3.16,0,0,0-.8,2Z"/><path class="cls-6" d="M422.69,45.27a3.67,3.67,0,0,1-1.41-1.56,5.26,5.26,0,0,1,0-4.41,3.67,3.67,0,0,1,1.45-1.55,4.43,4.43,0,0,1,2.3-.57,4.08,4.08,0,0,1,2.19.57,3.57,3.57,0,0,1,1.39,1.56,5.1,5.1,0,0,1,.47,2.2,4.87,4.87,0,0,1-.48,2.17,3.73,3.73,0,0,1-1.43,1.57,4.32,4.32,0,0,1-2.3.58A4.2,4.2,0,0,1,422.69,45.27Zm4.4-1.27a3.7,3.7,0,0,0,.8-2.5,3.62,3.62,0,0,0-.81-2.49,2.94,2.94,0,0,0-4.27,0A3.62,3.62,0,0,0,422,41.5a4.09,4.09,0,0,0,.38,1.81A2.71,2.71,0,0,0,425,44.92,2.67,2.67,0,0,0,427.09,44Z"/><path class="cls-6" d="M431.12,37.32h1.06l.1,1.2a4.4,4.4,0,0,1,1.3-.9,4.65,4.65,0,0,1,1.67-.44l-.06,1.12a4.3,4.3,0,0,0-1.54.34,5.8,5.8,0,0,0-1.37.79v6.24h-1.16Z"/><path class="cls-6" d="M436.76,35.64a.87.87,0,0,1-.26-.64.88.88,0,0,1,.26-.64,1,1,0,0,1,1.31,0,.85.85,0,0,1,.27.64.84.84,0,0,1-.27.64,1,1,0,0,1-1.31,0Zm.08,1.68H438v8.35h-1.15Z"/><path class="cls-6" d="M441.19,44.75a4.29,4.29,0,0,1-1.12-3.24,5,5,0,0,1,.48-2.23,3.64,3.64,0,0,1,1.39-1.54,4,4,0,0,1,2.16-.56,3.18,3.18,0,0,1,2.53,1,3.86,3.86,0,0,1,.86,2.53,9.82,9.82,0,0,1-.06,1.16h-6.18a3.31,3.31,0,0,0,.82,2.25,3.09,3.09,0,0,0,2.35.81,6.25,6.25,0,0,0,1.21-.14,6.15,6.15,0,0,0,1.19-.39l.18.88a6.66,6.66,0,0,1-2.74.59A4.23,4.23,0,0,1,441.19,44.75Zm5.12-3.84c0-.1,0-.24,0-.44a2.67,2.67,0,0,0-.55-1.71,2.13,2.13,0,0,0-1.75-.65,2.55,2.55,0,0,0-2,.77,3.16,3.16,0,0,0-.8,2Z"/><path class="cls-6" d="M449.43,37.32h1l.09.77a5.78,5.78,0,0,1,1.47-.66,5.19,5.19,0,0,1,1.57-.25,2.83,2.83,0,0,1,2.18.77,2.34,2.34,0,0,1,.5.87,3.74,3.74,0,0,1,.17,1.25v5.6H455.3V40.19a2.31,2.31,0,0,0-.4-1.49,1.41,1.41,0,0,0-.59-.44,2.72,2.72,0,0,0-.95-.14,4.37,4.37,0,0,0-1.44.25,5.77,5.77,0,0,0-1.34.66v6.64h-1.15Z"/><path class="cls-6" d="M459.5,45.18a2.27,2.27,0,0,1-.62-1.75v-8l1.16-.33v2.33h3l-.4,1H460v4.82a1.85,1.85,0,0,0,.31,1.21,1.39,1.39,0,0,0,1.09.36,6.07,6.07,0,0,0,1.51-.18l.08.86a5.43,5.43,0,0,1-1.65.23A2.74,2.74,0,0,1,459.5,45.18Z"/><path class="cls-6" d="M464.92,45.1a2.5,2.5,0,0,1-.84-2,1.83,1.83,0,0,1,.72-1.54,3.27,3.27,0,0,1,2.05-.55h1.33q.6,0,1.44.06v-.77a2.25,2.25,0,0,0-.54-1.67,2.37,2.37,0,0,0-1.68-.52,8.81,8.81,0,0,0-2.5.37l-.13-.9a12,12,0,0,1,1.32-.29,9.48,9.48,0,0,1,1.5-.12,3.44,3.44,0,0,1,2.36.73,2.77,2.77,0,0,1,.82,2.18v3.47c0,.51,0,1.22,0,2.11h-1c0-.22-.08-.57-.14-1h0a2.24,2.24,0,0,1-1,.88,3.48,3.48,0,0,1-1.6.32A3.16,3.16,0,0,1,464.92,45.1Zm4.06-.76a1.92,1.92,0,0,0,.64-1.55V42h-2.93a1.74,1.74,0,0,0-1,.27,1.07,1.07,0,0,0-.37.91,1.62,1.62,0,0,0,.56,1.3,2.17,2.17,0,0,0,1.43.46A2.53,2.53,0,0,0,469,44.34Z"/><path class="cls-6" d="M474.85,45.31a3.58,3.58,0,0,1-1.51-1.5,4.82,4.82,0,0,1-.54-2.34,4.44,4.44,0,0,1,.58-2.28A3.82,3.82,0,0,1,475,37.7a4.6,4.6,0,0,1,2.19-.52,5.92,5.92,0,0,1,2.45.46l-.19.93a4.92,4.92,0,0,0-1-.32,6,6,0,0,0-1.17-.13,3.28,3.28,0,0,0-1.68.43,3,3,0,0,0-1.11,1.19,3.54,3.54,0,0,0-.4,1.71,3.76,3.76,0,0,0,.8,2.47,3,3,0,0,0,2.48,1,5.15,5.15,0,0,0,1.14-.14,5.88,5.88,0,0,0,1.12-.37l.18.88a6.29,6.29,0,0,1-2.6.57A4.72,4.72,0,0,1,474.85,45.31Z"/><path class="cls-6" d="M481.45,35.64a.87.87,0,0,1-.26-.64.88.88,0,0,1,.26-.64.9.9,0,0,1,.65-.25.94.94,0,0,1,.66.25A.85.85,0,0,1,483,35a.84.84,0,0,1-.27.64,1,1,0,0,1-.66.26A.91.91,0,0,1,481.45,35.64Zm.07,1.68h1.16v8.35h-1.16Z"/><path class="cls-6" d="M486.64,45.27a3.67,3.67,0,0,1-1.41-1.56,5.07,5.07,0,0,1-.48-2.2,5,5,0,0,1,.49-2.21,3.67,3.67,0,0,1,1.45-1.55,4.45,4.45,0,0,1,2.31-.57,4,4,0,0,1,2.18.57,3.57,3.57,0,0,1,1.39,1.56,5,5,0,0,1,.47,2.2,4.87,4.87,0,0,1-.48,2.17,3.67,3.67,0,0,1-1.43,1.57,4.29,4.29,0,0,1-2.3.58A4.2,4.2,0,0,1,486.64,45.27ZM491,44a4.29,4.29,0,0,0,0-5,2.95,2.95,0,0,0-4.28,0,3.62,3.62,0,0,0-.8,2.49,4.09,4.09,0,0,0,.37,1.81,2.71,2.71,0,0,0,2.57,1.61A2.67,2.67,0,0,0,491,44Zm-3.63-8.49,3.36-2,.64,1-3.5,1.73Z"/><path class="cls-6" d="M495.07,37.32h1l.1.77a5.87,5.87,0,0,1,1.46-.66,5.25,5.25,0,0,1,1.58-.25,2.83,2.83,0,0,1,2.18.77,2.34,2.34,0,0,1,.5.87,4,4,0,0,1,.17,1.25v5.6H501V40.19a2.37,2.37,0,0,0-.4-1.49,1.41,1.41,0,0,0-.59-.44,2.72,2.72,0,0,0-.95-.14,4.37,4.37,0,0,0-1.44.25,5.77,5.77,0,0,0-1.34.66v6.64h-1.16Z"/><path class="cls-6" d="M504.4,40a1,1,0,0,1-.3-.71,1,1,0,0,1,.3-.72.94.94,0,0,1,.71-.3,1,1,0,0,1,1,1,1,1,0,0,1-.3.72,1,1,0,0,1-.72.29A1,1,0,0,1,504.4,40Zm0,5.57a1,1,0,0,1-.3-.71,1,1,0,0,1,.3-.72.94.94,0,0,1,.71-.3,1,1,0,0,1,.72.3,1,1,0,0,1,.3.72.94.94,0,0,1-.3.71,1,1,0,0,1-.72.3A1,1,0,0,1,504.4,45.55Z"/><path class="cls-6" d="M352.14,51.86h4a4.86,4.86,0,0,1,3.13.89,3.34,3.34,0,0,1,1.1,2.74,3.72,3.72,0,0,1-1,2.81,4.18,4.18,0,0,1-3,1h-1.94v3.37h-2.27Zm4,5.45a2,2,0,0,0,1.42-.46,1.78,1.78,0,0,0,.47-1.31c0-1.14-.64-1.71-1.94-1.71h-1.71v3.48Z"/><path class="cls-6" d="M362.62,62.47a2.75,2.75,0,0,1-1.09-1,2.69,2.69,0,0,1-.4-1.46,2.16,2.16,0,0,1,.82-1.83,4.62,4.62,0,0,1,2.69-.61h.54c.38,0,.79,0,1.22.07v-.37a1,1,0,0,0-.45-.93,2.7,2.7,0,0,0-1.41-.29,10.24,10.24,0,0,0-2.48.34l-.14-1.78a12.76,12.76,0,0,1,1.53-.29,12.52,12.52,0,0,1,1.68-.12,4,4,0,0,1,2.6.73,2.68,2.68,0,0,1,.91,2.24V61c0,.76,0,1.31,0,1.66h-1.94a6,6,0,0,1-.11-.8h0a3.13,3.13,0,0,1-2.37,1A3.46,3.46,0,0,1,362.62,62.47Zm3.33-1.7a1.06,1.06,0,0,0,.45-.9v-.76h-1.94a1.18,1.18,0,0,0-.76.22.76.76,0,0,0-.28.64,1,1,0,0,0,.38.83,1.55,1.55,0,0,0,1,.31A1.89,1.89,0,0,0,366,60.77Z"/><path class="cls-6" d="M372.28,62.32a3.79,3.79,0,0,1-1.63-1.49,4.51,4.51,0,0,1-.57-2.32,4.37,4.37,0,0,1,.6-2.31,3.89,3.89,0,0,1,1.66-1.5,5.37,5.37,0,0,1,2.41-.52,7.7,7.7,0,0,1,2.33.35l-.25,1.84a5.43,5.43,0,0,0-1.89-.32,2.78,2.78,0,0,0-1.85.62,2.28,2.28,0,0,0-.73,1.81,2.31,2.31,0,0,0,.74,1.83A2.7,2.7,0,0,0,375,61a4.91,4.91,0,0,0,2-.37l.19,1.81a4.35,4.35,0,0,1-1.06.31,7.37,7.37,0,0,1-1.35.12A5.51,5.51,0,0,1,372.28,62.32Z"/><path class="cls-6" d="M378.84,52.83a1.44,1.44,0,0,1,0-2,1.5,1.5,0,0,1,2,0,1.39,1.39,0,0,1,0,2,1.5,1.5,0,0,1-2,0Zm-.09,1.49H381v8.35h-2.24Z"/><path class="cls-6" d="M383.76,61.71a4.21,4.21,0,0,1-1.16-3.18,4.76,4.76,0,0,1,.51-2.23,3.7,3.7,0,0,1,1.46-1.55,4.4,4.4,0,0,1,2.29-.57,3.37,3.37,0,0,1,2.8,1.13,4.34,4.34,0,0,1,.91,2.84,6.55,6.55,0,0,1-.09,1.13H385a1.52,1.52,0,0,0,.68,1.24,3,3,0,0,0,1.79.46,6.17,6.17,0,0,0,2.38-.42l.19,1.81a7.25,7.25,0,0,1-2.8.46A4.74,4.74,0,0,1,383.76,61.71Zm4.56-4a2.36,2.36,0,0,0,0-.3,2,2,0,0,0-.46-1.16,1.35,1.35,0,0,0-1.08-.43,1.62,1.62,0,0,0-1.28.51,2,2,0,0,0-.48,1.38Z"/><path class="cls-6" d="M392.12,54.32h2l.11.74a5.12,5.12,0,0,1,1.33-.64,4.45,4.45,0,0,1,1.37-.24,2.77,2.77,0,0,1,2.15.83,3.48,3.48,0,0,1,.72,2.42v5.24h-2.24v-5a2.44,2.44,0,0,0-.1-.8,1.09,1.09,0,0,0-.3-.48,1.55,1.55,0,0,0-1-.32,3,3,0,0,0-.93.16,3.56,3.56,0,0,0-.83.4v6h-2.24Z"/><path class="cls-6" d="M402.31,62.09a2.84,2.84,0,0,1-.76-2.26V52.48l2.24-.33v2.28h2.89l-.4,1.89h-2.49v3.11a1.59,1.59,0,0,0,.29,1.07,1.14,1.14,0,0,0,.91.33,7.07,7.07,0,0,0,1.45-.12l.12,1.76a5.58,5.58,0,0,1-.92.2,10.32,10.32,0,0,1-1.1.07A3.35,3.35,0,0,1,402.31,62.09Z"/><path class="cls-6" d="M408.59,61.71a4.2,4.2,0,0,1-1.15-3.18,4.76,4.76,0,0,1,.5-2.23,3.76,3.76,0,0,1,1.46-1.55,4.42,4.42,0,0,1,2.29-.57,3.37,3.37,0,0,1,2.8,1.13,4.34,4.34,0,0,1,.91,2.84,6.55,6.55,0,0,1-.09,1.13H409.8a1.55,1.55,0,0,0,.68,1.24,3,3,0,0,0,1.79.46,6.14,6.14,0,0,0,2.38-.42l.19,1.81a7.25,7.25,0,0,1-2.8.46A4.76,4.76,0,0,1,408.59,61.71Zm4.56-4a2.36,2.36,0,0,0,0-.3,2,2,0,0,0-.45-1.16,1.35,1.35,0,0,0-1.08-.43,1.63,1.63,0,0,0-1.29.51,2,2,0,0,0-.47,1.38Z"/><path class="cls-6" d="M422.18,62.33a3.7,3.7,0,0,1-1.48-1.48,4.68,4.68,0,0,1-.54-2.3,4.45,4.45,0,0,1,.58-2.31,4,4,0,0,1,1.58-1.53,4.54,4.54,0,0,1,2.16-.53,3.55,3.55,0,0,1,1.12.18,2.08,2.08,0,0,1,.84.47h0V51.54L428.7,51v9.36c0,.7,0,1.49,0,2.36h-1.89a7.74,7.74,0,0,1-.14-.84h-.05a2.53,2.53,0,0,1-1,.72,3.3,3.3,0,0,1-1.4.28A4.28,4.28,0,0,1,422.18,62.33Zm3.52-1.64a2,2,0,0,0,.76-.61V57.86A1.68,1.68,0,0,0,424.64,56a2,2,0,0,0-1.59.67,2.44,2.44,0,0,0-.61,1.7,2.69,2.69,0,0,0,.61,1.83,2.1,2.1,0,0,0,1.63.68A2.31,2.31,0,0,0,425.7,60.69Z"/><path class="cls-6" d="M431.23,61.71a4.2,4.2,0,0,1-1.15-3.18,4.76,4.76,0,0,1,.5-2.23A3.76,3.76,0,0,1,432,54.75a4.42,4.42,0,0,1,2.29-.57,3.37,3.37,0,0,1,2.8,1.13,4.34,4.34,0,0,1,.91,2.84,6.55,6.55,0,0,1-.09,1.13h-5.51a1.55,1.55,0,0,0,.68,1.24,3,3,0,0,0,1.79.46,6.14,6.14,0,0,0,2.38-.42l.19,1.81a7.25,7.25,0,0,1-2.8.46A4.76,4.76,0,0,1,431.23,61.71Zm4.56-4a2.36,2.36,0,0,0,0-.3,2,2,0,0,0-.45-1.16,1.35,1.35,0,0,0-1.08-.43,1.63,1.63,0,0,0-1.29.51,2,2,0,0,0-.47,1.38Z"/><path class="cls-6" d="M441.37,62.65a8.67,8.67,0,0,1-1.77-.5V51.54l2.24-.59v4.11h0a3.76,3.76,0,0,1,1.15-.64,4.27,4.27,0,0,1,1.44-.24,3.6,3.6,0,0,1,1.83.48,3.49,3.49,0,0,1,1.33,1.41,4.75,4.75,0,0,1,.49,2.24,4.34,4.34,0,0,1-1.27,3.35,4.87,4.87,0,0,1-3.43,1.17A11.49,11.49,0,0,1,441.37,62.65Zm3.87-2.38a2.58,2.58,0,0,0,.56-1.79,2.67,2.67,0,0,0-.55-1.8,1.83,1.83,0,0,0-1.46-.65,1.87,1.87,0,0,0-1.49.54,2.32,2.32,0,0,0-.46,1.56v2.51a5.09,5.09,0,0,0,1.76.27A2,2,0,0,0,445.24,60.27Z"/><path class="cls-6" d="M450.4,61.71a4.21,4.21,0,0,1-1.16-3.18,4.76,4.76,0,0,1,.51-2.23,3.7,3.7,0,0,1,1.46-1.55,4.4,4.4,0,0,1,2.29-.57,3.37,3.37,0,0,1,2.8,1.13,4.34,4.34,0,0,1,.91,2.84,6.55,6.55,0,0,1-.09,1.13h-5.51a1.52,1.52,0,0,0,.68,1.24,3,3,0,0,0,1.79.46,6.17,6.17,0,0,0,2.38-.42l.19,1.81a7.25,7.25,0,0,1-2.8.46A4.74,4.74,0,0,1,450.4,61.71Zm4.56-4a2.36,2.36,0,0,0,0-.3,2,2,0,0,0-.46-1.16,1.35,1.35,0,0,0-1.08-.43,1.62,1.62,0,0,0-1.28.51,2,2,0,0,0-.48,1.38Z"/><path class="cls-6" d="M462.4,51.54l2.24-.59V62.67H462.4Z"/><path class="cls-6" d="M466.65,51.54l2.24-.59V62.67h-2.24Z"/><path class="cls-6" d="M471.47,61.71a4.2,4.2,0,0,1-1.15-3.18,4.76,4.76,0,0,1,.5-2.23,3.76,3.76,0,0,1,1.46-1.55,4.42,4.42,0,0,1,2.29-.57,3.37,3.37,0,0,1,2.8,1.13,4.34,4.34,0,0,1,.91,2.84,6.55,6.55,0,0,1-.09,1.13h-5.51a1.55,1.55,0,0,0,.68,1.24,3,3,0,0,0,1.79.46,6.17,6.17,0,0,0,2.38-.42l.19,1.81a7.25,7.25,0,0,1-2.8.46A4.76,4.76,0,0,1,471.47,61.71Zm4.56-4a2.36,2.36,0,0,0,0-.3,2,2,0,0,0-.45-1.16,1.36,1.36,0,0,0-1.08-.43,1.63,1.63,0,0,0-1.29.51,2,2,0,0,0-.47,1.38Z"/><path class="cls-6" d="M482.4,66.39a9.3,9.3,0,0,1-1.33-.31l.21-1.84a6.82,6.82,0,0,0,1.09.3,6,6,0,0,0,1.15.12c1.53,0,2.3-.72,2.3-2.16V62a3.16,3.16,0,0,1-1,.58,3.57,3.57,0,0,1-1.27.22,4.22,4.22,0,0,1-2.16-.54,3.74,3.74,0,0,1-1.43-1.52,4.76,4.76,0,0,1-.5-2.23,4.51,4.51,0,0,1,.54-2.2,3.87,3.87,0,0,1,1.54-1.54,4.53,4.53,0,0,1,2.3-.56,3.57,3.57,0,0,1,1.35.26,2.57,2.57,0,0,1,1,.76l.15-.88H488V62a4.66,4.66,0,0,1-1.09,3.38,4.07,4.07,0,0,1-3.05,1.12A10.19,10.19,0,0,1,482.4,66.39ZM485,60.74a2.27,2.27,0,0,0,.75-.45V57.71a1.55,1.55,0,0,0-.51-1.2A1.78,1.78,0,0,0,484,56a2.09,2.09,0,0,0-1.63.67,2.87,2.87,0,0,0,0,3.56,2.1,2.1,0,0,0,1.61.65A2.82,2.82,0,0,0,485,60.74Z"/><path class="cls-6" d="M490.88,62.47A2.71,2.71,0,0,1,489.39,60a2.15,2.15,0,0,1,.81-1.83,4.64,4.64,0,0,1,2.69-.61h.55c.38,0,.78,0,1.21.07v-.37a1,1,0,0,0-.45-.93,2.66,2.66,0,0,0-1.4-.29,10.18,10.18,0,0,0-2.48.34l-.15-1.78a13.58,13.58,0,0,1,1.53-.29,12.55,12.55,0,0,1,1.69-.12,4,4,0,0,1,2.6.73,2.7,2.7,0,0,1,.9,2.24V61c0,.76,0,1.31,0,1.66H495a4.71,4.71,0,0,1-.11-.8h0a3.09,3.09,0,0,1-2.36,1A3.43,3.43,0,0,1,490.88,62.47Zm3.32-1.7a1.06,1.06,0,0,0,.45-.9v-.76h-1.93a1.17,1.17,0,0,0-.76.22.76.76,0,0,0-.28.64,1,1,0,0,0,.37.83,1.57,1.57,0,0,0,1,.31A1.89,1.89,0,0,0,494.2,60.77Z"/><path class="cls-6" d="M498.73,54.32h1.92l.15,1.12a5.59,5.59,0,0,1,3-1.28l-.08,2.13a6,6,0,0,0-1.42.27,6.78,6.78,0,0,0-1.35.58v5.53h-2.24Z"/><path class="cls-6" d="M343,77.32a3.71,3.71,0,0,1-1.62-1.49,4.42,4.42,0,0,1-.58-2.32,4.37,4.37,0,0,1,.6-2.31,3.89,3.89,0,0,1,1.66-1.5,5.4,5.4,0,0,1,2.41-.52,7.81,7.81,0,0,1,2.34.35l-.26,1.84a5.35,5.35,0,0,0-1.89-.32,2.75,2.75,0,0,0-1.84.62,2.25,2.25,0,0,0-.73,1.81,2.3,2.3,0,0,0,.73,1.83,2.71,2.71,0,0,0,1.88.65,4.86,4.86,0,0,0,2-.37l.2,1.81a4.59,4.59,0,0,1-1.07.31,7.37,7.37,0,0,1-1.35.12A5.51,5.51,0,0,1,343,77.32Z"/><path class="cls-6" d="M350,76.71a4.2,4.2,0,0,1-1.15-3.18,4.76,4.76,0,0,1,.5-2.23,3.76,3.76,0,0,1,1.46-1.55,4.42,4.42,0,0,1,2.29-.57,3.37,3.37,0,0,1,2.8,1.13,4.34,4.34,0,0,1,.91,2.84,6.55,6.55,0,0,1-.09,1.13H351.2a1.55,1.55,0,0,0,.68,1.24,3,3,0,0,0,1.79.46,6.14,6.14,0,0,0,2.38-.42l.19,1.81a7.22,7.22,0,0,1-2.8.46A4.76,4.76,0,0,1,350,76.71Zm4.56-4a2.36,2.36,0,0,0,0-.3,2,2,0,0,0-.45-1.16,1.35,1.35,0,0,0-1.08-.43,1.63,1.63,0,0,0-1.29.51,2,2,0,0,0-.47,1.38Z"/><path class="cls-6" d="M358.36,69.32h1.84l.09.88a4.48,4.48,0,0,1,2.82-1,4.12,4.12,0,0,1,2,.5,3.59,3.59,0,0,1,1.43,1.46,4.65,4.65,0,0,1,.52,2.23,5,5,0,0,1-.56,2.44A3.77,3.77,0,0,1,365,77.32a4.88,4.88,0,0,1-3.41.35,3.6,3.6,0,0,1-1-.43v3.6l-2.24.59Zm5.85,6a2.77,2.77,0,0,0,.58-1.89,2.36,2.36,0,0,0-.6-1.73,2,2,0,0,0-1.5-.61,2.13,2.13,0,0,0-1.52.52A1.77,1.77,0,0,0,360.6,73v2.21a2.21,2.21,0,0,0,.84.53,3,3,0,0,0,1.16.24A2.1,2.1,0,0,0,364.21,75.31Z"/><path class="cls-6" d="M368.79,67.83a1.41,1.41,0,0,1,0-2,1.5,1.5,0,0,1,2,0,1.41,1.41,0,0,1,0,2,1.5,1.5,0,0,1-2,0Zm-.1,1.49h2.24v8.35h-2.24Z"/><path class="cls-6" d="M373,66.54l2.24-.59V77.67H373Z"/><path class="cls-6" d="M377.24,66.54l2.24-.59V77.67h-2.24Z"/><path class="cls-6" d="M382.4,77.47a2.82,2.82,0,0,1-1.09-1,2.77,2.77,0,0,1-.39-1.46,2.15,2.15,0,0,1,.81-1.83,4.64,4.64,0,0,1,2.69-.61H385c.39,0,.79,0,1.22.07v-.37a1,1,0,0,0-.45-.93,2.7,2.7,0,0,0-1.41-.29,10.31,10.31,0,0,0-2.48.34l-.14-1.78a13.58,13.58,0,0,1,1.53-.29,12.55,12.55,0,0,1,1.69-.12,4,4,0,0,1,2.6.73,2.7,2.7,0,0,1,.9,2.24V76c0,.76,0,1.31,0,1.66h-1.93a6.25,6.25,0,0,1-.12-.8h0a3.11,3.11,0,0,1-2.37,1A3.49,3.49,0,0,1,382.4,77.47Zm3.33-1.7a1.06,1.06,0,0,0,.45-.9v-.76h-1.94a1.18,1.18,0,0,0-.76.22.79.79,0,0,0-.28.64,1,1,0,0,0,.38.83,1.55,1.55,0,0,0,1,.31A1.89,1.89,0,0,0,385.73,75.77Z"/><path class="cls-6" d="M391.88,77.33a3.76,3.76,0,0,1-1.48-1.48,4.68,4.68,0,0,1-.54-2.3,4.45,4.45,0,0,1,.58-2.31A4.07,4.07,0,0,1,392,69.71a4.54,4.54,0,0,1,2.16-.53,3.66,3.66,0,0,1,1.13.18,2.08,2.08,0,0,1,.84.47h0V66.54L398.4,66v9.36c0,.7,0,1.49,0,2.36h-1.89a7.76,7.76,0,0,1-.15-.84h0a2.65,2.65,0,0,1-1,.72,3.3,3.3,0,0,1-1.4.28A4.3,4.3,0,0,1,391.88,77.33Zm3.52-1.64a1.92,1.92,0,0,0,.76-.61V72.86A1.67,1.67,0,0,0,394.34,71a2,2,0,0,0-1.58.67,2.4,2.4,0,0,0-.61,1.7,2.65,2.65,0,0,0,.61,1.83,2.08,2.08,0,0,0,1.63.68A2.29,2.29,0,0,0,395.4,75.69Z"/><path class="cls-6" d="M400.94,76.68a4.28,4.28,0,0,1-1.16-3.17,4.75,4.75,0,0,1,.54-2.31,3.55,3.55,0,0,1,1.52-1.5,4.93,4.93,0,0,1,2.32-.52,4.86,4.86,0,0,1,2.33.52A3.53,3.53,0,0,1,408,71.19a4.7,4.7,0,0,1,.54,2.31,4.75,4.75,0,0,1-.54,2.31,3.47,3.47,0,0,1-1.53,1.5,4.87,4.87,0,0,1-2.32.52A4.36,4.36,0,0,1,400.94,76.68Zm4.74-1.32a3.24,3.24,0,0,0,0-3.7,2.07,2.07,0,0,0-3,0,3.24,3.24,0,0,0,0,3.7,2,2,0,0,0,1.53.65A1.91,1.91,0,0,0,405.68,75.36Z"/><path class="cls-6" d="M414.64,77.47A2.73,2.73,0,0,1,413.16,75a2.15,2.15,0,0,1,.81-1.83,4.64,4.64,0,0,1,2.69-.61h.54c.39,0,.79,0,1.22.07v-.37a1,1,0,0,0-.45-.93,2.7,2.7,0,0,0-1.41-.29,10.31,10.31,0,0,0-2.48.34l-.14-1.78a13.58,13.58,0,0,1,1.53-.29,12.55,12.55,0,0,1,1.69-.12,4,4,0,0,1,2.6.73,2.7,2.7,0,0,1,.9,2.24V76c0,.76,0,1.31,0,1.66h-1.93a4.86,4.86,0,0,1-.12-.8h0a3.13,3.13,0,0,1-2.37,1A3.49,3.49,0,0,1,414.64,77.47Zm3.33-1.7a1.06,1.06,0,0,0,.45-.9v-.76h-1.94a1.18,1.18,0,0,0-.76.22.79.79,0,0,0-.28.64,1,1,0,0,0,.38.83,1.55,1.55,0,0,0,1,.31A1.89,1.89,0,0,0,418,75.77Z"/><path class="cls-6" d="M422.53,66.54l2.24-.59V77.67h-2.24Z"/><path class="cls-6" d="M432.16,77.32a3.79,3.79,0,0,1-1.63-1.49,4.51,4.51,0,0,1-.57-2.32,4.37,4.37,0,0,1,.6-2.31,3.89,3.89,0,0,1,1.66-1.5,5.37,5.37,0,0,1,2.41-.52,7.7,7.7,0,0,1,2.33.35l-.25,1.84a5.43,5.43,0,0,0-1.89-.32,2.78,2.78,0,0,0-1.85.62,2.28,2.28,0,0,0-.73,1.81,2.31,2.31,0,0,0,.74,1.83,2.68,2.68,0,0,0,1.87.65,4.91,4.91,0,0,0,2-.37L437,77.4a4.49,4.49,0,0,1-1.06.31,7.45,7.45,0,0,1-1.35.12A5.48,5.48,0,0,1,432.16,77.32Z"/><path class="cls-6" d="M439.16,76.68A4.28,4.28,0,0,1,438,73.51a4.75,4.75,0,0,1,.54-2.31,3.63,3.63,0,0,1,1.53-1.5,5.46,5.46,0,0,1,4.65,0,3.64,3.64,0,0,1,1.52,1.49,4.81,4.81,0,0,1,.53,2.31,4.86,4.86,0,0,1-.53,2.31,3.57,3.57,0,0,1-1.53,1.5,4.9,4.9,0,0,1-2.32.52A4.38,4.38,0,0,1,439.16,76.68Zm4.75-1.32a2.71,2.71,0,0,0,.57-1.85,2.68,2.68,0,0,0-.58-1.85,2.06,2.06,0,0,0-3,0,3.2,3.2,0,0,0,0,3.7,2.09,2.09,0,0,0,3,0Z"/><path class="cls-6" d="M448.32,69.32h2l.11.74a5.12,5.12,0,0,1,1.33-.64,4.45,4.45,0,0,1,1.37-.24,2.77,2.77,0,0,1,2.15.83,3.48,3.48,0,0,1,.72,2.42v5.24h-2.24v-5a2.44,2.44,0,0,0-.1-.8,1.09,1.09,0,0,0-.3-.48,1.55,1.55,0,0,0-1-.32,3,3,0,0,0-.93.16,3.56,3.56,0,0,0-.83.4v6h-2.24Z"/><path class="cls-6" d="M457.38,77.37l.18-1.9a8.66,8.66,0,0,0,1.31.36,6,6,0,0,0,1.28.15,2.27,2.27,0,0,0,1.08-.2.6.6,0,0,0,.34-.54.49.49,0,0,0-.13-.35,1.3,1.3,0,0,0-.46-.29,8.55,8.55,0,0,0-1-.33,4.42,4.42,0,0,1-1.92-1,2.22,2.22,0,0,1-.61-1.59,2,2,0,0,1,1-1.87,4.69,4.69,0,0,1,2.47-.61,9.33,9.33,0,0,1,2.43.32l-.16,1.84a6.19,6.19,0,0,0-2.11-.35c-.9,0-1.36.2-1.36.6,0,.2.12.35.37.48a11,11,0,0,0,1.38.5,4.31,4.31,0,0,1,1.84,1,2.06,2.06,0,0,1,.52,1.45,2.45,2.45,0,0,1-1,2.13,4,4,0,0,1-2.43.7A9.46,9.46,0,0,1,457.38,77.37Z"/><path class="cls-6" d="M466.05,77a3.23,3.23,0,0,1-.94-2.58V69.32h2.24v5.09a1.7,1.7,0,0,0,.38,1.21,1.59,1.59,0,0,0,1.17.39,1.54,1.54,0,0,0,1.15-.39,1.66,1.66,0,0,0,.39-1.21V69.32h2.24v5.12a3.21,3.21,0,0,1-1,2.54,4.18,4.18,0,0,1-2.83.85A4.24,4.24,0,0,1,466.05,77Z"/><path class="cls-6" d="M474.58,66.54l2.24-.59V77.67h-2.24Z"/><path class="cls-6" d="M479.69,77.09a2.84,2.84,0,0,1-.76-2.26V67.48l2.24-.33v2.28h2.9l-.4,1.89h-2.5v3.11a1.65,1.65,0,0,0,.29,1.07,1.15,1.15,0,0,0,.91.33,7.25,7.25,0,0,0,1.46-.12l.11,1.76a5.36,5.36,0,0,1-.92.2,10.15,10.15,0,0,1-1.1.07A3.37,3.37,0,0,1,479.69,77.09Z"/><path class="cls-6" d="M486,76.68a4.28,4.28,0,0,1-1.16-3.17,4.86,4.86,0,0,1,.53-2.31,3.63,3.63,0,0,1,1.53-1.5,5.46,5.46,0,0,1,4.65,0,3.58,3.58,0,0,1,1.52,1.49,4.7,4.7,0,0,1,.54,2.31,4.75,4.75,0,0,1-.54,2.31,3.57,3.57,0,0,1-1.53,1.5,4.87,4.87,0,0,1-2.32.52A4.36,4.36,0,0,1,486,76.68Zm4.74-1.32a2.67,2.67,0,0,0,.58-1.85,2.73,2.73,0,0,0-.58-1.85A1.94,1.94,0,0,0,489.2,71a1.92,1.92,0,0,0-1.51.66,3.24,3.24,0,0,0,0,3.7,2,2,0,0,0,1.53.65A1.91,1.91,0,0,0,490.72,75.36Z"/><path class="cls-6" d="M495.14,69.32h1.92l.14,1.12a5.65,5.65,0,0,1,3-1.28l-.08,2.13a6.1,6.1,0,0,0-1.43.27,6.46,6.46,0,0,0-1.34.58v5.53h-2.24Z"/><path class="cls-6" d="M501.68,67.83a1.44,1.44,0,0,1,0-2,1.5,1.5,0,0,1,2,0,1.39,1.39,0,0,1,0,2,1.5,1.5,0,0,1-2,0Zm-.09,1.49h2.24v8.35h-2.24Z"/><path class="cls-6" d="M506.6,76.68a4.28,4.28,0,0,1-1.16-3.17A4.75,4.75,0,0,1,506,71.2a3.63,3.63,0,0,1,1.53-1.5,5.44,5.44,0,0,1,4.64,0,3.53,3.53,0,0,1,1.52,1.49,4.7,4.7,0,0,1,.54,2.31,4.75,4.75,0,0,1-.54,2.31,3.5,3.5,0,0,1-1.52,1.5,4.9,4.9,0,0,1-2.32.52A4.38,4.38,0,0,1,506.6,76.68Zm4.75-1.32a2.71,2.71,0,0,0,.57-1.85,2.68,2.68,0,0,0-.58-1.85,1.92,1.92,0,0,0-1.51-.66,1.94,1.94,0,0,0-1.52.66,3.24,3.24,0,0,0,0,3.7,2,2,0,0,0,1.53.65A1.94,1.94,0,0,0,511.35,75.36Z"/><path class="cls-10" d="M232.66,185.51h1.06l1.91,4.64h.06l1.84-4.64h1.05L236,191.6h-.75Z"/><path class="cls-10" d="M239.41,185.51h4.06l-.28.81h-2.85v1.92h2.5l0,.8h-2.46v1.75h3.14l-.28.81h-3.79Z"/><path class="cls-10" d="M249.48,190.79l-.23.81h-.55a1.15,1.15,0,0,1-.51-.1,1,1,0,0,1-.34-.33l-1.13-1.67a.31.31,0,0,0-.14-.14.63.63,0,0,0-.23,0h-.77v2.27h-.93v-6.09h2.21a2.61,2.61,0,0,1,1.63.45,1.62,1.62,0,0,1,.57,1.37,2,2,0,0,1-.36,1.22,1.72,1.72,0,0,1-1.09.64l.9,1.33a.73.73,0,0,0,.2.22.71.71,0,0,0,.3,0Zm-2.65-2.26a1.34,1.34,0,0,0,1-.31,1.11,1.11,0,0,0,.32-.84c0-.71-.43-1.06-1.29-1.06h-1.24v2.21Z"/><path class="cls-10" d="M250.65,185.51h.93v6.09h-.93Z"/><path class="cls-10" d="M253.11,185.51h4l-.27.81h-2.78v2h2.48l0,.8h-2.44v2.5h-.94Z"/><path class="cls-10" d="M258,185.51h.93v6.09H258Z"/><path class="cls-10" d="M264.44,193.08a1.62,1.62,0,0,1-.42-.31l-1-1.09a3.27,3.27,0,0,1-1.46-.43,2.89,2.89,0,0,1-1-1.08,3.3,3.3,0,0,1-.38-1.61,3.21,3.21,0,0,1,.42-1.67,2.93,2.93,0,0,1,1.12-1.09,3.21,3.21,0,0,1,1.53-.38,3.15,3.15,0,0,1,1.53.38,2.8,2.8,0,0,1,1.12,1.09,3.21,3.21,0,0,1,.42,1.67,3.15,3.15,0,0,1-.6,2,2.88,2.88,0,0,1-1.57,1l.55.58a.48.48,0,0,0,.23.16.92.92,0,0,0,.32,0H266l-.27.82H265A1.26,1.26,0,0,1,264.44,193.08Zm-.2-2.46a2.05,2.05,0,0,0,.76-.81,2.5,2.5,0,0,0,.29-1.26,2.65,2.65,0,0,0-.28-1.25,2.08,2.08,0,0,0-2.87-.81,2.05,2.05,0,0,0-.76.81,2.65,2.65,0,0,0-.28,1.25,2.61,2.61,0,0,0,.28,1.26,2.15,2.15,0,0,0,.77.81,2.16,2.16,0,0,0,2.09,0Z"/><path class="cls-10" d="M268.07,191.1a2.3,2.3,0,0,1-.64-1.76v-3.83h.94v3.79a1.62,1.62,0,0,0,.39,1.17,1.8,1.8,0,0,0,2.29,0,1.62,1.62,0,0,0,.39-1.17v-3.79h.93v3.83a2.29,2.29,0,0,1-.63,1.76,2.6,2.6,0,0,1-1.83.59A2.64,2.64,0,0,1,268.07,191.1Z"/><path class="cls-10" d="M273.83,185.51h4.06l-.28.81h-2.84v1.92h2.49l0,.8h-2.45v1.75h3.13l-.28.81h-3.79Z"/><path class="cls-10" d="M281.28,191.3a1.27,1.27,0,0,1-.28-.91v-4.88h.93v4.66a.71.71,0,0,0,.13.48.64.64,0,0,0,.47.14h2.38l-.28.81h-2.44A1.2,1.2,0,0,1,281.28,191.3Z"/><path class="cls-10" d="M288,185.5h.76l2.47,6.1h-1l-.56-1.42h-2.6l-.56,1.42h-1Zm1.35,3.87-.94-2.44h-.07l-1,2.44Z"/><path class="cls-10" d="M292.77,191.57a3.78,3.78,0,0,1-.95-.31l.11-.85a4.3,4.3,0,0,0,.9.35,3.86,3.86,0,0,0,.93.13,1.62,1.62,0,0,0,1-.27.87.87,0,0,0,.35-.72.78.78,0,0,0-.16-.49,1,1,0,0,0-.42-.29,7.72,7.72,0,0,0-.79-.27,7.36,7.36,0,0,1-.9-.33,1.59,1.59,0,0,1-.62-.51,1.43,1.43,0,0,1-.26-.89,1.48,1.48,0,0,1,.6-1.27,2.71,2.71,0,0,1,1.58-.43,6.53,6.53,0,0,1,1.61.25l-.06.82a5.15,5.15,0,0,0-1.53-.27c-.81,0-1.22.28-1.22.84a.67.67,0,0,0,.14.46,1,1,0,0,0,.39.28,6.16,6.16,0,0,0,.74.25,8.39,8.39,0,0,1,1,.36,1.52,1.52,0,0,1,.62.51,1.46,1.46,0,0,1,.24.88,1.68,1.68,0,0,1-.63,1.4,2.69,2.69,0,0,1-1.67.49A4.57,4.57,0,0,1,292.77,191.57Z"/><path class="cls-10" d="M300.35,191.28a2.69,2.69,0,0,1-1.1-1.12,3.62,3.62,0,0,1,0-3.23,2.72,2.72,0,0,1,1.12-1.11,3.66,3.66,0,0,1,1.74-.4,4.46,4.46,0,0,1,1,.11,3.41,3.41,0,0,1,.78.25l-.09.83a3.82,3.82,0,0,0-1.64-.38,2.54,2.54,0,0,0-1.23.29,1.93,1.93,0,0,0-.8.8,2.53,2.53,0,0,0-.28,1.22,2.57,2.57,0,0,0,.29,1.23,2,2,0,0,0,.82.82,2.58,2.58,0,0,0,1.24.29,4.32,4.32,0,0,0,.85-.09,3.48,3.48,0,0,0,.77-.25l.09.8a3.79,3.79,0,0,1-.82.25,4.59,4.59,0,0,1-1,.1A3.55,3.55,0,0,1,300.35,191.28Z"/><path class="cls-10" d="M306,191.31a2.79,2.79,0,0,1-1.12-1.09,3.27,3.27,0,0,1-.41-1.66,3.21,3.21,0,0,1,.42-1.67A2.93,2.93,0,0,1,306,185.8a3.27,3.27,0,0,1,3.06,0,2.8,2.8,0,0,1,1.12,1.09,3.21,3.21,0,0,1,.42,1.67,3.17,3.17,0,0,1-.41,1.66,2.71,2.71,0,0,1-1.11,1.09,3.23,3.23,0,0,1-1.55.38A3.19,3.19,0,0,1,306,191.31Zm2.59-.69a2.05,2.05,0,0,0,.76-.81,2.59,2.59,0,0,0,.29-1.25,2.66,2.66,0,0,0-.28-1.26,2.08,2.08,0,0,0-2.87-.81,2.05,2.05,0,0,0-.76.81,2.66,2.66,0,0,0-.28,1.26,2.59,2.59,0,0,0,.28,1.25,2.15,2.15,0,0,0,.77.81,2.16,2.16,0,0,0,2.09,0Z"/><path class="cls-10" d="M311.86,185.51h.71l3.49,4.39v-4.39h.88v6.09h-.65l-3.55-4.5v4.5h-.88Z"/><path class="cls-10" d="M318.45,185.51h2.19a3.75,3.75,0,0,1,2.47.71,2.83,2.83,0,0,1,.85,2.25,3,3,0,0,1-.94,2.41,3.69,3.69,0,0,1-2.45.72h-2.12Zm2.24,5.28a2.26,2.26,0,0,0,1.74-.61,2.41,2.41,0,0,0,.56-1.72,2.05,2.05,0,0,0-.6-1.65,2.67,2.67,0,0,0-1.8-.49h-1.2v4.47Z"/><path class="cls-10" d="M325.2,185.51h.94v6.09h-.94Z"/><path class="cls-10" d="M328.85,191.28a2.76,2.76,0,0,1-1.1-1.12,3.62,3.62,0,0,1,0-3.23,2.78,2.78,0,0,1,1.12-1.11,3.66,3.66,0,0,1,1.74-.4,4.62,4.62,0,0,1,1,.11,3.48,3.48,0,0,1,.77.25l-.09.83a3.81,3.81,0,0,0-1.63-.38,2.55,2.55,0,0,0-1.24.29,1.93,1.93,0,0,0-.8.8,2.64,2.64,0,0,0-.28,1.22,2.57,2.57,0,0,0,.29,1.23,2,2,0,0,0,.82.82,2.58,2.58,0,0,0,1.24.29,4.32,4.32,0,0,0,.85-.09,3.32,3.32,0,0,0,.77-.25l.09.8a3.79,3.79,0,0,1-.82.25,4.59,4.59,0,0,1-1,.1A3.55,3.55,0,0,1,328.85,191.28Z"/><path class="cls-10" d="M333.56,185.51h.94v6.09h-.94Z"/><path class="cls-10" d="M337.26,191.31a2.71,2.71,0,0,1-1.11-1.09,3.27,3.27,0,0,1-.41-1.66,3.21,3.21,0,0,1,.42-1.67,2.86,2.86,0,0,1,1.12-1.09,3.27,3.27,0,0,1,3.06,0,2.86,2.86,0,0,1,1.12,1.09,3.21,3.21,0,0,1,.42,1.67,3.27,3.27,0,0,1-.41,1.66,2.71,2.71,0,0,1-1.11,1.09,3.35,3.35,0,0,1-3.1,0Zm2.59-.69a2.07,2.07,0,0,0,.77-.81,2.59,2.59,0,0,0,.29-1.25,2.66,2.66,0,0,0-.29-1.26,2,2,0,0,0-.76-.81,2.11,2.11,0,0,0-2.1,0,2.05,2.05,0,0,0-.76.81,2.66,2.66,0,0,0-.29,1.26,2.59,2.59,0,0,0,.29,1.25,2.07,2.07,0,0,0,.77.81,2.14,2.14,0,0,0,2.08,0Z"/><path class="cls-10" d="M343.1,185.51h.71l3.5,4.39v-4.39h.88v6.09h-.65L344,187.1v4.5h-.89Z"/><path class="cls-10" d="M349.7,185.51h4.06l-.28.81h-2.84v1.92h2.49l0,.8h-2.45v1.75h3.13l-.28.81H349.7Z"/><path class="cls-10" d="M355.46,191.57a3.65,3.65,0,0,1-.95-.31l.1-.85a4.18,4.18,0,0,0,.91.35,3.71,3.71,0,0,0,.92.13,1.62,1.62,0,0,0,1-.27.87.87,0,0,0,.35-.72.77.77,0,0,0-.15-.49,1.13,1.13,0,0,0-.43-.29,6.94,6.94,0,0,0-.79-.27,7.36,7.36,0,0,1-.9-.33,1.56,1.56,0,0,1-.61-.51,1.37,1.37,0,0,1-.26-.89,1.48,1.48,0,0,1,.6-1.27,2.69,2.69,0,0,1,1.58-.43,6.67,6.67,0,0,1,1.61.25l-.07.82a5.14,5.14,0,0,0-1.52-.27q-1.23,0-1.23.84a.72.72,0,0,0,.14.46,1,1,0,0,0,.39.28,6.45,6.45,0,0,0,.75.25,9.89,9.89,0,0,1,1,.36,1.5,1.5,0,0,1,.61.51,1.46,1.46,0,0,1,.24.88,1.68,1.68,0,0,1-.63,1.4,2.66,2.66,0,0,1-1.66.49A4.57,4.57,0,0,1,355.46,191.57Z"/><path class="cls-10" d="M363.39,189.36l-2.22-3.85h1.08l1.61,2.9h0l1.59-2.9h1l-2.2,3.86v2.23h-.93Z"/><path class="cls-10" d="M223.91,200.79l-.23.81h-.56a1.22,1.22,0,0,1-.51-.1,1,1,0,0,1-.33-.33l-1.13-1.67a.46.46,0,0,0-.14-.14.7.7,0,0,0-.24,0H220v2.27h-.94v-6.09h2.22a2.61,2.61,0,0,1,1.63.45,1.62,1.62,0,0,1,.57,1.37,2,2,0,0,1-.36,1.22,1.75,1.75,0,0,1-1.1.64l.9,1.33a.89.89,0,0,0,.21.22.71.71,0,0,0,.3,0Zm-2.65-2.26a1.29,1.29,0,0,0,1-.31,1.08,1.08,0,0,0,.33-.84c0-.71-.43-1.06-1.29-1.06H220v2.21Z"/><path class="cls-10" d="M224.92,195.51H229l-.28.81h-2.84v1.92h2.49l0,.8h-2.46v1.75H229l-.28.81h-3.79Z"/><path class="cls-10" d="M234.07,203.08a1.77,1.77,0,0,1-.41-.31l-1-1.09a3.27,3.27,0,0,1-1.46-.43,2.82,2.82,0,0,1-1-1.08,3.3,3.3,0,0,1-.38-1.61,3.21,3.21,0,0,1,.42-1.67,2.86,2.86,0,0,1,1.12-1.09,3.27,3.27,0,0,1,3.06,0,2.8,2.8,0,0,1,1.12,1.09,3.21,3.21,0,0,1,.42,1.67,3.15,3.15,0,0,1-.6,2,2.87,2.87,0,0,1-1.58,1l.56.58a.48.48,0,0,0,.23.16.89.89,0,0,0,.32,0h.78l-.28.82h-.74A1.31,1.31,0,0,1,234.07,203.08Zm-.19-2.46a2.05,2.05,0,0,0,.76-.81,2.61,2.61,0,0,0,.29-1.26,2.65,2.65,0,0,0-.28-1.25,2.08,2.08,0,0,0-2.87-.81,2.05,2.05,0,0,0-.76.81,2.65,2.65,0,0,0-.28,1.25,2.61,2.61,0,0,0,.28,1.26,2.15,2.15,0,0,0,.77.81,2.16,2.16,0,0,0,2.09,0Z"/><path class="cls-10" d="M237.71,201.1a2.3,2.3,0,0,1-.64-1.76v-3.83H238v3.79a1.66,1.66,0,0,0,.38,1.17,1.55,1.55,0,0,0,1.16.41,1.51,1.51,0,0,0,1.14-.41,1.62,1.62,0,0,0,.39-1.17v-3.79H242v3.83a2.29,2.29,0,0,1-.63,1.76,2.61,2.61,0,0,1-1.83.59A2.64,2.64,0,0,1,237.71,201.1Z"/><path class="cls-10" d="M243.49,195.51h.93v6.09h-.93Z"/><path class="cls-10" d="M246.56,201.57a3.78,3.78,0,0,1-.95-.31l.11-.85a4.3,4.3,0,0,0,.9.35,3.86,3.86,0,0,0,.93.13,1.62,1.62,0,0,0,1-.27.87.87,0,0,0,.35-.72.72.72,0,0,0-.16-.49,1,1,0,0,0-.42-.29,7.72,7.72,0,0,0-.79-.27,7.36,7.36,0,0,1-.9-.33A1.59,1.59,0,0,1,246,198a1.42,1.42,0,0,1-.25-.89,1.47,1.47,0,0,1,.59-1.27,2.71,2.71,0,0,1,1.58-.43,6.53,6.53,0,0,1,1.61.25l-.06.82a5.15,5.15,0,0,0-1.53-.27c-.82,0-1.22.28-1.22.84a.67.67,0,0,0,.14.46,1,1,0,0,0,.39.28,6.45,6.45,0,0,0,.75.25,8.8,8.8,0,0,1,1,.36,1.43,1.43,0,0,1,.61.51,1.39,1.39,0,0,1,.25.88,1.68,1.68,0,0,1-.63,1.4,2.69,2.69,0,0,1-1.67.49A4.57,4.57,0,0,1,246.56,201.57Z"/><path class="cls-10" d="M251,195.51H252v6.09H251Z"/><path class="cls-10" d="M254.92,196.32h-2v-.81h5.19l-.28.81h-1.93v5.28h-.93Z"/><path class="cls-10" d="M259.76,201.31a2.71,2.71,0,0,1-1.11-1.09,3.27,3.27,0,0,1-.41-1.66,3.21,3.21,0,0,1,.42-1.67,2.86,2.86,0,0,1,1.12-1.09,3.27,3.27,0,0,1,3.06,0,2.86,2.86,0,0,1,1.12,1.09,3.21,3.21,0,0,1,.42,1.67,3.27,3.27,0,0,1-.41,1.66,2.77,2.77,0,0,1-1.11,1.09,3.35,3.35,0,0,1-3.1,0Zm2.59-.69a2.07,2.07,0,0,0,.77-.81,2.59,2.59,0,0,0,.29-1.25,2.66,2.66,0,0,0-.29-1.26,2.05,2.05,0,0,0-.76-.81,2.11,2.11,0,0,0-1.05-.28,2.06,2.06,0,0,0-1.05.28,2,2,0,0,0-.76.81,2.66,2.66,0,0,0-.29,1.26,2.59,2.59,0,0,0,.29,1.25,2,2,0,0,0,1.81,1.08A2.07,2.07,0,0,0,262.35,200.62Z"/><path class="cls-10" d="M266.21,201.57a3.78,3.78,0,0,1-.95-.31l.11-.85a4.3,4.3,0,0,0,.9.35,3.78,3.78,0,0,0,.92.13,1.63,1.63,0,0,0,1-.27.86.86,0,0,0,.34-.72.77.77,0,0,0-.15-.49,1,1,0,0,0-.43-.29,6.66,6.66,0,0,0-.78-.27,7.36,7.36,0,0,1-.9-.33,1.52,1.52,0,0,1-.62-.51,1.43,1.43,0,0,1-.26-.89,1.48,1.48,0,0,1,.6-1.27,2.71,2.71,0,0,1,1.58-.43,6.6,6.6,0,0,1,1.61.25l-.06.82a5.15,5.15,0,0,0-1.53-.27q-1.23,0-1.23.84a.72.72,0,0,0,.14.46,1.1,1.1,0,0,0,.4.28,5.59,5.59,0,0,0,.74.25,9.08,9.08,0,0,1,1,.36,1.43,1.43,0,0,1,.61.51,1.46,1.46,0,0,1,.25.88,1.69,1.69,0,0,1-.64,1.4,2.66,2.66,0,0,1-1.66.49A4.57,4.57,0,0,1,266.21,201.57Z"/><path class="cls-10" d="M273.21,201.57a3.78,3.78,0,0,1-.95-.31l.11-.85a4.3,4.3,0,0,0,.9.35,3.86,3.86,0,0,0,.93.13,1.62,1.62,0,0,0,1-.27.87.87,0,0,0,.35-.72.78.78,0,0,0-.16-.49,1,1,0,0,0-.43-.29,6.66,6.66,0,0,0-.78-.27,7.36,7.36,0,0,1-.9-.33,1.59,1.59,0,0,1-.62-.51,1.43,1.43,0,0,1-.26-.89,1.48,1.48,0,0,1,.6-1.27,2.71,2.71,0,0,1,1.58-.43,6.53,6.53,0,0,1,1.61.25l-.06.82a5.15,5.15,0,0,0-1.53-.27c-.82,0-1.22.28-1.22.84a.67.67,0,0,0,.14.46,1,1,0,0,0,.39.28,6.16,6.16,0,0,0,.74.25,8.39,8.39,0,0,1,1,.36,1.52,1.52,0,0,1,.62.51,1.46,1.46,0,0,1,.24.88,1.68,1.68,0,0,1-.63,1.4,2.69,2.69,0,0,1-1.67.49A4.57,4.57,0,0,1,273.21,201.57Z"/><path class="cls-10" d="M277.66,195.51h4.06l-.28.81H278.6v1.92h2.49l0,.8H278.6v1.75h3.13l-.28.81h-3.79Z"/><path class="cls-10" d="M284,201.29a2.81,2.81,0,0,1-1.14-1.1,3.25,3.25,0,0,1-.39-1.61,3.21,3.21,0,0,1,.42-1.65,2.81,2.81,0,0,1,1.2-1.11,4,4,0,0,1,1.85-.4,4.48,4.48,0,0,1,1.8.35l-.09.84a4,4,0,0,0-1.71-.38,2.94,2.94,0,0,0-1.34.29,2,2,0,0,0-.86.8,2.43,2.43,0,0,0-.29,1.23,2.46,2.46,0,0,0,.3,1.25,2.18,2.18,0,0,0,.85.8,2.79,2.79,0,0,0,1.24.28,3.79,3.79,0,0,0,.67-.06,1.91,1.91,0,0,0,.55-.16v-1.95l.94-.25v2.69a3.65,3.65,0,0,1-1,.39,5.13,5.13,0,0,1-1.24.15A3.79,3.79,0,0,1,284,201.29Z"/><path class="cls-10" d="M289.82,201.1a2.26,2.26,0,0,1-.64-1.76v-3.83h.94v3.79a1.66,1.66,0,0,0,.38,1.17,1.55,1.55,0,0,0,1.16.41,1.51,1.51,0,0,0,1.14-.41,1.62,1.62,0,0,0,.39-1.17v-3.79h.93v3.83a2.29,2.29,0,0,1-.63,1.76,2.61,2.61,0,0,1-1.83.59A2.64,2.64,0,0,1,289.82,201.1Zm.95-6.65,1.88-1.12.43.72-2,.95Z"/><path class="cls-10" d="M295.58,195.51h.71l3.49,4.39v-4.39h.89v6.09H300l-3.56-4.5v4.5h-.88Z"/><path class="cls-10" d="M304.44,201.3a1.27,1.27,0,0,1-.28-.91v-4.88h.93v4.66a.76.76,0,0,0,.13.48.64.64,0,0,0,.47.14h2.38l-.28.81h-2.44A1.2,1.2,0,0,1,304.44,201.3Z"/><path class="cls-10" d="M309.68,201.31a2.71,2.71,0,0,1-1.11-1.09,3.27,3.27,0,0,1-.41-1.66,3.21,3.21,0,0,1,.42-1.67,2.86,2.86,0,0,1,1.12-1.09,3.27,3.27,0,0,1,3.06,0,2.86,2.86,0,0,1,1.12,1.09,3.21,3.21,0,0,1,.42,1.67,3.27,3.27,0,0,1-.41,1.66,2.71,2.71,0,0,1-1.11,1.09,3.35,3.35,0,0,1-3.1,0Zm2.59-.69a2.07,2.07,0,0,0,.77-.81,2.59,2.59,0,0,0,.29-1.25,2.66,2.66,0,0,0-.29-1.26,2,2,0,0,0-.76-.81,2.11,2.11,0,0,0-2.1,0,2.05,2.05,0,0,0-.76.81,2.66,2.66,0,0,0-.29,1.26,2.59,2.59,0,0,0,.29,1.25,2.07,2.07,0,0,0,.77.81,2.14,2.14,0,0,0,2.08,0Z"/><path class="cls-10" d="M316.13,201.57a3.78,3.78,0,0,1-.95-.31l.11-.85a4.3,4.3,0,0,0,.9.35,3.86,3.86,0,0,0,.93.13,1.62,1.62,0,0,0,1-.27.86.86,0,0,0,.34-.72.77.77,0,0,0-.15-.49,1,1,0,0,0-.43-.29,6.66,6.66,0,0,0-.78-.27,7.36,7.36,0,0,1-.9-.33,1.59,1.59,0,0,1-.62-.51,1.43,1.43,0,0,1-.26-.89,1.48,1.48,0,0,1,.6-1.27,2.71,2.71,0,0,1,1.58-.43,6.6,6.6,0,0,1,1.61.25l-.06.82a5.15,5.15,0,0,0-1.53-.27c-.82,0-1.22.28-1.22.84a.67.67,0,0,0,.14.46,1,1,0,0,0,.39.28,5.59,5.59,0,0,0,.74.25,8.39,8.39,0,0,1,1,.36,1.43,1.43,0,0,1,.61.51,1.39,1.39,0,0,1,.25.88,1.68,1.68,0,0,1-.63,1.4,2.69,2.69,0,0,1-1.67.49A4.57,4.57,0,0,1,316.13,201.57Z"/><path class="cls-10" d="M322.53,195.51h2.13c1.5,0,2.26.64,2.26,1.91a2.12,2.12,0,0,1-.54,1.5,2.17,2.17,0,0,1-1.68.59h-1.24v2.09h-.93Zm2.1,3.19a1.44,1.44,0,0,0,1-.3,1.18,1.18,0,0,0,.33-.91,1.11,1.11,0,0,0-.33-.89,1.5,1.5,0,0,0-1-.28h-1.2v2.38Z"/><path class="cls-10" d="M332.76,200.79l-.23.81H332a1.15,1.15,0,0,1-.51-.1,1,1,0,0,1-.34-.33L330,199.5a.31.31,0,0,0-.14-.14.67.67,0,0,0-.23,0h-.77v2.27h-.93v-6.09h2.21a2.61,2.61,0,0,1,1.63.45,1.62,1.62,0,0,1,.57,1.37,2,2,0,0,1-.36,1.22,1.72,1.72,0,0,1-1.09.64l.9,1.33a.73.73,0,0,0,.2.22.71.71,0,0,0,.3,0Zm-2.65-2.26a1.34,1.34,0,0,0,1-.31,1.11,1.11,0,0,0,.32-.84c0-.71-.43-1.06-1.29-1.06h-1.24v2.21Z"/><path class="cls-10" d="M334.83,201.31a2.71,2.71,0,0,1-1.11-1.09,3.17,3.17,0,0,1-.41-1.66,3.21,3.21,0,0,1,.42-1.67,2.8,2.8,0,0,1,1.12-1.09,3.15,3.15,0,0,1,1.53-.38,3.21,3.21,0,0,1,1.53.38,2.86,2.86,0,0,1,1.12,1.09,3.21,3.21,0,0,1,.42,1.67,3.27,3.27,0,0,1-.41,1.66,2.79,2.79,0,0,1-1.12,1.09,3.19,3.19,0,0,1-1.54.38A3.23,3.23,0,0,1,334.83,201.31Zm2.59-.69a2.15,2.15,0,0,0,.77-.81,2.59,2.59,0,0,0,.28-1.25,2.66,2.66,0,0,0-.28-1.26,2.05,2.05,0,0,0-.76-.81,2,2,0,0,0-2.87.81,2.66,2.66,0,0,0-.28,1.26,2.59,2.59,0,0,0,.29,1.25,2.05,2.05,0,0,0,.76.81,2.16,2.16,0,0,0,2.09,0Z"/><path class="cls-10" d="M341.71,196.32h-2v-.81h5.19l-.27.81h-1.93v5.28h-.94Z"/><path class="cls-10" d="M346.55,201.31a2.83,2.83,0,0,1-1.11-1.09,3.27,3.27,0,0,1-.41-1.66,3.21,3.21,0,0,1,.42-1.67,2.93,2.93,0,0,1,1.12-1.09,3.21,3.21,0,0,1,1.53-.38,3.15,3.15,0,0,1,1.53.38,2.86,2.86,0,0,1,1.12,1.09,3.21,3.21,0,0,1,.42,1.67,3.17,3.17,0,0,1-.41,1.66,2.71,2.71,0,0,1-1.11,1.09,3.35,3.35,0,0,1-3.1,0Zm2.6-.69a2.12,2.12,0,0,0,.76-.81,2.59,2.59,0,0,0,.29-1.25,2.66,2.66,0,0,0-.28-1.26,2.08,2.08,0,0,0-2.87-.81,2.05,2.05,0,0,0-.76.81,2.66,2.66,0,0,0-.28,1.26,2.59,2.59,0,0,0,.28,1.25,2.15,2.15,0,0,0,.77.81,2.16,2.16,0,0,0,2.09,0Z"/><path class="cls-10" d="M353.57,201.28a2.73,2.73,0,0,1-1.09-1.12,3.34,3.34,0,0,1-.37-1.6,3.47,3.47,0,0,1,.38-1.63,2.81,2.81,0,0,1,1.13-1.11,3.66,3.66,0,0,1,1.74-.4,4.46,4.46,0,0,1,1,.11,3.41,3.41,0,0,1,.78.25l-.09.83a3.82,3.82,0,0,0-1.64-.38,2.54,2.54,0,0,0-1.23.29,1.87,1.87,0,0,0-.8.8,2.53,2.53,0,0,0-.28,1.22,2.57,2.57,0,0,0,.29,1.23,2,2,0,0,0,.82.82,2.58,2.58,0,0,0,1.24.29,4.32,4.32,0,0,0,.85-.09,3.48,3.48,0,0,0,.77-.25l.09.8a3.72,3.72,0,0,1-.83.25,4.5,4.5,0,0,1-1,.1A3.62,3.62,0,0,1,353.57,201.28Z"/><path class="cls-10" d="M359.24,201.31a2.83,2.83,0,0,1-1.11-1.09,3.27,3.27,0,0,1-.41-1.66,3.21,3.21,0,0,1,.42-1.67,2.86,2.86,0,0,1,1.12-1.09,3.27,3.27,0,0,1,3.06,0,2.86,2.86,0,0,1,1.12,1.09,3.21,3.21,0,0,1,.42,1.67,3.27,3.27,0,0,1-.41,1.66,2.71,2.71,0,0,1-1.11,1.09,3.35,3.35,0,0,1-3.1,0Zm2.6-.69a2.12,2.12,0,0,0,.76-.81,2.59,2.59,0,0,0,.29-1.25,2.78,2.78,0,0,0-.28-1.26,2.08,2.08,0,0,0-2.87-.81,2.05,2.05,0,0,0-.76.81,2.66,2.66,0,0,0-.28,1.26,2.59,2.59,0,0,0,.28,1.25,2.15,2.15,0,0,0,.77.81,2.16,2.16,0,0,0,2.09,0Z"/><path class="cls-10" d="M365.35,201.3a1.27,1.27,0,0,1-.28-.91v-4.88H366v4.66a.76.76,0,0,0,.13.48.66.66,0,0,0,.47.14H369l-.28.81h-2.44A1.2,1.2,0,0,1,365.35,201.3Z"/><path class="cls-10" d="M370.59,201.31a2.71,2.71,0,0,1-1.11-1.09,3.27,3.27,0,0,1-.41-1.66,3.21,3.21,0,0,1,.42-1.67,2.86,2.86,0,0,1,1.12-1.09,3.27,3.27,0,0,1,3.06,0,2.86,2.86,0,0,1,1.12,1.09,3.21,3.21,0,0,1,.42,1.67,3.27,3.27,0,0,1-.41,1.66,2.71,2.71,0,0,1-1.11,1.09,3.35,3.35,0,0,1-3.1,0Zm2.6-.69a2.12,2.12,0,0,0,.76-.81,2.59,2.59,0,0,0,.29-1.25,2.78,2.78,0,0,0-.28-1.26,2,2,0,0,0-1.82-1.09,2.11,2.11,0,0,0-1.05.28,2.05,2.05,0,0,0-.76.81,2.66,2.66,0,0,0-.29,1.26,2.59,2.59,0,0,0,.29,1.25,2,2,0,0,0,1.81,1.08A2.11,2.11,0,0,0,373.19,200.62Z"/><path class="cls-10" d="M377,201.57a3.78,3.78,0,0,1-1-.31l.11-.85a4.3,4.3,0,0,0,.9.35,3.86,3.86,0,0,0,.93.13,1.62,1.62,0,0,0,1-.27.87.87,0,0,0,.35-.72.78.78,0,0,0-.16-.49,1,1,0,0,0-.42-.29,7.72,7.72,0,0,0-.79-.27,7.36,7.36,0,0,1-.9-.33,1.59,1.59,0,0,1-.62-.51,1.42,1.42,0,0,1-.25-.89,1.5,1.5,0,0,1,.59-1.27,2.71,2.71,0,0,1,1.58-.43,6.53,6.53,0,0,1,1.61.25l-.06.82a5.15,5.15,0,0,0-1.53-.27c-.82,0-1.22.28-1.22.84a.67.67,0,0,0,.14.46,1,1,0,0,0,.39.28,6.45,6.45,0,0,0,.75.25,8.8,8.8,0,0,1,1,.36,1.52,1.52,0,0,1,.62.51,1.46,1.46,0,0,1,.24.88,1.68,1.68,0,0,1-.63,1.4,2.69,2.69,0,0,1-1.67.49A4.57,4.57,0,0,1,377,201.57Z"/><path class="cls-10" d="M260.37,205.51h2.19a3.7,3.7,0,0,1,2.46.71,2.84,2.84,0,0,1,.86,2.25,3,3,0,0,1-.95,2.41,3.67,3.67,0,0,1-2.45.72h-2.11Zm2.24,5.28a2.29,2.29,0,0,0,1.74-.61,2.4,2.4,0,0,0,.55-1.72,2.05,2.05,0,0,0-.59-1.65,2.71,2.71,0,0,0-1.8-.49H261.3v4.47Z"/><path class="cls-10" d="M267.1,205.51h4.06l-.28.81H268v1.92h2.49l0,.8H268v1.75h3.13l-.28.81H267.1Z"/><path class="cls-10" d="M274.28,205.51h2.2c1.35,0,2,.51,2,1.53a1.3,1.3,0,0,1-.83,1.31v0a1.42,1.42,0,0,1,.88.5,1.48,1.48,0,0,1,.32,1,1.53,1.53,0,0,1-.59,1.29,2.69,2.69,0,0,1-1.61.44h-2.4Zm2.25,2.56a1.19,1.19,0,0,0,.78-.23.82.82,0,0,0,.27-.67.77.77,0,0,0-.26-.64,1.27,1.27,0,0,0-.8-.21h-1.3v1.75Zm.16,2.72c.81,0,1.22-.32,1.22-1a.85.85,0,0,0-.31-.72,1.59,1.59,0,0,0-.94-.23h-1.44v1.92Z"/><path class="cls-10" d="M280,205.51h.94v6.09H280Z"/><path class="cls-10" d="M283.66,211.31a2.71,2.71,0,0,1-1.11-1.09,3.27,3.27,0,0,1-.41-1.66,3.21,3.21,0,0,1,.42-1.67,2.86,2.86,0,0,1,1.12-1.09,3.27,3.27,0,0,1,3.06,0,2.86,2.86,0,0,1,1.12,1.09,3.21,3.21,0,0,1,.42,1.67,3.27,3.27,0,0,1-.41,1.66,2.83,2.83,0,0,1-1.11,1.09,3.35,3.35,0,0,1-3.1,0Zm2.59-.69a2.07,2.07,0,0,0,.77-.81,2.59,2.59,0,0,0,.28-1.25,2.66,2.66,0,0,0-.28-1.26,2.05,2.05,0,0,0-.76-.81,2.11,2.11,0,0,0-1.05-.28,2,2,0,0,0-1.82,1.09,2.78,2.78,0,0,0-.28,1.26,2.59,2.59,0,0,0,.29,1.25,2,2,0,0,0,1.81,1.08A2.07,2.07,0,0,0,286.25,210.62Z"/><path class="cls-10" d="M290.11,211.57a3.78,3.78,0,0,1-.95-.31l.11-.85a4.1,4.1,0,0,0,.9.35,3.78,3.78,0,0,0,.92.13,1.63,1.63,0,0,0,1-.27.86.86,0,0,0,.34-.72.77.77,0,0,0-.15-.49,1,1,0,0,0-.43-.29,6.31,6.31,0,0,0-.79-.27,6.59,6.59,0,0,1-.89-.33,1.59,1.59,0,0,1-.62-.51,1.43,1.43,0,0,1-.26-.89,1.48,1.48,0,0,1,.6-1.27,2.71,2.71,0,0,1,1.58-.43,6.6,6.6,0,0,1,1.61.25l-.06.82a5.15,5.15,0,0,0-1.53-.27q-1.23,0-1.23.84a.72.72,0,0,0,.14.46,1.15,1.15,0,0,0,.39.28,6.45,6.45,0,0,0,.75.25,9.08,9.08,0,0,1,1,.36,1.43,1.43,0,0,1,.61.51,1.46,1.46,0,0,1,.25.88,1.69,1.69,0,0,1-.64,1.4,2.64,2.64,0,0,1-1.66.49A4.57,4.57,0,0,1,290.11,211.57Z"/><path class="cls-10" d="M294.56,205.51h4.06l-.28.81H295.5v1.92H298l0,.8H295.5v1.75h3.13l-.28.81h-3.79Z"/><path class="cls-10" d="M300.93,211.29a2.69,2.69,0,0,1-1.14-1.1,3.25,3.25,0,0,1-.39-1.61,3.21,3.21,0,0,1,.42-1.65,2.81,2.81,0,0,1,1.2-1.11,4,4,0,0,1,1.85-.4,4.48,4.48,0,0,1,1.8.35l-.09.84a4,4,0,0,0-1.71-.38,2.91,2.91,0,0,0-1.34.29,2,2,0,0,0-.86.8,2.44,2.44,0,0,0-.3,1.23,2.37,2.37,0,0,0,.31,1.25,2.12,2.12,0,0,0,.85.8,2.73,2.73,0,0,0,1.24.28,3.88,3.88,0,0,0,.67-.06,2,2,0,0,0,.55-.16v-1.95l.94-.25v2.69a3.73,3.73,0,0,1-1,.39,5.05,5.05,0,0,1-1.23.15A3.79,3.79,0,0,1,300.93,211.29Z"/><path class="cls-10" d="M306.72,211.1a2.26,2.26,0,0,1-.64-1.76v-3.83H307v3.79a1.62,1.62,0,0,0,.38,1.17,1.82,1.82,0,0,0,2.3,0,1.62,1.62,0,0,0,.38-1.17v-3.79H311v3.83a2.26,2.26,0,0,1-.64,1.76,3.13,3.13,0,0,1-3.66,0Z"/><path class="cls-10" d="M317.31,210.79l-.22.81h-.56a1.15,1.15,0,0,1-.51-.1,1.06,1.06,0,0,1-.34-.33l-1.12-1.67a.39.39,0,0,0-.15-.14.6.6,0,0,0-.23,0h-.77v2.27h-.93v-6.09h2.21a2.59,2.59,0,0,1,1.63.45,1.6,1.6,0,0,1,.58,1.37,2,2,0,0,1-.37,1.22,1.72,1.72,0,0,1-1.09.64l.9,1.33a.89.89,0,0,0,.21.22.69.69,0,0,0,.29,0Zm-2.65-2.26a1.34,1.34,0,0,0,1-.31,1.11,1.11,0,0,0,.32-.84c0-.71-.43-1.06-1.28-1.06h-1.25v2.21Z"/><path class="cls-10" d="M318.48,205.51h.94v6.09h-.94Z"/><path class="cls-10" d="M321,205.51h2.18a3.71,3.71,0,0,1,2.47.71,2.84,2.84,0,0,1,.86,2.25,3,3,0,0,1-.95,2.41,3.67,3.67,0,0,1-2.45.72H321Zm2.24,5.28a2.25,2.25,0,0,0,1.73-.61,2.36,2.36,0,0,0,.56-1.72,2.05,2.05,0,0,0-.59-1.65,2.71,2.71,0,0,0-1.8-.49h-1.21v4.47Z"/><path class="cls-10" d="M329.26,205.5H330l2.46,6.1h-1l-.55-1.42h-2.6l-.56,1.42h-1Zm1.36,3.87-.94-2.44h-.08l-1,2.44Z"/><path class="cls-10" d="M333.41,205.51h2.19a3.7,3.7,0,0,1,2.46.71,2.84,2.84,0,0,1,.86,2.25,2.94,2.94,0,0,1-.95,2.41,3.66,3.66,0,0,1-2.44.72h-2.12Zm2.24,5.28a2.26,2.26,0,0,0,1.74-.61,2.41,2.41,0,0,0,.56-1.72,2.05,2.05,0,0,0-.6-1.65,2.67,2.67,0,0,0-1.8-.49h-1.2v4.47Z"/></svg>