<svg id="Diseño" xmlns="http://www.w3.org/2000/svg" xmlns:xlink="http://www.w3.org/1999/xlink" viewBox="0 0 220 120"><defs><style>.cls-1,.cls-10,.cls-19,.cls-3{fill:none;}.cls-2{fill:#87868b;}.cls-3{stroke:#b31a1e;stroke-miterlimit:10;stroke-width:4px;stroke-dasharray:0 6;}.cls-10,.cls-19,.cls-3{stroke-linecap:round;}.cls-4{fill:#b31a1e;}.cls-5{fill:#7dbdc5;}.cls-6{fill:#e8e8e6;}.cls-7{fill:#39959d;}.cls-8{fill:#9b9a9a;}.cls-9{fill:#fff;}.cls-10{stroke:#549aa3;}.cls-10,.cls-19{stroke-linejoin:round;}.cls-11{clip-path:url(#clip-path);}.cls-12{fill:#edcbb2;}.cls-13{fill:#dea880;}.cls-14{fill:#f3f7fa;}.cls-15{fill:#414142;}.cls-16{fill:#fffcf8;}.cls-17{fill:#5e2b0e;}.cls-18{fill:#464645;}.cls-19{stroke:#e1af8d;stroke-width:0.5px;opacity:0.5;}.cls-20{fill:#db718b;}.cls-21{fill:#efefef;}.cls-22{fill:#ebc0a3;}.cls-23{fill:#e9ba9d;}.cls-24{fill:#ce9d7c;}.cls-25{fill:#19293b;}</style><clipPath id="clip-path"><path class="cls-1" d="M198.13,73.12a31.23,31.23,0,0,1-7,19.8c-1.37,1.68,4.06,11.75,1.91,12.08-13,2-12.53-3.41-16-2.2a31.45,31.45,0,0,1-28.44-4.13C146.85,97.47,144,109,139,103c-1.48-1.77,1.9-11.94.72-13.94a31.38,31.38,0,1,1,58.41-15.94Z"/></clipPath></defs><rect class="cls-2" x="89.42" y="5" width="2.15" height="7" rx="1.08"/><rect class="cls-2" x="89.42" y="5" width="2.15" height="7" rx="1.08" transform="translate(99 -82) rotate(90)"/><path class="cls-3" d="M166.5,38c10.5,1,17.5,4,20,6C196,51.53,203,62.52,202,75.83a35.62,35.62,0,1,1-69.32-13.66A54.49,54.49,0,0,1,141,49a25.15,25.15,0,0,0,6.41-17.24C147.12,24.29,144.22,15.9,133,14c-20.37-3.45-26.39,13.71-24.69,22.35C109.37,41.77,111,47.18,111,53A52.5,52.5,0,1,1,29,9.57"/><circle class="cls-4" cx="166.75" cy="73.13" r="31.38"/><rect class="cls-2" x="192.18" y="39.42" width="1.8" height="5.85" rx="0.75"/><rect class="cls-2" x="192.18" y="39.42" width="1.8" height="5.85" rx="0.75" transform="translate(235.42 -150.73) rotate(90)"/><circle class="cls-4" cx="58.5" cy="53.5" r="48.5"/><rect class="cls-5" x="34" y="28" width="49" height="61" rx="5.84"/><rect class="cls-6" x="39" y="32" width="39" height="53" rx="2.26"/><rect class="cls-7" x="50.5" y="23.5" width="16" height="11" rx="3.7"/><circle class="cls-7" cx="58.5" cy="23.5" r="3"/><rect class="cls-7" x="56.5" y="37.5" width="18" height="1.5" rx="0.75"/><rect class="cls-7" x="56.5" y="44.5" width="18" height="1.5" rx="0.75"/><rect class="cls-7" x="56.5" y="50.5" width="18" height="1.5" rx="0.75"/><rect class="cls-7" x="56.5" y="65.5" width="18" height="1.5" rx="0.75"/><rect class="cls-7" x="56.5" y="72.5" width="18" height="1.5" rx="0.75"/><rect class="cls-7" x="56.5" y="78.5" width="18" height="1.5" rx="0.75"/><rect class="cls-7" x="41" y="57.5" width="33.5" height="1.5" rx="0.75"/><circle class="cls-8" cx="48.75" cy="41" r="3"/><path class="cls-8" d="M48.7,43h.11a5.45,5.45,0,0,1,5.45,5.45v0A1.55,1.55,0,0,1,52.7,50H44.8a1.55,1.55,0,0,1-1.55-1.55v0A5.45,5.45,0,0,1,48.7,43Z"/><path class="cls-8" d="M45.39,66.11a3.56,3.56,0,0,1,1.16.22l1.06.32a3.38,3.38,0,0,0,2.06-.14A7.93,7.93,0,0,1,51,66.15a2.15,2.15,0,0,1,1.84.51A3.07,3.07,0,0,1,54,69a5,5,0,0,1-.27,1.61c-.14.45-.29.89-.44,1.33a3.73,3.73,0,0,0-.18,1.1,11,11,0,0,1-.48,3.38,3.12,3.12,0,0,1-.4.82,1.29,1.29,0,0,1-2.16,0,3.93,3.93,0,0,1-.62-1.58A9.31,9.31,0,0,0,49,74.17c-.16-.37-.36-.5-.69-.47a.68.68,0,0,0-.51.37,4.67,4.67,0,0,0-.45,1.14,14.83,14.83,0,0,1-.44,1.48,2.49,2.49,0,0,1-.4.69,1.09,1.09,0,0,1-1.73,0,3,3,0,0,1-.59-1.12,9.35,9.35,0,0,1-.45-2.73,6.65,6.65,0,0,0-.45-2.37,6.13,6.13,0,0,1-.47-1.8,3.08,3.08,0,0,1,.89-2.51A2.12,2.12,0,0,1,45.39,66.11Z"/><rect class="cls-9" x="72.5" y="11" width="4" height="13" rx="2"/><rect class="cls-9" x="72.5" y="11" width="4" height="13" rx="2" transform="translate(92 -57) rotate(90)"/><path class="cls-10" d="M117.66,22.62a13.54,13.54,0,0,1,23.79,8.85"/><polyline class="cls-10" points="139.88 29.91 141.44 31.47 143 29.91"/><g class="cls-11"><path class="cls-12" d="M161.48,66.53s.72,2.93-2.37,5.62l1.22,6H172s-.27-4.43,1.66-5.83c0,0-3.08-1.55-2-7.6"/><path class="cls-13" d="M161.77,67.06s-.25,1.66,3.53,3.45a13.35,13.35,0,0,0,7.46,1.11,5.29,5.29,0,0,1-1.2-2.79,17.14,17.14,0,0,1-.08-4.09"/><path class="cls-12" d="M160,63.35a8.66,8.66,0,0,0,5,6.17,1.82,1.82,0,0,0,1.15.08,10.58,10.58,0,0,0,3.67-1.89A5.19,5.19,0,0,0,171.69,65a7.89,7.89,0,0,0,.27-1.25,2.15,2.15,0,0,0,2.09-.7c.7-1,2.19-4.08.9-5.08,0,0-.65-.65-1.55,1.35l-.1-7.08-12.54-.69-2.1,6.27s-1.09-.5-1.59.4.4,2.49,1.1,3.49S159.16,64.79,160,63.35Z"/><path class="cls-14" d="M164.19,65.14a6,6,0,0,0,4.68-.4s.63-.09-.18.7a3.67,3.67,0,0,1-2.41,1.36c-1.09.13-2.59-1.36-2.59-1.36"/><path class="cls-15" d="M160.89,58.33a5.57,5.57,0,0,1,2.07-.55,2,2,0,0,1,1.14.15,1.28,1.28,0,0,1,.71,1l-.07,0a5,5,0,0,0-.92-.29c-.27-.07-.56-.19-.88-.25a7.62,7.62,0,0,0-2,0Z"/><path class="cls-15" d="M171.63,58.4a7.21,7.21,0,0,0-2,0c-.32,0-.61.18-.88.24a6.06,6.06,0,0,0-.92.3l-.06,0a1.25,1.25,0,0,1,.7-1,1.89,1.89,0,0,1,1.14-.15,5.57,5.57,0,0,1,2.07.55Z"/><path class="cls-16" d="M161.05,59.61a3.75,3.75,0,0,1,3.95,0s-.18,1.28-2.16,1.24S161.05,59.61,161.05,59.61Z"/><path class="cls-16" d="M171.73,59.45a3.73,3.73,0,0,0-3.93.33s.28,1.25,2.26,1S171.73,59.45,171.73,59.45Z"/><circle class="cls-17" cx="169.42" cy="59.76" r="0.7"/><circle class="cls-17" cx="163.1" cy="59.76" r="0.7"/><path class="cls-18" d="M157.41,57a.61.61,0,0,0,.32.44,3,3,0,0,1,1.71,2.5,12.09,12.09,0,0,1,.52-4.81c.8-1.89.89-3.18,2-2.89s4.78.6,5.83.75,1.14.35,1.14.35-.43-1.11.19-.8a5.22,5.22,0,0,1,2.9,2.29,13.71,13.71,0,0,1,1.1,4.68c-.1.5,1.09-2.09,2-1.69,0,0,1.59-7.27-2.59-9.56s-7.07-2.69-9.76-.2a3.32,3.32,0,0,0-3.89,1.79A11,11,0,0,0,157.41,57Z"/><path class="cls-19" d="M165.29,63a2,2,0,0,0,2.49,0"/><path class="cls-20" d="M148.06,66.14a.61.61,0,0,0-.51.67c0,.62,1,.32,1,.32l10.37-1.35a7.74,7.74,0,0,1,2.64-1l2.43-.2s.6-.51-.2-.75l-4.28.65s-1,.4-1.69.6S148.06,66.14,148.06,66.14Z"/><polygon class="cls-21" points="160.61 66.54 160.43 64.74 164.21 64.16 164.49 66.14 160.61 66.54"/><path class="cls-22" d="M150.92,65.78l2.63-.28c.26.3,1-.15,1-.15a2.52,2.52,0,0,0,1.46-.06c.47.3,1.23-.28,1.23-.28.41.32,1.4-.25,1.4-.25A15.33,15.33,0,0,0,156.8,63c-.72-.5-.92.44-.92.44s.14-.24-.35-.64-.91.42-.91.42l-.29-.42c-.4-.5-1.37.42-1.37.42-.67-.67-1.37.22-1.37.22a4.5,4.5,0,0,0-1.12,2.5"/><path class="cls-22" d="M151.84,93.63c-.7,2-3.09,3.58-5.58,5.77s-3.28,2-3.78,1.7A9.68,9.68,0,0,1,139.89,94c.2-3.79,5.18-15.24,7.17-18.43a37.18,37.18,0,0,0,3-5.94,3.28,3.28,0,0,1,0-2.73l8.6-1.12a4.57,4.57,0,0,0-1,1.17c-.3.6,0,2.18-1.79,3.53s-2.2,1.75-2.4,2.65A51.73,51.73,0,0,0,151.59,80c-.5,3.19-.69,10.76-1.79,12.85Z"/><path class="cls-23" d="M153.13,72.49c0-.11,0-.22,0-.32s.06-.36,0-.12,0-.06,0-.11l.06-.32c0-.17.09-.34.14-.51s.13-.29,0-.07,0,0,0-.07.08-.16.13-.24.2-.25,0-.07,0,0,.06,0,.15-.12.19-.18-.25.17,0,0l.2-.12c.28-.15-.31.1,0,0l.22-.07a6.2,6.2,0,0,0,2.21-.81,2.36,2.36,0,0,0,.89-1.72c0-.36,0-.72,0-1.08a1.51,1.51,0,0,0-1.5-1.5,1.53,1.53,0,0,0-1.5,1.5v.55a1.92,1.92,0,0,1,0,.24c0,.12-.05.41,0,0,0,.23.05-.11.11-.19s.34-.31.16-.17l-.08,0,.16-.07-.22.06a8.27,8.27,0,0,0-2.18.75,4.08,4.08,0,0,0-1.65,2,9.2,9.2,0,0,0-.55,2.61,1.53,1.53,0,0,0,.44,1.06,1.56,1.56,0,0,0,1.06.44,1.54,1.54,0,0,0,1.5-1.5Z"/><path class="cls-24" d="M149.8,92.88a23.5,23.5,0,0,1-2.94,3.24L150.12,93"/><path class="cls-25" d="M149.63,93.1a3.64,3.64,0,0,0,2.24,1.4l1.66-2.86-.69,13.44,15.34,3,10.85-4-1.19-12.16.79,1.9L190,91.54,185.11,76.7a4.89,4.89,0,0,0-3.39-2.3C179.33,74,174,72.31,174,72.31s-1.92,2.43-7.76,2.14-7.51-2.53-7.51-2.53l-5.34,1.79a34.94,34.94,0,0,0-1.83,6.94C151.34,83.07,149.51,92.28,149.63,93.1Z"/><path class="cls-22" d="M164.49,89.34s.6-.09.3-1.69,1.79-3.19,1.79-3.19.9.3.3,1.5a8.91,8.91,0,0,0,.21,2.05,17.43,17.43,0,0,0,1,2.93A6.05,6.05,0,0,0,172.46,94c2.19.2,5.68.49,6.47.59l.8.1-.8-1.49,10.56-1.89s1.69,7.07,1.49,8.56.5,2.59-1.39,3.49-7.57.5-11.06-1.1-9.76-5-12.65-5.12c-1.29-.06-5.37-1-5.87-1.55a3.11,3.11,0,0,1-.5-1.69,1.58,1.58,0,0,1-.5-1.2c0-.8.5-.8.5-.8a1.22,1.22,0,0,1-.5-1.59c.5-1,1-1.19.8-1.59a1.06,1.06,0,0,1,.5-1.5c.79-.49,2.69,1.1,2.79,1.2S164.49,89.34,164.49,89.34Z"/><path class="cls-24" d="M179.21,94.66s4.6.86,5.9,2c0,0-1.1-1.5-5.68-2.46l.27.48"/><polyline class="cls-25" points="178.63 93.83 189.8 91.58 189.19 90.44 178.63 92.04"/></g></svg>